<svg xmlns="http://www.w3.org/2000/svg" xmlns:xlink="http://www.w3.org/1999/xlink" width="72" height="72" viewBox="0 0 72 72"><defs><linearGradient id="c" x1="50%" x2="50%" y1="0%" y2="100%"><stop offset="0%" stop-color="#DD4E40"/><stop offset="100%" stop-color="#DF473C"/></linearGradient><rect id="a" width="72" height="72" x="0" y="0" rx="4"/></defs><g fill="none" fill-rule="evenodd"><mask id="b" fill="#fff"><use xlink:href="#a"/></mask><use fill="#0EA25E" xlink:href="#a"/><path fill="#3A8AF8" d="M37 42l28 30H8z" mask="url(#b)"/><path fill="#D3D3D3" d="M51 30l5 9v18L38 41z" mask="url(#b)"/><path fill="#B5B5B5" d="M72 70V14l-15 3-1 41 13 12z" mask="url(#b)"/><path fill="#F1F1F1" d="M61 72h11v-2L40 38l-6 7z" mask="url(#b)"/><path fill="#FFDF46" d="M0 70v2h11l50-50-11-2z" mask="url(#b)"/><g mask="url(#b)"><g transform="translate(40)"><path fill="url(#c)" d="M5.323 4.515c-6.51 6.017-7.661 15.65 0 23.765C14.987 38.52 14.003 54 15.95 54c1.948 0 .977-16.467 10.641-25.72 7.878-7.543 6.514-17.748.002-23.765-6.51-6.02-14.758-6.02-21.27 0z"/><path fill="#802D27" d="M11 17c0-2.765 2.237-5.001 4.996-5.001a4.998 4.998 0 0 1 5.005 5c0 2.764-2.236 5-5.005 5A4.996 4.996 0 0 1 11 17z"/></g></g><path fill="#E8F7F4" d="M16.805 9.272c-.32 0-1.07.018-1.964.178-2.114.378-5.035 1.76-5.862 4.635C7.7 18.533 10.993 20.3 10.993 20.3s1.153.67 1.63.802c1.43.395 2.953.211 2.953.211s-.607 1.99.61 3.395c.29.335.08.347.08.347s-5.32-.136-7.839 2.51c-2.518 2.646-1.153 5.082-1.153 5.082s1.32 3.184 7.015 3.345c5.721.161 9.26-3.192 9.568-5.723.156-1.272-.02-2.464-.664-3.506-.626-1.014-1.703-1.887-2.753-2.738-.653-.528-1.107-.8-1.4-1.104-.277-.287-.323-.657-.313-.934.013-.388.22-.863.906-1.65 1.253-1.436 1.57-1.257 2.328-2.332.226-.322.393-.792.626-1.493.14-.421.117-.858.117-1.265a5.43 5.43 0 0 0-.568-2.423c-.66-1.312-1.792-2.164-1.813-2.229h1.984l2.248-1.302-7.583-.02h-.167zm-1.63 1.22c1.157.008 2.895.601 3.936 3.693 1.787 5.305-1.955 6.115-1.955 6.115s-4.289.653-5.077-4.065c-.803-4.806 1.153-5.066 1.918-5.54 0 0 .484-.208 1.178-.203zm2.37 15.63s3.413 2.07 3.735 3.589c.36 1.7.383 2.94-2.223 4.296-.77.4-2.12.447-2.971.45-2.09.01-3.67-.787-4.45-1.186-.405-.207-2.658-2.71-.99-4.95.42-.563.884-.812 1.316-1.1.92-.61 1.821-.894 3.522-1.041.566-.05 1.32-.008 2.06-.058z" mask="url(#b)"/></g></svg>