<?xml version="1.0" standalone="no"?>
<!DOCTYPE svg PUBLIC "-//W3C//DTD SVG 1.1//EN" "http://www.w3.org/Graphics/SVG/1.1/DTD/svg11.dtd" >
<svg xmlns="http://www.w3.org/2000/svg">
<metadata>
This is a custom SVG webfont generated by Font Squirrel.
Copyright   :  1990 2001 2002 Adobe Systems Incorporated All rights reserved
Designer    : Ed Benguiat
Foundry URL : httpwwwadobecomtype
</metadata>
<defs>
<font id="ITCBookmanStdMedium" horiz-adv-x="1253" >
<font-face units-per-em="2048" ascent="1413" descent="-635" />
<missing-glyph horiz-adv-x="626" />
<glyph unicode=" "  horiz-adv-x="626" />
<glyph unicode="&#x09;" horiz-adv-x="626" />
<glyph unicode="&#xa0;" horiz-adv-x="626" />
<glyph unicode="!" horiz-adv-x="684" d="M168 1208q0 213 174 213t174 -213q0 -47 -57.5 -323.5t-57.5 -413.5v-74h-118v74q0 137 -57.5 413.5t-57.5 323.5zM186 143.5q0 65.5 46.5 110.5t110 45t109.5 -45t46 -110.5t-46 -110.5t-109.5 -45t-110 45t-46.5 110.5z" />
<glyph unicode="&#x22;" horiz-adv-x="1024" d="M242 1292q0 61 20.5 95t75.5 34t75.5 -33.5t20.5 -95.5q0 -25 -8 -98l-35 -272q-8 -55 -53 -55.5t-53 55.5l-35 272q-8 73 -8 98zM590 1292q0 61 20.5 95t75.5 34t75.5 -33.5t20.5 -95.5q0 -25 -8 -98l-35 -272q-8 -55 -53 -55.5t-53 55.5l-35 272q-8 73 -8 98z" />
<glyph unicode="#" d="M115 397v156h215l39 274h-195v156h215l55 397h160l-55 -397h235l56 397h159l-55 -397h195v-156h-215l-39 -274h194v-156h-215l-55 -397h-160l56 397h-236l-55 -397h-160l55 397h-194zM489 553h236l39 274h-236z" />
<glyph unicode="$" d="M80 369q0 82 40 129t105 47q55 0 92 -39t37 -103q0 -20 -6 -62t-6 -52q0 -68 83 -101.5t202 -33.5q168 0 251 66.5t83 158.5q0 80 -52.5 124t-193.5 72l-281 58q-178 37 -249.5 119t-71.5 200q0 150 113.5 262.5t336.5 116.5v205h119v-205q172 -18 298 -100t126 -211 q0 -51 -29.5 -90t-85.5 -39q-68 0 -101.5 32.5t-33.5 86.5q0 14 3 43.5t3 42.5q0 63 -77.5 102t-188.5 39q-113 0 -185.5 -51t-72.5 -146q0 -86 42 -132t169 -70l229 -45q211 -41 303.5 -119t92.5 -232q0 -125 -77 -215t-182.5 -130t-232.5 -50v-233h-119v233 q-201 2 -342 97.5t-141 224.5z" />
<glyph unicode="%" horiz-adv-x="1630" d="M72 1046.5q0 163.5 97 259t246.5 95.5t247 -95.5t97.5 -259t-97.5 -260t-247 -96.5t-246.5 96.5t-97 260zM264 1047q0 -262 151.5 -262.5t151.5 262.5q0 260 -151.5 260t-151.5 -260zM287 -20l917 1421h137l-917 -1421h-137zM870 336q0 164 97.5 259t247 95t247 -95 t97.5 -259t-97.5 -260t-247 -96t-247 96t-97.5 260zM1063 336q0 -262 151.5 -262t151.5 262q0 260 -151.5 260t-151.5 -260z" />
<glyph unicode="&#x26;" horiz-adv-x="1705" d="M106 395q0 141 84 247t259 159q-63 57 -99.5 136t-36.5 144q0 152 104.5 240t264.5 88q158 0 250 -79t92 -208q0 -102 -62.5 -183t-164.5 -124q158 -145 305 -362q41 51 68.5 142t27.5 142q0 59 -37 87t-110 36v107h524v-107q-121 -14 -157 -41.5t-62 -120.5 q-45 -158 -81 -239.5t-83 -132.5q117 -195 303 -195q51 0 104 8v-119q-121 -20 -243 -20q-221 0 -340 129q-193 -156 -412 -156t-358.5 124t-139.5 298zM393 424q0 -141 71 -224t189 -83q158 0 277 123q-205 334 -375 467q-86 -41 -124 -102.5t-38 -180.5zM575 1141 q0 -137 117 -230q139 80 139 222q0 66 -38.5 99.5t-90.5 33.5q-59 0 -93 -38t-34 -87z" />
<glyph unicode="'" horiz-adv-x="569" d="M188 1292q0 61 20.5 95t76 34t76 -33.5t20.5 -95.5q0 -25 -8 -98l-35 -272q-8 -55 -53 -55.5t-54 55.5l-34 272q-9 73 -9 98z" />
<glyph unicode="(" horiz-adv-x="681" d="M170 238v604q0 160 42 278.5t107.5 178t128 87t117.5 27.5v-106q-61 -16 -105 -73.5t-63.5 -137.5t-27 -148.5t-7.5 -140.5v-477q0 -102 7.5 -181t27 -166t62.5 -145.5t106 -81.5v-112q-41 4 -87 21.5t-103.5 61.5t-100.5 105.5t-73.5 168t-30.5 237.5z" />
<glyph unicode=")" horiz-adv-x="681" d="M117 1300v113q41 -4 87 -21.5t103.5 -61.5t100.5 -105.5t73.5 -168t30.5 -237.5v-604q0 -160 -42 -278.5t-107.5 -178t-128 -87t-117.5 -27.5v106q61 16 105 73.5t63.5 137.5t26.5 148.5t7 140.5v477q0 102 -7 181t-26.5 166t-62.5 145t-106 81z" />
<glyph unicode="*" horiz-adv-x="1138" d="M190 1169q0 31 27 61t62 30q51 0 91 -37t109 -133q23 29 60 32q-66 147 -66 199q0 41 26.5 70.5t69.5 29.5t70 -29.5t27 -70.5q0 -51 -66 -199q37 -4 59 -32q70 96 110 133t91 37q35 0 61.5 -30t26.5 -61q0 -47 -38 -75.5t-69.5 -35.5t-117.5 -20l-35 -6q6 -16 6 -32.5 t-6 -32.5q160 -25 199 -43q61 -31 61 -95q0 -31 -26.5 -60.5t-61.5 -29.5q-51 0 -91 37t-110 133q-23 -29 -59 -32q66 -147 66 -199q0 -41 -27 -70.5t-70 -29.5t-69.5 29.5t-26.5 70.5q0 51 66 199q-37 4 -60 32q-70 -96 -109.5 -133t-90.5 -37q-35 0 -62 30t-27 60 q0 47 38 76t70 36t118 20l35 6q-6 16 -6.5 32.5t6.5 32.5q-160 25 -199 43q-62 31 -62 94z" />
<glyph unicode="+" horiz-adv-x="1228" d="M96 428v180h428v428h181v-428h428v-180h-428v-428h-181v428h-428z" />
<glyph unicode="," horiz-adv-x="626" d="M158 143q0 66 46 111t109 45q66 0 111 -49t45 -139q0 -96 -49 -178.5t-166 -174.5l-59 66q98 90 135 188q-29 -12 -47 -12q-59 0 -92 40t-33 103z" />
<glyph unicode="-" horiz-adv-x="681" d="M41 434l88 213h512l-88 -213h-512z" />
<glyph unicode="." horiz-adv-x="626" d="M158 143.5q0 65.5 46 110.5t109.5 45t109.5 -45t46 -110.5t-46 -110.5t-109.5 -45t-109.5 45t-46 110.5z" />
<glyph unicode="/" horiz-adv-x="569" d="M-45 -27l479 1448h180l-479 -1448h-180z" />
<glyph unicode="0" d="M80 690q0 326 143.5 518.5t403.5 192.5q256 0 401.5 -202t145.5 -509q0 -303 -146.5 -506.5t-400.5 -203.5q-260 0 -403.5 189t-143.5 521zM354 690q0 -125 8.5 -211t35 -175t84 -135t145.5 -46q94 0 157.5 82t89 204.5t25.5 280.5q0 125 -8 211t-35 175t-84 135t-145 46 t-145.5 -46t-84 -135t-35 -175t-8.5 -211z" />
<glyph unicode="1" d="M227 1217v106q268 6 471 78h66v-1135q0 -74 53 -110.5t203 -36.5h35v-119h-817v119h32q135 0 177 34.5t42 127.5v751q0 117 -39 144t-223 41z" />
<glyph unicode="2" d="M90 989q0 168 134 290t354 122q84 0 165.5 -21.5t157.5 -67.5t123 -131t47 -200q0 -293 -463 -602l-241 -162v-4h292q137 0 211 25.5t102.5 67.5t55.5 130l119 -24l-103 -412h-915l-23 184l279 207q399 297 399 621q0 258 -247 258q-113 0 -183.5 -47t-70.5 -107 q0 -35 28.5 -75t28.5 -85q0 -61 -35 -95t-86 -34q-55 0 -92 43t-37 119z" />
<glyph unicode="3" d="M109 299q0 76 34.5 121t92.5 47h5q46 0 77 -32q34 -34 34 -91q0 -27 -9 -55.5t-9 -38.5q0 -68 76.5 -103.5t156.5 -35.5q164 0 233.5 82.5t69.5 193.5q0 156 -67.5 217.5t-173.5 71.5l-129 12v125h73q121 0 186.5 66.5t65.5 185.5q0 104 -62.5 154.5t-162.5 50.5 q-86 0 -156.5 -33t-70.5 -96q0 -14 12 -49t12 -70q0 -117 -131 -117q-55 0 -87 39t-32 96q0 162 128 261.5t327 99.5q227 0 350 -102.5t123 -247.5q0 -242 -313 -301v-5q160 -2 271.5 -84.5t111.5 -246.5q0 -49 -12.5 -100.5t-49 -113t-95 -109.5t-162 -79.5t-236.5 -31.5 q-233 0 -357 95t-124 224z" />
<glyph unicode="4" d="M49 471q580 778 656 909h225v-882h274l-53 -144h-221v-102q0 -66 34.5 -95.5t137.5 -37.5v-119h-594v119q102 8 137 37.5t35 95.5v102h-576zM231 498h449v637h-4q-70 -135 -166.5 -270.5t-278.5 -366.5z" />
<glyph unicode="5" d="M102 285q0 78 38 116.5t93 38.5q61 0 96.5 -35.5t35.5 -101.5q0 -16 -6.5 -45t-6.5 -39q0 -39 50.5 -73.5t150.5 -34.5q137 0 224 87t87 259q0 180 -82 263t-207 83q-203 0 -315 -195l-98 25v747h518q125 0 164 16.5t74 69.5h106l-41 -299h-678v-338q147 117 344 117 q53 0 110.5 -9t130.5 -40t128 -79t94 -135t39 -200q0 -127 -49 -227t-133 -158.5t-183.5 -88t-210.5 -29.5q-205 0 -339 88t-134 217z" />
<glyph unicode="6" d="M88 668q0 352 159 542.5t429 190.5q184 0 302 -81t118 -196q0 -55 -29 -89t-78 -34q-63 0 -97 40t-34 108q0 121 -172 121q-100 0 -168.5 -39t-103.5 -116t-49.5 -166t-14.5 -212h4q119 150 332 150q86 0 168 -24.5t153.5 -74t114.5 -135.5t43 -194q0 -186 -144 -332.5 t-384 -146.5q-297 0 -423 181t-126 507zM362 418q0 -307 263 -307q131 0 210.5 84t79.5 235q0 150 -72.5 231.5t-201.5 81.5q-131 0 -205 -79.5t-74 -245.5z" />
<glyph unicode="7" d="M72 983l63 397h989l33 -155l-67 -88q-193 -252 -312 -553t-129 -584h-311q18 233 161.5 513t391.5 570l72 84h-486q-143 0 -202.5 -36.5t-96.5 -169.5z" />
<glyph unicode="8" d="M70 354q0 125 88 215t211 113v4q-98 37 -161 119t-63 186q0 188 141.5 299t346.5 111q199 0 335 -89t136 -249q0 -88 -45 -156.5t-170 -132.5q139 -43 217 -118.5t78 -206.5q0 -201 -148.5 -335t-453.5 -134q-139 0 -244 36.5t-160 95t-81.5 120t-26.5 122.5zM283 362 q0 -129 95 -190t214 -61q195 0 287 61t92 163.5t-101.5 163t-365.5 138.5q-221 -64 -221 -275zM371 1073q0 -61 73.5 -116.5t143 -82t141.5 -45.5q94 35 144.5 86.5t50.5 139.5q0 104 -78 159.5t-203 55.5t-198.5 -51.5t-73.5 -145.5z" />
<glyph unicode="9" d="M88 922q0 121 52 226t174 179t294 74q131 0 231.5 -42t161 -108.5t98.5 -162t52 -189.5t14 -205q0 -338 -163.5 -526t-450.5 -188q-188 0 -290.5 74.5t-102.5 174.5q0 57 31.5 90t82.5 33q59 0 90 -33.5t46 -111.5q8 -51 37.5 -67.5t109.5 -16.5q88 0 151.5 27.5 t100.5 70.5t58.5 114t28.5 140.5t9 167.5h-4q-53 -68 -145 -108.5t-197 -40.5q-113 0 -215 40.5t-178 142.5t-76 245zM338 950q0 -152 70.5 -232.5t203.5 -80.5q127 0 202 83t75 230q0 156 -70.5 238t-206.5 82q-274 -1 -274 -320z" />
<glyph unicode=":" horiz-adv-x="626" d="M158 143.5q0 65.5 46 110.5t109.5 45t109.5 -45t46 -110.5t-46 -110.5t-109.5 -45t-109.5 45t-46 110.5zM158 747.5q0 63.5 46 109.5t109.5 46t109.5 -46t46 -109.5t-46 -109.5t-109.5 -46t-109.5 46t-46 109.5z" />
<glyph unicode=";" horiz-adv-x="626" d="M158 143q0 66 46 111t109 45q66 0 111 -49t45 -139q0 -96 -49 -178.5t-166 -174.5l-59 66q98 90 135 188q-29 -12 -47 -12q-59 0 -92 40t-33 103zM158 747.5q0 63.5 46 109.5t109.5 46t109.5 -46t46 -109.5t-46 -109.5t-109.5 -46t-109.5 46t-46 109.5z" />
<glyph unicode="&#x3c;" horiz-adv-x="1228" d="M96 440v156l1037 457v-181l-799 -354l799 -354v-180z" />
<glyph unicode="=" horiz-adv-x="1228" d="M96 219v180h1037v-180h-1037zM96 637v180h1037v-180h-1037z" />
<glyph unicode="&#x3e;" horiz-adv-x="1228" d="M96 -16v180l799 354l-799 354v181l1037 -457v-156z" />
<glyph unicode="?" horiz-adv-x="1251" d="M98 1067q0 137 139.5 245.5t380.5 108.5q86 0 171 -18.5t171.5 -59t139.5 -122.5t53 -193q0 -51 -10 -95t-40 -97.5t-95.5 -102.5t-163.5 -88q-84 -33 -114 -83t-42 -165h-143v43q0 109 13 165t41 89t97 82q96 70 127 123t31 137q0 129 -72.5 191.5t-187.5 62.5 q-98 0 -166 -36.5t-68 -94.5q0 -31 12.5 -71.5t12.5 -69.5q0 -59 -39 -90t-94 -31q-78 0 -116 51t-38 119zM461 143.5q0 65.5 46 110.5t109.5 45t109.5 -45t46 -110.5t-46 -110.5t-109.5 -45t-109.5 45t-46 110.5z" />
<glyph unicode="@" horiz-adv-x="1638" d="M96 696q0 303 217 514t539 211q121 0 240.5 -40t222 -113.5t165 -194.5t62.5 -270q0 -113 -44 -224.5t-136 -193.5t-211 -82q-88 0 -137 56.5t-49 93.5h-4q-16 -39 -93 -93.5t-153 -54.5q-70 0 -133.5 57.5t-63.5 200.5q0 66 26.5 150t74 166t130 138t181.5 56 q117 0 147 -104h4l19 75h153l-127 -507q-6 -25 -6 -56q0 -96 66 -96q92 0 164.5 136t72.5 280q0 193 -159.5 353.5t-411.5 160.5q-215 0 -379 -174t-164 -498q0 -223 169 -387t403 -164q211 0 411 98l25 -92q-152 -76 -253 -100.5t-245 -24.5q-299 0 -511 212t-212 511z M686 588q0 -82 34 -129t81 -47q96 0 165.5 147.5t69.5 292.5q0 115 -84 115t-175 -110.5t-91 -268.5z" />
<glyph unicode="A" horiz-adv-x="1478" d="M-35 0v119q78 20 119 63t92 162l451 1069h237l451 -1114q41 -100 78 -135t120 -45v-119h-630v119q180 6 180 63q0 20 -25 84l-98 250h-516l-76 -194q-31 -76 -31 -117q0 -72 158 -86v-119h-510zM477 647h414l-207 529z" />
<glyph unicode="B" horiz-adv-x="1478" d="M29 0v119q92 4 134 40t42 113v850q0 78 -42 114t-134 40v119h768q113 0 199.5 -14.5t161.5 -49.5t116 -102.5t41 -163.5q0 -111 -63.5 -185.5t-143.5 -101.5l-49 -16v-4l39 -8q287 -59 286 -332q0 -418 -569 -418h-786zM479 270q0 -88 44 -113.5t179 -25.5q195 0 289 82 t94 217q0 254 -292 254h-314v-414zM479 815h203q358 0 358 219q0 113 -75.5 171.5t-259.5 58.5q-150 0 -188 -28t-38 -116v-305z" />
<glyph unicode="C" horiz-adv-x="1478" d="M84 698q0 301 186.5 512t477.5 211q188 0 348 -106v4l37 76h102l131 -463l-117 -35q-86 195 -213 290t-260 95q-182 0 -287.5 -156.5t-105.5 -427.5q0 -254 115.5 -417.5t304.5 -163.5q297 0 473 299l119 -58q-90 -190 -247 -287.5t-351 -97.5q-324 0 -518.5 210 t-194.5 515z" />
<glyph unicode="D" horiz-adv-x="1593" d="M53 0v119q92 4 134 40t42 113v850q0 78 -42 114t-134 40v119h750q145 0 264 -38t192.5 -101.5t126 -136t78 -155.5t35.5 -146.5t10 -119.5q0 -78 -13 -157.5t-58 -181t-118 -177.5t-204 -129t-303 -53h-760zM504 1116v-866q0 -45 10 -66.5t57.5 -37t145.5 -15.5 q100 0 184 28.5t155.5 93t112.5 184.5t41 286q0 229 -123.5 385t-377.5 156q-135 0 -170 -27t-35 -121z" />
<glyph unicode="E" horiz-adv-x="1478" d="M53 119q92 4 134 40t42 113v850q0 78 -42 114t-134 40v119h1098l188 -404l-104 -53q-193 313 -565 313q-96 0 -131 -24.5t-35 -98.5v-294h121q104 0 140 53t46 198h107v-651h-107q-16 152 -59 204t-166 52h-82v-434q0 -76 37 -100.5t151 -24.5q184 0 326.5 83t277.5 306 l109 -51l-211 -469h-1141v119z" />
<glyph unicode="F" horiz-adv-x="1251" d="M53 0v119q92 4 134 40t42 113v850q0 78 -42 114t-134 40v119h1061l180 -402l-102 -49l-53 76q-162 231 -471 231q-94 0 -129 -28.5t-35 -114.5v-274h121q104 0 140 53t46 198h107v-651h-107q-16 152 -59 204t-166 52h-82v-418q0 -78 42 -113.5t134 -39.5v-119h-627z" />
<glyph unicode="G" horiz-adv-x="1593" d="M84 698q0 301 186.5 512t477.5 211q188 0 348 -106l37 80h102l131 -467l-117 -35q-86 195 -213 290t-260 95q-182 0 -287.5 -156.5t-105.5 -427.5q0 -295 119 -436t295 -141q152 0 247 76.5t95 218.5q0 78 -40 118.5t-134 53.5v118h589v-118q-90 -12 -121.5 -48 t-31.5 -124v-412h-152l-55 143q-182 -170 -446 -170q-305 0 -484.5 210t-179.5 515z" />
<glyph unicode="H" horiz-adv-x="1593" d="M53 0v119q92 4 134 40t42 113v850q0 78 -42 114t-134 40v119h627v-119q-92 -4 -134 -40t-42 -114v-288h586v288q0 78 -42 114t-135 40v119h627v-119q-92 -4 -134 -40t-42 -114v-850q0 -78 42 -113.5t134 -39.5v-119h-627v119q92 4 134.5 40t42.5 113v430h-586v-430 q0 -78 42 -113.5t134 -39.5v-119h-627z" />
<glyph unicode="I" horiz-adv-x="684" d="M29 0v119q92 4 134 40t42 113v850q0 78 -42 114t-134 40v119h626v-119q-92 -4 -134 -40t-42 -114v-850q0 -78 42 -113.5t134 -39.5v-119h-626z" />
<glyph unicode="J" horiz-adv-x="1251" d="M-25 373q0 84 49.5 145.5t145.5 61.5q61 0 98 -38t37 -98q0 -53 -33.5 -98t-33.5 -70q0 -66 65.5 -106.5t155.5 -40.5q166 0 231.5 70.5t65.5 199.5v697q0 104 -45 140t-168 40v119h663v-119q-92 -4 -134 -38t-42 -101v-727q0 -199 -117 -310q-53 -51 -165.5 -89 t-245.5 -38q-256 0 -391.5 122t-135.5 278z" />
<glyph unicode="K" horiz-adv-x="1593" d="M53 0v119q92 4 134 40t42 113v850q0 78 -42 114t-134 40v119h656v-119q-123 -4 -164 -37t-41 -131v-365l414 367q70 63 69 100q0 55 -151 66v119h659v-119q-199 -12 -465 -248l-147 -131l307 -424q84 -117 124 -168t91 -99t93 -64.5t106 -22.5v-119h-744v119 q102 4 143 20.5t41 50.5q0 23 -24 60l-332 475l-184 -162v-262q0 -106 47 -144t154 -38v-119h-652z" />
<glyph unicode="L" horiz-adv-x="1366" d="M53 119q92 4 134 40t42 113v850q0 78 -42 114t-134 40v119h656v-119q-123 -4 -164 -37t-41 -131v-836q0 -72 26.5 -100.5t112.5 -28.5q190 0 330.5 79t265.5 290l117 -45l-217 -467h-1086v119z" />
<glyph unicode="M" horiz-adv-x="1820" d="M53 0v119q92 4 134 40t42 113v850q0 78 -42 114t-134 40v119h563l289 -944h4l316 944h542v-119q-92 -4 -134 -40t-42 -114v-850q0 -78 42 -113.5t134 -39.5v-119h-651v119q137 16 169 48t32 150v922h-4l-410 -1239h-131l-383 1239h-4v-967q0 -78 42 -113.5t134 -39.5 v-119h-508z" />
<glyph unicode="N" horiz-adv-x="1478" d="M53 0v119q92 4 134 40t42 113v850q0 78 -42 114t-134 40v119h506l531 -946h4v673q0 78 -42 114t-134 40v119h507v-119q-92 -4 -134 -40t-42 -114v-1122h-180l-680 1180h-4v-908q0 -78 42 -113.5t134 -39.5v-119h-508z" />
<glyph unicode="O" horiz-adv-x="1593" d="M84 696q0 305 194.5 515t518 210t518 -210t194.5 -515t-194.5 -514t-518 -209t-518 209t-194.5 514zM383 696q0 -254 113.5 -416.5t300 -162.5t300 162.5t113.5 416.5q0 272 -111.5 427t-302 155t-302 -155t-111.5 -427z" />
<glyph unicode="P" horiz-adv-x="1366" d="M53 0v119q92 4 134 40t42 113v850q0 78 -42 114t-134 40v119h645q141 0 243.5 -19.5t184.5 -65.5t123 -130t41 -205q0 -178 -136 -276.5t-419 -98.5h-231v-328q0 -78 42 -113.5t134 -39.5v-119h-627zM504 737q55 -6 108 -6q227 0 309.5 67.5t82.5 209.5q0 256 -312 256 q-111 0 -149.5 -33t-38.5 -96v-398z" />
<glyph unicode="Q" horiz-adv-x="1593" d="M84 696q0 305 194.5 515t518 210t518 -210t194.5 -515q0 -254 -133 -436q96 -102 97 -235q0 -176 -198 -317.5t-532 -141.5q-154 0 -295 32.5t-242.5 107.5t-101.5 177q0 57 37 90t97 33q139 0 153 -158q12 -127 307 -127q229 0 358.5 73t129.5 196q0 41 -19 78 q-162 -94 -370 -95q-324 0 -518.5 209t-194.5 514zM383 696q0 -168 52 -301t147 -207l4 5q-16 45 -17 67q0 96 82 146.5t219 50.5q152 0 289 -54q51 131 51 293q0 272 -111.5 427t-302 155t-302 -155t-111.5 -427zM688 196.5q0 -79.5 109 -79.5q53 0 123.5 26.5t117.5 71.5 q-102 61 -215 61q-135 0 -135 -79.5z" />
<glyph unicode="R" horiz-adv-x="1478" d="M53 0v119q92 4 134 40t42 113v850q0 78 -42 114t-134 40v119h762q502 0 502 -365q0 -147 -94.5 -243.5t-245.5 -127.5l299 -403q55 -72 92 -98.5t115 -38.5v-119h-373l-448 635h-158v-363q0 -78 42 -113.5t134 -39.5v-119h-627zM504 1128v-362h135q209 0 294 58.5 t85 195.5q0 244 -311 244q-131 0 -167 -25t-36 -111z" />
<glyph unicode="S" horiz-adv-x="1366" d="M72 504l108 43q113 -225 260.5 -327.5t294.5 -102.5q119 0 208 66.5t89 176.5q0 84 -51 127t-180 78l-324 86q-111 29 -184.5 73t-106 97t-44 97.5t-11.5 99.5q0 166 122 284.5t339 118.5q213 0 356 -96l33 70h102l129 -408l-114 -35q-80 166 -214 246t-263 80 q-102 0 -165 -51t-63 -140q0 -133 164 -174l375 -96q186 -47 274 -132t88 -234q0 -205 -148.5 -341.5t-410.5 -136.5q-111 0 -224.5 32t-152.5 77l-30 -82h-101z" />
<glyph unicode="T" horiz-adv-x="1368" d="M10 1018l133 377h1082l133 -377l-101 -49l-26 49q-63 117 -157.5 181.5t-178.5 64.5q-43 0 -58.5 -11.5t-15.5 -52.5v-913q0 -98 41 -131t164 -37v-119h-684v119q123 4 164 36.5t41 131.5v913q0 41 -15.5 52.5t-58.5 11.5q-84 0 -178 -64.5t-158 -181.5l-26 -49z" />
<glyph unicode="U" horiz-adv-x="1478" d="M29 1276v119h614h12v-119q-92 -4 -134 -40t-42 -114v-682q0 -311 316 -311q94 0 158.5 21.5t99 52t52 86t21.5 100.5t4 119v614q0 78 -41.5 114t-134.5 40v119h496v-119q-92 -4 -134 -40t-42 -114v-702q0 -446 -537 -447q-256 0 -394 110t-138 308v731q0 78 -42 114 t-134 40z" />
<glyph unicode="V" horiz-adv-x="1366" d="M-31 1276v119h621v-119q-102 -4 -130 -21.5t-28 -58.5q0 -35 23 -94l305 -828l289 791q20 59 20 104q0 49 -31.5 74t-124.5 33v119h484v-119q-63 -10 -105.5 -49t-79.5 -135l-419 -1104h-199l-408 1087q-43 111 -83 149t-134 52z" />
<glyph unicode="W" horiz-adv-x="1933" d="M-10 1276v119h561v-119q-125 -2 -125 -68q0 -31 27 -114l233 -760h4l211 639l-29 96q-35 117 -87 158t-121 49v119h577v-119q-137 -2 -137 -70q0 -18 29 -110l239 -748h4l213 727q18 61 19 105q0 47 -36 68.5t-112 27.5v119h484v-119q-92 -20 -131 -68.5t-84 -183.5 l-336 -1036h-168l-254 800h-4l-256 -800h-168l-371 1124q-31 92 -67.5 123t-114.5 41z" />
<glyph unicode="X" horiz-adv-x="1478" d="M-8 0v119q154 31 276 188l322 412l-328 452q-70 92 -186 105v119h631v-119q-129 -8 -129 -47q0 -29 59 -111l176 -241l170 219q55 70 55 116q0 31 -26.5 44.5t-91.5 19.5v119h536v-119q-188 -43 -326 -219l-239 -305l350 -471q113 -154 246 -162v-119h-680v119 q154 16 154 63q0 25 -29 64l-258 360l-211 -276q-55 -72 -55 -125q0 -39 29.5 -59.5t113.5 -26.5v-119h-559z" />
<glyph unicode="Y" horiz-adv-x="1366" d="M-8 1276v119h616v-119q-143 0 -143 -53q0 -29 45 -103l215 -354l233 371q29 45 29 73.5t-25.5 41t-107.5 24.5v119h520v-119q-96 -10 -155.5 -57.5t-145.5 -176.5l-285 -426v-342q0 -86 38 -117.5t157 -37.5v-119h-692v119q152 20 187.5 49t35.5 141v316l-301 495 q-84 138 -221 156z" />
<glyph unicode="Z" horiz-adv-x="1366" d="M53 100l862 1164h-231q-338 0 -508 -320l-108 43l184 408h983l31 -95l-867 -1169h164q242 0 389.5 69.5t247.5 270.5l113 -33l-172 -438h-1059z" />
<glyph unicode="[" horiz-adv-x="681" d="M182 -338v1733h338v-119h-37q-84 0 -102.5 -13.5t-18.5 -70.5v-1327q0 -57 18.5 -70.5t102.5 -13.5h37v-119h-338z" />
<glyph unicode="\" horiz-adv-x="569" d="M-45 1421h180l479 -1448h-180z" />
<glyph unicode="]" horiz-adv-x="681" d="M162 -219h37q84 0 102 13t18 71v1327q0 57 -18 70.5t-102 13.5h-37v119h338v-1733h-338v119z" />
<glyph unicode="^" horiz-adv-x="1228" d="M168 633l362 747h168l363 -747h-180l-267 555l-266 -555h-180z" />
<glyph unicode="_" horiz-adv-x="1024" d="M0 -154h1024v-102h-1024v102z" />
<glyph unicode="`" horiz-adv-x="684" d="M16 1409q0 45 27 68.5t63 23.5q72 0 119 -57l279 -324h-113l-303 187q-72 45 -72 102z" />
<glyph unicode="a" horiz-adv-x="1138" d="M59 233q0 162 156 252t467 121v133q0 90 -39 128t-141 38q-70 0 -118 -30.5t-52 -77.5q-8 -86 -34 -117t-81 -31t-83 35t-28 78q0 117 117 189.5t307 72.5q213 0 307.5 -73.5t94.5 -233.5v-514q0 -80 65 -80q45 0 84 39l68 -72q-84 -111 -244 -110q-156 0 -207 129 q-168 -129 -342 -129q-139 0 -218 75.5t-79 177.5zM309 270q0 -135 154 -135q127 0 219 82v283q-373 -37 -373 -230z" />
<glyph unicode="b" horiz-adv-x="1251" d="M61 1227v119q168 10 304 67h102v-465q49 33 125 54.5t133 21.5q84 0 157.5 -25.5t141.5 -82t107.5 -167t39.5 -262.5q0 -217 -119.5 -362t-320.5 -145q-207 0 -295 106l-26 -86h-193v1118q0 61 -28 82t-128 27zM467 213q27 -39 84 -64.5t117 -25.5q131 0 192.5 105.5 t61.5 273.5t-61.5 273.5t-192.5 105.5q-59 0 -116.5 -26t-84.5 -64v-578z" />
<glyph unicode="c" horiz-adv-x="1138" d="M80 514q0 240 151.5 375t380.5 135q176 0 297 -72.5t121 -206.5q0 -57 -32.5 -92t-92.5 -35q-57 0 -91 32t-34 83q0 12 3 36t3 34q0 45 -59 73.5t-137 28.5q-236 0 -236 -413q0 -186 79 -283.5t231 -97.5q106 0 197 52t126 132l109 -51q-152 -264 -502 -264 q-236 0 -375 153.5t-139 380.5z" />
<glyph unicode="d" horiz-adv-x="1251" d="M61 504q0 215 116 367.5t341 152.5q166 0 281 -90v168q0 72 -35 97.5t-148 27.5v119q225 10 330 67h103v-1159q0 -68 31.5 -100.5t123.5 -34.5v-119h-393v76q-135 -96 -293 -96q-223 0 -340 151.5t-117 372.5zM324 496q0 -61 11 -121t36.5 -119t76 -96t117.5 -37 q66 0 136.5 26.5t97.5 61.5v573q-18 35 -81 66t-120 31q-274 0 -274 -385z" />
<glyph unicode="e" horiz-adv-x="1138" d="M80 514q0 238 149.5 374t362.5 136q205 0 334 -112.5t129 -338.5h-695q-6 -31 -6 -81q0 -166 71 -273.5t222 -107.5q225 0 330 198l100 -47q-129 -283 -483 -282q-3 0 -6 -1q-231 0 -369 153q-139 155 -139 382zM373 692h407v31q0 76 -47 129t-141 53t-151.5 -58.5 t-67.5 -154.5z" />
<glyph unicode="f" horiz-adv-x="681" d="M61 0v119q92 2 124 34.5t32 100.5v604h-156v131h156v51q0 164 103.5 258.5t281.5 94.5q96 0 155.5 -34t59.5 -102q0 -41 -24.5 -68.5t-65.5 -27.5q-53 0 -98 50.5t-80 50.5q-82 0 -82 -140v-133h164v-131h-164v-604q0 -68 31.5 -100.5t124.5 -34.5v-119h-562z" />
<glyph unicode="g" horiz-adv-x="1138" d="M27 -246q0 143 168 197q-76 35 -105 81t-29 111q0 90 58.5 156t148.5 84q-145 125 -145 283q0 174 127 266t280 92q51 0 123 -10q51 -10 67.5 -10t31.5 26q76 150 229 150q53 0 84 -26t31 -75q0 -92 -92 -92q-20 0 -62 8q-37 8 -53 9q-25 0 -51.5 -13.5t-34.5 -32.5 q76 -45 120 -123.5t44 -170.5q0 -147 -113 -254t-313 -107q-113 0 -189 31q-33 -4 -55.5 -26.5t-22.5 -57.5q0 -41 38 -64.5t149 -29.5l295 -21q154 -12 236.5 -73.5t82.5 -192.5q0 -96 -47 -167t-128 -109.5t-174 -57t-200 -18.5q-90 0 -172 11t-158.5 35.5t-122.5 73.5 t-46 117zM170 -215q0 -76 95 -113t235 -37q362 0 362 156q0 53 -42 76.5t-165 32.5l-229 16q-23 2 -62.5 8t-50.5 6q-53 0 -98 -46t-45 -99zM360 664q0 -127 50.5 -190.5t134.5 -63.5t134 63.5t50 190.5q0 254 -184.5 254t-184.5 -254z" />
<glyph unicode="h" horiz-adv-x="1363" d="M74 0v119q92 2 123.5 34.5t31.5 100.5v864q0 61 -27.5 82t-127.5 27v119q168 10 303 67h102v-512q156 123 355 123q129 0 215 -66.5t86 -216.5v-487q0 -68 31.5 -100.5t123.5 -34.5v-119h-530v119q70 12 97.5 36.5t27.5 88.5v475q0 92 -33 127t-96 35q-143 0 -277 -119 v-508q0 -68 32 -100.5t124 -34.5v-119h-561z" />
<glyph unicode="i" horiz-adv-x="684" d="M61 0v119q92 2 124 34.5t32 100.5v455q0 61 -27.5 81.5t-128.5 26.5v119q168 10 304 68h102v-750q0 -68 31.5 -100.5t124.5 -34.5v-119h-562zM209 1277.5q0 65.5 45 111t110.5 45.5t110.5 -45.5t45 -111t-45 -110.5t-110.5 -45t-110.5 45t-45 110.5z" />
<glyph unicode="j" horiz-adv-x="684" d="M-188 -340q0 49 29.5 74.5t78.5 25.5q51 0 97 -50t98 -50q102 0 102 129v920q0 61 -27.5 81.5t-128.5 26.5v119q168 10 304 68h102v-1145q0 -88 -44 -158t-113.5 -107.5t-142.5 -57t-142 -19.5q-90 0 -151.5 35.5t-61.5 107.5zM209 1277.5q0 65.5 45 111t110.5 45.5 t110.5 -45.5t45 -111t-45 -110.5t-110.5 -45t-110.5 45t-45 110.5z" />
<glyph unicode="k" horiz-adv-x="1366" d="M61 0v119q92 2 124 34.5t32 100.5v864q0 61 -27.5 82t-128.5 27v119q168 10 304 67h102v-821l262 188q47 35 47 60q0 18 -25.5 27.5t-97.5 17.5v119h531v-119q-78 -6 -132.5 -28.5t-136.5 -84.5l-135 -100l289 -436q35 -51 85 -84t91 -33h23v-119h-539v119q84 6 84 53 q0 25 -47 94l-178 266l-121 -96v-182q0 -68 31.5 -100.5t124.5 -34.5v-119h-562z" />
<glyph unicode="l" horiz-adv-x="684" d="M61 0v119q92 2 124 34.5t32 100.5v864q0 61 -27.5 82t-128.5 27v119q168 10 304 67h102v-1159q0 -68 31.5 -100.5t124.5 -34.5v-119h-562z" />
<glyph unicode="m" horiz-adv-x="1933" d="M61 119q92 2 124 34.5t32 100.5v455q0 61 -27.5 81.5t-128.5 26.5v119q190 12 304 88h90v-123q129 123 323 123q104 0 168 -29.5t109 -105.5q63 55 162.5 95t181.5 40q84 0 145.5 -21.5t94 -51t51 -77t22.5 -85t4 -87.5v-448q0 -68 32 -100.5t124 -34.5v-119h-547v119 q94 20 117.5 43.5t23.5 99.5v486q0 68 -28.5 100.5t-102.5 32.5q-96 0 -198 -74l-45 -33v-520q0 -68 31.5 -100.5t123.5 -34.5v-119h-547v119q94 20 118 43.5t24 99.5v486q0 68 -29 100.5t-102 32.5q-96 0 -199 -74l-45 -33v-520q0 -68 31.5 -100.5t124.5 -34.5v-119h-562 v119z" />
<glyph unicode="n" horiz-adv-x="1363" d="M74 0v119q92 2 123.5 34.5t31.5 100.5v455q0 61 -27.5 81.5t-127.5 26.5v119q190 12 303 88h90v-133q160 133 367 133q129 0 215 -66.5t86 -216.5v-487q0 -68 31.5 -100.5t123.5 -34.5v-119h-530v119q70 12 97.5 36.5t27.5 88.5v475q0 92 -33 127t-96 35 q-143 0 -277 -119v-508q0 -68 32 -100.5t124 -34.5v-119h-561z" />
<glyph unicode="o" d="M80 514q0 236 161.5 373t385 137t385.5 -137t162 -373q0 -225 -148.5 -379.5t-398.5 -154.5t-398.5 154.5t-148.5 379.5zM354 508q0 -199 62.5 -298t210 -99t210 99t62.5 298t-62.5 298t-210 99t-210 -99t-62.5 -298z" />
<glyph unicode="p" horiz-adv-x="1251" d="M61 -344q92 2 124 35t32 100v918q0 61 -27.5 81.5t-128.5 26.5v119q190 12 304 88h90v-113q70 66 134 89.5t150 23.5q76 0 146.5 -24.5t138.5 -81t107.5 -167t39.5 -264.5q0 -219 -120.5 -363t-317.5 -144q-129 0 -266 94v-283q0 -76 29.5 -104.5t126.5 -30.5v-119h-562 v119zM467 213q82 -90 203 -90q129 0 190.5 105.5t61.5 273.5t-61.5 273.5t-190.5 105.5t-203 -90v-578z" />
<glyph unicode="q" horiz-adv-x="1251" d="M80 504q0 221 114.5 370.5t323.5 149.5q195 0 293 -96l33 96h205v-1233q0 -68 31.5 -100.5t123.5 -34.5v-119h-561v119q92 2 124 35t32 100v285q-109 -96 -281 -96q-207 0 -322.5 153.5t-115.5 370.5zM342 502q0 -168 61.5 -273.5t192.5 -105.5q61 0 118.5 25.5 t84.5 64.5v578q-27 39 -84.5 64.5t-118.5 25.5q-131 0 -192.5 -105.5t-61.5 -273.5z" />
<glyph unicode="r" horiz-adv-x="909" d="M74 817v119q190 12 303 88h90v-137q137 137 287 137q168 0 168 -143q0 -51 -29 -85t-78 -34q-51 0 -100 41t-97 41q-43 0 -86 -23.5t-53 -58.5v-508q0 -68 32 -100.5t124 -34.5v-119h-561v119q92 2 123.5 34.5t31.5 100.5v455q0 61 -27.5 81.5t-127.5 26.5z" />
<glyph unicode="s" horiz-adv-x="1138" d="M96 334l111 22q117 -246 383 -245q90 0 152.5 38.5t62.5 104.5q0 55 -39 86t-148 51l-167 33q-152 31 -233 91q-79 59 -79 179q0 156 116 244q114 86 292 86q158 0 291 -80l26 60h72l47 -281l-109 -18q-106 201 -315 200q-76 0 -129 -35.5t-53 -89.5q0 -80 119 -104 l264 -55q139 -29 210.5 -91.5t71.5 -191.5q0 -158 -121.5 -258t-332.5 -100q-188 0 -318 88l-24 -68h-86z" />
<glyph unicode="t" horiz-adv-x="796" d="M61 872v119q123 8 190.5 94t104.5 240h111v-321h274v-132h-274v-573q0 -86 27.5 -125t93.5 -39q84 0 186 74l74 -86q-156 -143 -363 -143q-268 0 -268 258v634h-156z" />
<glyph unicode="u" horiz-adv-x="1366" d="M74 817v119q168 10 303 68h102v-719q0 -92 33 -127t96 -35q143 0 277 119v467q0 61 -28 81.5t-128 26.5v119q168 10 303 68h103v-750q0 -68 31.5 -100.5t125.5 -34.5v-119h-395v113q-160 -133 -367 -133q-129 0 -215 66.5t-86 215.5v447q0 61 -27.5 81.5t-127.5 26.5z " />
<glyph unicode="v" horiz-adv-x="1024" d="M-31 885v119h506v-107q-121 0 -121 -63q0 -41 37 -136l170 -446l160 434q25 63 24 123q0 80 -122 88v107h432v-119h-4q-12 0 -36 -8.5t-69 -53.5t-76 -121l-286 -714h-168l-307 774q-49 123 -129 123h-11z" />
<glyph unicode="w" horiz-adv-x="1593" d="M25 885v119h475v-107q-57 -10 -78 -24.5t-21 -38.5q0 -29 29 -125l137 -484h4l123 430q16 61 17 99q0 113 -136 143v107h472v-107q-59 -8 -79 -22.5t-20 -45.5q0 -29 21 -98l147 -506h4l135 457q18 63 19 104q0 49 -22.5 71t-86.5 40v107h404v-119h-4q-10 0 -35 -8.5 t-62.5 -45t-56.5 -92.5l-248 -751h-213l-166 561h-4l-166 -561h-213l-223 757q-16 59 -55 94t-60.5 40.5t-33.5 5.5h-4z" />
<glyph unicode="x" horiz-adv-x="1138" d="M0 119q82 25 133 69.5t143 153.5l150 176l-190 254q-43 55 -102.5 84t-88.5 29h-4v119h537v-107q-98 0 -99 -45q0 -16 33 -61l104 -146l113 131q43 51 43 82q0 33 -86 39v107h418v-119h-4q-106 0 -248 -152l-164 -176l277 -342q76 -92 174 -96v-119h-572v106 q74 2 99.5 14.5t25.5 39.5q0 20 -57 96l-127 166l-170 -205q-33 -39 -33 -63q0 -41 111 -48v-106h-416v119z" />
<glyph unicode="y" horiz-adv-x="1138" d="M-8 885v119h549v-119q-78 -4 -105.5 -17.5t-27.5 -40.5q0 -39 30 -108l189 -438l166 417q27 68 26 103q0 37 -23.5 53t-103.5 31v119h455v-119q-74 -20 -118 -62.5t-77 -115.5l-391 -879q-72 -160 -155.5 -235.5t-212.5 -75.5q-72 0 -125.5 37.5t-53.5 111.5q0 49 32 87 t83 38q49 0 86 -41t70 -41q76 0 131 115l82 166l-340 764q-29 68 -67 95.5t-99 35.5z" />
<glyph unicode="z" horiz-adv-x="1138" d="M55 100l652 779q-27 6 -76 6q-315 0 -424 -193l-19 -33l-98 35l115 310h786l43 -107l-641 -768q37 -10 92 -10q362 0 498 252l100 -33l-114 -338h-875z" />
<glyph unicode="{" horiz-adv-x="681" d="M84 528q90 27 122 78t32 152v356q0 170 76.5 225.5t258.5 55.5v-25q-86 -23 -120.5 -81t-34.5 -167v-336q0 -115 -34 -173t-134 -83v-4q100 -25 134 -83t34 -173v-336q0 -109 34.5 -167t120.5 -80v-25q-182 0 -258.5 55.5t-76.5 225.5v356q0 100 -32 151t-122 78z" />
<glyph unicode="|" horiz-adv-x="454" d="M137 -27v1448h180v-1448h-180z" />
<glyph unicode="}" horiz-adv-x="681" d="M109 -313q86 23 120.5 81t34.5 166v336q0 115 34 173.5t134 82.5v4q-100 25 -134 83.5t-34 172.5v336q0 109 -34.5 167.5t-120.5 80.5v25q182 0 258.5 -55.5t76.5 -225.5v-356q0 -100 32 -151.5t122 -78.5q-90 -27 -122 -78t-32 -151v-356q0 -170 -76.5 -225.5 t-258.5 -55.5v25z" />
<glyph unicode="~" horiz-adv-x="1228" d="M141 498q84 176 252 176q96 0 279 -86q117 -55 170 -56q80 0 172 148l73 -141q-68 -96 -125 -135t-131 -39q-86 0 -208 67q-137 74 -236 74q-109 0 -172 -150z" />
<glyph unicode="&#xa1;" horiz-adv-x="684" d="M168 -217q0 47 57.5 323.5t57.5 413.5v74h118v-74q0 -137 57.5 -413.5t57.5 -323.5q0 -213 -174 -213t-174 213zM186 847.5q0 65.5 46.5 111t110 45.5t109.5 -45.5t46 -111t-46 -110.5t-109.5 -45t-110 45t-46.5 110.5z" />
<glyph unicode="&#xa2;" d="M119 694q0 205 126 350.5t355 159.5v226h119v-226q166 -12 269.5 -82.5t103.5 -191.5q0 -59 -31 -96t-80 -37q-63 0 -86 30.5t-29 106.5q-6 78 -56 114.5t-157 36.5q-102 0 -161.5 -55t-79 -139t-19.5 -211q0 -172 78 -279.5t246 -107.5q178 0 313 190l105 -51 q-141 -242 -416 -270v-238h-119v238q-223 12 -352 161.5t-129 370.5z" />
<glyph unicode="&#xa3;" d="M16 178q0 100 69 158.5t212 58.5q84 0 158 -26q0 80 -93 303l-26 65h-256l33 94h196q-29 82 -28 170q0 158 133 285t346 127q160 0 277.5 -78t117.5 -221q0 -68 -29.5 -113t-87.5 -45q-109 0 -108 111q0 23 16.5 68t16.5 57q0 16 -11.5 33.5t-34 37t-68.5 32t-106 12.5 q-111 0 -180 -72t-69 -213q0 -90 41 -191h380l-36 -94h-306q94 -193 95 -340q0 -35 -6 -114q199 -123 286 -123q55 0 86 31.5t31 64.5q0 88 -109 88q-16 0 -36 -4l-27 92q47 18 88 19q96 0 161.5 -54.5t65.5 -160.5q0 -104 -67.5 -180t-184.5 -76q-90 0 -166.5 37.5 t-193.5 138.5q-123 -176 -344 -176q-117 0 -176.5 55t-59.5 143zM135 182q0 -31 26.5 -57.5t86.5 -26.5q100 0 151.5 47.5t55.5 92.5q-68 39 -181 38q-63 0 -101 -24.5t-38 -69.5z" />
<glyph unicode="&#xa4;" d="M106 268l117 117q-104 133 -104 305t104 305l-117 117l99 98l117 -116q133 104 305 104t305 -104l117 116l98 -98l-117 -117q104 -133 104.5 -305t-104.5 -305l117 -117l-98 -98l-117 117q-133 -104 -305 -104.5t-305 104.5l-117 -117zM311 690.5q0 -147.5 88 -238 t227.5 -90.5t227.5 90.5t88 238t-88 237.5t-227.5 90t-227.5 -90t-88 -237.5z" />
<glyph unicode="&#xa5;" d="M4 1262v118h516v-118q-131 0 -131 -54q0 -25 41 -100l209 -381l231 408q23 39 23 61q0 29 -23.5 41t-99.5 25v118h479v-118q-88 -10 -147.5 -60.5t-155.5 -206.5l-147 -237h266v-131h-332l-12 -21v-141h344v-131h-344v-60q0 -86 35 -117.5t143 -37.5v-119h-608v119 q139 20 172 47t33 129v39h-344v131h344v141l-13 21h-331v131h260l-205 348q-82 140 -203 156z" />
<glyph unicode="&#xa6;" horiz-adv-x="454" d="M137 -27v541h180v-541h-180zM137 881v540h180v-540h-180z" />
<glyph unicode="&#xa7;" horiz-adv-x="1138" d="M106 260q0 59 30 96t85 37q53 0 82 -35.5t29 -91.5v-67q0 -45 71.5 -76t147.5 -31q92 0 170 37t78 117q0 49 -32 78.5t-112 52.5l-258 74q-119 35 -181 91t-62 158q0 143 129 226q-104 84 -105 196q0 141 110.5 220t278.5 79q158 0 277 -76.5t119 -195.5q0 -49 -31 -79 t-76 -30q-106 0 -106 127v25q0 57 -44 84t-147 27q-84 0 -136 -34t-52 -91q0 -41 30.5 -67t110.5 -50l223 -66q127 -37 191.5 -102.5t64.5 -175.5q0 -119 -90 -213q90 -66 90 -207q0 -154 -131 -239t-311 -85q-172 0 -307.5 77t-135.5 210zM334 760q0 -59 84 -86l280 -86 q59 -18 84 -19q6 0 12.5 8.5t11.5 27t5 40.5q0 53 -28.5 85t-102.5 54l-277 84q-69 -30 -69 -108z" />
<glyph unicode="&#xa8;" horiz-adv-x="684" d="M-4 1272q0 53 39 92t92 39t92 -39t39 -92t-39 -92t-92 -39t-92 39t-39 92zM426 1272q0 53 39 92t92 39t92 -39t39 -92t-39 -92t-92 -39t-92 39t-39 92z" />
<glyph unicode="&#xa9;" horiz-adv-x="1638" d="M96 696q0 301 212 513t511 212t511 -212t212 -513q0 -299 -212 -511t-511 -212t-511 212t-212 511zM252 696q0 -252 160.5 -415.5t406.5 -163.5t406.5 163.5t160.5 415.5q0 254 -160.5 418t-406.5 164t-406.5 -164t-160.5 -418zM416 719q0 70 24.5 137.5t75.5 129 t143.5 99t214.5 37.5q92 0 211 -37q47 -14 48 -45v-149h-50q-39 182 -211 182q-119 0 -180 -95t-63 -253v-11q0 -162 58 -261q60 -102 192 -103q168 0 241 182h45l-30 -149q0 -4 -2 -8l-4 -6q-1 -2 -5 -5.5t-7 -5.5t-9 -5t-9 -4l-11.5 -4t-12.5 -5q-139 -39 -217 -39 q-203 0 -322.5 106.5t-119.5 311.5z" />
<glyph unicode="&#xaa;" horiz-adv-x="739" d="M31 915q0 100 100 155.5t303 76.5v80q0 49 -25.5 70.5t-91.5 21.5q-41 0 -70.5 -16.5t-31.5 -45.5q-6 -51 -22.5 -68.5t-55.5 -17.5q-41 0 -59.5 20.5t-18.5 47.5q0 72 77 117t206 45q145 0 208.5 -45t63.5 -144v-297q0 -47 43 -47q29 0 54 23l45 -62q-55 -68 -160 -67 q-111 0 -141 80q-109 -80 -228 -80q-92 0 -144 46t-52 107zM211 944q0 -76 90 -76t133 50v159q-223 -22 -223 -133z" />
<glyph unicode="&#xab;" horiz-adv-x="1024" d="M86 541q213 156 418 360q23 23 39 23t16 -21q0 -37 -92 -169t-156 -193q63 -61 155.5 -193.5t92.5 -169.5q0 -20 -16.5 -20t-38.5 22q-205 205 -418 361zM465 541q213 156 418 360q23 23 39 23t16 -21q0 -37 -92 -169t-156 -193q63 -61 155.5 -193.5t92.5 -169.5 q0 -20 -16.5 -20t-38.5 22q-205 205 -418 361z" />
<glyph unicode="&#xac;" horiz-adv-x="1228" d="M96 637v180h1037v-596h-181v416h-856z" />
<glyph unicode="&#xad;" horiz-adv-x="681" d="M41 434l88 213h512l-88 -213h-512z" />
<glyph unicode="&#xae;" horiz-adv-x="1638" d="M96 696q0 301 212 513t511 212t511 -212t212 -513q0 -299 -212 -511t-511 -212t-511 212t-212 511zM252 696q0 -252 160.5 -415.5t406.5 -163.5t406.5 163.5t160.5 415.5q0 254 -160.5 418t-406.5 164t-406.5 -164t-160.5 -418zM479 324v36q61 4 74.5 16.5t13.5 55.5v553 q0 43 -13 55.5t-75 16.5v39h393q106 0 175 -49.5t69 -147.5q0 -72 -46 -130t-120 -83l158 -240q57 -86 111 -86v-36h-187q-27 0 -53.5 31.5t-79.5 115.5l-121 193h-30v-232q0 -43 13 -55t75 -17v-36h-357zM748 713h65q63 0 93 51t30 127q0 156 -121 156h-67v-334z" />
<glyph unicode="&#xaf;" horiz-adv-x="684" d="M2 1196v143h680v-143h-680z" />
<glyph unicode="&#xb0;" horiz-adv-x="819" d="M117 1108q0 121 86 207t206.5 86t206.5 -86t86 -207t-86 -207t-206.5 -86t-206.5 86t-86 207zM236 1108q0 -72 51 -123t122.5 -51t123 51t51.5 123t-51.5 123t-123 51t-122.5 -51t-51 -123z" />
<glyph unicode="&#xb1;" horiz-adv-x="1228" d="M96 0v180h1037v-180h-1037zM96 555v180h428v301h181v-301h428v-180h-428v-303h-181v303h-428z" />
<glyph unicode="&#xb2;" horiz-adv-x="815" d="M49 1153q0 104 89 176t245 72q80 0 151.5 -21.5t127 -82t55.5 -150.5q0 -96 -65.5 -173t-235.5 -181l-158 -97v-4h178q127 0 171 29t69 106l90 -14l-70 -264h-622l-17 127l181 125q254 174 254 362q0 72 -36 114t-108 42q-63 0 -106 -28.5t-43 -63.5q0 -20 21.5 -45 t21.5 -52q0 -78 -96.5 -77.5t-96.5 100.5z" />
<glyph unicode="&#xb3;" horiz-adv-x="815" d="M59 729q0 100 101 105h7q36 0 59 -19q26 -20 26 -55q0 -16 -6 -35.5t-6 -34.5q0 -33 39.5 -52.5t99.5 -19.5q78 0 128 50.5t50 132.5q0 139 -147 151l-84 9v90h45q76 0 116.5 38.5t40.5 106.5q0 61 -37.5 92t-95.5 31q-53 0 -92 -19.5t-39 -58.5q0 -8 6 -28.5t6 -43.5 q0 -70 -100 -69q-92 0 -92 86q0 96 86 155.5t227 59.5q158 0 241 -60.5t83 -148.5q0 -133 -215 -182v-4q109 -4 182.5 -56.5t73.5 -152.5q0 -111 -87 -185.5t-288 -74.5q-162 0 -245 57t-83 135z" />
<glyph unicode="&#xb4;" horiz-adv-x="684" d="M180 1120l279 324q47 57 119 57q37 0 63.5 -23.5t26.5 -68.5q0 -57 -72 -102l-303 -187h-113z" />
<glyph unicode="&#xb5;" horiz-adv-x="1366" d="M74 817v119q168 10 303 68h102v-719q0 -92 33 -127t96 -35q143 0 277 119v467q0 61 -28 81.5t-128 26.5v119q168 10 303 68h103v-750q0 -68 31.5 -100.5t125.5 -34.5v-119h-395v113q-160 -133 -313 -133q-104 0 -158 65l-4 -4v-11q0 -63 20 -173q23 -121 23 -168 q0 -152 -137.5 -152t-137.5 152q0 33 19.5 229.5t19.5 388.5v402q0 61 -27.5 81.5t-127.5 26.5z" />
<glyph unicode="&#xb6;" horiz-adv-x="1269" d="M131 995q0 211 99.5 305.5t328.5 94.5h580v-49q-121 -16 -140 -35q-21 -19 -20 -100v-15v-61v-875v-49v-20q0 -85 16 -103q18 -20 125 -37q12 0 19 -2v-49h-340v1325h-121v-1325h-342v49q6 2 18 2q109 18 127 37q17 22 17 104v19v49v315q-176 0 -271.5 115t-95.5 305z M311 991q0 -141 55.5 -219t131.5 -78v582q-100 0 -143.5 -63.5t-43.5 -221.5z" />
<glyph unicode="&#xb7;" horiz-adv-x="626" d="M158 612.5q0 63.5 46 109.5t109.5 46t109.5 -46t46 -109.5t-46 -109.5t-109.5 -46t-109.5 46t-46 109.5z" />
<glyph unicode="&#xb8;" horiz-adv-x="684" d="M137 -410l35 72q53 -27 123 -27q117 0 117 80q0 78 -95 78q-27 0 -59 -8l-20 18l88 197h84l-56 -135q31 10 76 10q70 0 122 -36t52 -107q0 -92 -80 -135t-198 -43q-105 -1 -189 36z" />
<glyph unicode="&#xb9;" horiz-adv-x="815" d="M125 1274v82q176 2 309 45h74v-682q0 -49 28.5 -68.5t131.5 -19.5h22v-82h-559v82h49q70 0 92.5 21.5t22.5 74.5v436q0 72 -25.5 87.5t-144.5 23.5z" />
<glyph unicode="&#xba;" horiz-adv-x="815" d="M45 1090q0 143 107.5 227t257.5 84q147 0 253.5 -84t106.5 -227q0 -139 -98.5 -233.5t-261.5 -94.5q-168 0 -266.5 94.5t-98.5 233.5zM238 1083q0 -119 38.5 -179t131 -60t131.5 60.5t39 178.5q0 117 -39 176.5t-131.5 59.5t-131 -59.5t-38.5 -176.5z" />
<glyph unicode="&#xbb;" horiz-adv-x="1024" d="M86 178q0 37 92 169t156 194q-63 61 -155.5 193t-92.5 169q0 20 16.5 20.5t38.5 -22.5q205 -205 418 -360q-213 -156 -418 -361q-23 -23 -39 -22.5t-16 20.5zM465 178q0 37 92 169t156 194q-63 61 -155.5 193t-92.5 169q0 20 16.5 20.5t38.5 -22.5q205 -205 418 -360 q-213 -156 -418 -361q-23 -23 -39 -22.5t-16 20.5z" />
<glyph unicode="&#xbc;" horiz-adv-x="1875" d="M125 1274v82q176 2 309 45h74v-682q0 -49 28.5 -68.5t131.5 -19.5h22v-82h-559v82h49q70 0 92.5 21.5t22.5 74.5v436q0 72 -25.5 87.5t-144.5 23.5zM463 -20l917 1421h138l-918 -1421h-137zM1075 289q391 492 441 563h149v-545h178l-39 -94h-139v-55q0 -37 22.5 -53.5 t90.5 -22.5v-82h-406v82q68 6 90.5 24.5t22.5 63.5v43h-371zM1212 307h273v332h-8q-99 -152 -265 -332z" />
<glyph unicode="&#xbd;" horiz-adv-x="1875" d="M125 1274v82q176 2 309 45h74v-682q0 -49 28.5 -68.5t131.5 -19.5h22v-82h-559v82h49q70 0 92.5 21.5t22.5 74.5v436q0 72 -25.5 87.5t-144.5 23.5zM420 -20l917 1421h138l-918 -1421h-137zM1110 604q0 104 89 176t245 72q80 0 151.5 -21.5t127 -82t55.5 -150.5 q0 -96 -65.5 -173t-235.5 -181l-158 -97v-4h178q127 0 171 29t69 107l90 -15l-70 -264h-622l-17 127l180 125q254 174 254 362q0 72 -35.5 114t-107.5 42q-63 0 -106 -28.5t-43 -63.5q0 -20 21.5 -45t21.5 -51q0 -78 -96.5 -78t-96.5 100z" />
<glyph unicode="&#xbe;" horiz-adv-x="1875" d="M59 729q0 100 101 105h7q36 0 59 -19q26 -20 26 -55q0 -16 -6 -35.5t-6 -34.5q0 -33 39.5 -52.5t99.5 -19.5q78 0 128 50.5t50 132.5q0 139 -147 151l-84 9v90h45q76 0 116.5 38.5t40.5 106.5q0 61 -37.5 92t-95.5 31q-53 0 -92 -19.5t-39 -58.5q0 -8 6 -28.5t6 -43.5 q0 -70 -100 -69q-92 0 -92 86q0 96 86 155.5t227 59.5q158 0 241 -60.5t83 -148.5q0 -133 -215 -182v-4q109 -4 182.5 -56.5t73.5 -152.5q0 -111 -87 -185.5t-288 -74.5q-162 0 -245 57t-83 135zM463 -20l917 1421h138l-918 -1421h-137zM1075 289q391 492 441 563h149v-545 h178l-39 -94h-139v-55q0 -37 22.5 -53.5t90.5 -22.5v-82h-406v82q68 6 90.5 22.5t22.5 53.5v55h-371zM1212 307h273v332h-8q-99 -152 -265 -332z" />
<glyph unicode="&#xbf;" horiz-adv-x="1251" d="M98 -37q0 51 10.5 95t40 97.5t95 102.5t164.5 88q84 33 113.5 83t41.5 165h144v-43q0 -109 -13.5 -165t-41 -89t-97.5 -82q-96 -70 -127 -123t-31 -137q0 -129 73 -191.5t187 -62.5q98 0 166 37t68 94q0 31 -12.5 72t-12.5 69q0 59 39 90t94 31q78 0 116 -51t38 -119 q0 -137 -139.5 -245.5t-380.5 -108.5q-86 0 -171 18.5t-171 59.5t-139.5 122.5t-53.5 192.5zM479 847.5q0 65.5 45 111t110.5 45.5t111 -45.5t45.5 -111t-45.5 -110.5t-111 -45t-110.5 45t-45 110.5z" />
<glyph unicode="&#xc0;" horiz-adv-x="1478" d="M-35 0v119q78 20 119 63t92 162l451 1069h237l451 -1114q41 -100 78 -135t120 -45v-119h-630v119q180 6 180 63q0 20 -25 84l-98 250h-516l-76 -194q-31 -76 -31 -117q0 -72 158 -86v-119h-510zM414 1759q0 45 26.5 68.5t63.5 23.5q72 0 119 -57l278 -324h-113l-303 187 q-71 45 -71 102zM477 647h414l-207 529z" />
<glyph unicode="&#xc1;" horiz-adv-x="1478" d="M-35 0v119q78 20 119 63t92 162l451 1069h237l451 -1114q41 -100 78 -135t120 -45v-119h-630v119q180 6 180 63q0 20 -25 84l-98 250h-516l-76 -194q-31 -76 -31 -117q0 -72 158 -86v-119h-510zM477 647h414l-207 529zM578 1470l278 324q47 57 119 57q37 0 63.5 -23.5 t26.5 -68.5q0 -57 -72 -102l-303 -187h-112z" />
<glyph unicode="&#xc2;" horiz-adv-x="1478" d="M-35 0v119q78 20 119 63t92 162l451 1069h237l451 -1114q41 -100 78 -135t120 -45v-119h-630v119q180 6 180 63q0 20 -25 84l-98 250h-516l-76 -194q-31 -76 -31 -117q0 -72 158 -86v-119h-510zM393 1470l250 361h193l249 -361h-116l-230 205l-229 -205h-117zM477 647 h414l-207 529z" />
<glyph unicode="&#xc3;" horiz-adv-x="1478" d="M-35 0v119q78 20 119 63t92 162l451 1069h237l451 -1114q41 -100 78 -135t120 -45v-119h-630v119q180 6 180 63q0 20 -25 84l-98 250h-516l-76 -194q-31 -76 -31 -117q0 -72 158 -86v-119h-510zM365 1507q18 115 79.5 185.5t161.5 70.5q78 0 150 -39l75 -41 q43 -23 87 -22q37 0 61.5 20.5t46.5 81.5h88q-59 -258 -250 -258q-61 0 -137 35l-70 33q-74 35 -112 35q-68 0 -99 -101h-81zM477 647h414l-207 529z" />
<glyph unicode="&#xc4;" horiz-adv-x="1478" d="M-35 0v119q78 20 119 63t92 162l451 1069h237l451 -1114q41 -100 78 -135t120 -45v-119h-630v119q180 6 180 63q0 20 -25 84l-98 250h-516l-76 -194q-31 -76 -31 -117q0 -72 158 -86v-119h-510zM393 1622q0 53 39 92t92.5 39t92 -39t38.5 -92t-38.5 -92t-92 -39t-92.5 39 t-39 92zM477 647h414l-207 529zM823 1622q0 53 39 92t92.5 39t92 -39t38.5 -92t-38.5 -92t-92 -39t-92.5 39t-39 92z" />
<glyph unicode="&#xc5;" horiz-adv-x="1478" d="M-35 0v119q78 20 119 63t92 162l451 1069h237l451 -1114q41 -100 78 -135t120 -45v-119h-630v119q180 6 180 63q0 20 -25 84l-98 250h-516l-76 -194q-31 -76 -31 -117q0 -72 158 -86v-119h-510zM477 647h414l-207 529zM520 1681.5q0 90.5 64.5 155t154.5 64.5 t154.5 -64.5t64.5 -155t-64.5 -155t-154.5 -64.5t-154.5 64.5t-64.5 155zM627 1681.5q0 -47.5 32.5 -80t79.5 -32.5t80 32.5t33 80t-33 80t-80 32.5t-79.5 -32.5t-32.5 -80z" />
<glyph unicode="&#xc6;" horiz-adv-x="2048" d="M-70 0v119q72 23 117 59.5t115 138.5l727 1078h899h4l160 -400l-101 -59q-109 193 -208 254t-316 61q-78 0 -105.5 -24.5t-27.5 -100.5v-292h63q127 0 169 47t53 194h106v-626h-106q-8 131 -64.5 186t-177.5 55h-43v-436q0 -72 30.5 -97.5t118.5 -25.5q166 0 291 81 t256 296l107 -51l-180 -457h-1074v119q92 4 134.5 40t42.5 113v244h-422l-148 -229q-33 -49 -33 -92q0 -68 156 -76v-119h-543zM584 647h336v547h-5z" />
<glyph unicode="&#xc7;" horiz-adv-x="1478" d="M84 698q0 301 186.5 512t477.5 211q188 0 348 -106v4l37 76h102l131 -463l-117 -35q-86 195 -213 290t-260 95q-182 0 -287.5 -156.5t-105.5 -427.5q0 -254 115.5 -417.5t304.5 -163.5q297 0 473 299l119 -58q-86 -180 -231.5 -276t-325.5 -107l-45 -110q31 10 75 10 q70 0 122 -36t52 -107q0 -92 -79.5 -135t-198.5 -43q-104 0 -189 36l35 72q53 -27 123 -27q117 0 117 80q0 78 -94 78q-27 0 -60 -8l-20 18l76 170q-305 14 -486.5 222t-181.5 503z" />
<glyph unicode="&#xc8;" horiz-adv-x="1478" d="M53 119q92 4 134 40t42 113v850q0 78 -42 114t-134 40v119h1098l188 -404l-104 -53q-193 313 -565 313q-96 0 -131 -24.5t-35 -98.5v-294h121q104 0 140 53t46 198h107v-651h-107q-16 152 -59 204t-166 52h-82v-434q0 -76 37 -100.5t151 -24.5q184 0 326.5 83t277.5 306 l109 -51l-211 -469h-1141v119zM373 1759q0 45 26.5 68.5t63.5 23.5q72 0 119 -57l278 -324h-112l-304 187q-71 45 -71 102z" />
<glyph unicode="&#xc9;" horiz-adv-x="1478" d="M53 119q92 4 134 40t42 113v850q0 78 -42 114t-134 40v119h1098l188 -404l-104 -53q-193 313 -565 313q-96 0 -131 -24.5t-35 -98.5v-294h121q104 0 140 53t46 198h107v-651h-107q-16 152 -59 204t-166 52h-82v-434q0 -76 37 -100.5t151 -24.5q184 0 326.5 83t277.5 306 l109 -51l-211 -469h-1141v119zM537 1470l278 324q47 57 119 57q37 0 63.5 -23.5t26.5 -68.5q0 -57 -72 -102l-303 -187h-112z" />
<glyph unicode="&#xca;" horiz-adv-x="1478" d="M53 119q92 4 134 40t42 113v850q0 78 -42 114t-134 40v119h1098l188 -404l-104 -53q-193 313 -565 313q-96 0 -131 -24.5t-35 -98.5v-294h121q104 0 140 53t46 198h107v-651h-107q-16 152 -59 204t-166 52h-82v-434q0 -76 37 -100.5t151 -24.5q184 0 326.5 83t277.5 306 l109 -51l-211 -469h-1141v119zM352 1470l250 361h193l249 -361h-116l-230 205l-229 -205h-117z" />
<glyph unicode="&#xcb;" horiz-adv-x="1478" d="M53 119q92 4 134 40t42 113v850q0 78 -42 114t-134 40v119h1098l188 -404l-104 -53q-193 313 -565 313q-96 0 -131 -24.5t-35 -98.5v-294h121q104 0 140 53t46 198h107v-651h-107q-16 152 -59 204t-166 52h-82v-434q0 -76 37 -100.5t151 -24.5q184 0 326.5 83t277.5 306 l109 -51l-211 -469h-1141v119zM352 1622q0 53 39 92t92.5 39t92 -39t38.5 -92t-38.5 -92t-92 -39t-92.5 39t-39 92zM782 1622q0 53 39 92t92.5 39t92 -39t38.5 -92t-38.5 -92t-92 -39t-92.5 39t-39 92z" />
<glyph unicode="&#xcc;" horiz-adv-x="684" d="M16 1759q0 45 27 68.5t63 23.5q72 0 119 -57l279 -324h-113l-303 187q-72 45 -72 102zM29 0v119q92 4 134 40t42 113v850q0 78 -42 114t-134 40v119h626v-119q-92 -4 -134 -40t-42 -114v-850q0 -78 42 -113.5t134 -39.5v-119h-626z" />
<glyph unicode="&#xcd;" horiz-adv-x="684" d="M29 0v119q92 4 134 40t42 113v850q0 78 -42 114t-134 40v119h626v-119q-92 -4 -134 -40t-42 -114v-850q0 -78 42 -113.5t134 -39.5v-119h-626zM180 1470l279 324q47 57 119 57q37 0 63.5 -23.5t26.5 -68.5q0 -57 -72 -102l-303 -187h-113z" />
<glyph unicode="&#xce;" horiz-adv-x="684" d="M-4 1470l250 361h192l250 -361h-117l-229 205l-229 -205h-117zM29 0v119q92 4 134 40t42 113v850q0 78 -42 114t-134 40v119h626v-119q-92 -4 -134 -40t-42 -114v-850q0 -78 42 -113.5t134 -39.5v-119h-626z" />
<glyph unicode="&#xcf;" horiz-adv-x="684" d="M-4 1622q0 53 39 92t92 39t92 -39t39 -92t-39 -92t-92 -39t-92 39t-39 92zM29 0v119q92 4 134 40t42 113v850q0 78 -42 114t-134 40v119h626v-119q-92 -4 -134 -40t-42 -114v-850q0 -78 42 -113.5t134 -39.5v-119h-626zM426 1622q0 53 39 92t92 39t92 -39t39 -92t-39 -92 t-92 -39t-92 39t-39 92z" />
<glyph unicode="&#xd0;" horiz-adv-x="1593" d="M53 0v119q92 4 134 40t42 113v422h-151v131h151v297q0 78 -42 114t-134 40v119h750q145 0 264 -38t192.5 -101.5t126 -136t78 -155.5t35.5 -146.5t10 -119.5q0 -78 -13 -157.5t-58 -181t-118 -177.5t-204 -129t-303 -53h-760zM504 825h418v-131h-418v-444q0 -45 10 -66.5 t57.5 -37t145.5 -15.5q100 0 184 28.5t155.5 93t112.5 184.5t41 286q0 229 -123.5 385t-377.5 156q-135 0 -170 -27t-35 -121v-291z" />
<glyph unicode="&#xd1;" horiz-adv-x="1478" d="M53 0v119q92 4 134 40t42 113v850q0 78 -42 114t-134 40v119h506l531 -946h4v673q0 78 -42 114t-134 40v119h507v-119q-92 -4 -134 -40t-42 -114v-1122h-180l-680 1180h-4v-908q0 -78 42 -113.5t134 -39.5v-119h-508zM365 1507q18 115 79.5 185.5t161.5 70.5 q78 0 150 -39l75 -41q43 -23 87 -22q37 0 61.5 20.5t46.5 81.5h88q-59 -258 -250 -258q-61 0 -137 35l-70 33q-74 35 -112 35q-68 0 -99 -101h-81z" />
<glyph unicode="&#xd2;" horiz-adv-x="1593" d="M84 696q0 305 194.5 515t518 210t518 -210t194.5 -515t-194.5 -514t-518 -209t-518 209t-194.5 514zM383 696q0 -254 113.5 -416.5t300 -162.5t300 162.5t113.5 416.5q0 272 -111.5 427t-302 155t-302 -155t-111.5 -427zM471 1759q0 45 26.5 68.5t63.5 23.5q72 0 119 -57 l278 -324h-112l-303 187q-72 45 -72 102z" />
<glyph unicode="&#xd3;" horiz-adv-x="1593" d="M84 696q0 305 194.5 515t518 210t518 -210t194.5 -515t-194.5 -514t-518 -209t-518 209t-194.5 514zM383 696q0 -254 113.5 -416.5t300 -162.5t300 162.5t113.5 416.5q0 272 -111.5 427t-302 155t-302 -155t-111.5 -427zM635 1470l278 324q47 57 119 57q37 0 63.5 -23.5 t26.5 -68.5q0 -57 -71 -102l-303 -187h-113z" />
<glyph unicode="&#xd4;" horiz-adv-x="1593" d="M84 696q0 305 194.5 515t518 210t518 -210t194.5 -515t-194.5 -514t-518 -209t-518 209t-194.5 514zM383 696q0 -254 113.5 -416.5t300 -162.5t300 162.5t113.5 416.5q0 272 -111.5 427t-302 155t-302 -155t-111.5 -427zM451 1470l249 361h193l250 -361h-117l-229 205 l-230 -205h-116z" />
<glyph unicode="&#xd5;" horiz-adv-x="1593" d="M84 696q0 305 194.5 515t518 210t518 -210t194.5 -515t-194.5 -514t-518 -209t-518 209t-194.5 514zM383 696q0 -254 113.5 -416.5t300 -162.5t300 162.5t113.5 416.5q0 272 -111.5 427t-302 155t-302 -155t-111.5 -427zM422 1507q18 115 79.5 185.5t162.5 70.5 q78 0 149 -39l76 -41q43 -23 86 -22q37 0 61.5 20.5t46.5 81.5h88q-59 -258 -249 -258q-61 0 -138 35l-69 33q-74 35 -113 35q-68 0 -98 -101h-82z" />
<glyph unicode="&#xd6;" horiz-adv-x="1593" d="M84 696q0 305 194.5 515t518 210t518 -210t194.5 -515t-194.5 -514t-518 -209t-518 209t-194.5 514zM383 696q0 -254 113.5 -416.5t300 -162.5t300 162.5t113.5 416.5q0 272 -111.5 427t-302 155t-302 -155t-111.5 -427zM451 1622q0 53 38.5 92t92 39t92.5 -39t39 -92 t-39 -92t-92.5 -39t-92 39t-38.5 92zM881 1622q0 53 38.5 92t92 39t92.5 -39t39 -92t-39 -92t-92.5 -39t-92 39t-38.5 92z" />
<glyph unicode="&#xd7;" horiz-adv-x="1228" d="M141 172l346 346l-346 346l127 127l346 -346l347 346l126 -127l-346 -346l346 -346l-126 -127l-347 346l-346 -346z" />
<glyph unicode="&#xd8;" horiz-adv-x="1593" d="M84 696q0 305 194.5 515t518.5 210q223 0 383 -102l143 197h152l-199 -269q113 -98 173 -242.5t60 -308.5q0 -305 -194.5 -514t-517.5 -209q-213 0 -381 101l-146 -197h-151l198 270q-233 203 -233 549zM383 696q0 -211 78 -354l604 819q-102 117 -268 117 q-190 0 -302 -155t-112 -427zM532 236q106 -119 265 -119q186 0 299.5 162.5t113.5 416.5q0 219 -73 361z" />
<glyph unicode="&#xd9;" horiz-adv-x="1478" d="M29 1276v119h614h12v-119q-92 -4 -134 -40t-42 -114v-682q0 -311 316 -311q94 0 158.5 21.5t99 52t52 86t21.5 100.5t4 119v614q0 78 -41.5 114t-134.5 40v119h496v-119q-92 -4 -134 -40t-42 -114v-702q0 -446 -537 -447q-256 0 -394 110t-138 308v731q0 78 -42 114 t-134 40zM414 1759q0 45 26.5 68.5t63.5 23.5q72 0 119 -57l278 -324h-113l-303 187q-71 45 -71 102z" />
<glyph unicode="&#xda;" horiz-adv-x="1478" d="M29 1276v119h614h12v-119q-92 -4 -134 -40t-42 -114v-682q0 -311 316 -311q94 0 158.5 21.5t99 52t52 86t21.5 100.5t4 119v614q0 78 -41.5 114t-134.5 40v119h496v-119q-92 -4 -134 -40t-42 -114v-702q0 -446 -537 -447q-256 0 -394 110t-138 308v731q0 78 -42 114 t-134 40zM578 1470l278 324q47 57 119 57q37 0 63.5 -23.5t26.5 -68.5q0 -57 -72 -102l-303 -187h-112z" />
<glyph unicode="&#xdb;" horiz-adv-x="1478" d="M29 1276v119h614h12v-119q-92 -4 -134 -40t-42 -114v-682q0 -311 316 -311q94 0 158.5 21.5t99 52t52 86t21.5 100.5t4 119v614q0 78 -41.5 114t-134.5 40v119h496v-119q-92 -4 -134 -40t-42 -114v-702q0 -446 -537 -447q-256 0 -394 110t-138 308v731q0 78 -42 114 t-134 40zM393 1470l250 361h193l249 -361h-116l-230 205l-229 -205h-117z" />
<glyph unicode="&#xdc;" horiz-adv-x="1478" d="M29 1276v119h614h12v-119q-92 -4 -134 -40t-42 -114v-682q0 -311 316 -311q94 0 158.5 21.5t99 52t52 86t21.5 100.5t4 119v614q0 78 -41.5 114t-134.5 40v119h496v-119q-92 -4 -134 -40t-42 -114v-702q0 -446 -537 -447q-256 0 -394 110t-138 308v731q0 78 -42 114 t-134 40zM393 1622q0 53 39 92t92.5 39t92 -39t38.5 -92t-38.5 -92t-92 -39t-92.5 39t-39 92zM823 1622q0 53 39 92t92.5 39t92 -39t38.5 -92t-38.5 -92t-92 -39t-92.5 39t-39 92z" />
<glyph unicode="&#xdd;" horiz-adv-x="1366" d="M-8 1276v119h616v-119q-143 0 -143 -53q0 -29 45 -103l215 -354l233 371q29 45 29 73.5t-25.5 41t-107.5 24.5v119h520v-119q-96 -10 -155.5 -57.5t-145.5 -176.5l-285 -426v-342q0 -86 38 -117.5t157 -37.5v-119h-692v119q152 20 187.5 49t35.5 141v316l-301 495 q-84 138 -221 156zM522 1470l279 324q47 57 119 57q37 0 63.5 -23.5t26.5 -68.5q0 -57 -72 -102l-303 -187h-113z" />
<glyph unicode="&#xde;" horiz-adv-x="1366" d="M53 0v119q92 4 134 40t42 113v850q0 78 -42 114t-134 40v119h627v-119q-92 -4 -134 -39t-42 -109v-8h194q141 0 243.5 -19.5t184.5 -65.5t123 -130t41 -205q0 -178 -136 -276t-419 -98h-231v-54q0 -78 42 -113.5t134 -39.5v-119h-627zM504 463q55 -6 108 -6 q227 0 309.5 67.5t82.5 208.5q0 256 -312 256q-111 0 -149.5 -32.5t-38.5 -96.5v-397z" />
<glyph unicode="&#xdf;" horiz-adv-x="1366" d="M68 119h32q74 0 101.5 37t27.5 114v574h-141l37 106h117q27 215 172 329t350 114q395 0 395 -269q0 -72 -37 -125t-82 -75l-82 -42q-37 -19 -36 -32q0 -16 39 -35l86 -43q135 -68 191 -145.5t56 -206.5q0 -111 -47 -199t-123.5 -138t-168 -76.5t-189.5 -26.5 q-135 0 -213 38l35 117q63 -25 145 -24q141 0 226 80.5t85 201.5q0 90 -57 152.5t-246 138.5q-98 39 -126.5 68.5t-28.5 72.5t36.5 73t147.5 67q164 55 164 163q0 68 -46 107t-124 39q-113 0 -199 -85t-86 -300v-889h-411v119z" />
<glyph unicode="&#xe0;" horiz-adv-x="1138" d="M59 233q0 162 156 252t467 121v133q0 90 -39 128t-141 38q-70 0 -118 -30.5t-52 -77.5q-8 -86 -34 -117t-81 -31t-83 35t-28 78q0 117 117 189.5t307 72.5q213 0 307.5 -73.5t94.5 -233.5v-514q0 -80 65 -80q45 0 84 39l68 -72q-84 -111 -244 -110q-156 0 -207 129 q-168 -129 -342 -129q-139 0 -218 75.5t-79 177.5zM223 1409q0 45 26.5 68.5t63.5 23.5q72 0 119 -57l279 -324h-113l-303 187q-72 45 -72 102zM309 270q0 -135 154 -135q127 0 219 82v283q-373 -37 -373 -230z" />
<glyph unicode="&#xe1;" horiz-adv-x="1138" d="M59 233q0 162 156 252t467 121v133q0 90 -39 128t-141 38q-70 0 -118 -30.5t-52 -77.5q-8 -86 -34 -117t-81 -31t-83 35t-28 78q0 117 117 189.5t307 72.5q213 0 307.5 -73.5t94.5 -233.5v-514q0 -80 65 -80q45 0 84 39l68 -72q-84 -111 -244 -110q-156 0 -207 129 q-168 -129 -342 -129q-139 0 -218 75.5t-79 177.5zM309 270q0 -135 154 -135q127 0 219 82v283q-373 -37 -373 -230zM387 1120l279 324q47 57 118 57q37 0 64 -23q26 -24 26 -69q0 -57 -71 -102l-303 -187h-113z" />
<glyph unicode="&#xe2;" horiz-adv-x="1138" d="M59 233q0 162 156 252t467 121v133q0 90 -39 128t-141 38q-70 0 -118 -30.5t-52 -77.5q-8 -86 -34 -117t-81 -31t-83 35t-28 78q0 117 117 189.5t307 72.5q213 0 307.5 -73.5t94.5 -233.5v-514q0 -80 65 -80q45 0 84 39l68 -72q-84 -111 -244 -110q-156 0 -207 129 q-168 -129 -342 -129q-139 0 -218 75.5t-79 177.5zM203 1120l250 361h192l250 -361h-117l-229 205l-230 -205h-116zM309 270q0 -135 154 -135q127 0 219 82v283q-373 -37 -373 -230z" />
<glyph unicode="&#xe3;" horiz-adv-x="1138" d="M59 233q0 162 156 252t467 121v133q0 90 -39 128t-141 38q-70 0 -118 -30.5t-52 -77.5q-8 -86 -34 -117t-81 -31t-83 35t-28 78q0 117 117 189.5t307 72.5q213 0 307.5 -73.5t94.5 -233.5v-514q0 -80 65 -80q45 0 84 39l68 -72q-84 -111 -244 -110q-156 0 -207 129 q-168 -129 -342 -129q-139 0 -218 75.5t-79 177.5zM174 1157q18 115 79.5 185.5t162.5 70.5q78 0 149 -39l76 -41q43 -23 86 -22q37 0 61.5 20.5t47.5 81.5h88q-59 -258 -250 -258q-61 0 -137 35l-70 33q-74 35 -113 34q-68 0 -98 -100h-82zM309 270q0 -135 154 -135 q127 0 219 82v283q-373 -37 -373 -230z" />
<glyph unicode="&#xe4;" horiz-adv-x="1138" d="M59 233q0 162 156 252t467 121v133q0 90 -39 128t-141 38q-70 0 -118 -30.5t-52 -77.5q-8 -86 -34 -117t-81 -31t-83 35t-28 78q0 117 117 189.5t307 72.5q213 0 307.5 -73.5t94.5 -233.5v-514q0 -80 65 -80q45 0 84 39l68 -72q-84 -111 -244 -110q-156 0 -207 129 q-168 -129 -342 -129q-139 0 -218 75.5t-79 177.5zM203 1272q0 53 39 92t92 39t92 -39t39 -92t-39 -92t-92 -39t-92 39t-39 92zM309 270q0 -135 154 -135q127 0 219 82v283q-373 -37 -373 -230zM633 1272q0 53 39 92t92 39t92 -39t39 -92t-39 -92t-92 -39t-92 39t-39 92z " />
<glyph unicode="&#xe5;" horiz-adv-x="1138" d="M59 233q0 162 156 252t467 121v133q0 90 -39 128t-141 38q-70 0 -118 -30.5t-52 -77.5q-8 -86 -34 -117t-81 -31t-83 35t-28 78q0 117 117 189.5t307 72.5q213 0 307.5 -73.5t94.5 -233.5v-514q0 -80 65 -80q45 0 84 39l68 -72q-84 -111 -244 -110q-156 0 -207 129 q-168 -129 -342 -129q-139 0 -218 75.5t-79 177.5zM309 270q0 -135 154 -135q127 0 219 82v283q-373 -37 -373 -230zM330 1339.5q0 90.5 64.5 155t154.5 64.5t154.5 -64.5t64.5 -155t-64.5 -155t-154.5 -64.5t-154.5 64.5t-64.5 155zM436 1339q0 -45 34 -78.5t79 -33.5 t79 33.5t34 78.5t-34 79t-79 34t-79 -34t-34 -79z" />
<glyph unicode="&#xe6;" horiz-adv-x="1705" d="M53 246q0 174 171 259t472 89v143q0 88 -43 128t-153 40q-68 0 -116 -30.5t-52 -77.5q-8 -86 -34 -117t-81 -31t-83 35t-28 78q0 117 117 189.5t307 72.5q199 0 318 -109q119 109 313 109q467 0 467 -502v-30h-682v-41q0 -141 68.5 -240.5t204.5 -99.5q199 0 329 206 l105 -67q-172 -270 -488 -270q-231 0 -389 188q-166 -188 -401 -188q-166 0 -244 77.5t-78 188.5zM303 254q0 -70 37 -106.5t104 -36.5q131 0 191.5 82.5t60.5 201.5v80h-32q-63 0 -124 -11t-116 -36t-88 -70t-33 -104zM946 610h408q0 63 -5.5 106.5t-22.5 91.5t-59 72.5 t-106 24.5q-113 0 -164 -87t-51 -208z" />
<glyph unicode="&#xe7;" horiz-adv-x="1138" d="M80 514q0 240 151.5 375t380.5 135q176 0 297 -72.5t121 -206.5q0 -57 -32.5 -92t-92.5 -35q-57 0 -91 32t-34 83q0 12 3 36t3 34q0 45 -59 73.5t-137 28.5q-236 0 -236 -413q0 -186 79 -283.5t231 -97.5q106 0 197 52t126 132l109 -51q-143 -252 -467 -264l-47 -115 q31 10 75 10q70 0 122 -36t52 -107q0 -92 -79.5 -135t-198.5 -43q-104 0 -188 36l34 72q53 -27 123 -27q117 0 117 80q0 78 -94 78q-27 0 -60 -8l-20 18l80 179q-213 16 -339 167.5t-126 364.5z" />
<glyph unicode="&#xe8;" horiz-adv-x="1138" d="M80 514q0 238 149.5 374t362.5 136q205 0 334 -112.5t129 -338.5h-695q-6 -31 -6 -81q0 -166 71 -273.5t222 -107.5q225 0 330 198l100 -47q-129 -283 -483 -282q-3 0 -6 -1q-231 0 -369 153q-139 155 -139 382zM264 1409q0 45 26.5 68.5t63.5 23.5q72 0 119 -57 l279 -324h-113l-303 187q-72 45 -72 102zM373 692h407v31q0 76 -47 129t-141 53t-151.5 -58.5t-67.5 -154.5z" />
<glyph unicode="&#xe9;" horiz-adv-x="1138" d="M80 514q0 238 149.5 374t362.5 136q205 0 334 -112.5t129 -338.5h-695q-6 -31 -6 -81q0 -166 71 -273.5t222 -107.5q225 0 330 198l100 -47q-129 -283 -483 -282q-3 0 -6 -1q-231 0 -369 153q-139 155 -139 382zM373 692h407v31q0 76 -47 129t-141 53t-151.5 -58.5 t-67.5 -154.5zM428 1120l279 324q47 57 118 57q37 0 63.5 -23.5t26.5 -68.5q0 -57 -71 -102l-303 -187h-113z" />
<glyph unicode="&#xea;" horiz-adv-x="1138" d="M80 514q0 238 149.5 374t362.5 136q205 0 334 -112.5t129 -338.5h-695q-6 -31 -6 -81q0 -166 71 -273.5t222 -107.5q225 0 330 198l100 -47q-129 -283 -483 -282q-3 0 -6 -1q-231 0 -369 153q-139 155 -139 382zM244 1120l250 361h192l250 -361h-117l-229 205l-230 -205 h-116zM373 692h407v31q0 76 -47 129t-141 53t-151.5 -58.5t-67.5 -154.5z" />
<glyph unicode="&#xeb;" horiz-adv-x="1138" d="M80 514q0 238 149.5 374t362.5 136q205 0 334 -112.5t129 -338.5h-695q-6 -31 -6 -81q0 -166 71 -273.5t222 -107.5q225 0 330 198l100 -47q-129 -283 -483 -282q-3 0 -6 -1q-231 0 -369 153q-139 155 -139 382zM244 1272q0 53 39 92t92 39t92 -39t39 -92t-39 -92 t-92 -39t-92 39t-39 92zM373 692h407v31q0 76 -47 129t-141 53t-151.5 -58.5t-67.5 -154.5zM674 1272q0 53 39 92t92 39t92 -39t39 -92t-39 -92t-92 -39t-92 39t-39 92z" />
<glyph unicode="&#xec;" horiz-adv-x="684" d="M16 1409q0 45 27 68.5t63 23.5q72 0 119 -57l279 -324h-113l-303 187q-72 45 -72 102zM61 0v119q92 2 124 34.5t32 100.5v455q0 61 -27.5 81.5t-128.5 26.5v119q168 10 304 68h102v-750q0 -68 31.5 -100.5t124.5 -34.5v-119h-562z" />
<glyph unicode="&#xed;" horiz-adv-x="684" d="M61 0v119q92 2 124 34.5t32 100.5v455q0 61 -27.5 81.5t-128.5 26.5v119q168 10 304 68h102v-750q0 -68 31.5 -100.5t124.5 -34.5v-119h-562zM180 1120l279 324q47 57 119 57q37 0 63.5 -23.5t26.5 -68.5q0 -57 -72 -102l-303 -187h-113z" />
<glyph unicode="&#xee;" horiz-adv-x="684" d="M-4 1120l250 361h192l250 -361h-117l-229 205l-229 -205h-117zM61 0v119q92 2 124 34.5t32 100.5v455q0 61 -27.5 81.5t-128.5 26.5v119q168 10 304 68h102v-750q0 -68 31.5 -100.5t124.5 -34.5v-119h-562z" />
<glyph unicode="&#xef;" horiz-adv-x="684" d="M-4 1272q0 53 39 92t92 39t92 -39t39 -92t-39 -92t-92 -39t-92 39t-39 92zM61 0v119q92 2 124 34.5t32 100.5v455q0 61 -27.5 81.5t-128.5 26.5v119q168 10 304 68h102v-750q0 -68 31.5 -100.5t124.5 -34.5v-119h-562zM426 1272q0 53 39 92t92 39t92 -39t39 -92t-39 -92 t-92 -39t-92 39t-39 92z" />
<glyph unicode="&#xf0;" d="M80 479q0 223 143.5 363.5t339.5 140.5q133 0 219 -55l6 4q-23 66 -71.5 136.5t-100.5 111.5l-270 -140l-49 93l240 122q-104 86 -240 142l61 78q197 -47 344 -136l238 123l49 -92l-188 -96q174 -123 273 -304q100 -182 100 -409q0 -272 -144.5 -426.5t-415.5 -154.5 q-129 0 -234.5 47t-169 122.5t-97 160.5t-33.5 169zM354 520v-24q0 -187 60 -283q63 -102 213 -102q147 0 209.5 101t62.5 308q0 344 -268 344q-271 0 -277 -344z" />
<glyph unicode="&#xf1;" horiz-adv-x="1363" d="M74 0v119q92 2 123.5 34.5t31.5 100.5v455q0 61 -27.5 81.5t-127.5 26.5v119q190 12 303 88h90v-133q160 133 367 133q129 0 215 -66.5t86 -216.5v-487q0 -68 31.5 -100.5t123.5 -34.5v-119h-530v119q70 12 97.5 36.5t27.5 88.5v475q0 92 -33 127t-96 35 q-143 0 -277 -119v-508q0 -68 32 -100.5t124 -34.5v-119h-561zM307 1157q18 115 80 185.5t162 70.5q78 0 149 -39l76 -41q43 -23 86 -22q37 0 61.5 20.5t47.5 81.5h88q-59 -258 -250 -258q-61 0 -137 35l-70 33q-74 35 -113 34q-68 0 -98 -100h-82z" />
<glyph unicode="&#xf2;" d="M80 514q0 236 161.5 373t385 137t385.5 -137t162 -373q0 -225 -148.5 -379.5t-398.5 -154.5t-398.5 154.5t-148.5 379.5zM301 1409q0 45 26.5 68.5t63.5 23.5q72 0 119 -57l278 -324h-112l-303 187q-72 45 -72 102zM354 508q0 -199 62.5 -298t210 -99t210 99t62.5 298 t-62.5 298t-210 99t-210 -99t-62.5 -298z" />
<glyph unicode="&#xf3;" d="M80 514q0 236 161.5 373t385 137t385.5 -137t162 -373q0 -225 -148.5 -379.5t-398.5 -154.5t-398.5 154.5t-148.5 379.5zM354 508q0 -199 62.5 -298t210 -99t210 99t62.5 298t-62.5 298t-210 99t-210 -99t-62.5 -298zM465 1120l278 324q47 57 119 57q37 0 63.5 -23.5 t26.5 -68.5q0 -57 -71 -102l-303 -187h-113z" />
<glyph unicode="&#xf4;" d="M80 514q0 236 161.5 373t385 137t385.5 -137t162 -373q0 -225 -148.5 -379.5t-398.5 -154.5t-398.5 154.5t-148.5 379.5zM281 1120l249 361h193l250 -361h-117l-229 205l-230 -205h-116zM354 508q0 -199 62.5 -298t210 -99t210 99t62.5 298t-62.5 298t-210 99t-210 -99 t-62.5 -298z" />
<glyph unicode="&#xf5;" d="M80 514q0 236 161.5 373t385 137t385.5 -137t162 -373q0 -225 -148.5 -379.5t-398.5 -154.5t-398.5 154.5t-148.5 379.5zM252 1157q18 115 79.5 185.5t162.5 70.5q78 0 149 -39l76 -41q43 -23 86 -22q37 0 61.5 20.5t46.5 81.5h88q-59 -258 -249 -258q-61 0 -138 35 l-69 33q-74 35 -113 34q-68 0 -98 -100h-82zM354 508q0 -199 62.5 -298t210 -99t210 99t62.5 298t-62.5 298t-210 99t-210 -99t-62.5 -298z" />
<glyph unicode="&#xf6;" d="M80 514q0 236 161.5 373t385 137t385.5 -137t162 -373q0 -225 -148.5 -379.5t-398.5 -154.5t-398.5 154.5t-148.5 379.5zM281 1272q0 53 38.5 92t92 39t92.5 -39t39 -92t-39 -92t-92.5 -39t-92 39t-38.5 92zM354 508q0 -199 62.5 -298t210 -99t210 99t62.5 298t-62.5 298 t-210 99t-210 -99t-62.5 -298zM711 1272q0 53 38.5 92t92 39t92.5 -39t39 -92t-39 -92t-92.5 -39t-92 39t-38.5 92z" />
<glyph unicode="&#xf7;" horiz-adv-x="1228" d="M96 428v180h1037v-180h-1037zM459 92.5q0 63.5 45 109.5t110.5 46t110.5 -46t45 -109.5t-45 -109.5t-110.5 -46t-110.5 46t-45 109.5zM459 944.5q0 63.5 45 109.5t110.5 46t110.5 -46t45 -109.5t-45 -110t-110.5 -46.5t-110.5 46.5t-45 110z" />
<glyph unicode="&#xf8;" d="M80 514q0 236 161.5 373t385.5 137q106 0 207 -35l135 234h131l-162 -283q236 -141 236 -426q0 -225 -148.5 -379.5t-398.5 -154.5q-119 0 -219 38l-123 -213h-131l153 267q-109 72 -168 188.5t-59 253.5zM354 508q0 -178 47 -272l365 636q-51 33 -139 33 q-147 0 -210 -99t-63 -298zM481 147q55 -37 146 -36q147 0 209.5 99t62.5 298q0 186 -51 276z" />
<glyph unicode="&#xf9;" horiz-adv-x="1366" d="M74 817v119q168 10 303 68h102v-719q0 -92 33 -127t96 -35q143 0 277 119v467q0 61 -28 81.5t-128 26.5v119q168 10 303 68h103v-750q0 -68 31.5 -100.5t125.5 -34.5v-119h-395v113q-160 -133 -367 -133q-129 0 -215 66.5t-86 215.5v447q0 61 -27.5 81.5t-127.5 26.5z M358 1409q0 45 27 68.5t64 23.5q72 0 118 -57l279 -324h-113l-303 187q-72 45 -72 102z" />
<glyph unicode="&#xfa;" horiz-adv-x="1366" d="M74 817v119q168 10 303 68h102v-719q0 -92 33 -127t96 -35q143 0 277 119v467q0 61 -28 81.5t-128 26.5v119q168 10 303 68h103v-750q0 -68 31.5 -100.5t125.5 -34.5v-119h-395v113q-160 -133 -367 -133q-129 0 -215 66.5t-86 215.5v447q0 61 -27.5 81.5t-127.5 26.5z M522 1120l279 324q47 57 119 57q37 0 63.5 -23.5t26.5 -68.5q0 -57 -72 -102l-303 -187h-113z" />
<glyph unicode="&#xfb;" horiz-adv-x="1366" d="M74 817v119q168 10 303 68h102v-719q0 -92 33 -127t96 -35q143 0 277 119v467q0 61 -28 81.5t-128 26.5v119q168 10 303 68h103v-750q0 -68 31.5 -100.5t125.5 -34.5v-119h-395v113q-160 -133 -367 -133q-129 0 -215 66.5t-86 215.5v447q0 61 -27.5 81.5t-127.5 26.5z M338 1120l250 361h192l250 -361h-117l-229 205l-229 -205h-117z" />
<glyph unicode="&#xfc;" horiz-adv-x="1366" d="M74 817v119q168 10 303 68h102v-719q0 -92 33 -127t96 -35q143 0 277 119v467q0 61 -28 81.5t-128 26.5v119q168 10 303 68h103v-750q0 -68 31.5 -100.5t125.5 -34.5v-119h-395v113q-160 -133 -367 -133q-129 0 -215 66.5t-86 215.5v447q0 61 -27.5 81.5t-127.5 26.5z M338 1272q0 53 39 92t92 39t92 -39t39 -92t-39 -92t-92 -39t-92 39t-39 92zM768 1272q0 53 39 92t92 39t92 -39t39 -92t-39 -92t-92 -39t-92 39t-39 92z" />
<glyph unicode="&#xfd;" horiz-adv-x="1138" d="M-8 885v119h549v-119q-78 -4 -105.5 -17.5t-27.5 -40.5q0 -39 30 -108l189 -438l166 417q27 68 26 103q0 37 -23.5 53t-103.5 31v119h455v-119q-74 -20 -118 -62.5t-77 -115.5l-391 -879q-72 -160 -155.5 -235.5t-212.5 -75.5q-72 0 -125.5 37.5t-53.5 111.5q0 49 32 87 t83 38q49 0 86 -41t70 -41q76 0 131 115l82 166l-340 764q-29 68 -67 95.5t-99 35.5zM408 1120l278 324q47 57 119 57q37 0 63.5 -23.5t26.5 -68.5q0 -57 -72 -102l-303 -187h-112z" />
<glyph unicode="&#xfe;" horiz-adv-x="1251" d="M61 -463v119q92 2 124 35t32 100v1327q0 61 -27.5 82t-128.5 27v119q168 10 304 67h102v-491q109 102 272 102q76 0 146.5 -24.5t138.5 -81t107.5 -167t39.5 -264.5q0 -219 -120.5 -363t-317.5 -144q-129 0 -266 94v-283q0 -76 29.5 -104.5t126.5 -30.5v-119h-562z M467 213q82 -90 203 -90q129 0 190.5 105.5t61.5 273.5t-61.5 273.5t-190.5 105.5t-203 -90v-578z" />
<glyph unicode="&#xff;" horiz-adv-x="1138" d="M-8 885v119h549v-119q-78 -4 -105.5 -17.5t-27.5 -40.5q0 -39 30 -108l189 -438l166 417q27 68 26 103q0 37 -23.5 53t-103.5 31v119h455v-119q-74 -20 -118 -62.5t-77 -115.5l-391 -879q-72 -160 -155.5 -235.5t-212.5 -75.5q-72 0 -125.5 37.5t-53.5 111.5q0 49 32 87 t83 38q49 0 86 -41t70 -41q76 0 131 115l82 166l-340 764q-29 68 -67 95.5t-99 35.5zM223 1272q0 53 39 92t92.5 39t92 -39t38.5 -92t-38.5 -92t-92 -39t-92.5 39t-39 92zM653 1272q0 53 39 92t92.5 39t92 -39t38.5 -92t-38.5 -92t-92 -39t-92.5 39t-39 92z" />
<glyph unicode="&#x152;" horiz-adv-x="2048" d="M39 721q0 299 166 499.5t444 200.5q270 0 414 -182h4v156h793l122 -408l-98 -51l-41 82q-70 139 -154.5 186t-205.5 47q-135 0 -168 -14t-33 -76v-327h33q117 0 162 46t61 195h107v-622h-107q-16 135 -64.5 186t-148.5 51h-43v-434q0 -80 29.5 -102.5t113.5 -22.5 q154 0 267.5 77t228.5 302l109 -49l-146 -461h-835v137q-176 -164 -400 -164q-276 0 -443 200t-167 548zM326 696q0 -279 87 -435.5t255 -156.5q186 0 263 149.5t77 442.5q0 295 -77 444.5t-263 149.5q-168 0 -255 -156.5t-87 -437.5z" />
<glyph unicode="&#x153;" horiz-adv-x="1820" d="M68 500q0 227 130 375.5t402 148.5q215 0 348 -143q135 143 365 143q207 0 314.5 -128t107.5 -357v-47h-658q0 -160 64.5 -270.5t204.5 -110.5q190 0 323 213l84 -80q-80 -131 -185.5 -197.5t-262.5 -66.5q-125 0 -206 35.5t-141 111.5q-184 -147 -397 -147 q-248 0 -370.5 149.5t-122.5 370.5zM342 500q0 -193 54.5 -291t183.5 -98q248 0 247 389q0 406 -237 405q-123 0 -185.5 -90t-62.5 -315zM1077 610h408q0 63 -5 106.5t-22.5 91.5t-59.5 72.5t-106 24.5q-113 0 -164 -87t-51 -208z" />
<glyph unicode="&#x178;" horiz-adv-x="1366" d="M-8 1276v119h616v-119q-143 0 -143 -53q0 -29 45 -103l215 -354l233 371q29 45 29 73.5t-25.5 41t-107.5 24.5v119h520v-119q-96 -10 -155.5 -57.5t-145.5 -176.5l-285 -426v-342q0 -86 38 -117.5t157 -37.5v-119h-692v119q152 20 187.5 49t35.5 141v316l-301 495 q-84 138 -221 156zM338 1622q0 53 39 92t92 39t92 -39t39 -92t-39 -92t-92 -39t-92 39t-39 92zM768 1622q0 53 39 92t92 39t92 -39t39 -92t-39 -92t-92 -39t-92 39t-39 92z" />
<glyph unicode="&#x2c6;" horiz-adv-x="684" d="M-4 1120l250 361h192l250 -361h-117l-229 205l-229 -205h-117z" />
<glyph unicode="&#x2dc;" horiz-adv-x="684" d="M-33 1157q18 115 80 185.5t162 70.5q78 0 149 -39l76 -41q43 -23 86 -22q37 0 61.5 20.5t47.5 81.5h88q-59 -258 -250 -258q-61 0 -137 35l-70 33q-74 35 -113 34q-68 0 -98 -100h-82z" />
<glyph unicode="&#x2013;" horiz-adv-x="1024" d="M0 463v155h1024v-155h-1024z" />
<glyph unicode="&#x2014;" horiz-adv-x="2048" d="M0 463v155h2048v-155h-2048z" />
<glyph unicode="&#x2018;" horiz-adv-x="569" d="M123 1077q0 195 174 344l68 -63q-104 -106 -111 -205q25 12 55 12q57 0 97 -39t40 -110q0 -61 -40.5 -105.5t-106.5 -44.5q-94 0 -135 65.5t-41 145.5z" />
<glyph unicode="&#x2019;" horiz-adv-x="569" d="M123 1272q0 61 41 105t106 44q94 0 135 -65.5t41 -145.5q0 -195 -174 -344l-67 64q104 106 110 205q-25 -12 -55 -13q-57 0 -97 39t-40 111z" />
<glyph unicode="&#x201a;" horiz-adv-x="569" d="M123 150q0 61 41 105t106 44q94 0 135 -65.5t41 -145.5q0 -195 -174 -344l-67 63q104 106 110 205q-25 -12 -55 -12q-57 0 -97 39t-40 111z" />
<glyph unicode="&#x201c;" horiz-adv-x="1024" d="M135 1077q0 195 174 344l68 -63q-104 -106 -111 -205q25 12 56 12q57 0 97 -39t40 -110q0 -61 -41 -105.5t-107 -44.5q-94 0 -135 65.5t-41 145.5zM565 1077q0 195 174 344l68 -63q-104 -106 -111 -205q25 12 56 12q57 0 97 -39t40 -110q0 -61 -41 -105.5t-107 -44.5 q-94 0 -135 65.5t-41 145.5z" />
<glyph unicode="&#x201d;" horiz-adv-x="1024" d="M135 1272q0 61 41 105t107 44q94 0 135 -65.5t41 -145.5q0 -195 -174 -344l-68 64q104 106 111 205q-25 -12 -56 -13q-57 0 -97 39t-40 111zM565 1272q0 61 41 105t107 44q94 0 135 -65.5t41 -145.5q0 -195 -174 -344l-68 64q104 106 111 205q-25 -12 -56 -13 q-57 0 -97 39t-40 111z" />
<glyph unicode="&#x201e;" horiz-adv-x="1024" d="M133 150q0 61 41 105t107 44q94 0 135 -65.5t41 -145.5q0 -195 -174 -344l-68 63q104 106 111 205q-25 -12 -56 -12q-57 0 -97 39t-40 111zM567 150q0 61 41 105t107 44q94 0 135 -65.5t41 -145.5q0 -195 -174 -344l-68 63q104 106 111 205q-25 -12 -55 -12 q-57 0 -97.5 39t-40.5 111z" />
<glyph unicode="&#x2022;" horiz-adv-x="1024" d="M168 690.5q0 143.5 100.5 243.5t243.5 100t243.5 -100t100.5 -243.5t-100.5 -244t-243.5 -100.5t-243.5 100.5t-100.5 244z" />
<glyph unicode="&#x2026;" horiz-adv-x="2048" d="M186 143.5q0 65.5 46.5 110.5t110 45t109.5 -45t46 -110.5t-46 -110.5t-109.5 -45t-110 45t-46.5 110.5zM868 143.5q0 65.5 45 110.5t111 45t111 -45t45 -110.5t-45 -110.5t-111 -45t-111 45t-45 110.5zM1550 143.5q0 65.5 46 110.5t109.5 45t110 -45t46.5 -110.5 t-46.5 -110.5t-110 -45t-109.5 45t-46 110.5z" />
<glyph unicode="&#x2039;" horiz-adv-x="681" d="M104 541q213 156 418 360q23 23 39.5 23t16.5 -21q0 -37 -92.5 -169t-155.5 -193q63 -61 155.5 -193.5t92.5 -169.5q0 -20 -16.5 -20t-39.5 22q-205 205 -418 361z" />
<glyph unicode="&#x203a;" horiz-adv-x="681" d="M104 178q0 37 92.5 169t155.5 194q-63 61 -155.5 193t-92.5 169q0 20 16.5 20.5t39.5 -22.5q205 -205 418 -360q-213 -156 -418 -361q-23 -23 -39.5 -22.5t-16.5 20.5z" />
<glyph unicode="&#x20ac;" d="M29 522v123h159v45q0 31 5 88h-164v123h182q47 221 184 360.5t332 139.5q147 0 281 -107q0 6 28 80h82l94 -407l-106 -39q-133 330 -356 329q-100 0 -172 -93t-99 -263h402v-123h-416q-2 -29 -2 -88v-45h418v-123h-406q27 -180 104.5 -289.5t202.5 -109.5q98 0 178 59.5 t156 198.5l115 -66q-76 -176 -200 -255.5t-265 -79.5q-223 0 -372.5 151.5t-190.5 390.5h-174z" />
<glyph unicode="&#x2122;" horiz-adv-x="2048" d="M47 1214v181h741v-181h-49q-31 131 -135 132h-90v-652q0 -47 15.5 -59t86.5 -19v-49h-397v49q72 6 87.5 18.5t15.5 59.5v652h-93q-102 0 -133 -132h-49zM872 1346v49h287l289 -592l309 592h244v-49q-68 -2 -89.5 -24t-21.5 -75v-553q0 -47 15.5 -59t87.5 -19v-49h-398v49 q72 6 87.5 18.5t15.5 59.5v473h-4l-301 -602h-27l-287 598h-4v-405q0 -82 18.5 -109.5t88.5 -32.5v-49h-275v49q70 4 88.5 32t18.5 110v489q-20 43 -59.5 71t-82.5 28z" />
<glyph unicode="&#xe000;" horiz-adv-x="1004" d="M0 1005h1005v-1005h-1005v1005z" />
<glyph unicode="&#xfb01;" horiz-adv-x="1366" d="M61 0v119q92 2 124 34.5t32 100.5v604h-156v131h156v25q0 379 461 379q211 0 325.5 -59.5t114.5 -174.5q0 -55 -31.5 -88t-87.5 -33q-90 0 -127 76l-34 76q-39 84 -168 84q-119 0 -161 -54.5t-42 -166.5v-64h682v-735q0 -68 31.5 -100.5t124.5 -34.5v-119h-562v119 q92 2 124 34.5t32 100.5v463q0 90 -31.5 115.5t-134.5 25.5h-266v-604q0 -68 31.5 -100.5t124.5 -34.5v-119h-562z" />
<glyph unicode="&#xfb02;" horiz-adv-x="1366" d="M61 0v119q92 2 124 34.5t32 100.5v604h-156v131h156v25q0 379 473 379q82 0 177.5 -16.5t101.5 -16.5q49 0 78 20h102v-1126q0 -68 31.5 -100.5t124.5 -34.5v-119h-562v119q92 2 124 34.5t32 100.5v840q-23 12 -47 80q-33 100 -170 100q-127 0 -171 -54.5t-44 -166.5v-64 h168v-131h-168v-604q0 -68 31.5 -100.5t124.5 -34.5v-119h-562z" />
<glyph unicode="&#xfb03;" horiz-adv-x="2048" d="M61 0v119q92 2 124 34.5t32 100.5v604h-156v131h156v51q0 164 103.5 258.5t281.5 94.5q96 0 155.5 -34t59.5 -102q0 -41 -24.5 -68.5t-65.5 -27.5q-53 0 -98 50.5t-80 50.5q-82 0 -82 -140v-133h164v-131h-164v-604q0 -68 31.5 -100.5t124.5 -34.5v-119h-562zM743 0v119 q92 2 124 34.5t32 100.5v604h-156v131h156v51q0 164 103.5 258.5t281.5 94.5q96 0 155.5 -34t59.5 -102q0 -41 -24.5 -68.5t-65.5 -27.5q-53 0 -98 50.5t-80 50.5q-82 0 -82 -140v-133h164v-131h-164v-604q0 -68 31.5 -100.5t124.5 -34.5v-119h-562zM1425 0v119 q92 2 124 34.5t32 100.5v455q0 61 -27.5 81.5t-128.5 26.5v119q168 10 304 68h102v-750q0 -68 31.5 -100.5t124.5 -34.5v-119h-562zM1573 1277.5q0 65.5 45 111t110.5 45.5t110.5 -45.5t45 -111t-45 -110.5t-110.5 -45t-110.5 45t-45 110.5z" />
<glyph unicode="&#xfb04;" horiz-adv-x="2048" d="M61 0v119q92 2 124 34.5t32 100.5v604h-156v131h156v51q0 164 103.5 258.5t281.5 94.5q96 0 155.5 -34t59.5 -102q0 -41 -24.5 -68.5t-65.5 -27.5q-53 0 -98 50.5t-80 50.5q-82 0 -82 -140v-133h164v-131h-164v-604q0 -68 31.5 -100.5t124.5 -34.5v-119h-562zM743 0v119 q92 2 124 34.5t32 100.5v604h-156v131h156v51q0 164 103.5 258.5t281.5 94.5q96 0 155.5 -34t59.5 -102q0 -41 -24.5 -68.5t-65.5 -27.5q-53 0 -98 50.5t-80 50.5q-82 0 -82 -140v-133h164v-131h-164v-604q0 -68 31.5 -100.5t124.5 -34.5v-119h-562zM1425 0v119 q92 2 124 34.5t32 100.5v864q0 61 -27.5 82t-128.5 27v119q168 10 304 67h102v-1159q0 -68 31.5 -100.5t124.5 -34.5v-119h-562z" />
</font>
</defs>
</svg>
