<?xml version="1.0" standalone="no"?>
<!DOCTYPE svg PUBLIC "-//W3C//DTD SVG 1.1//EN" "http://www.w3.org/Graphics/SVG/1.1/DTD/svg11.dtd" >
<svg xmlns="http://www.w3.org/2000/svg">
<metadata>
This is a custom SVG webfont generated by Font Squirrel.
Copyright   :  1999 SolarSister Fonts        wwwiinetnetauisabelle                                                Designed for Laurie Farese by Isabelle TrolioSolar Sister Fonts and Typearound Productions
</metadata>
<defs>
<font id="CurlyCoryphaeusRegular" horiz-adv-x="750" >
<font-face units-per-em="1500" ascent="1200" descent="-300" />
<missing-glyph horiz-adv-x="500" />
<glyph unicode=" " />
<glyph unicode="!" horiz-adv-x="396" d="M375 10q0 -15 -19 -49q-3 -13 -13 -40q-13 -22 -39 -35q-4 -1 -24 -1q-67 0 -104 86q-2 6 -18 91q-13 70 -13 58q0 67 16 213l35 165l7 10q27 139 27 199q0 39 -10 75q-14 50 -41 53q-4 -14 0 -29q6 -18 6 -24q0 -13 -13 -25t-27 -12q-2 0 -23 7q-1 4 -13 30q-9 20 -9 28 q0 10 22 57.5t34 55.5q20 12 36 12q51 0 83 -53q25 -41 25 -80q0 -120 -52 -405q-38 -209 -38 -265q0 -122 72 -147l8 7q-25 13 -25 35q0 38 52 38q15 0 36.5 -21.5t21.5 -33.5zM365 -348q0 -38 -17 -69q-21 -38 -56 -38q-19 0 -58 32t-39 52q0 6 9 12q14 10 16 12 q-6 12 -28 35q-17 17 -17 34q0 63 87 63q53 0 80 -42q23 -36 23 -91zM290 -276l-12 3q-12 3 -27 3l-5 -19q1 0 6.5 -3t12.5 -3q15 0 25 19zM315 -358v28h-23q-10 -6 -52 -22q19 -38 45 -38q9 0 19.5 11t10.5 21z" />
<glyph unicode="&#x22;" horiz-adv-x="324" />
<glyph unicode="#" horiz-adv-x="622" d="M606 440q0 -26 -22.5 -47.5t-46.5 -21.5q-52 0 -59 41q3 1 41 1q19 0 32 11q-1 8 -22 17q-12 5 -24 5q-15 0 -56.5 -13t-48.5 -19v-117q0 -139 -64 -139q-15 0 -35 21.5t-20 34.5q0 19 23 19q6 0 34 -13q11 14 11 69q0 35 -8 100q-4 3 -10 3q-4 0 -33 -8.5t-41 -9.5 q-14 -14 -4 -60q9 -49 -6 -72q-21 -30 -30 -30q-13 0 -32 18v14q22 18 22 56q0 57 -16 65q-75 -2 -124 19q-61 26 -61 81q0 28 20 28q25 0 25 -14q0 -3 -2 -10.5t-1 -11.5q5 -20 47 -31q31 -9 60 -9q16 0 34 12q-2 20 -4 63t-4 64q-17 0 -53.5 -4.5t-39.5 -4.5q-17 0 -44 31 q-24 27 -24 32q0 63 61 63q35 0 39 -24q-5 -5 -5 -13q-14 -3 -27 -5.5t-13 -18.5q0 -19 34 -19q11 0 38 6q31 7 31 13q11 21 12 74.5t10 73.5q16 34 67 34q29 0 37.5 -8t8.5 -32q0 -19 -10 -34q-12 -18 -29 -18q-21 0 -21 10q0 4 4 14.5t4 14.5t-1 7q-25 -13 -29 -53 q-5 -63 -5 -66q-4 -2 7 -2q12 0 56 23q41 21 45 25q2 40 12 87t32 102q6 14 23 30.5t29 16.5q10 0 38.5 -8t38.5 -17q7 -7 7 -40q0 -52 -27 -52q-19 0 -23 29v35q-3 3 -11 3q-20 0 -41 -75q-17 -62 -17 -86q45 -8 89 -17q49 -10 49 -50q0 -25 -10 -48q-12 -30 -34 -30 q-14 0 -29 14q2 9 12 25.5t10 21.5q0 31 -50 31q-24 0 -41 -11q-5 -20 -5 -68l5 -98q7 -7 9 -7q-3 0 57 15q39 10 83 10q20 0 43 -15.5t23 -32.5zM335 456l-14 162l-83 -37q-12 -7 -12 -40q0 -57 14 -111h24q-4 0 71 26z" />
<glyph unicode="$" horiz-adv-x="567" d="M358 -226q3 -67 -22 -134q-33 -92 -101 -92q-31 0 -55.5 33t-24.5 65q0 67 44 67q1 0 54 -22l-9 -21q-21 -13 -28 -25l22 -28q24 4 41 60q12 42 13 82l-36 -1q-84 -2 -147 79q-59 75 -59 159q0 40 36 68t76 28q23 0 45 -34.5t22 -56.5q0 -42 -32 -42q-28 0 -33 22 q-2 8 1 44l-10 3q-22 -1 -22 -69q0 -131 144 -132l19 14l-37 259q-32 211 -45 228q-77 101 -77 182q0 92 41 125l38 26q49 33 63 86q18 66 25 78q17 27 73 50q22 -9 64 -31q7 -45 7 -46q0 -57 -32 -57q-26 0 -31 32q-2 9 -6 9q-22 0 -33 -20l-21 -39v-12q86 -36 104 -54 q33 -34 33 -119q0 -32 -25 -63t-58 -31q-51 0 -91 49q-9 -27 -9 -56q0 -52 43 -101q10 -12 84 -77q129 -116 129 -263q0 -70 -53.5 -137.5t-123.5 -84.5zM310 613h-5l-4 -4q-8 -6 -8 -12v-55q30 3 25 3q14 0 27 -20.5t30 -20.5q13 0 13 16q0 32 -24 63t-54 30zM202 515 q0 -12 12 -47q2 33 9 101q-21 -23 -21 -54zM414 173q-30 35 -116 92v-33q0 -46 24 -132q29 -106 33 -133q2 -41 9 -123q97 45 97 186q0 87 -47 143z" />
<glyph unicode="%" horiz-adv-x="657" d="M384 560q-5 -22 -36.5 -45.5t-50.5 -26.5q-29 -4 -76 33q-19 15 -24 37q-3 0 -38 -2l-37 58q-18 33 -17 65q1 47 31 94.5t70 53.5q8 1 17 1q65 0 125 -36q73 -43 72 -112q-15 -47 -36 -120zM563 609q-33 -64 -117 -187q-124 -180 -129 -188q-204 -315 -205 -412 q-1 -16 8 -34q11 -24 30 -21q30 4 30 29q0 9 -25 49v26q6 1 8 2l5 3q14 7 27 7q26 0 45 -25t18 -54q0 -45 -37 -80q-31 -31 -66 -36q-11 -2 -22 -2q-53 0 -81 44q-25 38 -24 95q1 39 43 136q31 72 55 112q23 51 79 147q65 80 183 249q14 18 39 58q98 203 99 216v7 q0 14 22 60q12 24 12 31v37l-3 4q-24 -22 -25 -83q0 -18 -18 -21q-19 -3 -38 72q0 27 25 66q28 43 57 47q34 6 60 -28q21 -28 21 -49q-2 -132 -76 -277zM489 -86l-25 -4q-23 -3 -57.5 40t-33.5 65q0 25 25.5 55t45.5 33t45 -15q29 -19 31 -46q-14 -13 -41 -41l1 -1 q6 -7 15 -5q21 3 39.5 37t18.5 68q0 63 -61 63q-49 0 -91.5 -34t-43.5 -83q0 1 21 -73q6 -22 0 -39l-2 -6q-1 -2 -1 -8l-26 -4q-25 -4 -45 49q-15 42 -15 66q3 170 170 196q13 2 26 2q60 0 98 -41t37 -104q0 -52 -41 -107t-90 -63zM244 759q-70 -11 -71 -68q0 -16 21 -62 q20 60 65 67q17 2 34 -3q27 -8 27 -34q-1 -9 -19.5 -42t-19.5 -40q0 -12 4 -16q10 5 59 72q2 6 2 26q2 102 -83 102q-9 0 -19 -2z" />
<glyph unicode="&#x26;" horiz-adv-x="704" d="M681 186q0 -5 -4.5 -21.5t-4.5 -24.5q-5 -139 -138 -258l46 -63q45 -61 45 -74q0 -10 -2 -16q-25 -22 -54 -22q-8 0 -36 23.5t-44 43.5l-24 37q-21 28 -40 28q-6 0 -58 -10t-59 -10q-39 0 -118.5 14.5t-90.5 22.5q-27 19 -47 61t-20 74q0 64 95 207l79 136q2 3 20 23 q14 16 14 24q0 14 -19 68q-21 62 -21 115q0 117 31 196q45 113 143 113q42 0 108 -38q39 -22 55 -86q7 -28 7 -56q0 -67 -28 -113q-25 -42 -107 -133q-73 -81 -73 -86q0 -7 22 -103q9 -44 30 -127q19 -61 99 -191q55 7 99 98q39 79 39 138q0 29 -14 51q-17 28 -49 28 q-29 0 -48 -83l8 -9q3 3 25 22q16 14 22 14q23 0 41 -53q0 -21 -35.5 -47.5t-53.5 -26.5q-22 0 -49.5 23.5t-37.5 49.5q-1 4 -1 39q0 45 6 69q8 30 35 45q51 27 98 27q45 0 80 -55q29 -47 29 -84zM468 723q0 28 -13 41q-40 38 -91 38q-45 0 -71 -86q-17 -59 -17 -109 q0 -41 21 -139q38 24 70 73l41 69q60 90 60 113zM397 -98l-134 368q-79 -100 -101 -138q-33 -59 -33 -123q0 -13 9 -43q11 -36 22 -49q31 -37 151 -37q74 0 86 22z" />
<glyph unicode="(" horiz-adv-x="480" d="M274 -73q-110 0 -187 152q-65 127 -65 248q0 16 15 177q9 105 70 224q75 146 162 146q58 0 137 -50l1 -9q1 -37 -26 -87q-30 -57 -65 -57q-33 0 -34 64l34 20q18 11 18 20q0 13 -19 22.5t-36 9.5q-88 0 -138 -201q-36 -145 -36 -279q0 -115 40 -208q51 -120 147 -120 q40 0 64.5 26t24.5 67l-10 16l-12 -5l-35 32q0 18 18 32t34 14q30 0 56.5 -33t26.5 -63q0 -75 -56 -119q-51 -39 -129 -39z" />
<glyph unicode=")" horiz-adv-x="453" d="M191 -28q-78 0 -129 40q-56 43 -56 118q0 30 26.5 63t56.5 33q16 0 34 -14t18 -32l-35 -32l-12 5l-10 -16q0 -41 24 -67t64 -26q96 0 148 120q40 93 40 208q0 134 -36 279q-50 201 -139 201q-16 0 -34 -9q-21 -10 -21 -23q0 -11 36 -30q10 -5 16 -10q0 -64 -33 -64 q-36 0 -65 57q-27 50 -26 87v9q80 50 138 50q87 0 161 -146q61 -119 71 -224q15 -161 15 -177q0 -121 -65 -248q-77 -152 -187 -152z" />
<glyph unicode="*" horiz-adv-x="574" d="M562 671q0 -43 -23 -82q-28 -46 -69 -46q-44 0 -40 55q7 4 19 1q15 -5 19 -5q17 0 38 49q-14 18 -28 18q-16 0 -68 -56q-46 -49 -62 -74q13 -13 33 -13q7 0 23.5 2.5t25.5 2.5q31 0 76 -27l12 -29q-3 -5 -35 -5q-10 0 -29.5 5t-28.5 5q-25 0 -52 -9v-25q0 -15 34 -72 l29 -43q13 0 36 11.5t28 11.5q8 0 8 -13q0 -11 -26 -36q-23 -20 -37 -29q-46 0 -85 58q-13 18 -51 95q-26 -10 -26 -110q0 -12 4 -36.5t4 -36.5q-7 -6 -19 -6q-25 0 -34 62q-3 41 -5 81l-50 -77q-20 -25 -94 -25q-15 15 -28.5 47.5t-13.5 54.5q0 25 17.5 48.5t41.5 23.5 t53 -38v-17q0 -12 -18 -12q-11 0 -30 16q-13 -7 -13 -31q0 -31 28 -31q33 0 95 129q-47 10 -94 19q-50 13 -80 53v18q0 6 13 6q43 -30 77 -39q28 -7 86 -7q26 0 39 8q-13 98 -65 135h-20q-5 0 -3 -10q4 -15 4 -14q0 -29 -12 -32h-20q-12 7 -27.5 31.5t-15.5 39.5q0 39 22 52 q16 9 57 9q13 0 107 -81q18 48 18 99q0 24 -25 29q-12 16 -12 30q0 15 18 20h16q44 0 44 -91q0 -20 -5 -59.5t-5 -60.5h5l68 70q39 34 87 34q24 0 44 -14t20 -37z" />
<glyph unicode="+" horiz-adv-x="584" d="M542 291q0 -48 -30.5 -79t-70.5 -31q-26 0 -46 20v22q33 -2 54 18q20 17 20 38q0 31 -53 31q-12 0 -69 -30q-4 -32 -19 -114q-13 -73 -13 -81q0 -26 36 -60v-28q-78 -19 -73 -19q-70 0 -71 107q0 33 8 83q6 46 6 52q-6 10 -23 10q-8 0 -35.5 -6.5t-35.5 -6.5 q-29 0 -59 13q-36 17 -36 43q0 25 33.5 64.5t49.5 39.5q13 0 34 -21q-31 -46 -31 -56q0 -18 11 -21h20q73 0 94 45q10 24 10 102q0 93 -40 93q-24 0 -28 -35q1 4 1 -37q-3 -3 -10.5 -7t-10.5 -7q-17 6 -35 33.5t-18 42.5q0 83 98 83q77 0 107 -59q17 -33 24 -109 q5 -59 20 -59q5 0 43 15.5t49 15.5q34 0 63 -41q26 -36 26 -64z" />
<glyph unicode="," horiz-adv-x="324" d="M132 -196q-5 -3 -46 -32q-35 -25 -41 -25q-12 0 -26 24q17 21 66 64l4 16l56 49q32 27 47 58q24 48 24 132q0 39 -23.5 67.5t-51.5 28.5q-16 0 -29 -11q-16 -14 -13 -35q8 -5 20 -4q15 2 19 1q16 -7 46 -19v-31q0 -18 -36 -47q-32 -25 -39 -25q-28 0 -57 48 q-24 40 -24 60q0 33 43 83q38 45 92 45q12 0 60 -30q40 -25 53 -55q10 -25 10 -76q0 -88 -38 -164q-41 -83 -116 -122z" />
<glyph unicode="-" horiz-adv-x="640" d="M622 413q0 -32 -24 -71q-28 -47 -64 -47q-17 0 -30 13v25q61 46 61 83q0 26 -19 26q-7 0 -32 -19q-31 -23 -46 -30q-104 -50 -126 -59q-74 -30 -134 -33q-8 -1 -26 -6.5t-25 -5.5q-46 0 -82 41q-34 38 -34 78q0 21 30 42q26 20 40 20q1 0 42 -18v-26q-44 -7 -44 -38 q0 -17 21 -28q18 -9 38 -9q6 0 21 4.5t24 5.5q64 5 173 72q105 65 154 65q82 0 82 -85z" />
<glyph unicode="." horiz-adv-x="312" d="M115 90q17 26 69 30q8 3 8 7q0 9 -19 16q-15 5 -26 5q-44 0 -66 -33q-6 -18 -27 -52l-25 15q-7 27 14 59q35 52 111 52q50 0 87 -24q50 -32 50 -93q0 -38 -21 -70q-18 -27 -36 -36q-11 -7 -46 -13q-18 -3 -31 -9q-19 5 -34 42t-15 71q0 22 7 33zM201 12q28 7 37 21 q5 7 5 18q0 23 -22 51q-16 -23 -31 -31q-21 9 -34 5q1 -8 1 -18v-8q0 -4 1 -10z" />
<glyph unicode="/" d="M470 438q-91 -115 -230 -335q-129 -201 -129 -215t19 -27q3 11 3 56q11 11 33 11q26 0 57 -21q6 -15 6 -31q0 -42 -35 -75.5t-72 -33.5q-43 0 -75 35q-28 31 -28 67q0 59 34 118q26 44 78 106q69 83 83 103l184 252q103 144 175 258q11 17 38 97q26 75 26 84q0 14 -17 14 q-29 0 -48 -51q-2 -6 11 -32q5 -8 7 -16q-11 -27 -36 -27q-43 0 -43 74q0 48 33 86.5t82 38.5q45 0 77 -25t32 -65q0 -110 -265 -446z" />
<glyph unicode="0" horiz-adv-x="696" d="M345 -227q-327 56 -327 504q0 126 95 314q11 21 45 53.5t43.5 53t19.5 93.5q10 67 28 95q28 44 92 44q75 0 142 -73q118 -128 148 -195q37 -82 37 -246q0 -195 -76 -372q-90 -213 -247 -271zM354 658q-41 6 -58 6q-52 0 -52 -72q0 -65 9 -90q14 -38 61 -65l15 6l3 5v36 q-22 23 -39 52v18q1 6 11 6q32 0 51 -36q14 -28 14 -64q0 -35 -13 -64q-18 -37 -50 -37q-41 0 -72 85q-40 110 -42 113q-35 -53 -70 -161.5t-35 -167.5q0 -134 46 -218q59 -107 181 -107q117 0 205 149q76 130 76 255q0 166 -22 263q-33 141 -124 226q-66 62 -114 62 q-46 0 -76 -112q28 -9 57 -8l18 -10q22 -18 19 -34q-4 -22 1 -32v-4z" />
<glyph unicode="1" horiz-adv-x="594" d="M555 -263q0 -43 -25 -79q-28 -39 -68 -39l-130 65q-8 -18 -8 -40q0 -8 1 -20t1 -17q0 -36 -68 -36q-42 0 -42 54q0 11 2 31.5t2 27.5q0 65 -61 65q-58 0 -75 -45q7 -19 40 -41q-1 -24 -49 -44l-49 24l-1 25q-1 80 51 109q36 20 120 20l14 15q13 157 13 577q0 29 10 92 q9 60 8 92l-5 133l-72 -60q-55 -46 -72 -46q-23 0 -26 29q149 148 229 284q48 -5 44 -30l-14 -92q-9 -58 -9 -93v-859q0 -83 38 -107l116 -54l26 65q0 29 -26 29q-8 0 -35 -6l-43 19q21 46 81 46q35 0 58.5 -29t23.5 -65z" />
<glyph unicode="2" horiz-adv-x="784" d="M761 -197q0 -110 -117 -163q-89 -41 -214 -41q-43 0 -130.5 25t-128.5 25q-12 0 -35 -8.5t-34 -8.5q-85 0 -85 33q0 38 117 229q166 270 217 368q118 221 118 332q0 86 -46 138.5t-131 52.5q-53 0 -86 -45q-30 -41 -30 -95l19 -9l15 42l16 7q13 0 26 -9.5t13 -23.5 q0 -37 -24 -69q-26 -35 -62 -35q-40 0 -64 34q-21 31 -21 73q0 82 54 136t136 54q111 0 181 -71t70 -182q0 -135 -151 -439l-230 -436l20 -13l52 6q48 0 134 -28t131 -28q67 0 127 53t60 121q0 43 -35 75.5t-78 32.5q-31 0 -61 -30t-24 -60q5 -3 33 -7q21 -3 27 -16l-14 -57 q-12 -29 -46 -29q-40 0 -75.5 32.5t-35.5 72.5q0 49 76 101q71 48 123 48q69 0 131 -59.5t62 -128.5z" />
<glyph unicode="3" horiz-adv-x="597" d="M195 -353q-83 0 -127 71q-39 63 -39 162q0 93 43 177q50 99 127 99q54 0 89 -48.5t35 -111.5q0 -67 -28 -113q-31 -53 -88 -53q-74 0 -74 86q0 -2 2 39q0 21 -4 46h51q6 -20 6 -37v-14v-13q0 -27 19 -27q42 0 42 97q0 36 -5 46q-8 17 -39 17q-98 0 -98 -174 q0 -80 22 -118t84 -55q172 69 227 179q49 98 49 333q0 108 -63 192q-65 88 -155 88q-20 0 -51 -9l-50 -14q-23 -5 -48 51l86 95q48 56 76 104q-17 3 -43 3q-11 0 -32 -1h-32q-82 0 -122 34v38l15 16q201 15 346 67l43 -35q0 -38 -70 -128l-99 -119q14 -10 91 -47 q62 -30 99 -95q87 -152 87 -325q0 -218 -91 -354q-100 -149 -281 -149z" />
<glyph unicode="4" horiz-adv-x="894" d="M878 520q0 -134 -177 -134q-28 0 -71 3q-52 3 -65 4l-32 -25q28 -109 54 -304q27 -199 27 -308q0 -226 -178 -226l-95 33q-29 42 -29 74q0 31 82 122l34 8q23 -33 40 -51l-54 -79l35 -43q27 0 54 46q25 41 25 70q0 31 -30 339q-30 302 -32 309l-12 24q-54 -15 -190 -34 q-118 -17 -179 -42q-40 21 -62 29l-13 35q55 43 261 289q188 225 223 235q27 -57 27 -140q0 -32 -5 -95t-5 -93q0 -70 21 -114h219q27 0 62 59l-48 65l-76 -43q-27 0 -32 30l33 59q18 24 56 24q52 0 92 -37.5t40 -88.5zM457 442v105q0 10 -18 169q-69 -80 -98 -125 q-39 -58 -60 -83q-29 -35 -66 -92q104 7 242 26z" />
<glyph unicode="5" horiz-adv-x="822" d="M805 32q0 -130 -119 -266q-102 -114 -218 -167q-91 -41 -137 -41q-137 0 -220 96q-80 91 -80 233q0 102 62 184q68 89 167 89q91 0 139 -74q41 -63 41 -162q0 -44 -33 -102q-36 -65 -76 -65q-62 0 -110 45t-48 106q0 72 44 72l31 -22q-6 -22 -6 -49q0 -72 49 -72 q36 0 57 40q17 32 17 72q0 26 -20 89l-104 41q-30 0 -66 -57q-33 -53 -33 -86q0 -297 196 -297q138 0 255 177q107 163 107 313q0 151 -86 254q-92 111 -242 111q-112 0 -258 -130l-40 43q9 27 11 55q2 20 1 52q-2 44 -2 56q0 35 9 122q9 78 6 122l28 9q96 -62 198 -62 q245 0 245 93q0 30 -47 31l-61 -44q-28 3 -28 37q0 25 25 53t49 28q44 0 90 -25q53 -29 53 -68q0 -85 -82 -133q-69 -41 -160 -41q-46 0 -119 8q-105 10 -119 11l-10 -22l4 -164l89 43q46 19 96 19q225 0 348 -170q107 -150 107 -385z" />
<glyph unicode="6" horiz-adv-x="791" d="M774 3q0 -163 -137 -298q-132 -130 -274 -130q-122 0 -224 149q-97 141 -97 289q0 182 145 445q138 251 277 353l44 42q29 27 49 27l19 -7v-38q-159 -139 -291 -368q-149 -260 -149 -463q0 -116 62 -231q70 -129 163 -129q135 0 227 106t92 263q0 133 -65 210t-177 77 q-64 0 -121 -71.5t-57 -146.5q0 -45 15 -88q20 -54 54 -54q12 0 31 41q18 38 18 55q0 42 -22 43l-52 -40l-30 26q1 32 17 62q19 34 45 34q52 0 90 -66l7 -48q0 -55 -27 -106q-31 -59 -75 -59q-64 0 -112.5 63t-48.5 140q0 129 105 212q93 72 210 72q137 0 215 -106 q74 -99 74 -260z" />
<glyph unicode="7" horiz-adv-x="868" d="M185 -299l-39 25l287 571q247 502 243 526q-40 0 -115 -26t-113 -28q-11 0 -53 1q-48 2 -77 2q-205 0 -205 -86q0 -65 36 -65q40 0 60 75l44 -29q-5 -46 -32 -81q-31 -40 -74 -40q-69 0 -96 127l11 39q25 94 141 114l267 27q191 30 339 139l32 -14q8 -30 -218 -471 l-274 -527l-65 -164q-50 -113 -99 -115z" />
<glyph unicode="8" horiz-adv-x="738" d="M698 555q0 -134 -29 -179q-34 -52 -163 -101q28 -28 78 -84q27 -36 36 -71q14 -58 14 -138q0 -56 -2 -76q0 -30 -12 -102q-33 -110 -118 -173q-77 -55 -168 -55q-51 0 -105 18q-65 21 -94 61t-62 155q-21 76 -21 100q0 134 62 252q73 140 189 139q-5 23 -32 28l-37 4 q-45 17 -79 128q-33 107 -33 161q0 53 2 61q14 75 46 129q11 18 64 57q66 49 123 49q79 0 164 -37q12 -13 39 -40l58 -55q40 -41 48 -73q32 -120 32 -158zM628 540q0 67 -39 146q-43 89 -110 131q-51 32 -90 32q-23 0 -80 -26q-61 -27 -69 -46q-25 -60 -29 -88 q-2 -10 -2 -61q0 -136 89 -244h21q-13 34 -13 67q0 56 32.5 93t82.5 37q96 0 96 -87q0 -81 -37 -81q-11 0 -24.5 12.5t-13.5 21.5q0 -6 9 32q2 6 -1 20t-3 17q-24 5 -42 -28q-16 -29 -16 -58q0 -12 22 -36q25 -28 51 -28q70 0 118 51.5t48 122.5zM366 174q0 70 -43 70 q-37 0 -69 -62q-26 -50 -26 -77q5 1 11 1q46 0 52 -53h21q24 9 40 51q14 36 14 70zM570 -61q0 77 -32 152q-37 85 -101 129q6 -15 6 -39q0 -65 -35 -125q-40 -68 -100 -68q-10 0 -97 52q-3 -25 -12 -84q-7 -48 -7 -55q0 -55 19 -117q25 -82 70 -106q40 -21 42 -21 q181 0 231 229q1 6 9 28q7 18 7 25z" />
<glyph unicode="9" horiz-adv-x="719" d="M314 920q158 0 265 -152q97 -137 96 -299q-1 -214 -79 -398q-69 -165 -218 -343q-33 -40 -116 -118q-96 -92 -118 -93l-31 18v21l31 51q157 125 293 419q135 291 136 499q1 93 -53 194q-63 117 -149 117q-134 0 -189 -67q-51 -61 -52 -198q0 -105 42.5 -142t152.5 -37 q34 0 58.5 21.5t24.5 55.5q0 15 -16 31t-31 11q-1 -2 -17 -56h-25l-13 48q1 76 57 76q48 0 92 -35t44 -81q0 -54 -73 -112q-69 -56 -124 -56q-143 0 -209 141q-50 106 -49 272q13 60 91 131q90 81 179 81z" />
<glyph unicode=":" horiz-adv-x="366" d="M163 518q15 27 66 36q8 3 8 7q0 18 -40 18q-49 0 -70 -39q-5 -19 -23 -55l-25 14q-9 25 9 59q33 63 120 63q42 0 74 -18q58 -30 58 -98q0 -33 -15 -61.5t-32 -39.5q-11 -7 -45 -17q-18 -4 -30 -11q-21 3 -40.5 43t-19.5 74q0 16 5 25zM255 448q28 9 35 23q4 7 4 15 q0 25 -26 53q-14 -24 -28 -34q-22 7 -35 2q2 -8 3 -18l1 -8q0 -4 2 -9zM167 -19q-5 30 31 69q9 16 -14 12q-29 -5 -46 -32.5t-13 -52.5q1 -7 8 -28q6 -17 6 -29l-28 -5q-23 15 -29 52q-1 8 -1 17q0 53 46.5 95.5t100.5 42.5q44 0 75 -30.5t37 -72.5q5 -32 -1 -51 q-5 -12 -27 -40q-11 -14 -16 -28q-6 -2 -13 -2q-30 0 -71 29t-45 54zM282 -19q17 24 14 39q-5 31 -58 41q3 -28 -3 -44q-21 -8 -29 -19q7 -5 14 -13l5 -6q3 -3 7 -6z" />
<glyph unicode=";" horiz-adv-x="324" d="M160 475q-31 0 -63 41q-14 -7 -14 -11q0 -30 24.5 -51t49.5 -21q8 0 29 4q18 3 30 1v-29q-18 -20 -56 -20q-54 0 -94 50q-38 46 -38 101q0 50 39 83q35 29 82 29q33 0 50 -9q12 -7 36 -32q13 -14 25 -21q1 -4 1 -8q0 -27 -37 -67t-64 -40zM159 -293q-5 -3 -46 -32 q-35 -25 -41 -25q-13 0 -27 24q17 21 67 63q0 1 3 17l57 49q32 27 47 58q24 48 24 132q0 39 -23.5 67.5t-51.5 28.5q-16 0 -29 -11q-16 -14 -14 -35q9 -5 21 -4q15 1 19 1q16 -7 46 -19v-31q0 -19 -36 -47q-32 -25 -39 -25q-28 0 -57 47q-24 41 -24 60q0 33 43 84 q38 45 91 45q13 0 61 -30q40 -25 52 -56q11 -24 11 -75q0 -88 -38 -164q-42 -84 -116 -122zM178 589q-21 20 -37 20q-31 0 -49 -51q28 -2 43 -10q4 -22 15 -31q5 5 14 11l7 4q3 3 7 6v51z" />
<glyph unicode="&#x3c;" horiz-adv-x="653" d="M549 579q6 -93 -315 -214l192 -109q189 -116 196 -224q3 -32 -19.5 -60.5t-53.5 -31.5q-27 -1 -52.5 23.5t-27.5 51.5q0 3 9 28l21 1q33 -32 58 -44q3 5 6 5l6 14q-2 25 -45 70q-48 50 -55 68q-75 50 -221.5 104.5t-234.5 64.5l-3 38q0 3 11 20t14 19q101 13 233 32 q46 10 128 59q94 55 92 89q-1 12 -20.5 25t-31.5 12q-18 -2 -40 -26l-26 -2l-2 32q-1 17 24 39t43 23q45 3 78 -29t36 -78z" />
<glyph unicode="=" horiz-adv-x="640" d="M622 413q0 -32 -24 -71q-28 -47 -64 -47q-17 0 -30 13v25q61 46 61 83q0 26 -19 26q-7 0 -32 -19q-31 -23 -46 -30q-104 -50 -126 -59q-74 -30 -134 -33q-8 -1 -26 -6.5t-25 -5.5q-46 0 -82 41q-34 38 -34 78q0 21 30 42q26 20 40 20q1 0 42 -18v-26q-44 -7 -44 -38 q0 -17 21 -28q18 -9 38 -9q6 0 21 4.5t24 5.5q64 5 173 72q105 65 154 65q82 0 82 -85zM613 183q0 -32 -24 -72q-28 -47 -64 -47q-17 0 -30 13v26q61 45 61 83q0 25 -19 25q-7 0 -32 -19q-31 -23 -46 -30q-104 -50 -126 -59q-74 -29 -134 -33q-8 0 -26 -5.5t-25 -5.5 q-46 0 -82 41q-34 38 -34 77q0 21 30 43q26 19 41 19l41 -18v-26q-44 -7 -44 -38q0 -17 22 -27q18 -9 37 -9q6 0 21 4t24 5q64 5 173 72q105 65 154 65q82 0 82 -84z" />
<glyph unicode="&#x3e;" horiz-adv-x="643" d="M86 578q-6 -93 315 -214l-192 -109q-189 -116 -196 -224q-2 -32 20 -60.5t54 -31.5q26 -1 51.5 23.5t27.5 51.5q0 3 -9 28l-21 1q-33 -32 -58 -44q-3 5 -6 5l-6 14q2 25 45 70q48 50 55 68q76 50 222 104.5t234 64.5l3 38q0 3 -11 20t-14 19q-101 13 -232 32 q-47 10 -129 59q-94 55 -92 89q1 12 20.5 25t31.5 12q18 -1 40 -26l26 -2l2 32q1 17 -24 39t-43 23q-45 3 -77.5 -29t-36.5 -78z" />
<glyph unicode="?" horiz-adv-x="446" d="M248 158q0 -25 14 -46q14 2 21 26l6 35q-8 14 -4 34q26 6 27 6q13 0 29.5 -18t16.5 -30q0 -42 -27 -78q-28 -39 -70 -39t-76 72q-29 61 -29 106q0 46 40 106q6 9 70 91q109 139 109 254q0 65 -46 111t-111 46q-125 0 -125 -134q0 -80 45 -80q18 0 22 19l-31 5v27 q28 27 43 27q22 0 46.5 -21.5t24.5 -43.5q0 -39 -29.5 -70t-68.5 -31q-131 0 -131 184q0 70 60 133.5t130 63.5q104 0 170 -65t66 -169q0 -106 -96 -260t-96 -261zM277 -217q-6 0 -18 2.5t-16 3.5q-9 6 -23 21v21q7 3 48 3q15 0 33.5 11t18.5 23v33l-3 3q-3 -3 -16 -33 q-10 -20 -35 -20q-23 0 -46 23t-23 46q0 31 32 50q26 15 57 15q35 0 65 -29t30 -63q0 -42 -31 -76t-73 -34zM273 -72l2 -9q2 3 5 5l2 4h-9z" />
<glyph unicode="@" d="M562 117q-75 0 -104 80l-45 -44q-28 -22 -58 -22q-84 0 -130 61q-41 55 -41 146q0 89 83 138q68 40 161 40q26 0 15 88h29q40 -42 43 -237q3 -166 42 -166q36 0 72 81q32 72 32 118q0 103 -74.5 181t-175.5 78q-150 0 -238 -109q-81 -101 -81 -256q0 -128 81 -235 q87 -117 208 -117q104 0 104 53q0 39 -62 39q-22 0 -22 -18q0 -26 -13 -43q-49 20 -47 45l2 36q46 41 122 41q35 0 68 -23q36 -26 36 -61q0 -48 -44 -85t-92 -37q-171 0 -286.5 112.5t-115.5 285.5q0 437 387 437q137 0 223 -104q81 -97 81 -236q0 -87 -36 -166 q-46 -101 -124 -101zM441 450h-54q-38 0 -85.5 -59t-47.5 -100q0 -40 18 -67q20 -32 56 -32q34 0 68 29.5t34 62.5q0 28 -35 28q-21 0 -23 -18t-3 -35q-4 -14 -20 -22q-35 20 -35 57q0 74 70 74q26 0 56 -9l2 6q-5 48 -1 85z" />
<glyph unicode="A" horiz-adv-x="1109" d="M1120 -159q0 -58 -29 -110q-36 -63 -94 -63q-144 0 -208 198q-39 120 -40 261q-1 5 -8 16q-61 6 -108 -17q-66 -31 -71 -106l25 29q13 12 32 12q9 0 26.5 -19.5t17.5 -27.5q0 -15 -20 -51q-23 -39 -41 -47q-6 -2 -24 -2q-47 0 -72 30q-10 0 -18 -11l-75 -123 q-58 -88 -117 -134q-47 -37 -116 -59q-4 -1 -33 -1q-65 0 -100 48q-29 40 -29 101q0 64 25 110q5 10 71 104q54 -1 107 -1q61 -5 61 -67q0 -13 -11 -42q-15 -37 -33 -37q-24 0 -33 25l-10 40q-1 0 -4 3t-11 3q-25 0 -43 -63q-13 -48 -13 -84q0 -25 16 -41q20 2 52 25t51 50 q22 16 55 53l340 656q65 133 128 327q10 46 38 143h34q18 -29 22 -67q13 -130 26 -381q11 -208 11 -240v-171q0 -49 16 -134l10 -115q21 -105 77 -105q44 0 44 91q0 19 -29 58q0 9 9.5 21t19.5 12q37 0 59 -35q17 -29 17 -62zM760 539q-3 7 -18 20l-137 -368q99 28 108 28 q7 0 18 -2.5t13 -2.5q7 110 16 325z" />
<glyph unicode="B" horiz-adv-x="811" d="M810 -23q0 -103 -36 -168q-27 -51 -146 -137q-17 -12 -56 -26t-53 -14q-94 0 -128 15q-50 21 -94 100q-14 -5 -23 -42l-14 -55q-25 -62 -85 -62q-63 0 -103 27q-45 31 -45 88q0 88 60 88q17 0 25 -13q2 -15 -4 -45q-7 -34 -7 -48q0 -17 6 -31q44 23 77 117q29 84 29 154 q0 -15 -3 43.5t-3 169.5l-54 707q0 -12 17 128h74q10 -8 17.5 -27.5t14.5 -26.5q37 27 71 27q84 0 192 -35q19 -6 46 -32l32 -31q67 -42 109 -154q34 -91 34 -161q0 -160 -142 -285q2 -1 9 -7q95 -5 145 -104q38 -74 38 -160zM684 538q0 45 -27 111q-5 22 -20 55 q-71 83 -118 102.5t-109 19.5q-142 0 -142 -156q0 -49 12 -183q55 21 81 21q50 0 82.5 -36.5t32.5 -89.5q0 -19 -8 -40q-15 -36 -47 -36q-9 0 -23.5 12.5t-14.5 22.5q0 7 6.5 23.5t6.5 29.5q0 7 -1 14l-9 7q-36 -18 -36 -68q0 -39 16 -67q20 -35 55 -35q8 0 20 3.5t16 3.5 q1 1 4.5 8t11.5 7q7 0 8 -5.5t8 -5.5q23 0 84 46q27 21 48 50q31 45 44 81q19 53 19 105zM377 177q-55 34 -87 46v-29q0 -3 18 -74q26 19 69 57zM744 -6q0 74 -56 119q-50 39 -122 39q-71 0 -164 -89q-101 -97 -101 -196q0 -14 2 -27q23 35 40 42q56 24 81 24q32 0 57 -22 q27 -25 27 -63q0 -30 -24 -30q-6 0 -29 15t-33 17q0 5 -3.5 -14t-3.5 -60q8 -21 48 -35q30 -11 51 -11q84 0 157 94t73 197z" />
<glyph unicode="C" horiz-adv-x="754" d="M569 -293q-82 -8 -112 -8q-108 0 -217 79q-113 81 -166 202q-8 18 -27 105q-27 121 -27 214q0 186 71 337q37 77 95 127q3 7 8 22q16 11 46 38q83 90 135.5 117.5t141.5 27.5q46 0 96 -22q69 -31 69 -86q0 -46 -40.5 -94t-81.5 -48t-71 42q1 6 3 20q7 6 23.5 7.5 t19.5 2.5q16 10 31 38t11 39q-22 23 -49 23q-43 0 -77 -27l-65 -53q-27 -21 -97 -127q-48 -72 -67 -110q-34 -65 -43 -121q-24 -164 -24 -267q0 -71 51 -169q48 -92 112 -154q46 -45 119 -45q77 0 157 39q100 48 100 123q0 11 -3 22l-25 12q-23 -16 4 -48v-36q-8 0 -10 -1 l-6 -2q-11 -3 -20 -3q-24 0 -58.5 26.5t-34.5 49.5q0 42 51 74q40 25 68 25q57 0 102.5 -38.5t45.5 -95.5q0 -77 -75 -162q-78 -88 -164 -95z" />
<glyph unicode="D" horiz-adv-x="928" d="M952 352q0 -299 -209 -487q-192 -172 -501 -204l-32 -63l-58 -31q-40 0 -74 57q-31 51 -31 96q0 32 23 59.5t55 27.5l47 -32q-13 -49 -50 -85l19 -43q29 16 41 82q9 49 5 96l-74 1111q35 16 67 16l42 -6l-15 -41v-249l8 -9q165 210 292 210q191 0 323 -161 q122 -151 122 -344zM567 762q-109 0 -204.5 -105t-95.5 -215l12 -35q31 12 48 39q7 10 25 59l-20 55l15 17q26 0 45.5 -22t19.5 -48q0 -56 -50 -107.5t-107 -51.5q-14 0 -27 4v-72q0 -15 10.5 -48t12.5 -48q25 -278 25 -315q0 -56 -8 -86l12 -6q225 29 306 83q91 62 187 264 q51 106 51 160q0 149 -58 294q-74 184 -199 184z" />
<glyph unicode="E" horiz-adv-x="841" d="M876 -97q0 -86 -50 -138l-106 -26q-65 -16 -106 -16q-58 0 -174 30t-174 30q-59 0 -78 -24q-17 -20 -17 -77l20 -4q8 0 68 20l12 -20l-47 -58q-72 -12 -65 -12q-28 0 -60.5 29t-32.5 56q0 91 48 141q40 43 131 69l6 63q0 225 -21 319q-99 38 -99 88q0 30 28 30 q15 0 32 -25t37 -30q9 19 9 45q0 63 -9 168q-12 138 -13 169l-7 7q-192 31 -192 149l65 87l65 -26v-23l-43 -34l-2 -7q0 -32 106 -70q12 22 14 58l2 61q21 22 73 22q27 0 27 -48q0 -16 -3.5 -46t-3.5 -37l13 -5l183 90q111 50 194 50q165 0 165 -85q0 -70 -50 -131 q-53 -64 -122 -64q-37 0 -66 24q-32 25 -32 61q0 23 29 54t51 31l40 -27l-45 -50q1 -33 35 -33q22 0 51 35.5t29 57.5q0 21 -37 44t-60 23q-40 0 -204 -67q-169 -70 -169 -95q0 -35 5 -175q4 -107 0 -174l10 -4l125 45q33 -15 88 -56l2 -19q0 -36 -29 -70.5t-66 -34.5 l-39 22v17q74 7 74 54q0 24 -45 32q-70 -29 -95 -60q-22 -26 -22 -71q0 -14 3.5 -60t3.5 -79q0 -31 -3 -75.5t-3 -60.5q0 -50 22 -76q26 -31 98 -51q193 -57 189 -57q46 0 94 40.5t48 84.5q0 31 -14 56q-18 29 -46 29q-18 0 -34 -24.5t-16 -45.5l3 -20l40 30l26 -5l6 -15 q0 -29 -21 -47t-51 -18q-24 0 -49 37q-24 34 -24 58q0 95 113 95q96 0 155 -76z" />
<glyph unicode="F" horiz-adv-x="728" d="M780 775q-36 -95 -63 -135q-50 -73 -120 -73q-34 0 -63 23.5t-29 56.5q0 27 24 56t51 29q22 0 22 -24q0 -13 -10 -45l14 -9q53 0 87 148q-18 22 -82 22q-39 0 -152 -63q-129 -71 -167 -82q-1 -18 -12 -91q-9 -57 -9 -92q0 -13 1 -25l5 -50l7 -4q53 34 148 34 q23 0 55 -26.5t32 -48.5q0 -34 -25.5 -64t-59.5 -30q-23 0 -48 15t-31 36l19 7l46 -15q32 0 31 45v2l-46 16q-76 0 -106 -32q-24 -25 -24 -80q0 -18 3.5 -63t3.5 -69q0 5 2 -44q3 -53 3 -102q0 -408 -140 -408q-60 0 -96 72q-30 59 -30 124q0 114 75 114q30 0 55 -66 l-21 -31l-34 19l-17 -31l20 -67l33 -18q58 0 58 227q0 242 -21 379q-35 18 -45 25q-25 19 -31 40l22 6l48 -24l13 8q0 44 -5 141q-5 93 -5 143l-92 36q-44 25 -44 79q0 38 14 69q17 42 49 42l29 -11q-10 -37 -10 -60q0 -42 33 -69h13q5 0 11 39q7 36 7 51v124l31 28l50 -7 q10 -17 13 -41q3 -17 1 -45q-2 -39 -2 -43q0 -51 16 -82l181 90q110 55 191 55q103 0 123 -131z" />
<glyph unicode="G" horiz-adv-x="1129" d="M1043 221l49 -43v-33q-59 -25 -60 -25q-46 0 -80 35t-34 82q0 64 61 64q105 0 155 -23q76 -36 76 -132q0 -66 -80 -106q-64 -31 -135 -31q-17 0 -107 25q-19 -16 -24 -86q-13 -190 -60 -260q-67 -100 -253 -100q-235 0 -383 208q-133 185 -133 425q0 281 166 502 q182 242 456 242q66 0 142 -47q86 -52 86 -117q0 -66 -28 -120q-35 -66 -99 -66q-44 0 -91 41.5t-47 85.5q0 33 64 76l43 -31l-21 -54l31 -29q32 3 32 65q0 75 -38 99q-28 18 -103 18q-207 0 -357 -273q-130 -238 -130 -469q0 -147 108 -286q116 -148 256 -148 q147 0 220 110q63 94 66 251q-50 17 -81 17q-29 0 -75 -42v-15l1 -2q41 11 66 11q45 0 45 -56q0 -36 -36 -56q-29 -15 -65 -15q-46 0 -73 32t-27 79q0 85 54 138t139 53q50 0 152.5 -53t164.5 -53q61 0 59 81q-37 28 -72 31z" />
<glyph unicode="H" horiz-adv-x="751" d="M163 315l-1 -1q20 44 35 156q14 97 14 155q0 190 -86 190q-11 0 -23 -7v-36q6 -5 16 -9l10 -5q6 -2 14 -7v-24q-47 -23 -55 -23q-35 0 -52 83q0 6 10 32q11 30 13 36q44 23 78 23q113 0 167 -154q7 -17 7 -89q0 -58 -34 -267q-1 -6 -5 -17l-5 -18v-8q1 -2 1 -3q-3 1 -3 4 q-2 0 -4 1q35 3 115 43q84 43 90 70q-2 30 -2 86q6 42 16 127q2 3 3 5l2 4l1 2q8 97 72 225l26 49q18 30 35 41q23 15 87 15q29 0 50 -37q17 -29 17 -51q0 -38 -19 -70q-7 -12 -28 -26.5t-34 -14.5q-9 0 -21.5 8.5t-12.5 19.5q0 8 11 18l6 5q4 4 5 8l3 6q3 9 8 15q5 2 11 9 q0 3 2 7l3 8q3 10 3 13q0 11 -18 11q-70 0 -103 -130q-23 -88 -23 -190q0 -2 4 -45q4 -46 5 -70q1 -2 2 -7q56 1 101 -16q59 -24 59 -71q0 -28 -18 -57q-22 -36 -57 -36q-16 0 -37 33q3 5 27 17.5t26 54.5q-27 18 -38 18q-15 0 -34.5 -11t-19.5 -17q0 1 26 -91 q5 -17 37 -223q36 -226 36 -274q0 -23 -9 -66q-9 -15 -22 -45q-7 -24 -13 -47q-9 -28 -23 -44.5t-55 -33.5t-63 -17q-55 0 -86 53q-23 39 -23 84t19 73q6 9 28.5 18.5t32.5 9.5q27 0 55 -24.5t28 -52.5q0 -46 -34 -46q-8 0 -13 4l-1 1h1l-6 3q-4 7 -1.5 21.5t-3.5 21.5 q-14 -11 -14 -35q0 -23 11.5 -41.5t26.5 -18.5q38 0 59 61q16 45 16 87q0 2 -5 42.5t-6 58.5q-4 28 -8 84q-3 76 -39 201q-44 152 -53 199l-1 2v1q0 -1 -1 -2q5 0 -41 -25q-83 -47 -144 -73q-18 -3 -52 -14q-6 -2 -11 -20q-2 -13 -5 -25q-25 -61 -69 -187q-3 -18 -11 -56 q-14 -47 -14 -79q0 -100 26 -100q27 0 27 46q0 2 -8 12.5t-8 17.5q0 28 27 28q24 0 40 -24q12 -20 12 -37q0 -114 -116 -114q-43 0 -82 28q-45 31 -45 78q0 6 3 17t4 15q7 69 84 274q22 57 40 123q-28 12 -49.5 39t-21.5 50q0 12 9 28q12 21 29 21q14 0 22 -12q4 -6 15 -38 q6 -17 19 -21z" />
<glyph unicode="I" horiz-adv-x="594" d="M250 -319q12 0 26 39q10 32 12 53q-10 11 -62 11q-61 0 -82 -32q17 -12 41 -10v-10l2 -6q3 -10 3 -21q-27 -17 -51 -17q-34 0 -53 26q-16 21 -16 47q0 37 34 65q30 25 65 25q4 0 18 -2l33 -5q46 -7 77 -10q4 8 4 16q0 95 -36 260q-24 71 -52 210q-1 9 -15 65 q-13 51 -12 80q2 35 -4 102q-7 72 -7 68q0 20 17 98l-1 1v2q0 -1 -2 -2q-8 0 -26 -4.5t-26 -4.5q-128 0 -128 76q0 34 32 56q27 19 56 19q10 0 21 -9.5t11 -20.5q0 -8 -13 -22t-13 -17q0 -14 18 -14q29 0 99 35q12 6 16 21q5 23 7 26q21 40 71 115q9 3 23 3q21 0 36 -14v-18 q0 -3 -26 -39q-17 -25 -21 -38q15 0 44 3q26 2 29.5 2t21.5 8.5t25 8.5q48 0 85 -43q34 -38 34 -78q0 -20 -13 -41q-15 -27 -40 -27q-11 0 -23.5 12t-12.5 24q0 7 13 21.5t13 17.5q0 25 -51 25q-30 0 -96 -24q-62 -23 -64 -30q-5 -16 -5 -89q0 2 5.5 -82.5t5.5 -122.5 q0 -147 48 -342q4 -15 9 -58q16 -128 24 -251q76 -19 90 -19t34 22q17 21 17 31q0 28 -23 28q-3 0 -18.5 -13t-22.5 -13q-17 0 -28 17q-8 14 -8 25q0 22 20 36.5t38 14.5q37 0 71 -33.5t34 -65.5q0 -56 -37 -90.5t-90 -34.5q-34 0 -85 20q-6 -6 -23 -48q-19 -49 -44 -65 q-16 -12 -31 -12q-28 0 -66 41v31h30q11 0 14 -9z" />
<glyph unicode="J" horiz-adv-x="618" d="M240 -184l-2 1h-6q-22 0 -43 -53q-17 -42 -17 -57q0 -27 23 -46q19 -16 42 -16q82 0 137 105q43 84 43 154q0 48 -24 118l-42 115l-72 204q-40 127 -40 210q0 55 19 163q-1 0 -1.5 1.5t-5.5 1.5t-30.5 -2.5t-31.5 -2.5q-53 0 -111 16q-14 3 -37 44t-23 58q0 11 47 71 q1 0 3 2l2 2q5 4 15 4q34 0 34 -36q0 -28 -29 -61l-3 -3q12 -20 25 -24q41 -10 62 -10q8 0 50.5 15t51.5 22q1 1 41 87q38 83 71 83q9 0 16 -4l4 -2h9v-29q0 -8 -39 -70v-3q7 3 66 41q45 28 98 28q54 0 84 -28q3 -7 8 -20q29 -35 29 -68q0 -27 -18 -53q-19 -29 -45 -29 q-11 0 -22.5 15.5t-11.5 26.5q0 7 16 24l1 2q-11 14 -24 14q-44 0 -209 -87q-10 -69 -10 -127q0 -141 94 -344q16 -54 51 -159q8 -15 17 -46q6 -23 14 -62q7 -42 7 -112q0 -53 -48.5 -149t-95.5 -127q-54 -37 -125 -37q-150 0 -150 152q0 45 2 50q48 106 124 106 q24 0 56 -16q40 -21 40 -51q0 -48 -49 -96h-35q-3 16 -2 94z" />
<glyph unicode="K" horiz-adv-x="843" d="M853 -167q0 -64 -35 -107q-38 -48 -100 -48q-93 0 -169 132l-117 251q-68 140 -140 152q-14 -19 -66.5 -210t-52.5 -225q0 -8 15 -111l10 -4l33 43l2 46l18 6l52 -50q0 -44 -33 -79.5t-77 -35.5q-59 0 -102 66q-38 59 -38 122q0 132 77.5 391t77.5 399v183q0 159 -65 159 q-37 0 -77 -55l-33 43q0 67 100 67q112 0 151 -57q31 -45 34 -163l9 -325q37 28 174 232.5t137 237.5q0 12 -18.5 26t-31.5 14q-21 0 -32 -26l-14 -44h-18l-21 50q0 23 28.5 46.5t51.5 23.5q12 0 56.5 -18.5t55.5 -27.5l8 -54q0 -84 -163 -307l-237 -300q11 -15 59 -27 q58 -15 89 -36q54 -35 85 -106l58 -213q49 -161 109 -161q28 0 53 46q22 40 22 72q0 38 -21 79q-25 48 -59 48l-20 -13q16 -17 10 -51l-15 -6q-16 0 -36 33q-19 30 -19 47t20.5 36t36.5 19q79 0 131 -68q47 -62 47 -142z" />
<glyph unicode="L" horiz-adv-x="844" d="M840 -271q-4 -6 -47 -30q-62 -35 -154 -35q-113 0 -167 12q-39 8 -93 34l-89 44q-1 -2 -7 -22q-10 -32 1 -83q3 -14 3 -25v-55q-11 -11 -28 -11q-60 0 -85 102q-14 61 -4 113l-2 1q-1 2 -5 2q-3 0 -48 -38t-54 -38q-11 0 -27 15.5t-16 27.5q0 16 19.5 49.5t28.5 36.5 q17 9 52 20q23 2 63 13q6 2 11 32q11 38 31 116l59 293q32 174 32 293q0 13 7 63.5t7 55.5q0 49 -18 100q-23 65 -61 65q-47 0 -61 -60q-10 0 -32 7q-21 26 -21 48q0 15 15.5 41.5t31.5 31.5q39 13 72 13q128 0 172 -149q8 -25 8 -102q0 -144 -41 -350l-72 -347 q-20 -105 -19 -156l130 -38l107 -39q61 -20 113 -20q60 0 106 40t46 97q0 36 -22 61t-52 25q-40 0 -55 -18q-39 -46 -39 -77v-33l2 -2q21 13 28.5 30.5t10.5 21.5q8 7 23 7q38 0 38 -35q0 -42 -35 -68q-30 -23 -66 -23q-23 0 -52 24t-29 52q0 69 33 124q41 68 118 68 q63 0 123 -58.5t60 -116.5q0 -83 -50 -150z" />
<glyph unicode="M" horiz-adv-x="1585" d="M-20 -117q3 46 41 112q47 83 104 79q28 -2 56 -30.5t26 -56.5q-2 -26 -27 -41q-21 -13 -41 -12q-22 2 -35 19l2 16q7 4 20 13v12q1 4 -11 9q-19 1 -41.5 -30t-25.5 -68q-2 -27 22 -64q26 -43 59 -45q44 -3 85 68l41 89q43 90 118 322l95 292q3 36 -44 85.5t-79 49.5 q-4 0 -8 -1q-19 -14 -24 -92q-2 -30 2 -37t31 -31l-1 -17q-22 -9 -29 -8q-13 0 -32 9.5t-21 19.5q-21 77 -20 91q4 51 38 94q40 49 94 45q73 -5 115 -76q9 0 16 8q21 90 55 206q8 25 29 24q9 -1 20.5 -11.5t10.5 -19.5l-54 -295q-1 -15 42 -117l50 -119q7 -32 26 -101 q38 65 144 213l73 92q55 64 56 76q0 6 -22 77q-52 171 -50 194q3 48 56 44q22 -2 26 -13q22 -59 62 -214q14 7 49 33q21 15 39 14q21 -2 48 -27q24 -22 30 -37q13 -35 10 -76q-1 -19 -32 -36l-31 2q0 3 3 26.5t3 38.5q0 40 -21 41q-14 1 -44 -29t-30 -37q0 -1 110 -326 q16 -47 51 -195q21 -73 59 -220q2 -22 12 -67q55 -180 163 -187q52 -4 82 39q23 33 26 78q3 37 -6 49q-50 65 -77 66q-16 2 -29 -10l-1 -13q3 -7 29 -13q23 -6 26 -20l-2 -35q-23 -9 -39 -8q-81 6 -75 89q2 28 32 49t56 19q73 -5 111 -74q31 -56 27 -120q-4 -51 -48 -108 q-18 -24 -75 -40q-63 -18 -64 -18q-72 5 -134.5 75.5t-92.5 176.5l-203 703q-5 20 -18 34q-39 -50 -117 -158q-38 -59 -95 -190q-18 -42 -23 -89q-4 -5 -16 -15q-30 4 -85 18q-64 173 -110 278q-14 -24 -59 -158t-71 -180.5t-79 -204t-218 -145.5q-21 13 -65 35 q-23 8 -42 51q-16 39 -14 61z" />
<glyph unicode="N" horiz-adv-x="928" d="M907 531q-11 -83 -73 -83q-56 0 -94 26q-47 31 -47 88q0 27 21 57q24 35 55 35h27q10 -11 10 -29q0 -7 -9 -26t-9 -27q0 -22 11 -30q4 2 6 5q19 23 19 43q0 61 -16 106q-22 64 -70 64q-50 0 -61 -76q-13 -85 -11 -168l5 -202q3 -53 20 -171q12 -76 46 -256q7 -35 34 -113 q26 -73 26 -78q0 -6 -3 -18t-3 -27h-36q-13 0 -26 19q-8 19 -27 56q-10 24 -32 65q-46 73 -117 253q-34 67 -95 205q-2 3 -3 8l-1 9q-2 6 -4 16q-52 145 -158 409q-6 -18 -3 -66l19 -340q3 -58 2 -71q-1 -32 -23 -113q-12 -43 -77 -110q-31 -32 -68 -32q-49 0 -97 35 q-19 14 -35 56q-15 38 -15 61q0 60 36 91q12 11 44 22q29 10 41 10q61 0 61 -79q0 -19 -8 -38q-11 -23 -27 -23q-25 0 -31 23l-8 40q-24 -14 -24 -44q0 -60 42 -60q25 0 40 13q8 6 27 46q22 48 27 95q0 3 2 7l3 5q3 6 3 11v143q0 3 -6.5 55.5t-7.5 79.5l-5 180q0 4 3 42.5 t3 53.5q0 -3 4 73q3 44 -5 73q6 9 19 26h44q113 -245 173 -397q6 -24 21 -70q41 -120 140 -352q-2 9 -9 28q-3 27 -11 77l-4 229q-2 71 -1 81q2 39 21 122q10 45 38 103q11 24 66 51q52 26 81 26q41 0 73 -34q29 -31 37 -73q12 -65 12 -168q0 -31 -2 -48z" />
<glyph unicode="O" horiz-adv-x="1097" d="M1086 430q0 -121 -21 -181q-1 -17 -2 -45q-1 -11 -23 -94q-20 -72 -86 -167q-19 -30 -60 -83q-86 -87 -204 -148q-102 -54 -204 -54q-167 0 -331 151q-11 21 -31 56q-47 68 -79 190q-25 100 -25 145q0 -1 1 37q3 47 4 124q3 127 96 279q39 63 104 113l101 67q2 1 51 70 q22 30 55 49q55 30 107 30q127 0 292 -84q187 -95 220 -212q35 -127 35 -243zM1008 461q0 127 -99 251l-42 58q-31 40 -65 63q-44 28 -114 51.5t-113 23.5q-87 0 -139 -64q1 -1 39 -15q26 -10 28 -24q-8 -18 -19 -20q-14 0 -28.5 -1.5t-30.5 -15.5q0 -46 15 -108 q18 -80 46 -80q8 0 32 16q29 19 29 36v20q-52 -33 -58 -33q-8 0 -16.5 8.5t-8.5 16.5q0 24 27 46.5t51 22.5q29 0 62 -28q38 -32 38 -71t-50 -69q-44 -26 -89 -26q-150 0 -185 166q-71 -40 -121 -197q-44 -141 -44 -272q0 -306 151 -439q25 -23 92 -36q51 -11 85 -11 q67 0 126 38q42 20 111 59q85 59 142 147q42 66 73 157l43 134q9 18 19 51q13 86 13 145z" />
<glyph unicode="P" horiz-adv-x="595" d="M99 -223q-1 0 -1 -1q-21 0 -20 -45q1 -78 34 -78q35 0 51 61q10 37 10 74q0 36 -11 167q-10 102 -27 304q-7 46 -19 138q-8 39 -20 120q-4 48 2 154l-2 1q-7 3 -21 15q-17 23 -17 40q0 8 15 21l7 6q24 21 35 63q31 134 57 134q13 0 28.5 -14t15.5 -26q0 -6 -8 -39 l-10 -47q34 1 102 -5q67 -14 164 -61q46 -22 83 -94q13 -15 35 -51q20 -48 20 -106q0 -140 -41 -243q-64 -157 -210 -157q-49 0 -83 10q-8 3 -22 15l-7 7l23 -340q4 -64 -10 -128q-26 -112 -108 -112q-96 0 -126 79q-15 38 -19 157q65 50 85 50t46 -27q1 -3 2 -7l1 -5 q1 -5 8 -12q-4 -4 -11.5 -13.5t-17.5 -9.5t-13 5zM514 530q-1 46 -23.5 80t-66.5 63q-9 5 -52 23q-48 19 -60 19q-3 0 -19 -2q-36 -6 -109 -16l4 -285q7 -32 13 -50q32 46 93 46q41 0 54.5 -13.5t28 -42.5t14.5 -39q0 -22 -20 -47q-23 -30 -50 -30q-30 0 -48 44q13 9 38 28 v18q-13 7 -17 7q-14 0 -27.5 -20.5t-13.5 -38.5q0 -21 10.5 -52t15.5 -35q14 -9 45 -9q18 0 49 25l44 39q30 24 63.5 93.5t33.5 175.5q0 29 0 19z" />
<glyph unicode="Q" horiz-adv-x="1411" d="M1412 -188q0 -105 -43 -170q-50 -76 -148 -76q-64 0 -113 42q-37 32 -73 97l-56 107q-33 -32 -136 -76t-147 -44q-288 0 -478 196.5t-190 487.5q0 221 102 369q114 163 311 163q34 0 69 -5q144 73 202 73q243 0 374 -246q106 -198 106 -464q0 -95 -49 -203 q-28 -63 -103 -183q1 -54 51 -146q56 -100 103 -100q48 0 80 46q28 40 28 88q0 102 -89 102q-33 0 -33 -41q0 -40 3 -45q6 -11 39 -11q9 0 17 -10v-17l-58 -39q-63 0 -63 139q0 44 43 84t88 40q163 0 163 -158zM1129 324q0 224 -107 391q-123 193 -334 193q-13 0 -45 -17 t-39 -28q58 -54 70 -69q41 -47 41 -85q0 -59 -62.5 -117t-118.5 -56l-31 1q-61 34 -61 91q0 40 28 71t69 31l34 -19q-5 -11 -26 -29q-16 -16 -16 -31l18 -31l34 13q27 27 27 86q0 39 -18 68q-21 36 -58 37l-82 -68l-31 37l31 56l-26 7q-146 0 -229 -193q-65 -150 -65 -319 q0 -255 133 -400q138 -153 392 -153q43 0 158 48q125 52 125 86q0 13 -38.5 60t-53.5 47l-29 -23q14 -17 14 -42q0 -12 -10.5 -23t-21.5 -11q-55 0 -55 68q0 52 39 82q36 28 89 28q51 0 78 -30q16 -18 32 -61q14 -38 27 -45q118 158 118 349z" />
<glyph unicode="R" horiz-adv-x="976" d="M992 -226q0 -49 -22 -104q-27 -65 -66 -78q-7 -8 -24 -17q-52 -11 -111 -11q-45 0 -73 21q-7 5 -58 57q-5 13 -18 39q-19 37 -38 179q-7 83 -24 235q-5 30 -34 84q-36 68 -68 68q-6 0 -66 -12t-66 -12q-7 0 -10.5 2.5t-5.5 2.5q-3 -6 -3 -24q0 -6 19 -115.5t19 -115.5 q0 -94 -29 -156q-39 -84 -125 -84q-64 0 -109 35q-49 38 -49 102q0 34 16 61q21 32 56 32q26 0 48 -12q29 -16 29 -45q0 -19 -22 -29q-2 1 -25 20q-16 14 -23 14q-22 0 -22 -36q0 -33 20.5 -59t42.5 -26q31 0 58 54q24 44 24 69q0 5 -12 57q-12 60 -16 82q-54 330 -54 429 v186q1 -2 -19 -2q-8 0 -16 12.5t-8 21.5q0 4 23.5 24t27.5 33.5t17 103.5q6 43 44 80.5t77 37.5q56 0 56 -51q0 -50 -27 -50q-10 0 -19.5 17t-11.5 17q-15 0 -37 -23q1 -10 1 -29q-6 -3 -12 -18v-42q40 3 118 1q75 -9 126 -36q87 -45 110 -105q26 -67 26 -121 q0 -136 -87 -227q0 -4 8 -10q45 -11 83 -85q34 -66 34 -110v-323q0 -54 23 -102q30 -64 85 -64q48 0 84 61q29 49 29 86q0 32 -18 66q-22 42 -56 42q-41 0 -41 -48q0 -20 13 -34q8 0 32 24h26q6 -6 6 -19q0 -5 -8 -24.5t-8 -26.5q-5 -8 -14 -15q-6 -1 -18 -1q-21 0 -53 16.5 t-42 32.5q-1 3 -1 25q0 133 134 133q46 0 122 -54q14 -9 24 -51q8 -35 8 -56zM555 524q0 40 -28.5 99.5t-59.5 87.5q-40 36 -136 36q-28 0 -89 -29l8 -138q4 -87 17 -131q10 3 51 28q33 20 56 20q18 0 37 -18t19 -37q0 -79 -41 -79q-24 0 -24 29q0 41 -4 47q1 0 -17 -7 q-25 -38 -25 -74q0 -25 17 -47q19 -25 48 -25q32 0 86 40q85 63 85 198z" />
<glyph unicode="S" horiz-adv-x="742" d="M235 -92h1q3 -1 8 -1q35 0 34 76l-20 15q-26 19 -50 19q-69 0 -69 -156q0 -99 64 -164t159 -65q98 0 183 76q28 25 39 53t27.5 123.5t16.5 132.5q0 32 -43 90q-30 42 -95 97q-89 76 -104 91q-117 115 -143 181l-4 10q-6 14 -10 21q-67 112 -67 221q0 27 6 64q7 8 17 25 q19 74 82 116q55 36 119 36q78 0 151 -36q91 -44 117 -125q18 -57 18 -60q0 -76 -65.5 -141.5t-141.5 -65.5q-32 0 -72 31q-43 35 -43 75q0 29 48 55q39 22 58 22q24 0 67 -23v-31q-14 -12 -50 -19q-17 -3 -17 -19q0 -19 21 -19q24 0 49 18q29 20 39 52q1 20 10 55 q5 16 5 19q0 64 -53 104q-47 35 -107 35q-85 0 -157 -106q-14 -21 -14 -95q0 -81 42 -141q29 -40 104 -102l123 -99q82 -70 97 -106q12 -12 30 -38q55 -111 72 -166q23 -71 23 -154q0 -105 -72 -189q-76 -91 -201 -113q-9 -2 -46 -13q-32 -9 -42 -9q-91 0 -163 30 q-4 2 -74 58q-53 43 -61 51q-24 24 -44 68q-5 5 -12 15q-1 3 -23 98q-3 14 -3 19q0 68 13 85q22 29 76.5 63.5t88.5 34.5q6 1 21.5 1.5t21.5 0.5q53 0 96 -52q39 -47 39 -95q0 -41 -36.5 -74.5t-67.5 -33.5q-94 0 -94 77q0 24 18 40q15 13 36 13q20 0 38 -20q0 -10 -5 -19 q-8 -12 -9 -17z" />
<glyph unicode="T" horiz-adv-x="1136" d="M1218 844q0 -66 -30 -124q-39 -77 -110 -77q-37 0 -77 26q-46 30 -46 71q0 21 17.5 45t30.5 24q32 0 32 -29q0 -7 -10.5 -23t-10.5 -23q0 -16 20 -28q16 -9 28 -9q41 0 72 62q25 50 25 80q0 21 -26 40q-23 16 -39 16q-15 0 -61 -8q-56 -10 -79 -21l-150 -98 q-29 -11 -84 -38q-15 -163 -51 -492q-51 -411 -51 -382l8 -126q1 -25 14 -74q16 -31 61 -31q23 0 25 22q0 25 -1 50q-11 12 -30 15q-27 5 -40 11v24q30 34 62 34q28 0 55.5 -23.5t27.5 -51.5q0 -71 -39.5 -118.5t-102.5 -47.5q-53 0 -78 35q-15 21 -41 100q-2 5 -2 82 q0 159 12 327q9 41 24 128q6 45 14 225q0 15 5 69q4 51 4 57q0 67 -5 98l-9 9q-202 -54 -251 -54q-82 0 -183 51q-130 66 -130 166q0 43 43 66q32 17 72 17q33 0 60 -38q23 -33 23 -53q0 -27 -18 -53q-28 0 -31 29.5t-15 29.5q-33 0 -33 -46q0 -78 177 -78q169 0 284 47v25 q0 13 -14 53q-16 44 -27 52q-8 0 -18 -8v-26q13 -6 37 -15q-4 -19 -21 -36t-27 -17q-27 0 -45 45q-13 32 -13 52q0 32 49 66q45 30 76 30q50 0 86 -39q25 -26 43 -72l16 -39q6 0 49 31q52 36 73 47q135 72 232 72q142 0 142 -131z" />
<glyph unicode="U" horiz-adv-x="1132" d="M955 847l-1 1h-5q-37 0 -58 -74q-18 -61 -13 -86q-3 -6 -6 -8l-2 -1v-4v-314q0 -114 31 -381q11 -37 27 -114q3 -45 17 -132q3 -13 24 -38t30 -25q30 0 30 72q0 46 -11 56q-5 -3 -8 -28q-3 -20 -28 -20q-38 0 -38 55q0 69 77 69q97 0 97 -134q0 -51 -25 -105 q-35 -74 -94 -74q-8 0 -29 9l-45 12q-47 16 -68 94q-3 11 -11 45l-58 -87q-37 -50 -80 -61q-33 -10 -81 -23q-15 -4 -60 -4q-58 0 -76 12q-10 8 -33 22q-34 16 -99 54q-45 32 -77 81q-22 33 -40 127q-18 100 -18 164q0 58 2 67q3 15 16 100q5 31 41 200q26 122 26 201 q0 243 -129 243q-25 0 -47.5 -20t-22.5 -42q0 -18 15 -37.5t30 -19.5q5 -1 3 -1v2q1 2 3 4q1 7 -5 39q-1 10 -1 20q16 16 44 16q12 0 30 -37q15 -32 15 -38q0 -42 -34 -65q-28 -19 -63 -19q-58 0 -93 71q-28 56 -28 113q0 50 58 77q46 22 103 22q142 0 223 -154 q13 -25 13 -94q0 -51 -44.5 -265t-44.5 -359q0 -152 44 -250q66 -149 224 -149q22 0 82 56q55 53 66 77q55 128 55 147q0 -1 -15 64.5t-15 112.5v168q0 278 17 419q2 18 27 106q52 186 150 186q49 0 65 -29q10 -18 10 -61q0 -45 -31 -93q-33 -51 -69 -51q-17 0 -45 27 q3 12 29 38q25 23 27 48z" />
<glyph unicode="V" horiz-adv-x="1232" d="M1263 636q0 -72 -49.5 -127.5t-121.5 -55.5q-40 0 -67 39q-25 35 -25 77t31.5 77t73.5 35q34 0 59 -55l-6 -19l-46 4q-12 0 -24.5 -12.5t-12.5 -24.5q0 -57 47 -57q21 0 50 58q27 54 27 79q0 51 -32 91t-82 40q-76 0 -162 -299q-46 -162 -130 -566q-65 -315 -87 -331h-28 q-118 186 -342 940l-55 213q-50 143 -132 143q-27 0 -47 -16t-20 -42q0 -7 19 -31t28 -31l28 45h22l17 -30q0 -17 -24.5 -38t-42.5 -21q-97 0 -97 116q0 51 42.5 91.5t96.5 40.5q104 0 209 -233q61 -135 166 -478q96 -311 142 -391q18 47 80 336t118 427q84 210 191 210 q83 0 136 -61q50 -59 50 -143z" />
<glyph unicode="W" horiz-adv-x="1588" d="M1671 782q0 -47 -33 -115q-42 -86 -98 -86q-29 0 -58.5 27t-29.5 55q0 25 24 42q20 15 40 15q22 0 36 -16v-16l-19 -14v-13q8 -8 12 -8q19 0 39 32.5t20 70.5q0 26 -26 62q-29 40 -62 40q-43 0 -80 -74l-34 -91q-37 -93 -96 -330q-74 -299 -74 -298q0 -35 48.5 -80.5 t81.5 -45.5q5 0 10 2q17 16 17 93q0 29 -1 31q-4 11 -36 35v17q21 10 28 10q13 0 32.5 -7.5t22.5 -17.5q26 -75 26 -89q0 -51 -31 -97q-37 -51 -91 -51q-73 0 -120 67q-9 0 -15 -8q-15 -92 -41 -210q-6 -26 -27 -26q-9 0 -21 10t-12 19l33 298q0 15 -50 113l-58 116 q-9 31 -33 98q-34 -67 -128 -222l-67 -97q-51 -67 -51 -79q0 -6 27 -76q64 -167 64 -190q0 -47 -52 -47q-23 0 -28 11q-25 57 -76 209q-14 -8 -47 -36q-20 -17 -38 -17q-21 0 -50 23q-25 20 -32 36q-16 33 -16 75q0 18 30 37h31l-2 -58q2 -46 25 -46q13 0 41 32t28 39 q0 1 -133 317q-19 46 -65 191l-73 215q-4 22 -17 67q-68 175 -175 175q-53 0 -80 -45q-21 -34 -21 -79q0 -37 10 -48q55 -62 81 -62q17 0 29 13v13q-4 7 -29 11t-28 18v35q21 11 38 11q81 0 81 -84q0 -28 -28.5 -51t-55.5 -23q-73 0 -116 66q-34 54 -34 118q0 51 39 111 q17 25 72 45q62 23 63 23q73 0 140 -66t104 -170l251 -687q8 -19 21 -32q36 52 106 166q34 61 81 195q15 44 17 91q4 4 15 16q30 -3 86 -12q76 -168 130 -270q11 25 46.5 161.5t58.5 185t65 210.5q42 159 207 159q5 0 29 -12q27 -15 39 -18q23 -7 44 -49q19 -37 19 -59z" />
<glyph unicode="X" horiz-adv-x="1240" d="M1252 -210q0 -178 -161 -178q-100 0 -207 191l-138 283l-86 -266q-67 -168 -180 -168q-65 0 -118 50.5t-53 114.5q0 53 36 129q42 85 88 85q44 0 74 -21q34 -25 34 -67q0 -31 -13 -57q-16 -32 -43 -32q-13 0 -38.5 19.5t-28.5 32.5l46 7l13 35l-24 34q-74 0 -74 -163 q0 -113 71 -113q78 0 155 260q65 221 65 327q0 67 -88.5 204t-196.5 239q-120 114 -194 114q-36 0 -62.5 -30t-26.5 -66q0 -37 33 -86l20 36l-7 31l26 12l32 -16l1 -17q0 -36 -21 -71q-24 -39 -59 -39q-31 0 -57 57q-22 50 -22 86q0 84 32 119q26 29 114 58 q146 -37 234 -103q73 -55 136 -159l124 -226l10 8q45 178 98 312q92 233 172 233q42 0 91.5 -43t49.5 -83q0 -64 -36 -116q-40 -59 -100 -59q-26 0 -48.5 17t-22.5 42q0 28 39 69l24 -12l-9 -49l12 -8l48 42q28 27 29 54l-47 37q-101 0 -173 -234q-57 -185 -57 -316 q0 -104 131 -375q138 -289 222 -289q39 0 67 129l-35 64l-30 -5q-1 -24 -1 -74h-25q-16 0 -37 43q-20 40 -20 58q0 17 26 34.5t45 17.5q59 0 100 -42.5t41 -100.5z" />
<glyph unicode="Y" horiz-adv-x="1030" d="M1103 878q0 -104 -64 -104q-14 0 -24 17t-10 32q0 4 6 16t4 18l18 6l8 11l-22 16q-74 -3 -152 -343q-123 -539 -153 -628q-112 -337 -269 -337q-48 0 -88 23q-48 28 -48 73q0 42 31 86.5t72 44.5q23 0 42.5 -13t19.5 -36l-10 -22h-14l-32 27q-39 -18 -39 -42 q0 -30 12 -57q15 -35 41 -35q126 76 180 272q16 54 59 341q-85 60 -175 229l-143 269q-83 130 -174 130q-62 0 -62 -126q0 -74 40 -134l11 -4l29 21l-17 30v20l40 10l47 -23l11 -42q0 -70 -112 -70q-43 0 -84 80q-37 72 -37 120q0 175 163 189q35 -3 100 -29 q85 -63 145 -190l93 -221q58 -124 140 -180q5 3 44 176q45 198 98 307q79 164 184 164q91 0 91 -92z" />
<glyph unicode="Z" horiz-adv-x="1215" d="M1233 -130q0 -245 -499 -245q-49 0 -159.5 34t-172.5 34q-63 0 -117 -39q-23 -16 -92 -85l-43 39q127 209 376 573q272 395 380 568l-31 1q-29 2 -87 -12t-85 -14q-85 0 -227 22l-227 35q-35 4 -78 -23t-43 -62q0 -84 39 -84l32 20l4 34l22 24h49l6 -25q0 -81 -59 -120 l-34 -1q-21 -1 -54 13q-38 15 -54 17q-30 31 -30 88q0 125 69 176q59 44 187 44q59 0 178 -22.5t172 -22.5q124 0 229 36q94 31 208 105l28 -31q-260 -452 -716 -1172l17 -9q118 28 161 28q60 0 173.5 -42.5t170.5 -42.5q83 0 131 54q46 51 46 135q0 150 -104 150 q-33 0 -63 -23.5t-30 -55.5l20 -40l48 17q10 0 27.5 -9t17.5 -19q0 -31 -88 -73q-53 0 -96 57l-8 50q0 192 197 192q103 0 160 -89q49 -76 49 -185z" />
<glyph unicode="[" horiz-adv-x="404" d="M361 822q0 -26 -25 -71q-11 -20 -40 -20q-11 0 -32 20v31l28 13v12q-8 8 -12 8q-8 0 -100 -14q-1 -29 13 -77q16 -55 18 -78q11 -126 11 -204q0 -125 -19 -250q-5 -34 -51 -277q12 -3 59 -18q40 -13 46 -13q10 0 17.5 12t7.5 18q0 9 -23 32v20q11 6 30 6q21 0 44 -20 t23 -40q0 -79 -101 -79q-5 0 -19.5 2.5t-20 2.5t-12 3.5t-11.5 3.5q-6 0 -17.5 -1t-17 -1t-52.5 -7t-52 -7q-8 0 -16.5 8.5t-8.5 16.5q0 3 19.5 23t24.5 38q10 33 11 89v55q0 24 1 41q7 84 25 264q-2 23 -1 69q22 129 22 171q0 100 -16 185q-1 4 -9 13t-7 16v28q1 0 10 5 t15 5q5 0 29.5 -4.5t30.5 -4.5t44 11.5t44 11.5q29 0 56 -11q34 -14 34 -37z" />
<glyph unicode="\" d="M290 435q91 -115 230 -335q129 -201 129 -215t-19 -27q-3 11 -3 56q-11 11 -33 11q-26 0 -57 -21q-6 -15 -6 -32q0 -41 35 -74.5t72 -33.5q44 0 75 35q28 31 28 67q0 59 -34 118q-26 44 -78 106q-69 83 -83 103l-184 252q-103 144 -175 258q-11 17 -38 96q-26 76 -26 85 q0 14 17 14q29 0 48 -51q2 -6 -11 -32q-5 -8 -7 -16q11 -27 36 -27q43 0 43 74q0 48 -33 86.5t-82 38.5q-45 0 -77 -25.5t-32 -64.5q0 -110 265 -446z" />
<glyph unicode="]" horiz-adv-x="400" d="M24 887q0 -26 25 -70q11 -20 39 -20q12 0 32 19v31q-9 5 -27 14v12q8 7 12 7q8 0 100 -13q1 -30 -14 -78q-16 -54 -18 -78q-11 -125 -11 -203q0 -126 19 -251l51 -276q-11 -3 -58 -18q-41 -13 -46 -13q-11 0 -19 13q-7 10 -7 17q0 8 23 31v21q-10 6 -30 6q-21 0 -44 -20 t-23 -40q0 -79 102 -79q5 0 19 2.5t20 2.5t13.5 2.5t12.5 2.5h16q10 -1 15.5 -1t52.5 -7t52 -7q8 0 17 8.5t9 17.5q0 2 -20 22.5t-25 38.5q-10 35 -10 91q-1 79 -2 93q-6 84 -25 264q3 24 2 70q-22 129 -22 171q0 99 16 184q0 5 8 14t8 15v29q-1 0 -10 5t-15 5t-30 -4.5 t-30 -4.5t-44 11.5t-44 11.5q-29 0 -56 -11q-34 -14 -34 -38z" />
<glyph unicode="^" horiz-adv-x="789" d="M655 414q-92 0 -191 329l-121 -184q-130 -180 -238 -180q-32 0 -59 24t-27 56q0 27 26 50.5t54 23.5q3 0 27 -12v-20q-35 -31 -48 -55q5 -3 4 -7l14 -6q24 0 73 40q53 44 72 50q54 72 119 214t81 229h38q3 0 19.5 -12t17.5 -16q6 -101 16 -234q7 -47 49 -132 q49 -98 83 -98q12 0 26 18.5t14 30.5q0 18 -22 42v26h31q17 0 37.5 -26.5t20.5 -44.5q0 -46 -34.5 -76t-81.5 -30z" />
<glyph unicode="a" horiz-adv-x="773" d="M758 120q0 -167 -110 -167q-66 0 -96 30q-18 19 -32 70q-16 56 -32 80q-30 -30 -85 -56.5t-94 -26.5q-96 0 -191 64q-104 71 -104 162q0 169 105 298q112 139 277 139q86 0 145 -42h13l21 95q15 29 99 29q-1 0 33 -6v-23q0 -1 -43 -103q-50 -120 -79 -213 q-42 -137 -42 -222q0 -64 22 -120q29 -73 83 -73q59 0 59 93q0 20 -19 46q-22 -12 -56 -42l-28 34q0 27 26 44q23 15 51 15q37 0 59 -36q18 -30 18 -69zM542 609q-9 0 -26.5 3t-26.5 3q-152 0 -255 -65q-123 -76 -123 -217q0 -70 23 -109t87 -68q53 -24 77 -24q121 0 121 80 q0 12 -12 28t-24 16q-9 0 -34.5 -13t-34.5 -13q-23 0 -23 28q0 21 36.5 48t58.5 27q13 0 87 -46l13 11q5 129 56 311z" />
<glyph unicode="b" horiz-adv-x="773" d="M768 171q0 -124 -110.5 -223.5t-234.5 -99.5q-120 0 -149 87q-11 -9 -24 -56t-34 -69q-33 -35 -100 -35q-41 0 -72 41q-31 38 -31 80q0 31 41 75.5t71 44.5q61 0 61 -66q0 -19 -9 -44q-12 -31 -27 -31q-22 0 -22 16q0 4 2 13.5t2 14.5l-4 38q-33 -27 -33 -35 q0 -101 46 -101q33 0 54 65q15 50 15 96q0 206 -21 490l-39 489l66 14l29 -10l14 -559l7 -8q119 87 222 87q112 0 198 -103q82 -98 82 -211zM659 160q0 243 -191 243q-46 0 -108.5 -29t-90.5 -64q-1 -39 -1 -41l20 -207q36 48 64 61q25 12 84 12l15 -2q53 -61 53 -78 q0 -14 -17 -45t-30 -31q-43 0 -51 2q-25 7 -25 37q16 5 31 11t15 31q0 8 -9.5 23t-17.5 15q-29 0 -48 -40q-16 -33 -16 -64q0 -82 68 -82q101 0 178 74.5t77 173.5z" />
<glyph unicode="c" horiz-adv-x="607" d="M599 231q0 -53 -17 -87q-18 -37 -112 -84q-90 -46 -136 -46q-127 0 -220 115q-89 109 -89 238q0 92 42 169q44 82 122 121q13 6 70.5 28t64.5 22q31 0 59 -16q33 -17 39 -45q-5 -5 -93 -29t-135 -77q-68 -77 -68 -228q0 -95 43 -162q50 -79 141 -79q184 0 184 134 q0 29 -28 67q-33 -18 -42 -27l-27 -39l-13 -6l-34 29q0 43 58 78q51 32 98 32q39 0 67 -36q26 -32 26 -72z" />
<glyph unicode="d" horiz-adv-x="696" d="M743 -165q0 -112 -82 -112q-72 0 -119 51q-26 29 -68 113q-48 -63 -78 -84q-42 -29 -107 -29q-115 0 -186.5 77t-71.5 193q0 161 139 250q76 50 280 108l19 -4l31 26l2 407q1 19 10 65q9 42 7 63q29 20 62 20q24 0 49 -10l1 -19q1 -27 1 -55q0 -138 -42.5 -418.5 t-42.5 -416.5q0 -248 112 -248q25 0 25 28q0 54 -10 65l-52 35l35 22q86 0 86 -127zM485 331q-193 -65 -249 -114q-93 -79 -93 -255q0 -53 45.5 -97t100.5 -44q46 0 91 43t45 88q0 18 -12 39.5t-28 21.5q-22 0 -25 -30.5t-22 -30.5q-40 0 -40 66q0 34 25 54.5t59 20.5 q29 0 79 -28q9 89 24 266z" />
<glyph unicode="e" horiz-adv-x="613" d="M596 507l-16 -14q-18 -1 -56.5 -4t-59.5 -3q1 0 -241 15q-44 3 -70 -86q-20 -67 -20 -128q0 -105 54 -169q58 -70 163 -70q44 0 84 41.5t40 85.5q0 42 -37.5 81.5t-79.5 39.5q-15 0 -44 -22l-1 -19q-2 -41 23 -41q14 0 21.5 14t5.5 28q13 2 31 2l13 -2v-36 q0 -22 -23 -43.5t-45 -21.5q-39 0 -67 36q-26 33 -26 74q0 43 59 80q53 34 100 34q55 0 111.5 -57.5t56.5 -112.5q0 -92 -96 -161q-88 -63 -184 -63q-124 0 -200 120q-66 104 -66 233q0 35 23.5 105.5t22.5 103.5l63 112q31 50 69 69q46 24 132 24q132 0 187 -53t73 -192z M532 575q-1 38 -61 74q-55 32 -97 32q-99 0 -83 -2q-11 -9 -40 -45t-29 -44v-25q5 10 22 10q7 0 21.5 -3t21.5 -3q23 0 70 -2.5t71 -2.5q72 0 104 11z" />
<glyph unicode="f" horiz-adv-x="479" d="M509 853q0 -67 -37 -132q-44 -74 -105 -74q-86 0 -86 83q0 55 19 79l43 14l39 -19v-27l-27 -8l-8 -28q0 -41 31 -41q24 0 48 47q22 42 22 69q0 90 -96 90q-22 0 -32 -30l-15 8q-81 -85 -81 -213q0 -23 3 -44l-11 -22q4 -21 4 -174l7 -8q80 14 81 14q50 0 87 -17 q49 -23 49 -67q0 -42 -33 -72.5t-75 -28.5l-23 2l-24 26q-12 13 -12 27q0 21 31 42l21 -5v-40l12 -8q28 18 28 55q0 26 -33 42q-56 -12 -59 -13q-40 -11 -52 -26l-1 -20l49 -487q5 -58 -20 -103q-30 -53 -86 -53q-41 0 -73 34t-32 76q0 46 33 76t80 24l5 -13l-30 -59 q7 -27 20 -46h12q16 19 16 82q0 45 -23 238q-25 202 -36 220l-18 -5q-28 0 -52 16q-29 17 -29 43q0 13 20 42.5t33 30.5l22 -13l-27 -50l18 -12l25 12q4 36 2 91q-4 80 -4 91q0 141 46 257q62 154 179 154q61 0 106 -32q49 -36 49 -95z" />
<glyph unicode="g" horiz-adv-x="618" d="M604 -252q0 -81 -85 -153.5t-177 -72.5q-83 0 -186 81.5t-103 152.5q0 83 49 151q56 79 144 79q82 0 131 -43.5t49 -114.5q0 -54 -30 -92q-33 -41 -89 -41q-29 0 -64.5 31t-35.5 57q0 17 21 45.5t39 30.5l33 -26v-23l-24 -7v-28q15 -15 37 -15q43 0 43 40q0 57 -19 82 q-24 30 -88 30q-37 0 -60 -33q-19 -29 -19 -63q0 -75 41 -143q49 -81 129 -81q155 0 155 298q0 52 -7 134q-9 104 -23 118q-43 -29 -93 -29q-98 0 -208 74q-115 78 -115 162q0 126 129 202q109 64 257 67l38 1q10 23 19.5 48t42.5 25q35 0 63 -60q-32 -20 -52 -64 q-18 -40 -18 -79v-263q0 -78 38 -238.5t38 -239.5zM458 364v184q-6 0 -17.5 2t-17.5 2q2 0 -84 -23q-160 -44 -160 -178q0 -50 33 -108q39 -68 93 -68q72 0 100 11q45 18 45 74l-1 13q-21 17 -37 17q-12 0 -25 -18q-18 -26 -20 -27q-48 26 -48 55q0 67 139 64z" />
<glyph unicode="h" horiz-adv-x="743" d="M792 -60q-9 -16 -19 -44q1 -11 -3 -29q-32 -63 -119 -63q-53 0 -88 41q-24 28 -51 95q-10 27 -10 87q0 61 26.5 152t26.5 129q0 3 -5 27t-5 36q0 1 3 26q1 16 -2 24q-20 40 -83 40q-50 0 -77.5 -22.5t-46.5 -83.5q-7 -24 2 -85l1 -11q1 -4 1 -7q0 -5 -4.5 -48.5 t-4.5 -47.5v-136q0 -23 -11 -53q-53 -141 -138 -141q-34 0 -54 47q-15 34 -15 62q0 29 21.5 55t45.5 26h21q2 -3 4 -4l2 -1q8 -6 8 -18q0 -9 -11.5 -23t-11.5 -35v-19q2 -11 12 -21q37 18 44 98l-9 611q-4 24 -6 95q-3 78 -40 149q-3 7 -21.5 15t-30.5 8q-31 0 -51 -41 q-14 -30 -14 -58q0 -14 15 -26q18 10 38 35l-29 17v25q25 12 39 12q49 0 49 -47q0 -50 -51 -79q-38 -23 -74 -23q-30 0 -48 36q-14 28 -14 54q0 37 33 88q38 60 86 68q11 2 30 2q91 0 135 -76q33 -56 46 -171l3 -174q63 52 130 52q114 0 153 -96q23 -56 23 -177 q0 -26 -14 -64q-18 -51 -21 -62q-23 -99 -23 -177q0 -49 6 -66q9 -26 44 -51q6 -5 20 -5q38 0 59 42q16 33 16 75q0 67 -32 67q-23 0 -23 -38q0 -2 13.5 -22t13.5 -27q0 -11 -11 -25t-22 -14q-21 0 -40 36q-15 30 -15 46q0 99 79 99q56 0 83 -49q20 -37 20 -86q0 -22 -4 -31 z" />
<glyph unicode="i" horiz-adv-x="360" d="M342 660q0 -44 -31.5 -71.5t-78.5 -27.5q-40 0 -67 25t-27 62q0 51 53 51q5 0 20 -3t23 -3v-57q9 -9 18 -9q18 18 18 51q0 72 -76 72q-14 0 -33.5 -15.5t-27.5 -15.5q-13 0 -24.5 11t-11.5 20q0 21 37 40q30 16 42 16q56 0 108 -41q58 -45 58 -105zM337 -199 q0 -37 -24 -68q-26 -34 -63 -34q-45 0 -77 62q-25 50 -25 86l56 472q0 20 -17 86q-3 10 -16 23q-9 -9 -22 -33q-10 -18 -16 -18q-9 0 -25 20.5t-16 28.5t26.5 30.5t46.5 30.5q16 8 34 8q10 0 35 -13t34 -24q28 -38 28 -96q0 -37 -9 -146l-24 -234q-3 -34 -19 -118 q-14 -77 -14 -81q0 -9 13 -23q23 -5 27 22q0 24 1 48q1 1 1 2q4 5 14 5q51 0 51 -36z" />
<glyph unicode="j" horiz-adv-x="488" d="M494 761q0 -84 -79 -84q-67 0 -67 74q0 17 3 29q7 23 50 23h17l9 -10q-5 -10 -22 -20q-11 -7 -11 -22q0 -19 17 -19q37 0 37 46q0 23 -20 45t-45 22q-4 0 -22.5 -12.5t-23.5 -12.5q-6 0 -14.5 8.5t-8.5 14.5q0 21 35 38q21 10 47 10q27 0 43 -10q55 -35 55 -120zM478 593 q0 -5 -40 -58q-44 -59 -56 -91q-34 -95 -34 -167q0 -118 17 -213q7 -22 19 -67q22 -115 22 -191q0 -179 -131 -250q-25 -14 -55 -14q-49 0 -99 30q-59 35 -68 89q-5 6 -10 21q-9 77 -9 76q0 6 6 17q5 51 34 93q5 15 24 37q29 14 70 14q54 0 87 -55q26 -44 26 -90 q0 -39 -37 -84q-5 0 -21.5 -3t-21.5 -3q-27 0 -51 40q-20 31 -20 44q0 18 27 21q6 0 25 -14q23 -16 33 -20q7 19 7 34q0 26 -11 50q-14 30 -37 30q-28 0 -46 -41q-15 -32 -15 -64q0 -34 26 -115q7 -22 27.5 -35t42.5 -13q69 0 99 93q19 58 19 129l-34 312q1 65 -1.5 106.5 t-2.5 33.5q0 81 18 166q6 29 39 90q42 75 71 75h51q10 -10 10 -13z" />
<glyph unicode="k" horiz-adv-x="762" d="M777 63q0 -73 -37 -138q-43 -76 -110 -76q-104 0 -170 56q-37 32 -92 120q-50 81 -90 108l-11 -12l3 -271q1 -85 -2 -110q-8 -51 -42 -102l-70 -30q-41 0 -67 80l26 59h31v-62l13 -5l20 18q16 77 16 105q0 39 -9.5 117.5t-9.5 118.5q0 122 16 311l27 311q2 35 2 57 q0 112 -60 145q-21 0 -41.5 -19.5t-20.5 -40.5l4 -32l15 -4l41 19l21 -11v-16q0 -35 -55 -35q-79 0 -79 98q0 43 32.5 80.5t75.5 37.5q123 0 123 -224q0 -16 -1 -44v-37v-354q44 52 95 141l85 147l47 20q28 0 28 -26q0 -41 -120 -203.5t-120 -180.5q32 -17 159 -157 q114 -125 161 -125q49 0 72 75q17 52 17 119l-6 62q-15 17 -52 27l-63 -30v-58l8 -8q21 11 55 44l23 -6l6 -16q-17 -39 -33 -54q-12 -11 -56 -35q-37 1 -65 41q-24 36 -24 74q0 53 35 84.5t88 31.5q70 0 117 -60q44 -55 44 -125z" />
<glyph unicode="l" horiz-adv-x="380" d="M270 -342q-60 0 -94 55q-29 47 -29 112q0 14 2 27l79 636q1 8 1 24q0 76 -14 152q-18 98 -47 98q-51 0 -51 -49l6 -20q24 5 26 5q38 0 38 -31q0 -24 -24 -43.5t-49 -19.5q-33 0 -57 42q-20 36 -20 72q0 42 50 80q46 35 90 35q72 0 113 -71q34 -60 34 -141q0 -20 -2 -38 l-93 -643q-2 -12 -2 -34q0 -177 55 -177q24 0 28 21q-1 -2 -1 41q0 35 31 35q33 0 33 -46q0 -52 -24 -85q-28 -37 -79 -37z" />
<glyph unicode="m" horiz-adv-x="1091" d="M1095 262q0 -42 -21.5 -112.5t-37.5 -87.5q-32 -37 -83 -72q-60 -42 -96 -42q-21 0 -62 17q-35 14 -62 56q-35 56 -35 154q0 67 57 109q51 37 116 37q20 0 27 -3l42 -52q20 -27 20 -45q0 -13 -21 -62q-25 -58 -48 -58q-14 0 -28 13.5t-14 22.5q0 7 14 41t14 41 q0 23 -6 28q-3 2 -17 2q-56 0 -56 -104q0 -41 17 -72q21 -38 62 -38q97 0 135 182q1 5 8 20.5t7 22.5q0 93 -52 175q-65 100 -174 100q-71 0 -149 -38q-94 -45 -94 -110q0 -5 13 -54q15 -54 19 -75q2 -12 2 -65q0 -74 -13 -112q-16 -48 -68 -105q-6 -7 -29 -15t-33 -8 q-3 0 -68 22q-29 10 -59 69q-26 54 -26 86q0 37 38.5 75.5t78.5 38.5q18 0 44 -21v-24q-12 -4 -32 -15q-46 -52 -46 -67q0 -7 7 -14q10 -11 12 -14q4 -49 32 -49t47 71q14 54 14 93q0 18 -32 134q-31 113 -42 138q-4 7 -59 53q-4 1 -26 1q-63 0 -127 -106q-49 -80 -53 -111 q-2 -10 -2 -51q0 4 10 -117q2 -49 9 -127q2 -16 12 -53q9 -33 9 -40q0 -28 -28 -28q-16 0 -38 14.5t-22 23.5q-4 60 -17 187q-13 118 -13 120v341q0 4 -2.5 26.5t-2.5 37.5h59q19 -16 19 -17q-1 -49 0 -91l9 -9q9 11 31 33q17 14 66 35q55 24 81 24q56 0 184 -117 q119 112 196 112q127 0 220 -61q107 -72 141 -212q22 -86 22 -82z" />
<glyph unicode="n" horiz-adv-x="1047" d="M1041 76q0 -92 -84.5 -176t-175.5 -84q-153 0 -200 186q-22 89 -22 304q0 124 -52 182l-19 1q-64 0 -139 -48q-83 -53 -79 -114l26 -388l-11 -48q-24 -7 -76 -28l-32 23q-2 12 0 32q2 23 2 31q0 50 -9.5 144.5t-9.5 147.5q0 11 1.5 47t1.5 50q0 133 -19 219l-11 4 q-41 0 -41 -55q0 -28 10 -58l-24 -18q-15 0 -28 30q-11 25 -11 43q0 50 36 81q33 29 85 29q42 0 70 -63q22 -49 25 -101l7 -9q68 58 94 73q48 27 113 27q125 0 157 -170l29 -316q23 -170 126 -170q62 0 109 58q46 55 46 118q0 42 -16 80q-21 48 -58 48q-27 0 -50 -19 t-23 -46q0 -8 9 -56q13 3 17 16.5t7 25.5h28l18 -36q0 -27 -23.5 -50.5t-50.5 -23.5q-28 0 -53 32t-25 60q0 59 34 107q38 53 94 53q66 0 130 -54q67 -57 67 -121z" />
<glyph unicode="o" horiz-adv-x="811" d="M780 252q0 -177 -92 -298q-101 -133 -272 -133q-45 0 -79 17l-70 32q-109 42 -173 134t-64 209q0 120 13 177q18 80 154.5 181t221.5 101q161 0 265 -133q96 -123 96 -287zM718 264q0 140 -80 246q-89 117 -227 117q-17 0 -51 -17q27 -4 84 -37q62 -37 62 -58 q0 -22 -28 -22q-13 0 -42 14t-42 14q-63 0 -138 -29q-13 -45 -13 -72q0 -38 23 -90q26 -61 58 -61q21 0 56.5 23.5t35.5 43.5q0 15 -7 17q-54 -11 -52 -11q-30 0 -30 25q0 48 64 48q87 0 87 -98q0 -49 -43 -81q-38 -28 -89 -28q-68 0 -121 62q-44 54 -60 128 q-45 -57 -45 -188q0 -133 68 -222q76 -99 209 -99q74 0 175 86q92 80 127 156q19 42 19 133z" />
<glyph unicode="p" horiz-adv-x="680" d="M674 335q0 -131 -110.5 -245t-241.5 -114q-24 0 -48 5l-7 -12q23 -60 23 -208q0 -76 -38 -157q-46 -97 -114 -97q-20 0 -49 23q-42 34 -46 36q-25 47 -48.5 96t-23.5 109q0 31 5 69q2 17 24 42l33 36l18 2q48 0 78 -39.5t30 -89.5q0 -24 -12 -54q-14 -37 -33 -37l-25 16 l18 61q0 23 -9 43q-12 25 -33 25q-23 0 -23 -73q0 -65 20 -102q11 -22 40 -45q26 -21 32 -38l17 6q50 66 50 161q0 139 -21 354l-35 353q-7 79 22 184q36 133 104 123v-22q-30 -22 -49 -98q-16 -62 -16 -112l3 -16l7 1q36 43 97.5 75t114.5 32q116 0 184 -92q62 -83 62 -201 zM403 539q-60 0 -128.5 -62.5t-68.5 -120.5q0 -20 5 -58.5t5 -57.5l17 -15q43 65 97 65q40 0 63 -36q19 -31 19 -74q0 -74 -87 -74q-19 0 -30 18v8q51 15 51 57q0 26 -18 26q-23 0 -37.5 -24.5t-14.5 -47.5q0 -97 60 -97q92 0 136 39q39 35 68 127q22 73 22 113 q0 81 -39 143q-45 71 -120 71z" />
<glyph unicode="q" horiz-adv-x="828" d="M848 -78q0 -44 -46 -134q-48 -98 -85 -98q-38 0 -62 35q-21 32 -21 71q0 66 44 97h35l11 -10l-6 -16q-32 -7 -32 -59q0 -35 17 -52q54 35 54 119q0 46 -16 82q-21 46 -62 46q-61 0 -107 -106q-23 -56 -63 -213q-34 -132 -57 -160q-49 14 -55 18q-24 15 -24 55 q0 290 85 578l-7 8l-50 -31q-24 -16 -54 -16q-110 0 -192 72q-86 75 -86 182q0 148 118 244q109 90 260 90q54 0 90 -19l15 9q11 129 51 129q12 0 22 -9.5t9 -21.5l-59 -438q-47 -358 -41 -406h5l71 69q38 27 98 27q49 0 94.5 -46t45.5 -96zM539 608q0 12 -6 21 q-10 -4 -22 -4q-18 0 -54 9.5t-53 9.5q-100 0 -166 -59q-69 -61 -69 -160q0 -73 31 -133q38 -76 104 -76q131 0 131 98q0 8 -7 21.5t-15 13.5t-39 -16.5t-39 -16.5q-13 0 -25.5 13.5t-12.5 26.5q0 23 34 46t59 23q65 0 109 -40l25 111q15 70 15 112z" />
<glyph unicode="r" horiz-adv-x="755" d="M779 527q0 -61 -45 -124q-57 -81 -149 -81q-90 0 -123 31q-27 26 -27 91q0 36 41.5 74.5t89.5 38.5q17 0 41.5 -16t24.5 -27q0 -12 -11 -27t-30 -15q-12 0 -19 6l-13 14q-22 -11 -22 -53q0 -47 57 -47q46 0 79 45q29 42 29 90q0 46 -34.5 70.5t-86.5 24.5 q-101 0 -181 -101q-67 -83 -67 -142q0 -4 13 -50q14 -50 17 -75q1 -60 16 -180q50 -199 50 -193q0 -11 -45 -38t-57 -27q-10 0 -23 9.5t-14 17.5q-22 172 -38 401q1 31 -4 100q-12 40 -28 120q-1 30 -3 60q-5 39 -19 70q-8 15 -28 27.5t-36 10.5q-11 -8 -11 -17t16 -15 q11 -5 22 -9v-23q-37 -31 -53 -31q-34 0 -52 34q-15 27 -15 64q0 22 13 48.5t34.5 37.5t82.5 11q59 0 102 -78l39 -92q121 102 131 109q60 36 158 36q29 0 56 -17q24 -16 68 -54q27 -30 38 -50q16 -29 16 -59z" />
<glyph unicode="s" horiz-adv-x="582" d="M395 436q-46 0 -79 52q-26 41 -26 67q0 41 35 41q14 0 32 -15l9 -8q23 -19 52 -19q33 0 33 46q0 50 -59 50q-6 0 -31 -12q-28 -14 -35 -17l-8 -2q-28 -7 -54 -52q-24 -41 -24 -70q0 -34 33 -89q4 -16 13 -39q45 -38 131 -118q36 -34 83 -145l30 -58q16 -33 16 -64 q0 -67 -43 -130q-46 -70 -118 -93q-35 -11 -128 -11q-158 0 -224 167l-2 4q-1 4 -4 7q0 8 -3.5 26.5t-3.5 25.5q0 45 44.5 85.5t89.5 40.5q37 0 75 -19q47 -24 47 -63q0 -29 -14 -55q-18 -32 -46 -32q-22 0 -76 37v29q24 0 57 -4q2 1 3 1l1 1q-1 -2 -2 -3l-2 -2 q-2 34 -25 34q-18 0 -29.5 -20.5t-11.5 -39.5q0 -60 41 -109q43 -53 103 -53q28 0 73 15q33 11 45 32q28 49 27 79v10v12q0 70 -37 124q-46 68 -147 182q-34 38 -65 115.5t-31 126.5q0 82 60 145q64 68 161 68q63 0 122 -39q68 -46 68 -113q0 -64 -49 -99q-43 -30 -107 -30z " />
<glyph unicode="t" horiz-adv-x="519" d="M337 566h1q48 23 90 23q91 0 91 -73q0 -36 -25 -80q-31 -53 -70 -53q-36 0 -57 32q7 9 20 16q20 13 28 20q17 14 18 26l1 4v1v6q0 20 -15 20q-10 0 -36 -10q-34 -14 -51 -32q-8 -8 -7 -32q2 -42 3 -34q-5 -114 -30 -343q-24 -219 -24 -212q0 -159 34 -159q20 0 15 66 q12 13 29 13q42 0 42 -54q0 -14 -19.5 -53.5t-28.5 -44.5q-2 -1 -55 -9q-4 0 -14.5 -6t-19.5 -6q-62 0 -67 80q-2 20 -1 30l18 296q8 120 26 236l8 52q4 24 4 27v101q-42 -17 -64 -17q-26 0 -60 24q-38 26 -38 53q0 10 13 42q15 37 27 42l1 1q4 2 15 2q26 0 41 -24 q-7 -51 -5 -64h1q6 0 36 19t31 22q2 8 2 23v14v11q0 6 -4 48q-3 49 -4 67q-2 36 -18 70q-19 42 -45 45q-4 3 -5 4l-3 3q0 1 -4 1q-12 0 -35 -19q1 -7 4 -19l1 -4q0 -2 1 -3h-1h37l4 -4q8 -6 8 -15v-5q1 -27 -33 -50q-27 -20 -42 -20q-8 0 -24.5 5.5t-25.5 5.5q-15 21 -15 43 v32q4 68 68 132q10 10 32 10q145 0 180 -170q5 -48 16 -145q-1 -4 0 -8z" />
<glyph unicode="u" horiz-adv-x="985" d="M1054 80q0 -47 -37 -108q-42 -72 -96 -72q-76 0 -105 43q-19 27 -25 94q-6 71 -18 96q-80 -116 -93 -130q-62 -66 -138 -66q-217 0 -217 249q0 74 1 85q4 35 25 129q10 46 10 55q0 44 -33 123q-41 99 -93 99q-50 0 -79 -41q-23 -33 -23 -72q0 -4 7 -42q0 -1 33 -30 q4 0 20 14q-6 13 -18 36q10 19 33 19q1 0 51 -27q-5 -100 -108 -100q-47 0 -75 35t-28 81q0 108 110 183q64 13 116 13q68 0 133 -86q19 -26 35 -89t16 -110l-31 -270q0 -148 127 -148q62 0 138 97q67 86 67 122q0 1 -23 68q-6 19 -7 50q-2 45 -3 51q-9 13 -20 37 q-8 77 -8 133q0 57 20 101q14 30 64.5 61t84.5 31q31 0 54.5 -24t23.5 -56q0 -6 -3 -20.5t-3 -19.5l-2 -2q-5 -5 -16 -5q-9 0 -29 21q-30 33 -35 37q-29 -5 -37 -35q-13 -49 -13 -150q0 -75 38 -276l51 -264q2 0 4.5 -2.5t11.5 -2.5q29 0 45 80q0 6 -12 19.5t-12 20.5v33 q41 11 54 11q67 0 67 -79z" />
<glyph unicode="v" horiz-adv-x="878" d="M792 271l-48 39v13q61 11 61 67q0 15 -9 32t-23 17q-5 0 -9 -2q-81 -35 -120 -165q-24 -78 -38 -229q-12 -124 -25 -135l-37 -70q-8 5 -24 37l-18 39q-18 31 -87 233q-78 227 -124 328q-75 167 -130 167q-41 0 -51 -61q-3 -18 -3 -78q15 -3 20 -10q11 6 37 45 q18 28 55 24q13 -35 13 -53q0 -45 -17 -61t-66 -16q-61 0 -98 35q-34 32 -34 81q0 90 76 166q64 24 84 24q73 0 156 -135q60 -98 127 -271l76 -203q15 13 39 109q28 113 53 162q43 84 111 84q38 0 85 -29t47 -58q0 -113 -79 -126z" />
<glyph unicode="w" horiz-adv-x="1180" d="M1192 536q0 -63 -36 -129q-43 -79 -110 -79q-40 0 -70.5 29t-30.5 64q0 24 25 56t51 32q25 0 25 -34q0 -17 -21 -34l-2 -27q-1 -27 21 -27q26 0 44 58q15 45 15 79q0 31 -17 78q-20 59 -45 59q-64 0 -101 -86q-28 -66 -28 -130.5t-11 -197t-11 -203.5q0 -53 4 -102 l-24 -5l-23 6q-105 176 -269 395q-39 -75 -65 -219q-29 -152 -57 -216h-27q-17 32 -74 228q-61 215 -103 313q-68 158 -135 158q-52 0 -70 -30q-12 -20 -12 -70q0 -25 37 -47q24 11 48 39l-28 31v17l19 6q21 0 43 -15.5t22 -33.5q0 -88 -101 -102q-36 14 -50 21 q-28 14 -44 29q3 20 -4 51q-9 36 -9 50q0 49 27 86q32 41 85 41q123 0 192 -107q38 -61 83 -219q39 -139 76 -173l56 155q40 105 79 134q31 -1 121 -153l107 -190q5 13 5 165q0 156 38 263q57 165 190 165q65 0 117 -63q48 -57 48 -116z" />
<glyph unicode="x" horiz-adv-x="953" d="M994 -147q0 -40 -71 -83q-65 -39 -108 -39q-103 0 -168 54q-49 40 -95 130q-76 147 -82 156q-33 -26 -80 -131q-56 -127 -88 -170q-61 -84 -144 -84q-41 0 -68 37q-25 33 -25 75q0 81 14 116q23 61 92 61l41 -23q-20 -21 -57 -80q0 -17 18 -31t36 -14q31 0 123 186 q80 163 98 224l-72 213q-60 140 -142 140q-31 0 -50 -33q-17 -28 -18 -60l29 -29q36 31 57 45h28l7 -8v-24q-57 -71 -118 -71l-47 16q-11 16 -25 62.5t-14 66.5q0 57 63 94q54 31 116 31q104 0 168 -93l93 -177q31 23 70 83q42 66 67 88q45 41 112 41q53 0 104 -67 q47 -63 47 -119q0 -47 -46 -103.5t-92 -56.5q-59 0 -85 44q-13 24 -27 95l38 21l80 -45q36 0 36 75q0 73 -42 73q-51 0 -141 -121q-87 -115 -87 -161q0 -80 96 -249q106 -187 193 -187q45 0 83 17q-3 65 -21 78q-5 4 -81 22q13 21 57 49q128 -24 128 -134z" />
<glyph unicode="y" horiz-adv-x="789" d="M771 570l-3 -11q-88 -48 -114 -145q-14 -50 -14 -171q0 -73 52.5 -205t52.5 -200q0 -105 -89 -198q-99 -102 -242 -102q-88 0 -186 84q-94 81 -94 146q0 87 51 167q63 101 169 101q71 0 123 -58q45 -50 45 -102q0 -37 -27 -68q-31 -35 -81 -35q-54 0 -84 24 q-16 13 -44 58l36 26q53 0 80 -52q37 16 37 50q0 35 -24 65q-28 35 -74 35q-43 0 -75 -56q-26 -47 -26 -85q0 -58 65 -121q70 -66 148 -66q72 0 126 61q49 56 49 115q0 7 -1 14l-64 392l-104 -68q-67 -40 -151 -40q-63 0 -118.5 37t-55.5 83q0 45 43 132q41 84 38 133l-2 31 l-29 16q-36 0 -65 -20t-26 -45l2 -16q21 -13 59 -23v-12q0 -20 -69 -20q-37 0 -53 11.5t-16 44.5q0 51 42 94q46 47 116 47q51 0 98 -48.5t40 -84.5l-40 -198q-11 -57 92 -91q92 39 189 181l66 116q56 93 77 93q-8 0 75 -16z" />
<glyph unicode="z" horiz-adv-x="744" d="M797 72q0 2 -24 -70q-19 -57 -26 -72q-21 -45 -53 -62l-150 -85q-47 -25 -100 -25q-8 0 -98.5 9.5t-98.5 9.5q-7 0 -56 -22t-55 -22q-11 0 -70 92q0 6 50 75q62 86 88 130q38 62 95 180q62 127 93 182q31 46 87 144l-10 10q-18 -6 -63 -6q-1 0 -39 -5q-34 -4 -50 -2 q-126 19 -152 19q-20 0 -35 -23l-19 -37q14 -14 32 -21q24 -10 25 -10q-36 -49 -70 -49q-22 0 -41 33q-16 27 -16 44q0 6 21 52q27 58 32 71q84 36 122 36h215q52 0 135 51.5t93 87.5l33 -10q18 -8 16 -26l-445 -849q2 -2 11 -9q175 -40 196 -40q74 0 147 62q78 66 78 142 q0 33 -8 46q-14 21 -46 47.5t-44 26.5q-27 0 -56 -56q-23 -46 -24 -60v-38q-5 -5 10 -5q42 0 42 94l1 1q7 7 24 7q20 0 35.5 -18.5t15.5 -32.5q0 -38 -36 -79t-72 -41q-52 0 -81 59q-21 41 -21 74q0 69 56 122q54 50 115 50q27 0 36 -3q59 -16 107 -64q5 -5 18 -37l18 -31 q12 -21 12 -47z" />
<glyph unicode="{" horiz-adv-x="1500" d="M480 872q0 -18 -39 -58t-60 -40q-8 0 -22 14t-18 26q1 1 35 25q29 21 29 39q0 29 -37 29q-32 0 -53 -34q-15 -25 -18 -54l-14 -82q-10 -58 -9 -93q1 -114 -11 -169q-17 -85 -76 -151l75 -85q50 -57 56 -79q6 -19 0 -102q-6 -23 -13 -69q-2 -167 66 -167q34 0 34 34 q0 8 -14 23q-19 19 -23 24v19q5 0 16 3t19 3q22 0 44 -22t22 -42q0 -25 -26 -60t-54 -35q-43 0 -90 32q-50 35 -63 81q-17 65 -17 166q0 13 3.5 43t3.5 45q0 28 -9 49q-6 16 -33.5 42.5t-53.5 39.5q-34 9 -68 17q-41 13 -39 47l54 4q33 3 47 14q45 37 81 173q9 35 10 83 q3 67 4 81q3 30 28 181q5 30 43.5 61.5t69.5 31.5q37 0 76 -25q44 -27 44 -63z" />
<glyph unicode="}" horiz-adv-x="520" d="M42 870q0 -18 39 -58t60 -40q8 0 22 14t18 26q-1 1 -35 25q-29 21 -29 39q0 29 37 29q32 0 53 -34q15 -25 18 -54l14 -82q10 -58 9 -93q-1 -114 11 -169q17 -85 76 -151l-75 -85q-50 -57 -56 -79q-6 -19 0 -102q6 -23 13 -69q2 -167 -66 -167q-34 0 -34 34q0 8 14 23 q19 19 23 24v19q-5 0 -16 3t-19 3q-22 0 -44 -22t-22 -42q0 -25 26 -60t54 -35q43 0 91.5 33.5t61.5 79.5q17 65 17 166q0 13 -3.5 43t-3.5 45q0 28 9 49q6 16 33.5 42.5t53.5 39.5q34 9 68 17q41 13 39 47l-54 4q-33 3 -47 14q-45 37 -81 173q-9 35 -10 83q-3 67 -4 81 q-3 30 -28 181q-5 30 -43.5 61.5t-69.5 31.5q-37 0 -76 -25q-44 -27 -44 -63z" />
<glyph unicode="~" horiz-adv-x="615" d="M602 799q0 -32 -24 -71q-28 -47 -64 -47q-17 0 -30 13v25q61 46 61 83q0 26 -19 26q-7 0 -32 -19q-31 -23 -46 -30q-104 -50 -126 -59q-74 -30 -134 -33q-8 -1 -26 -6.5t-25 -5.5q-46 0 -82 41q-34 38 -34 78q0 21 30 42q26 20 40 20q1 0 42 -18v-26q-44 -7 -44 -38 q0 -17 21 -28q18 -9 38 -9q6 0 21 4.5t24 5.5q64 5 173 72q105 65 154 65q82 0 82 -85z" />
<glyph unicode="&#xa0;" />
<glyph unicode="&#xaa;" horiz-adv-x="773" d="M758 120q0 -167 -110 -167q-66 0 -96 30q-18 19 -32 70q-16 56 -32 80q-30 -30 -85 -56.5t-94 -26.5q-96 0 -191 64q-104 71 -104 162q0 169 105 298q112 139 277 139q86 0 145 -42h13l21 95q15 29 99 29q-1 0 33 -6v-23q0 -1 -43 -103q-50 -120 -79 -213 q-42 -137 -42 -222q0 -64 22 -120q29 -73 83 -73q59 0 59 93q0 20 -19 46q-22 -12 -56 -42l-28 34q0 27 26 44q23 15 51 15q37 0 59 -36q18 -30 18 -69zM542 609q-9 0 -26.5 3t-26.5 3q-152 0 -255 -65q-123 -76 -123 -217q0 -70 23 -109t87 -68q53 -24 77 -24q121 0 121 80 q0 12 -12 28t-24 16q-9 0 -34.5 -13t-34.5 -13q-23 0 -23 28q0 21 36.5 48t58.5 27q13 0 87 -46l13 11q5 129 56 311z" />
<glyph unicode="&#xad;" horiz-adv-x="640" d="M622 413q0 -32 -24 -71q-28 -47 -64 -47q-17 0 -30 13v25q61 46 61 83q0 26 -19 26q-7 0 -32 -19q-31 -23 -46 -30q-104 -50 -126 -59q-74 -30 -134 -33q-8 -1 -26 -6.5t-25 -5.5q-46 0 -82 41q-34 38 -34 78q0 21 30 42q26 20 40 20q1 0 42 -18v-26q-44 -7 -44 -38 q0 -17 21 -28q18 -9 38 -9q6 0 21 4.5t24 5.5q64 5 173 72q105 65 154 65q82 0 82 -85z" />
<glyph unicode="&#xb2;" horiz-adv-x="784" d="M761 -197q0 -110 -117 -163q-89 -41 -214 -41q-43 0 -130.5 25t-128.5 25q-12 0 -35 -8.5t-34 -8.5q-85 0 -85 33q0 38 117 229q166 270 217 368q118 221 118 332q0 86 -46 138.5t-131 52.5q-53 0 -86 -45q-30 -41 -30 -95l19 -9l15 42l16 7q13 0 26 -9.5t13 -23.5 q0 -37 -24 -69q-26 -35 -62 -35q-40 0 -64 34q-21 31 -21 73q0 82 54 136t136 54q111 0 181 -71t70 -182q0 -135 -151 -439l-230 -436l20 -13l52 6q48 0 134 -28t131 -28q67 0 127 53t60 121q0 43 -35 75.5t-78 32.5q-31 0 -61 -30t-24 -60q5 -3 33 -7q21 -3 27 -16l-14 -57 q-12 -29 -46 -29q-40 0 -75.5 32.5t-35.5 72.5q0 49 76 101q71 48 123 48q69 0 131 -59.5t62 -128.5z" />
<glyph unicode="&#xb3;" horiz-adv-x="597" d="M195 -353q-83 0 -127 71q-39 63 -39 162q0 93 43 177q50 99 127 99q54 0 89 -48.5t35 -111.5q0 -67 -28 -113q-31 -53 -88 -53q-74 0 -74 86q0 -2 2 39q0 21 -4 46h51q6 -20 6 -37v-14v-13q0 -27 19 -27q42 0 42 97q0 36 -5 46q-8 17 -39 17q-98 0 -98 -174 q0 -80 22 -118t84 -55q172 69 227 179q49 98 49 333q0 108 -63 192q-65 88 -155 88q-20 0 -51 -9l-50 -14q-23 -5 -48 51l86 95q48 56 76 104q-17 3 -43 3q-11 0 -32 -1h-32q-82 0 -122 34v38l15 16q201 15 346 67l43 -35q0 -38 -70 -128l-99 -119q14 -10 91 -47 q62 -30 99 -95q87 -152 87 -325q0 -218 -91 -354q-100 -149 -281 -149z" />
<glyph unicode="&#xb9;" horiz-adv-x="594" d="M555 -263q0 -43 -25 -79q-28 -39 -68 -39l-130 65q-8 -18 -8 -40q0 -8 1 -20t1 -17q0 -36 -68 -36q-42 0 -42 54q0 11 2 31.5t2 27.5q0 65 -61 65q-58 0 -75 -45q7 -19 40 -41q-1 -24 -49 -44l-49 24l-1 25q-1 80 51 109q36 20 120 20l14 15q13 157 13 577q0 29 10 92 q9 60 8 92l-5 133l-72 -60q-55 -46 -72 -46q-23 0 -26 29q149 148 229 284q48 -5 44 -30l-14 -92q-9 -58 -9 -93v-859q0 -83 38 -107l116 -54l26 65q0 29 -26 29q-8 0 -35 -6l-43 19q21 46 81 46q35 0 58.5 -29t23.5 -65z" />
<glyph unicode="&#xba;" horiz-adv-x="811" d="M780 252q0 -177 -92 -298q-101 -133 -272 -133q-45 0 -80 17l-69 32q-109 42 -173 134t-64 209q0 120 13 177q18 80 154.5 181t221.5 101q161 0 265 -133q96 -123 96 -287zM718 264q0 140 -80 246q-89 117 -227 117q-17 0 -51 -17q27 -4 84 -37q62 -37 62 -58 q0 -22 -28 -22q-13 0 -42 14t-42 14q-63 0 -138 -29q-13 -45 -13 -72q0 -38 23 -90q26 -61 58 -61q21 0 56.5 23.5t35.5 43.5q0 15 -7 17q-54 -11 -52 -11q-30 0 -30 25q0 48 64 48q87 0 87 -98q0 -49 -43 -81q-38 -28 -89 -28q-68 0 -121 62q-44 54 -60 128 q-45 -57 -45 -188q0 -133 68 -222q76 -99 209 -99q74 0 175 86q92 80 127 156q19 42 19 133z" />
<glyph unicode="&#xc2;" horiz-adv-x="1109" d="M1043 1094q-92 0 -191 329l-121 -184q-130 -180 -238 -180q-32 0 -59 24t-27 56q0 27 26 50.5t54 23.5q3 0 27 -12v-20q-35 -31 -48 -55q5 -3 4 -7l14 -6q24 0 73 40q53 44 72 50q54 72 119 214t81 229h38q3 0 19.5 -12t17.5 -16q6 -101 16 -234q7 -47 49 -132 q49 -98 83 -98q12 0 26 18.5t14 30.5q0 18 -22 42v26h31q17 0 37.5 -26.5t20.5 -44.5q0 -46 -34.5 -76t-81.5 -30zM1120 -159q0 -58 -29 -110q-36 -63 -94 -63q-144 0 -208 198q-39 120 -40 261q-1 5 -8 16q-61 6 -108 -17q-66 -31 -71 -106l25 29q13 12 32 12 q9 0 26.5 -19.5t17.5 -27.5q0 -15 -20 -51q-23 -39 -41 -47q-6 -2 -24 -2q-47 0 -72 30q-10 0 -18 -11l-75 -123q-58 -88 -117 -134q-47 -37 -116 -59q-4 -1 -33 -1q-65 0 -100 48q-29 40 -29 101q0 64 25 110q5 10 71 104q54 -1 107 -1q61 -5 61 -67q0 -13 -11 -42 q-15 -37 -33 -37q-24 0 -33 25l-10 40q-1 0 -4 3t-11 3q-25 0 -43 -63q-13 -48 -13 -84q0 -25 16 -41q20 2 52 25t51 50q22 16 55 53l340 656q65 133 128 327q10 46 38 143h34q18 -29 22 -67q13 -130 26 -381q11 -208 11 -240v-171q0 -49 16 -134l10 -115q21 -105 77 -105 q44 0 44 91q0 19 -29 58q0 9 9.5 21t19.5 12q37 0 59 -35q17 -29 17 -62zM760 539q-3 7 -18 20l-137 -368q99 28 108 28q7 0 18 -2.5t13 -2.5q7 110 16 325z" />
<glyph unicode="&#xc3;" horiz-adv-x="1109" d="M1071 1183q0 -32 -24 -71q-28 -47 -64 -47q-17 0 -30 13v25q61 46 61 83q0 26 -19 26q-7 0 -32 -19q-31 -23 -46 -30q-104 -50 -126 -59q-74 -30 -134 -33q-8 -1 -26 -6.5t-25 -5.5q-46 0 -82 41q-34 38 -34 78q0 21 30 42q26 20 40 20q1 0 42 -18v-26q-44 -7 -44 -38 q0 -17 21 -28q18 -9 38 -9q6 0 21 4.5t24 5.5q64 5 173 72q105 65 154 65q82 0 82 -85zM1120 -159q0 -58 -29 -110q-36 -63 -94 -63q-144 0 -208 198q-39 120 -40 261q-1 5 -8 16q-61 6 -108 -17q-66 -31 -71 -106l25 29q13 12 32 12q9 0 26.5 -19.5t17.5 -27.5 q0 -15 -20 -51q-23 -39 -41 -47q-6 -2 -24 -2q-47 0 -72 30q-10 0 -18 -11l-75 -123q-58 -88 -117 -134q-47 -37 -116 -59q-4 -1 -33 -1q-65 0 -100 48q-29 40 -29 101q0 64 25 110q5 10 71 104q54 -1 107 -1q61 -5 61 -67q0 -13 -11 -42q-15 -37 -33 -37q-24 0 -33 25 l-10 40q-1 0 -4 3t-11 3q-25 0 -43 -63q-13 -48 -13 -84q0 -25 16 -41q20 2 52 25t51 50q22 16 55 53l340 656q65 133 128 327q10 46 38 143h34q18 -29 22 -67q13 -130 26 -381q11 -208 11 -240v-171q0 -49 16 -134l10 -115q21 -105 77 -105q44 0 44 91q0 19 -29 58 q0 9 9.5 21t19.5 12q37 0 59 -35q17 -29 17 -62zM760 539q-3 7 -18 20l-137 -368q99 28 108 28q7 0 18 -2.5t13 -2.5q7 110 16 325z" />
<glyph unicode="&#xca;" horiz-adv-x="841" d="M303 1098q-92 0 -191 329l-121 -184q-130 -180 -238 -180q-32 0 -59 24t-27 56q0 27 26 50.5t54 23.5q3 0 27 -12v-20q-35 -31 -48 -55q5 -3 4 -7l14 -6q24 0 73 40q53 44 72 50q54 72 119 214t81 229h38q3 0 19.5 -12t17.5 -16q6 -101 16 -234q7 -47 49 -132 q49 -98 83 -98q12 0 26 18.5t14 30.5q0 18 -22 42v26h31q17 0 37.5 -26.5t20.5 -44.5q0 -46 -34.5 -76t-81.5 -30zM876 -97q0 -86 -50 -138l-106 -26q-65 -16 -106 -16q-58 0 -174 30t-174 30q-59 0 -78 -24q-17 -20 -17 -77l20 -4q8 0 68 20l12 -20l-47 -58 q-72 -12 -65 -12q-28 0 -60.5 29t-32.5 56q0 91 48 141q40 43 131 69l6 63q0 225 -21 319q-99 38 -99 88q0 30 28 30q15 0 32 -25t37 -30q9 19 9 45q0 63 -9 168q-12 138 -13 169l-7 7q-192 31 -192 149l65 87l65 -26v-23l-43 -34l-2 -7q0 -32 106 -70q12 22 14 58l2 61 q21 22 73 22q27 0 27 -48q0 -16 -3.5 -46t-3.5 -37l13 -5l183 90q111 50 194 50q165 0 165 -85q0 -70 -50 -131q-53 -64 -122 -64q-37 0 -66 24q-32 25 -32 61q0 23 29 54t51 31l40 -27l-45 -50q1 -33 35 -33q22 0 51 35.5t29 57.5q0 21 -37 44t-60 23q-40 0 -204 -67 q-169 -70 -169 -95q0 -35 5 -175q4 -107 0 -174l10 -4l125 45q33 -15 88 -56l2 -19q0 -36 -29 -70.5t-66 -34.5l-39 22v17q74 7 74 54q0 24 -45 32q-70 -29 -95 -60q-22 -26 -22 -71q0 -14 3.5 -60t3.5 -79q0 -31 -3 -75.5t-3 -60.5q0 -50 22 -76q26 -31 98 -51 q193 -57 189 -57q46 0 94 40.5t48 84.5q0 31 -14 56q-18 29 -46 29q-18 0 -34 -24.5t-16 -45.5l3 -20l40 30l26 -5l6 -15q0 -29 -21 -47t-51 -18q-24 0 -49 37q-24 34 -24 58q0 95 113 95q96 0 155 -76z" />
<glyph unicode="&#xce;" horiz-adv-x="594" d="M559 1118q-92 0 -191 329l-121 -184q-130 -180 -238 -180q-32 0 -59 24t-27 56q0 27 26 50.5t54 23.5q3 0 27 -12v-20q-35 -31 -48 -55q5 -3 4 -7l14 -6q24 0 73 40q53 44 72 50q54 72 119 214t81 229h38q3 0 19.5 -12t17.5 -16q6 -101 16 -234q7 -47 49 -132 q49 -98 83 -98q12 0 26 18.5t14 30.5q0 18 -22 42v26h31q17 0 37.5 -26.5t20.5 -44.5q0 -46 -34.5 -76t-81.5 -30zM250 -319q12 0 26 39q10 32 12 53q-10 11 -62 11q-61 0 -82 -32q17 -12 41 -10v-10l2 -6q3 -10 3 -21q-27 -17 -51 -17q-34 0 -53 26q-16 21 -16 47 q0 37 34 65q30 25 65 25q4 0 18 -2l33 -5q46 -7 77 -10q4 8 4 16q0 95 -36 260q-24 71 -52 210q-1 9 -15 65q-13 51 -12 80q2 35 -4 102q-7 72 -7 68q0 20 17 98l-1 1v2q0 -1 -2 -2q-8 0 -26 -4.5t-26 -4.5q-128 0 -128 76q0 34 32 56q27 19 56 19q10 0 21 -9.5t11 -20.5 q0 -8 -13 -22t-13 -17q0 -14 18 -14q29 0 99 35q12 6 16 21q5 23 7 26q21 40 71 115q9 3 23 3q21 0 36 -14v-18q0 -3 -26 -39q-17 -25 -21 -38q15 0 44 3q26 2 29.5 2t21.5 8.5t25 8.5q48 0 85 -43q34 -38 34 -78q0 -20 -13 -41q-15 -27 -40 -27q-11 0 -23.5 12t-12.5 24 q0 7 13 21.5t13 17.5q0 25 -51 25q-30 0 -96 -24q-62 -23 -64 -30q-5 -16 -5 -89q0 2 5.5 -82.5t5.5 -122.5q0 -147 48 -342q4 -15 9 -58q16 -128 24 -251q76 -19 90 -19t34 22q17 21 17 31q0 28 -23 28q-3 0 -18.5 -13t-22.5 -13q-17 0 -28 17q-8 14 -8 25q0 22 20 36.5 t38 14.5q37 0 71 -33.5t34 -65.5q0 -56 -37 -90.5t-90 -34.5q-34 0 -85 20q-6 -6 -23 -48q-19 -49 -44 -65q-16 -12 -31 -12q-28 0 -66 41v31h30q11 0 14 -9z" />
<glyph unicode="&#xd1;" horiz-adv-x="928" d="M497 1183q0 -32 -24 -71q-28 -47 -64 -47q-17 0 -30 13v25q61 46 61 83q0 26 -19 26q-7 0 -32 -19q-31 -23 -46 -30q-104 -50 -126 -59q-74 -30 -134 -33q-8 -1 -26 -6.5t-25 -5.5q-46 0 -82 41q-34 38 -34 78q0 21 30 42q26 20 40 20q1 0 42 -18v-26q-44 -7 -44 -38 q0 -17 21 -28q18 -9 38 -9q6 0 21 4.5t24 5.5q64 5 173 72q105 65 154 65q82 0 82 -85zM907 531q-11 -83 -73 -83q-56 0 -94 26q-47 31 -47 88q0 27 21 57q24 35 55 35h27q10 -11 10 -29q0 -7 -9 -26t-9 -27q0 -22 11 -30q4 2 6 5q19 23 19 43q0 61 -16 106q-22 64 -70 64 q-50 0 -61 -76q-13 -85 -11 -168l5 -202q3 -53 20 -171q12 -76 46 -256q7 -35 34 -113q26 -73 26 -78q0 -6 -3 -18t-3 -27h-36q-13 0 -26 19q-8 19 -27 56q-10 24 -32 65q-46 73 -117 253q-34 67 -95 205q-2 3 -3 8l-1 9q-2 6 -4 16q-52 145 -158 409q-6 -18 -3 -66l19 -340 q3 -58 2 -71q-1 -32 -23 -113q-12 -43 -77 -110q-31 -32 -68 -32q-49 0 -97 35q-19 14 -35 56q-15 38 -15 61q0 60 36 91q12 11 44 22q29 10 41 10q61 0 61 -79q0 -19 -8 -38q-11 -23 -27 -23q-25 0 -31 23l-8 40q-24 -14 -24 -44q0 -60 42 -60q25 0 40 13q8 6 27 46 q22 48 27 95q0 3 2 7l3 5q3 6 3 11v143q0 3 -6.5 55.5t-7.5 79.5l-5 180q0 4 3 42.5t3 53.5q0 -3 4 73q3 44 -5 73q6 9 19 26h44q113 -245 173 -397q6 -24 21 -70q41 -120 140 -352q-2 9 -9 28q-3 27 -11 77l-4 229q-2 71 -1 81q2 39 21 122q10 45 38 103q11 24 66 51 q52 26 81 26q41 0 73 -34q29 -31 37 -73q12 -65 12 -168q0 -31 -2 -48z" />
<glyph unicode="&#xd4;" horiz-adv-x="1097" d="M761 1094q-92 0 -191 329l-121 -184q-130 -180 -238 -180q-32 0 -59 24t-27 56q0 27 26 50.5t54 23.5q3 0 27 -12v-20q-35 -31 -48 -55q5 -3 4 -7l14 -6q24 0 73 40q53 44 72 50q54 72 119 214t81 229h38q3 0 19.5 -12t17.5 -16q6 -101 16 -234q7 -47 49 -132 q49 -98 83 -98q12 0 26 18.5t14 30.5q0 18 -22 42v26h31q17 0 37.5 -26.5t20.5 -44.5q0 -46 -34.5 -76t-81.5 -30zM1086 430q0 -121 -21 -181q-1 -17 -2 -45q-1 -11 -23 -94q-20 -72 -86 -167q-19 -30 -60 -83q-86 -87 -204 -148q-102 -54 -204 -54q-167 0 -331 151 q-11 21 -31 56q-47 68 -79 190q-25 100 -25 145q0 -1 1 37q3 47 4 124q3 127 96 279q39 63 104 113l101 67q2 1 51 70q22 30 55 49q55 30 107 30q127 0 292 -84q187 -95 220 -212q35 -127 35 -243zM1008 461q0 127 -99 251l-42 58q-31 40 -65 63q-44 28 -114 51.5t-113 23.5 q-87 0 -139 -64q1 -1 39 -15q26 -10 28 -24q-8 -18 -19 -20q-14 0 -28.5 -1.5t-30.5 -15.5q0 -46 15 -108q18 -80 46 -80q8 0 32 16q29 19 29 36v20q-52 -33 -58 -33q-8 0 -16.5 8.5t-8.5 16.5q0 24 27 46.5t51 22.5q29 0 62 -28q38 -32 38 -71t-50 -69q-44 -26 -89 -26 q-150 0 -185 166q-71 -40 -121 -197q-44 -141 -44 -272q0 -306 151 -439q25 -23 92 -36q51 -11 85 -11q67 0 126 38q42 20 111 59q85 59 142 147q42 66 73 157l43 134q9 18 19 51q13 86 13 145z" />
<glyph unicode="&#xd5;" horiz-adv-x="1097" d="M789 1183q0 -32 -24 -71q-28 -47 -64 -47q-17 0 -30 13v25q61 46 61 83q0 26 -19 26q-7 0 -32 -19q-31 -23 -46 -30q-104 -50 -126 -59q-74 -30 -134 -33q-8 -1 -26 -6.5t-25 -5.5q-46 0 -82 41q-34 38 -34 78q0 21 30 42q26 20 40 20q1 0 42 -18v-26q-44 -7 -44 -38 q0 -17 21 -28q18 -9 38 -9q6 0 21 4.5t24 5.5q64 5 173 72q105 65 154 65q82 0 82 -85zM1086 430q0 -121 -21 -181q-1 -17 -2 -45q-1 -11 -23 -94q-20 -72 -86 -167q-19 -30 -60 -83q-86 -87 -204 -148q-102 -54 -204 -54q-167 0 -331 151q-11 21 -31 56q-47 68 -79 190 q-25 100 -25 145q0 -1 1 37q3 47 4 124q3 127 96 279q39 63 104 113l101 67q2 1 51 70q22 30 55 49q55 30 107 30q127 0 292 -84q187 -95 220 -212q35 -127 35 -243zM1008 461q0 127 -99 251l-42 58q-31 40 -65 63q-44 28 -114 51.5t-113 23.5q-87 0 -139 -64q1 -1 39 -15 q26 -10 28 -24q-8 -18 -19 -20q-14 0 -28.5 -1.5t-30.5 -15.5q0 -46 15 -108q18 -80 46 -80q8 0 32 16q29 19 29 36v20q-52 -33 -58 -33q-8 0 -16.5 8.5t-8.5 16.5q0 24 27 46.5t51 22.5q29 0 62 -28q38 -32 38 -71t-50 -69q-44 -26 -89 -26q-150 0 -185 166 q-71 -40 -121 -197q-44 -141 -44 -272q0 -306 151 -439q25 -23 92 -36q51 -11 85 -11q67 0 126 38q42 20 111 59q85 59 142 147q42 66 73 157l43 134q9 18 19 51q13 86 13 145z" />
<glyph unicode="&#xdb;" horiz-adv-x="1132" d="M1190 1094q-92 0 -191 329l-121 -184q-130 -180 -238 -180q-32 0 -59 24t-27 56q0 27 26 50.5t54 23.5q3 0 27 -12v-20q-35 -31 -48 -55q5 -3 4 -7l14 -6q24 0 73 40q53 44 72 50q54 72 119 214t81 229h38q3 0 19.5 -12t17.5 -16q6 -101 16 -234q7 -47 49 -132 q49 -98 83 -98q12 0 26 18.5t14 30.5q0 18 -22 42v26h31q17 0 37.5 -26.5t20.5 -44.5q0 -46 -34.5 -76t-81.5 -30zM955 847l-1 1h-5q-37 0 -58 -74q-18 -61 -13 -86q-3 -6 -6 -8l-2 -1v-4v-314q0 -114 31 -381q11 -37 27 -114q3 -45 17 -132q3 -13 24 -38t30 -25q30 0 30 72 q0 46 -11 56q-5 -3 -8 -28q-3 -20 -28 -20q-38 0 -38 55q0 69 77 69q97 0 97 -134q0 -51 -25 -105q-35 -74 -94 -74q-8 0 -29 9l-45 12q-47 16 -68 94q-3 11 -11 45l-58 -87q-37 -50 -80 -61q-33 -10 -81 -23q-15 -4 -60 -4q-58 0 -76 12q-10 8 -33 22q-34 16 -99 54 q-45 32 -77 81q-22 33 -40 127q-18 100 -18 164q0 58 2 67q3 15 16 100q5 31 41 200q26 122 26 201q0 243 -129 243q-25 0 -47.5 -20t-22.5 -42q0 -18 15 -37.5t30 -19.5q5 -1 3 -1v2q1 2 3 4q1 7 -5 39q-1 10 -1 20q16 16 44 16q12 0 30 -37q15 -32 15 -38q0 -42 -34 -65 q-28 -19 -63 -19q-58 0 -93 71q-28 56 -28 113q0 50 58 77q46 22 103 22q142 0 223 -154q13 -25 13 -94q0 -51 -44.5 -265t-44.5 -359q0 -152 44 -250q66 -149 224 -149q22 0 82 56q55 53 66 77q55 128 55 147q0 -1 -15 64.5t-15 112.5v168q0 278 17 419q2 18 27 106 q52 186 150 186q49 0 65 -29q10 -18 10 -61q0 -45 -31 -93q-33 -51 -69 -51q-17 0 -45 27q3 12 29 38q25 23 27 48z" />
<glyph unicode="&#xe2;" horiz-adv-x="773" d="M896 920q-92 0 -191 329l-121 -184q-130 -180 -238 -180q-32 0 -59 24t-27 56q0 27 26 50.5t54 23.5q3 0 27 -12v-20q-35 -31 -48 -55q5 -3 4 -7l14 -6q24 0 73 40q53 44 72 50q54 72 119 214t81 229h38q3 0 19.5 -12t17.5 -16q6 -101 16 -234q7 -47 49 -132 q49 -98 83 -98q12 0 26 18.5t14 30.5q0 18 -22 42v26h31q17 0 37.5 -26.5t20.5 -44.5q0 -46 -34.5 -76t-81.5 -30zM758 120q0 -167 -110 -167q-66 0 -96 30q-18 19 -32 70q-16 56 -32 80q-30 -30 -85 -56.5t-94 -26.5q-96 0 -191 64q-104 71 -104 162q0 169 105 298 q112 139 277 139q86 0 145 -42h13l21 95q15 29 99 29q-1 0 33 -6v-23q0 -1 -43 -103q-50 -120 -79 -213q-42 -137 -42 -222q0 -64 22 -120q29 -73 83 -73q59 0 59 93q0 20 -19 46q-22 -12 -56 -42l-28 34q0 27 26 44q23 15 51 15q37 0 59 -36q18 -30 18 -69zM542 609 q-9 0 -26.5 3t-26.5 3q-152 0 -255 -65q-123 -76 -123 -217q0 -70 23 -109t87 -68q53 -24 77 -24q121 0 121 80q0 12 -12 28t-24 16q-9 0 -34.5 -13t-34.5 -13q-23 0 -23 28q0 21 36.5 48t58.5 27q13 0 87 -46l13 11q5 129 56 311z" />
<glyph unicode="&#xe3;" horiz-adv-x="773" d="M924 1009q0 -32 -24 -71q-28 -47 -64 -47q-17 0 -30 13v25q61 46 61 83q0 26 -19 26q-7 0 -32 -19q-31 -23 -46 -30q-104 -50 -126 -59q-74 -30 -134 -33q-8 -1 -26 -6.5t-25 -5.5q-46 0 -82 41q-34 38 -34 78q0 21 30 42q26 20 40 20q1 0 42 -18v-26q-44 -7 -44 -38 q0 -17 21 -28q18 -9 38 -9q6 0 21 4.5t24 5.5q64 5 173 72q105 65 154 65q82 0 82 -85zM758 120q0 -167 -110 -167q-66 0 -96 30q-18 19 -32 70q-16 56 -32 80q-30 -30 -85 -56.5t-94 -26.5q-96 0 -191 64q-104 71 -104 162q0 169 105 298q112 139 277 139q86 0 145 -42h13 l21 95q15 29 99 29q-1 0 33 -6v-23q0 -1 -43 -103q-50 -120 -79 -213q-42 -137 -42 -222q0 -64 22 -120q29 -73 83 -73q59 0 59 93q0 20 -19 46q-22 -12 -56 -42l-28 34q0 27 26 44q23 15 51 15q37 0 59 -36q18 -30 18 -69zM542 609q-9 0 -26.5 3t-26.5 3q-152 0 -255 -65 q-123 -76 -123 -217q0 -70 23 -109t87 -68q53 -24 77 -24q121 0 121 80q0 12 -12 28t-24 16q-9 0 -34.5 -13t-34.5 -13q-23 0 -23 28q0 21 36.5 48t58.5 27q13 0 87 -46l13 11q5 129 56 311z" />
<glyph unicode="&#xea;" horiz-adv-x="613" d="M558 877q-92 0 -191 329l-121 -184q-130 -180 -238 -180q-32 0 -59 24t-27 56q0 27 26 50.5t54 23.5q3 0 27 -12v-20q-35 -31 -48 -55q5 -3 4 -7l14 -6q24 0 73 40q53 44 72 50q54 72 119 214t81 229h38q3 0 19.5 -12t17.5 -16q6 -101 16 -234q7 -47 49 -132 q49 -98 83 -98q12 0 26 18.5t14 30.5q0 18 -22 42v26h31q17 0 37.5 -26.5t20.5 -44.5q0 -46 -34.5 -76t-81.5 -30zM596 507l-16 -14q-18 -1 -56.5 -4t-59.5 -3q1 0 -241 15q-44 3 -70 -86q-20 -67 -20 -128q0 -105 54 -169q58 -70 163 -70q44 0 84 41.5t40 85.5 q0 42 -37.5 81.5t-79.5 39.5q-15 0 -44 -22l-1 -19q-2 -41 23 -41q14 0 21.5 14t5.5 28q13 2 31 2l13 -2v-36q0 -22 -23 -43.5t-45 -21.5q-39 0 -67 36q-26 33 -26 74q0 43 59 80q53 34 100 34q55 0 111.5 -57.5t56.5 -112.5q0 -92 -96 -161q-88 -63 -184 -63 q-124 0 -200 120q-66 104 -66 233q0 35 23.5 105.5t22.5 103.5l63 112q31 50 69 69q46 24 132 24q132 0 187 -53t73 -192zM532 575q-1 38 -61 74q-55 32 -97 32q-99 0 -83 -2q-11 -9 -40 -45t-29 -44v-25q5 10 22 10q7 0 21.5 -3t21.5 -3q23 0 70 -2.5t71 -2.5q72 0 104 11z " />
<glyph unicode="&#xee;" horiz-adv-x="360" d="M398 931q-92 0 -191 329l-121 -184q-130 -180 -238 -180q-32 0 -59 24t-27 56q0 27 26 50.5t54 23.5q3 0 27 -12v-20q-35 -31 -48 -55q5 -3 4 -7l14 -6q24 0 73 40q53 44 72 50q54 72 119 214t81 229h38q3 0 19.5 -12t17.5 -16q6 -101 16 -234q7 -47 49 -132 q49 -98 83 -98q12 0 26 18.5t14 30.5q0 18 -22 42v26h31q17 0 37.5 -26.5t20.5 -44.5q0 -46 -34.5 -76t-81.5 -30zM342 660q0 -44 -31.5 -71.5t-78.5 -27.5q-40 0 -67 25t-27 62q0 51 53 51q5 0 20 -3t23 -3v-57q9 -9 18 -9q18 18 18 51q0 72 -76 72q-14 0 -33.5 -15.5 t-27.5 -15.5q-13 0 -24.5 11t-11.5 20q0 21 37 40q30 16 42 16q56 0 108 -41q58 -45 58 -105zM337 -199q0 -37 -24 -68q-26 -34 -63 -34q-45 0 -77 62q-25 50 -25 86l56 472q0 20 -17 86q-3 10 -16 23q-9 -9 -22 -33q-10 -18 -16 -18q-9 0 -25 20.5t-16 28.5t26.5 30.5 t46.5 30.5q16 8 34 8q10 0 35 -13t34 -24q28 -38 28 -96q0 -37 -9 -146l-24 -234q-3 -34 -19 -118q-14 -77 -14 -81q0 -9 13 -23q23 -5 27 22q0 24 1 48q1 1 1 2q4 5 14 5q51 0 51 -36z" />
<glyph unicode="&#xf1;" horiz-adv-x="1047" d="M722 886q0 -32 -24 -71q-28 -47 -64 -47q-17 0 -30 13v25q61 46 61 83q0 26 -19 26q-7 0 -32 -19q-31 -23 -46 -30q-104 -50 -126 -59q-74 -30 -134 -33q-8 -1 -26 -6.5t-25 -5.5q-46 0 -82 41q-34 38 -34 78q0 21 30 42q26 20 40 20q1 0 42 -18v-26q-44 -7 -44 -38 q0 -17 21 -28q18 -9 38 -9q6 0 21 4.5t24 5.5q64 5 173 72q105 65 154 65q82 0 82 -85zM1041 76q0 -92 -84.5 -176t-175.5 -84q-153 0 -200 186q-22 89 -22 304q0 124 -52 182l-19 1q-64 0 -139 -48q-83 -53 -79 -114l26 -388l-11 -48q-24 -7 -76 -28l-32 23q-2 12 0 32 q2 23 2 31q0 50 -9.5 144.5t-9.5 147.5q0 11 1.5 47t1.5 50q0 133 -19 219l-11 4q-41 0 -41 -55q0 -28 10 -58l-24 -18q-15 0 -28 30q-11 25 -11 43q0 50 36 81q33 29 85 29q42 0 70 -63q22 -49 25 -101l7 -9q68 58 94 73q48 27 113 27q125 0 157 -170l29 -316 q23 -170 126 -170q62 0 109 58q46 55 46 118q0 42 -16 80q-21 48 -58 48q-27 0 -50 -19t-23 -46q0 -8 9 -56q13 3 17 16.5t7 25.5h28l18 -36q0 -27 -23.5 -50.5t-50.5 -23.5q-28 0 -53 32t-25 60q0 59 34 107q38 53 94 53q66 0 130 -54q67 -57 67 -121z" />
<glyph unicode="&#xf4;" horiz-adv-x="811" d="M641 797q-92 0 -191 329l-121 -184q-130 -180 -238 -180q-32 0 -59 24t-27 56q0 27 26 50.5t54 23.5q3 0 27 -12v-20q-35 -31 -48 -55q5 -3 4 -7l14 -6q24 0 73 40q53 44 72 50q54 72 119 214t81 229h38q3 0 19.5 -12t17.5 -16q6 -101 16 -234q7 -47 49 -132 q49 -98 83 -98q12 0 26 18.5t14 30.5q0 18 -22 42v26h31q17 0 37.5 -26.5t20.5 -44.5q0 -46 -34.5 -76t-81.5 -30zM780 252q0 -177 -92 -298q-101 -133 -272 -133q-45 0 -80 17l-69 32q-109 42 -173 134t-64 209q0 120 13 177q18 80 154.5 181t221.5 101q161 0 265 -133 q96 -123 96 -287zM718 264q0 140 -80 246q-89 117 -227 117q-17 0 -51 -17q27 -4 84 -37q62 -37 62 -58q0 -22 -28 -22q-13 0 -42 14t-42 14q-63 0 -138 -29q-13 -45 -13 -72q0 -38 23 -90q26 -61 58 -61q21 0 56.5 23.5t35.5 43.5q0 15 -7 17q-54 -11 -52 -11q-30 0 -30 25 q0 48 64 48q87 0 87 -98q0 -49 -43 -81q-38 -28 -89 -28q-68 0 -121 62q-44 54 -60 128q-45 -57 -45 -188q0 -133 68 -222q76 -99 209 -99q74 0 175 86q92 80 127 156q19 42 19 133z" />
<glyph unicode="&#xf5;" horiz-adv-x="811" d="M669 886q0 -32 -24 -71q-28 -47 -64 -47q-17 0 -30 13v25q61 46 61 83q0 26 -19 26q-7 0 -32 -19q-31 -23 -46 -30q-104 -50 -126 -59q-74 -30 -134 -33q-8 -1 -26 -6.5t-25 -5.5q-46 0 -82 41q-34 38 -34 78q0 21 30 42q26 20 40 20q1 0 42 -18v-26q-44 -7 -44 -38 q0 -17 21 -28q18 -9 38 -9q6 0 21 4.5t24 5.5q64 5 173 72q105 65 154 65q82 0 82 -85zM780 252q0 -177 -92 -298q-101 -133 -272 -133q-45 0 -80 17l-69 32q-109 42 -173 134t-64 209q0 120 13 177q18 80 154.5 181t221.5 101q161 0 265 -133q96 -123 96 -287zM718 264 q0 140 -80 246q-89 117 -227 117q-17 0 -51 -17q27 -4 84 -37q62 -37 62 -58q0 -22 -28 -22q-13 0 -42 14t-42 14q-63 0 -138 -29q-13 -45 -13 -72q0 -38 23 -90q26 -61 58 -61q21 0 56.5 23.5t35.5 43.5q0 15 -7 17q-54 -11 -52 -11q-30 0 -30 25q0 48 64 48q87 0 87 -98 q0 -49 -43 -81q-38 -28 -89 -28q-68 0 -121 62q-44 54 -60 128q-45 -57 -45 -188q0 -133 68 -222q76 -99 209 -99q74 0 175 86q92 80 127 156q19 42 19 133z" />
<glyph unicode="&#xfb;" horiz-adv-x="985" d="M1089 919q-92 0 -191 329l-121 -184q-130 -180 -238 -180q-32 0 -59 24t-27 56q0 27 26 50.5t54 23.5q3 0 27 -12v-20q-35 -31 -48 -55q5 -3 4 -7l14 -6q24 0 73 40q53 44 72 50q54 72 119 214t81 229h38q3 0 19.5 -12t17.5 -16q6 -101 16 -234q7 -47 49 -132 q49 -98 83 -98q12 0 26 18.5t14 30.5q0 18 -22 42v26h31q17 0 37.5 -26.5t20.5 -44.5q0 -46 -34.5 -76t-81.5 -30zM1054 80q0 -47 -37 -108q-42 -72 -96 -72q-76 0 -105 43q-19 27 -25 94q-6 71 -18 96q-80 -116 -93 -130q-62 -66 -138 -66q-217 0 -217 249q0 74 1 85 q4 35 25 129q10 46 10 55q0 44 -33 123q-41 99 -93 99q-50 0 -79 -41q-23 -33 -23 -72q0 -4 7 -42q0 -1 33 -30q4 0 20 14q-6 13 -18 36q10 19 33 19q1 0 51 -27q-5 -100 -108 -100q-47 0 -75 35t-28 81q0 108 110 183q64 13 116 13q68 0 133 -86q19 -26 35 -89t16 -110 l-31 -270q0 -148 127 -148q62 0 138 97q67 86 67 122q0 1 -23 68q-6 19 -7 50q-2 45 -3 51q-9 13 -20 37q-8 77 -8 133q0 57 20 101q14 30 64.5 61t84.5 31q31 0 54.5 -24t23.5 -56q0 -6 -3 -20.5t-3 -19.5l-2 -2q-5 -5 -16 -5q-9 0 -29 21q-30 33 -35 37q-29 -5 -37 -35 q-13 -49 -13 -150q0 -75 38 -276l51 -264q2 0 4.5 -2.5t11.5 -2.5q29 0 45 80q0 6 -12 19.5t-12 20.5v33q41 11 54 11q67 0 67 -79z" />
<glyph unicode="&#x152;" horiz-adv-x="1938" d="M1973 -97q0 -86 -50 -138l-106 -26q-65 -16 -106 -16q-58 0 -174 30t-174 30q-59 0 -78 -24q-17 -20 -17 -77l20 -4q8 0 68 20l12 -20l-47 -58q-72 -12 -65 -12q-28 0 -60.5 29t-32.5 56q0 91 48 141q40 43 131 69l6 63q0 225 -21 319q-99 38 -99 88q0 30 28 30 q15 0 32 -25t37 -30q9 19 9 45q0 63 -9 168q-12 138 -13 169l-7 7q-192 31 -192 149l65 87l65 -26v-23l-43 -34l-2 -7q0 -32 106 -70q12 22 14 58l2 61q21 22 73 22q27 0 27 -48q0 -16 -3.5 -46t-3.5 -37l13 -5l183 90q111 50 194 50q165 0 165 -85q0 -70 -50 -131 q-53 -64 -122 -64q-37 0 -66 24q-32 25 -32 61q0 23 29 54t51 31l40 -27l-45 -50q1 -33 35 -33q22 0 51 35.5t29 57.5q0 21 -37 44t-60 23q-40 0 -204 -67q-169 -70 -169 -95q0 -35 5 -175q4 -107 0 -174l10 -4l125 45q33 -15 88 -56l2 -19q0 -36 -29 -70.5t-66 -34.5 l-39 22v17q74 7 74 54q0 24 -45 32q-70 -29 -95 -60q-22 -26 -22 -71q0 -14 3.5 -60t3.5 -79q0 -31 -3 -75.5t-3 -60.5q0 -50 22 -76q26 -31 98 -51q193 -57 189 -57q46 0 94 40.5t48 84.5q0 31 -14 56q-18 29 -46 29q-18 0 -34 -24.5t-16 -45.5l3 -20l40 30l26 -5l6 -15 q0 -29 -21 -47t-51 -18q-24 0 -49 37q-24 34 -24 58q0 95 113 95q96 0 155 -76zM1086 430q0 -121 -21 -181q-1 -17 -2 -45q-1 -11 -23 -94q-20 -72 -86 -167q-19 -30 -60 -83q-86 -87 -204 -148q-102 -54 -204 -54q-167 0 -331 151q-11 21 -31 56q-47 68 -79 190 q-25 100 -25 145q0 -1 1 37q3 47 4 124q3 127 96 279q39 63 104 113l101 67q2 1 51 70q22 30 55 49q55 30 107 30q127 0 292 -84q187 -95 220 -212q35 -127 35 -243zM1008 461q0 127 -99 251l-42 58q-31 40 -65 63q-44 28 -114 51.5t-113 23.5q-87 0 -139 -64q1 -1 39 -15 q26 -10 28 -24q-8 -18 -19 -20q-14 0 -28.5 -1.5t-30.5 -15.5q0 -46 15 -108q18 -80 46 -80q8 0 32 16q29 19 29 36v20q-52 -33 -58 -33q-8 0 -16.5 8.5t-8.5 16.5q0 24 27 46.5t51 22.5q29 0 62 -28q38 -32 38 -71t-50 -69q-44 -26 -89 -26q-150 0 -185 166 q-71 -40 -121 -197q-44 -141 -44 -272q0 -306 151 -439q25 -23 92 -36q51 -11 85 -11q67 0 126 38q42 20 111 59q85 59 142 147q42 66 73 157l43 134q9 18 19 51q13 86 13 145z" />
<glyph unicode="&#x153;" horiz-adv-x="1424" d="M1407 507l-16 -14q-18 -1 -56.5 -4t-59.5 -3q1 0 -241 15q-44 3 -70 -86q-20 -67 -20 -128q0 -105 54 -169q58 -70 163 -70q44 0 84 41.5t40 85.5q0 42 -37.5 81.5t-79.5 39.5q-15 0 -44 -22l-1 -19q-2 -41 23 -41q14 0 21.5 14t5.5 28q13 2 31 2l13 -2v-36 q0 -22 -23 -43.5t-45 -21.5q-39 0 -67 36q-26 33 -26 74q0 43 59 80q53 34 100 34q55 0 111.5 -57.5t56.5 -112.5q0 -92 -96 -161q-88 -63 -184 -63q-124 0 -200 120q-66 104 -66 233q0 35 23.5 105.5t22.5 103.5l63 112q31 50 69 69q46 24 132 24q132 0 187 -53t73 -192z M1343 575q-1 38 -61 74q-55 32 -97 32q-99 0 -83 -2q-11 -9 -40 -45t-29 -44v-25q5 10 22 10q7 0 21.5 -3t21.5 -3q23 0 70 -2.5t71 -2.5q72 0 104 11zM780 252q0 -177 -92 -298q-101 -133 -272 -133q-45 0 -80 17l-69 32q-109 42 -173 134t-64 209q0 120 13 177 q18 80 154.5 181t221.5 101q161 0 265 -133q96 -123 96 -287zM718 264q0 140 -80 246q-89 117 -227 117q-17 0 -51 -17q27 -4 84 -37q62 -37 62 -58q0 -22 -28 -22q-13 0 -42 14t-42 14q-63 0 -138 -29q-13 -45 -13 -72q0 -38 23 -90q26 -61 58 -61q21 0 56.5 23.5 t35.5 43.5q0 15 -7 17q-54 -11 -52 -11q-30 0 -30 25q0 48 64 48q87 0 87 -98q0 -49 -43 -81q-38 -28 -89 -28q-68 0 -121 62q-44 54 -60 128q-45 -57 -45 -188q0 -133 68 -222q76 -99 209 -99q74 0 175 86q92 80 127 156q19 42 19 133z" />
<glyph unicode="&#x2c6;" horiz-adv-x="789" d="M655 414q-92 0 -191 329l-121 -184q-130 -180 -238 -180q-32 0 -59 24t-27 56q0 27 26 50.5t54 23.5q3 0 27 -12v-20q-35 -31 -48 -55q5 -3 4 -7l14 -6q24 0 73 40q53 44 72 50q54 72 119 214t81 229h38q3 0 19.5 -12t17.5 -16q6 -101 16 -234q7 -47 49 -132 q49 -98 83 -98q12 0 26 18.5t14 30.5q0 18 -22 42v26h31q17 0 37.5 -26.5t20.5 -44.5q0 -46 -34.5 -76t-81.5 -30z" />
<glyph unicode="&#x2dc;" d="M250 214q0 -32 -24 -71q-28 -47 -64 -47q-17 0 -30 13v25q61 46 61 83q0 26 -19 26q-7 0 -32 -19q-31 -23 -46 -30q-104 -50 -126 -59q-74 -30 -134 -33q-8 -1 -26 -6.5t-25 -5.5q-46 0 -82 41q-34 38 -34 78q0 21 30 42q26 20 40 20q1 0 42 -18v-26q-44 -7 -44 -38 q0 -17 21 -28q18 -9 38 -9q6 0 21 4.5t24 5.5q64 5 173 72q105 65 154 65q82 0 82 -85z" />
<glyph unicode="&#x2013;" d="M150 375v150h450v-150h-450z" />
<glyph unicode="&#x2014;" horiz-adv-x="1500" d="M150 375v150h1200v-150h-1200z" />
<glyph unicode="&#x2026;" horiz-adv-x="936" d="M739 90q17 26 69 30q8 3 8 7q0 9 -19 16q-15 5 -26 5q-44 0 -66 -33q-6 -18 -27 -52l-25 15q-7 27 14 59q35 52 111 52q50 0 87 -24q50 -32 50 -93q0 -38 -21 -70q-18 -27 -36 -36q-11 -7 -46 -13q-18 -3 -31 -9q-19 5 -34 42t-15 71q0 22 7 33zM825 12q28 7 37 21 q5 7 5 18q0 23 -22 51q-16 -23 -31 -31q-21 9 -34 5q1 -8 1 -18v-8q0 -4 1 -10zM427 90q17 26 69 30q8 3 8 7q0 9 -19 16q-15 5 -26 5q-44 0 -66 -33q-6 -18 -27 -52l-25 15q-7 27 14 59q35 52 111 52q50 0 87 -24q50 -32 50 -93q0 -38 -21 -70q-18 -27 -36 -36 q-11 -7 -46 -13q-18 -3 -31 -9q-19 5 -34 42t-15 71q0 22 7 33zM513 12q28 7 37 21q5 7 5 18q0 23 -22 51q-16 -23 -31 -31q-21 9 -34 5q1 -8 1 -18v-8q0 -4 1 -10zM115 90q17 26 69 30q8 3 8 7q0 9 -19 16q-15 5 -26 5q-44 0 -66 -33q-6 -18 -27 -52l-25 15q-7 27 14 59 q35 52 111 52q50 0 87 -24q50 -32 50 -93q0 -38 -21 -70q-18 -27 -36 -36q-11 -7 -46 -13q-18 -3 -31 -9q-19 5 -34 42t-15 71q0 22 7 33zM201 12q28 7 37 21q5 7 5 18q0 23 -22 51q-16 -23 -31 -31q-21 9 -34 5q1 -8 1 -18v-8q0 -4 1 -10z" />
<glyph unicode="&#x2039;" horiz-adv-x="653" d="M549 579q6 -93 -315 -214l192 -109q189 -116 196 -224q3 -32 -19.5 -60.5t-53.5 -31.5q-27 -1 -52.5 23.5t-27.5 51.5q0 3 9 28l21 1q33 -32 58 -44q3 5 6 5l6 14q-2 25 -45 70q-48 50 -55 68q-75 50 -221.5 104.5t-234.5 64.5l-3 38q0 3 11 20t14 19q101 13 233 32 q46 10 128 59q94 55 92 89q-1 12 -20.5 25t-31.5 12q-18 -2 -40 -26l-26 -2l-2 32q-1 17 24 39t43 23q45 3 78 -29t36 -78z" />
<glyph unicode="&#x203a;" horiz-adv-x="643" d="M86 578q-6 -93 315 -214l-192 -109q-189 -116 -196 -224q-2 -32 20 -60.5t54 -31.5q26 -1 51.5 23.5t27.5 51.5q0 3 -9 28l-21 1q-33 -32 -58 -44q-3 5 -6 5l-6 14q2 25 45 70q48 50 55 68q76 50 222 104.5t234 64.5l3 38q0 3 -11 20t-14 19q-101 13 -232 32 q-47 10 -129 59q-94 55 -92 89q1 12 20.5 25t31.5 12q18 -1 40 -26l26 -2l2 32q1 17 -24 39t-43 23q-45 3 -77.5 -29t-36.5 -78z" />
<glyph unicode="&#x2122;" horiz-adv-x="2721" d="M1116 -117q3 46 41 112q47 83 104 79q28 -2 56 -30.5t26 -56.5q-2 -26 -27 -41q-21 -13 -41 -12q-22 2 -35 19l2 16q7 4 20 13v12q1 4 -11 9q-19 1 -41.5 -30t-25.5 -68q-2 -27 22 -64q26 -43 59 -45q44 -3 85 68l41 89q43 90 118 322l95 292q3 36 -44 85.5t-79 49.5 q-4 0 -8 -1q-19 -14 -24 -92q-2 -30 2 -37t31 -31l-1 -17q-22 -9 -29 -8q-13 0 -32 9.5t-21 19.5q-21 77 -20 91q4 51 38 94q40 49 94 45q73 -5 115 -76q9 0 16 8q21 90 55 206q8 25 29 24q9 -1 20.5 -11.5t10.5 -19.5l-54 -295q-1 -15 42 -117l50 -119q7 -32 26 -101 q38 65 144 213l73 92q55 64 56 76q0 6 -22 77q-52 171 -50 194q3 48 56 44q22 -2 26 -13q22 -59 62 -214q14 7 49 33q21 15 39 14q21 -2 48 -27q24 -22 30 -37q13 -35 10 -76q-1 -19 -32 -36l-31 2q0 3 3 26.5t3 38.5q0 40 -21 41q-14 1 -44 -29t-30 -37q0 -1 110 -326 q16 -47 51 -195q21 -73 59 -220q2 -22 12 -67q55 -180 163 -187q52 -4 82 39q23 33 26 78q3 37 -6 49q-50 65 -77 66q-16 2 -29 -10l-1 -13q3 -7 29 -13q23 -6 26 -20l-2 -35q-23 -9 -39 -8q-81 6 -75 89q2 28 32 49t56 19q73 -5 111 -74q31 -56 27 -120q-4 -51 -48 -108 q-18 -24 -75 -40q-63 -18 -64 -18q-72 5 -134.5 75.5t-92.5 176.5l-203 703q-5 20 -18 34q-39 -50 -117 -158q-38 -59 -95 -190q-18 -42 -23 -89q-4 -5 -16 -15q-30 4 -85 18q-64 173 -110 278q-14 -24 -59 -158t-71 -180.5t-79 -204t-218 -145.5q-21 13 -65 35 q-23 8 -42 51q-16 39 -14 61zM1218 844q0 -66 -30 -124q-39 -77 -110 -77q-37 0 -77 26q-46 30 -46 71q0 21 17.5 45t30.5 24q32 0 32 -29q0 -7 -10.5 -23t-10.5 -23q0 -16 20 -28q16 -9 28 -9q41 0 72 62q25 50 25 80q0 21 -26 40q-23 16 -39 16q-15 0 -61 -8 q-56 -10 -79 -21l-150 -98q-29 -11 -84 -38q-15 -163 -51 -492q-51 -411 -51 -382l8 -126q1 -25 14 -74q16 -31 61 -31q23 0 25 22q0 25 -1 50q-11 12 -30 15q-27 5 -40 11v24q30 34 62 34q28 0 55.5 -23.5t27.5 -51.5q0 -71 -39.5 -118.5t-102.5 -47.5q-53 0 -78 35 q-15 21 -41 100q-2 5 -2 82q0 159 12 327q9 41 24 128q6 45 14 225q0 15 5 69q4 51 4 57q0 67 -5 98l-9 9q-202 -54 -251 -54q-82 0 -183 51q-130 66 -130 166q0 43 43 66q32 17 72 17q33 0 60 -38q23 -33 23 -53q0 -27 -18 -53q-28 0 -31 29.5t-15 29.5q-33 0 -33 -46 q0 -78 177 -78q169 0 284 47v25q0 13 -14 53q-16 44 -27 52q-8 0 -18 -8v-26q13 -6 37 -15q-4 -19 -21 -36t-27 -17q-27 0 -45 45q-13 32 -13 52q0 32 49 66q45 30 76 30q50 0 86 -39q25 -26 43 -72l16 -39q6 0 49 31q52 36 73 47q135 72 232 72q142 0 142 -131z" />
<glyph unicode="&#xe000;" horiz-adv-x="680" d="M0 680h680v-680h-680v680z" />
<glyph unicode="&#xfb01;" horiz-adv-x="839" d="M821 660q0 -44 -31.5 -71.5t-78.5 -27.5q-40 0 -67 25t-27 62q0 51 53 51q5 0 20 -3t23 -3v-57q9 -9 18 -9q18 18 18 51q0 72 -76 72q-14 0 -33.5 -15.5t-27.5 -15.5q-13 0 -24.5 11t-11.5 20q0 21 37 40q30 16 42 16q56 0 108 -41q58 -45 58 -105zM816 -199 q0 -37 -24 -68q-26 -34 -63 -34q-45 0 -77 62q-25 50 -25 86l56 472q0 20 -17 86q-3 10 -16 23q-9 -9 -22 -33q-10 -18 -16 -18q-9 0 -25 20.5t-16 28.5t26.5 30.5t46.5 30.5q16 8 34 8q10 0 35 -13t34 -24q28 -38 28 -96q0 -37 -9 -146l-24 -234q-3 -34 -19 -118 q-14 -77 -14 -81q0 -9 13 -23q23 -5 27 22q0 24 1 48q1 1 1 2q4 5 14 5q51 0 51 -36zM509 853q0 -67 -37 -132q-44 -74 -105 -74q-86 0 -86 83q0 55 19 79l43 14l39 -19v-27l-27 -8l-8 -28q0 -41 31 -41q24 0 48 47q22 42 22 69q0 90 -96 90q-22 0 -32 -30l-15 8 q-81 -85 -81 -213q0 -23 3 -44l-11 -22q4 -21 4 -174l7 -8q80 14 81 14q50 0 87 -17q49 -23 49 -67q0 -42 -33 -72.5t-75 -28.5l-23 2l-23 26q-13 13 -13 27q0 21 31 42l21 -5v-40l12 -8q28 18 28 55q0 26 -33 42q-56 -12 -59 -13q-40 -11 -52 -26l-1 -20l49 -487 q5 -58 -20 -103q-30 -53 -86 -53q-41 0 -73 34t-32 76q0 46 33 76t80 24l5 -13l-30 -59q7 -27 20 -46h12q16 19 16 82q0 45 -23 238q-25 202 -36 220l-18 -5q-28 0 -52 16q-29 17 -29 43q0 13 20 42.5t33 30.5l22 -13l-27 -50l18 -12l25 12q4 36 2 91q-4 80 -4 91 q0 141 46 257q62 154 179 154q61 0 106 -32q49 -36 49 -95z" />
<glyph unicode="&#xfb02;" horiz-adv-x="859" d="M749 -342q-60 0 -94 55q-29 47 -29 112q0 14 2 27l79 636q1 8 1 24q0 76 -14 152q-18 98 -47 98q-51 0 -51 -49l6 -20q24 5 26 5q38 0 38 -31q0 -24 -24 -43.5t-49 -19.5q-33 0 -57 42q-20 36 -20 72q0 42 50 80q46 35 90 35q72 0 113 -71q34 -60 34 -141q0 -20 -2 -38 l-93 -643q-2 -12 -2 -34q0 -177 55 -177q24 0 28 21q-1 -2 -1 41q0 35 31 35q33 0 33 -46q0 -52 -24 -85q-28 -37 -79 -37zM509 853q0 -67 -37 -132q-44 -74 -105 -74q-86 0 -86 83q0 55 19 79l43 14l39 -19v-27l-27 -8l-8 -28q0 -41 31 -41q24 0 48 47q22 42 22 69 q0 90 -96 90q-22 0 -32 -30l-15 8q-81 -85 -81 -213q0 -23 3 -44l-11 -22q4 -21 4 -174l7 -8q80 14 81 14q50 0 87 -17q49 -23 49 -67q0 -42 -33 -72.5t-75 -28.5l-23 2l-23 26q-13 13 -13 27q0 21 31 42l21 -5v-40l12 -8q28 18 28 55q0 26 -33 42q-56 -12 -59 -13 q-40 -11 -52 -26l-1 -20l49 -487q5 -58 -20 -103q-30 -53 -86 -53q-41 0 -73 34t-32 76q0 46 33 76t80 24l5 -13l-30 -59q7 -27 20 -46h12q16 19 16 82q0 45 -23 238q-25 202 -36 220l-18 -5q-28 0 -52 16q-29 17 -29 43q0 13 20 42.5t33 30.5l22 -13l-27 -50l18 -12l25 12 q4 36 2 91q-4 80 -4 91q0 141 46 257q62 154 179 154q61 0 106 -32q49 -36 49 -95z" />
<glyph unicode="&#xfb03;" horiz-adv-x="1318" d="M1300 660q0 -44 -31.5 -71.5t-78.5 -27.5q-40 0 -67 25t-27 62q0 51 53 51q5 0 20 -3t23 -3v-57q9 -9 18 -9q18 18 18 51q0 72 -76 72q-14 0 -33.5 -15.5t-27.5 -15.5q-13 0 -24.5 11t-11.5 20q0 21 37 40q30 16 42 16q56 0 108 -41q58 -45 58 -105zM1295 -199 q0 -37 -24 -68q-26 -34 -63 -34q-45 0 -77 62q-25 50 -25 86l56 472q0 20 -17 86q-3 10 -16 23q-9 -9 -22 -33q-10 -18 -16 -18q-9 0 -25 20.5t-16 28.5t26.5 30.5t46.5 30.5q16 8 34 8q10 0 35 -13t34 -24q28 -38 28 -96q0 -37 -9 -146l-24 -234q-3 -34 -19 -118 q-14 -77 -14 -81q0 -9 13 -23q23 -5 27 22q0 24 1 48q1 1 1 2q4 5 14 5q51 0 51 -36zM988 853q0 -67 -37 -132q-44 -74 -105 -74q-86 0 -86 83q0 55 19 79l43 14l39 -19v-27l-27 -8l-8 -28q0 -41 31 -41q24 0 48 47q22 42 22 69q0 90 -96 90q-22 0 -32 -30l-15 8 q-81 -85 -81 -213q0 -23 3 -44l-11 -22q4 -21 4 -174l7 -8q80 14 81 14q50 0 87 -17q49 -23 49 -67q0 -42 -33 -72.5t-75 -28.5l-23 2l-24 26q-12 13 -12 27q0 21 31 42l21 -5v-40l12 -8q28 18 28 55q0 26 -33 42q-56 -12 -59 -13q-40 -11 -52 -26l-1 -20l49 -487 q5 -58 -20 -103q-30 -53 -86 -53q-41 0 -73 34t-32 76q0 46 33 76t80 24l5 -13l-30 -59q7 -27 20 -46h12q16 19 16 82q0 45 -23 238q-25 202 -36 220l-18 -5q-28 0 -52 16q-29 17 -29 43q0 13 20 42.5t33 30.5l22 -13l-27 -50l18 -12l25 12q4 36 2 91q-4 80 -4 91 q0 141 46 257q62 154 179 154q61 0 106 -32q49 -36 49 -95zM509 853q0 -67 -37 -132q-44 -74 -105 -74q-86 0 -86 83q0 55 19 79l43 14l39 -19v-27l-27 -8l-8 -28q0 -41 31 -41q24 0 48 47q22 42 22 69q0 90 -96 90q-22 0 -32 -30l-15 8q-81 -85 -81 -213q0 -23 3 -44 l-11 -22q4 -21 4 -174l7 -8q80 14 81 14q50 0 87 -17q49 -23 49 -67q0 -42 -33 -72.5t-75 -28.5l-23 2l-23 26q-13 13 -13 27q0 21 31 42l21 -5v-40l12 -8q28 18 28 55q0 26 -33 42q-56 -12 -59 -13q-40 -11 -52 -26l-1 -20l49 -487q5 -58 -20 -103q-30 -53 -86 -53 q-41 0 -73 34t-32 76q0 46 33 76t80 24l5 -13l-30 -59q7 -27 20 -46h12q16 19 16 82q0 45 -23 238q-25 202 -36 220l-18 -5q-28 0 -52 16q-29 17 -29 43q0 13 20 42.5t33 30.5l22 -13l-27 -50l18 -12l25 12q4 36 2 91q-4 80 -4 91q0 141 46 257q62 154 179 154q61 0 106 -32 q49 -36 49 -95z" />
<glyph unicode="&#xfb04;" horiz-adv-x="1338" d="M1228 -342q-60 0 -94 55q-29 47 -29 112q0 14 2 27l79 636q1 8 1 24q0 76 -14 152q-18 98 -47 98q-51 0 -51 -49l6 -20q24 5 26 5q38 0 38 -31q0 -24 -24 -43.5t-49 -19.5q-33 0 -57 42q-20 36 -20 72q0 42 50 80q46 35 90 35q72 0 113 -71q34 -60 34 -141q0 -20 -2 -38 l-93 -643q-2 -12 -2 -34q0 -177 55 -177q24 0 28 21q-1 -2 -1 41q0 35 31 35q33 0 33 -46q0 -52 -24 -85q-28 -37 -79 -37zM988 853q0 -67 -37 -132q-44 -74 -105 -74q-86 0 -86 83q0 55 19 79l43 14l39 -19v-27l-27 -8l-8 -28q0 -41 31 -41q24 0 48 47q22 42 22 69 q0 90 -96 90q-22 0 -32 -30l-15 8q-81 -85 -81 -213q0 -23 3 -44l-11 -22q4 -21 4 -174l7 -8q80 14 81 14q50 0 87 -17q49 -23 49 -67q0 -42 -33 -72.5t-75 -28.5l-23 2l-24 26q-12 13 -12 27q0 21 31 42l21 -5v-40l12 -8q28 18 28 55q0 26 -33 42q-56 -12 -59 -13 q-40 -11 -52 -26l-1 -20l49 -487q5 -58 -20 -103q-30 -53 -86 -53q-41 0 -73 34t-32 76q0 46 33 76t80 24l5 -13l-30 -59q7 -27 20 -46h12q16 19 16 82q0 45 -23 238q-25 202 -36 220l-18 -5q-28 0 -52 16q-29 17 -29 43q0 13 20 42.5t33 30.5l22 -13l-27 -50l18 -12l25 12 q4 36 2 91q-4 80 -4 91q0 141 46 257q62 154 179 154q61 0 106 -32q49 -36 49 -95zM509 853q0 -67 -37 -132q-44 -74 -105 -74q-86 0 -86 83q0 55 19 79l43 14l39 -19v-27l-27 -8l-8 -28q0 -41 31 -41q24 0 48 47q22 42 22 69q0 90 -96 90q-22 0 -32 -30l-15 8 q-81 -85 -81 -213q0 -23 3 -44l-11 -22q4 -21 4 -174l7 -8q80 14 81 14q50 0 87 -17q49 -23 49 -67q0 -42 -33 -72.5t-75 -28.5l-23 2l-23 26q-13 13 -13 27q0 21 31 42l21 -5v-40l12 -8q28 18 28 55q0 26 -33 42q-56 -12 -59 -13q-40 -11 -52 -26l-1 -20l49 -487 q5 -58 -20 -103q-30 -53 -86 -53q-41 0 -73 34t-32 76q0 46 33 76t80 24l5 -13l-30 -59q7 -27 20 -46h12q16 19 16 82q0 45 -23 238q-25 202 -36 220l-18 -5q-28 0 -52 16q-29 17 -29 43q0 13 20 42.5t33 30.5l22 -13l-27 -50l18 -12l25 12q4 36 2 91q-4 80 -4 91 q0 141 46 257q62 154 179 154q61 0 106 -32q49 -36 49 -95z" />
</font>
</defs>
</svg>
