<?xml version="1.0" standalone="no"?>
<!DOCTYPE svg PUBLIC "-//W3C//DTD SVG 1.1//EN" "http://www.w3.org/Graphics/SVG/1.1/DTD/svg11.dtd" >
<svg xmlns="http://www.w3.org/2000/svg">
<metadata>
This is a custom SVG webfont generated by Font Squirrel.
Copyright   : Copyright c 2011 Eduardo Tunni httpwwwtiponetar with Reserved Font Name Merienda
Designer    : Eduardo Rodriguez Tunni
Foundry     : Eduardo Rodriguez Tunni
Foundry URL : httpwwwtiponetar
</metadata>
<defs>
<font id="MeriendaOneRegular" horiz-adv-x="1269" >
<font-face units-per-em="2048" ascent="1638" descent="-410" />
<missing-glyph horiz-adv-x="675" />
<glyph unicode=" "  horiz-adv-x="675" />
<glyph unicode="&#x09;" horiz-adv-x="675" />
<glyph unicode="&#xa0;" horiz-adv-x="675" />
<glyph unicode="!" horiz-adv-x="585" d="M123 104q0 41 37 175q72 20 145 20q152 0 152 -127q0 -41 -37 -174q-72 -20 -146 -21q-151 0 -151 127zM217 746.5q0 123.5 51 379.5t51 366t-6 142q109 0 195 -48t86 -146q0 -63 -37 -201q-109 -420 -108 -651q0 -102 16 -142q-141 35 -194.5 106t-53.5 194.5z" />
<glyph unicode="&#x22;" horiz-adv-x="825" d="M143 1268.5q0 70.5 34 176t34 156t-12 93.5q258 0 258 -133q0 -41 -45 -152t-45 -179.5t12 -123.5q-141 0 -188.5 46t-47.5 116.5zM512 1268.5q0 70.5 34 176t34 156t-13 93.5q258 0 258 -133q0 -41 -45 -152t-45 -179.5t13 -123.5q-141 0 -188.5 46t-47.5 116.5z" />
<glyph unicode="#" horiz-adv-x="1581" d="M0 551q0 8 1 23.5t1 23.5q143 -16 320 -23l55 141q39 97 57 148h-14q-180 0 -238.5 56.5t-58.5 166.5q0 8 1 23.5t1 24.5q221 -23 401 -23q82 225 109 377q14 0 56 -14.5t67 -32.5q68 -47 67 -131q0 -51 -45 -193q57 2 167 9l143 10q78 217 100 352q14 0 56 -14.5 t69 -32.5q66 -47 65 -131q0 -55 -39 -172q143 -10 191.5 -64.5t48.5 -156.5l-2 -48q-203 18 -326 21l-112 -287h18q190 0 250 -63q49 -55 49 -160l-2 -47q-197 18 -412 22q-106 -299 -129 -440q-14 0 -56 14.5t-68 32.5q-66 47 -66 121t66 264q-45 -2 -147.5 -8t-162.5 -8 q-98 -283 -121 -416q-14 0 -56 14.5t-66 32.5q-68 47 -68 123t59 244q-137 12 -183 66.5t-46 154.5zM575 578q68 2 308 16l116 297q-57 -2 -166 -9l-143 -10l-64 -166z" />
<glyph unicode="$" d="M125 276.5q0 110.5 66.5 178t179.5 67.5q35 0 61 -8q-55 -84 -55 -181t59.5 -167t159.5 -70t166.5 52.5t66.5 135.5t-60 148.5t-145 122.5t-170 121.5t-145.5 167t-60.5 247t103.5 253t301.5 124.5q49 209 60 324q57 0 104 -45t47 -112.5t-22 -174.5 q131 -31 202.5 -115.5t71.5 -174t-63.5 -157t-171.5 -67.5q-43 0 -84 15q98 68 98 200q0 74 -44 125t-130 51t-148.5 -51t-62.5 -135t32.5 -146.5t85 -109.5t114.5 -93l125 -93q62 -47 116 -99q117 -113 117 -263t-120 -263t-318 -131q-37 -205 -37 -342q-43 0 -99 16 q-109 31 -108 142q0 68 28 194q-154 29 -237.5 116t-83.5 197.5z" />
<glyph unicode="%" horiz-adv-x="1884" d="M80 942.5q0 192.5 85 331.5t224 178q51 0 64 -39q55 18 96 19q117 0 178 -93.5t61 -235.5t-40.5 -264t-136 -210t-224.5 -88t-218 104.5t-89 297zM297 953.5q0 -119.5 28.5 -193.5t82.5 -74q74 0 116.5 105.5t42.5 246.5q0 258 -88 258q-74 0 -128 -111.5t-54 -231z M571 29q0 92 119 384l255 636q136 344 167 524q16 -6 50 -29.5t55 -44.5q57 -57 57 -137t-103 -356l-220 -621q-118 -344 -146 -553q-23 0 -72 16.5t-79.5 35t-56.5 57.5t-26 88zM1096 354.5q0 192.5 85 331.5t224 178q51 0 63 -39q55 18 97 19q117 0 178 -93.5t61 -235.5 t-41 -264t-136 -210t-224 -88t-218 104.5t-89 297zM1313 365.5q0 -119.5 28.5 -193.5t81.5 -74q74 0 117 105.5t43 247.5q0 258 -88 258q-74 0 -128 -112t-54 -231.5z" />
<glyph unicode="&#x26;" d="M18 329q0 179 126 315t345 169q-168 55 -241.5 160.5t-73.5 228.5q0 158 132 277.5t332 119.5t306.5 -81.5t106.5 -201.5t-76 -200t-203 -80q-43 0 -86 11q113 125 113 209.5t-44 125.5t-104 41q-96 0 -152.5 -62.5t-56.5 -152.5q0 -158 128 -240.5t366 -82.5t461 94 q0 -188 -70 -238q-33 -23 -84 -22h-135q-8 -57 -33 -215l-39 -254q-37 -270 -37 -438t50 -283q-164 43 -221.5 131t-57.5 254q0 86 10 184q-55 -86 -147 -126t-184 -40q-174 0 -302.5 109t-128.5 288zM299 339.5q0 -106.5 71.5 -172t176.5 -65.5q139 0 197.5 95.5 t82.5 271.5l35 252q-154 0 -260 -31t-163.5 -68.5t-98.5 -106.5t-41 -175.5z" />
<glyph unicode="'" horiz-adv-x="456" d="M143 1268.5q0 70.5 34 176t34 156t-12 93.5q258 0 258 -133q0 -41 -45 -152t-45 -179.5t12 -123.5q-141 0 -188.5 46t-47.5 116.5z" />
<glyph unicode="(" horiz-adv-x="735" d="M102 611.5q0 353.5 189.5 640t499.5 360.5q18 -4 32.5 -17.5t14.5 -27.5q-221 -156 -336 -422t-115 -567q0 -166 36 -311.5t93 -246.5q106 -184 225 -268q-2 -12 -19 -26.5t-36 -18.5q-270 68 -427 309.5t-157 595z" />
<glyph unicode=")" horiz-adv-x="735" d="M-102 -248q221 156 335.5 422t114.5 567q0 166 -36 311.5t-93 245.5q-106 184 -225 269q2 12 19.5 26.5t35.5 18.5q270 -68 427 -309.5t157 -595t-189.5 -640t-498.5 -360.5q-18 4 -32.5 17.5t-14.5 27.5z" />
<glyph unicode="*" horiz-adv-x="1069" d="M143 1411q0 68 45 152q143 -63 271 -64q-143 160 -144 262q0 117 174 117q39 0 76 -6q-8 -63 -8 -124.5t35 -152.5q129 221 237 222q37 0 83 -58.5t65 -152.5q-156 -29 -258 -105q289 -76 289 -182q0 -39 -34 -86t-97 -82q-164 168 -201 197q4 -31 4 -99 q0 -240 -129 -239q-80 0 -182 100q96 100 143 233q-135 -63 -231 -63q-138 0 -138 131z" />
<glyph unicode="+" d="M92 815q0 8 1 23.5t1 23.5q166 -23 278.5 -22.5t139.5 2.5q0 111 9 230.5t68.5 164.5t170.5 45q8 0 23.5 -1t23.5 -1q-45 -227 -53 -420q123 8 198 8q135 0 180.5 -56t45.5 -167q0 -8 -1 -23.5t-1 -23.5q-166 23 -342 23l-80 -3q0 -113 -9.5 -232.5t-69 -164.5 t-169.5 -45q-8 0 -23.5 1t-23.5 1q45 229 51 422q-119 -8 -193 -8q-135 0 -180 56t-45 167z" />
<glyph unicode="," horiz-adv-x="428" d="M-39 -209q162 143 162 332q0 68 -31 153q80 23 154 23q152 0 151 -127q0 -133 -96 -255t-281 -218z" />
<glyph unicode="-" horiz-adv-x="983" d="M123 532q0 154 66.5 205t197.5 51l203 -8q182 0 262 84q8 -43 8 -121.5t-39 -141t-125 -62.5q-236 0 -351.5 -20.5t-219.5 -86.5q-2 28 -2 100z" />
<glyph unicode="." horiz-adv-x="425" d="M61 104q0 41 37 175q72 20 146 20q152 0 151 -127q0 -41 -37 -174q-72 -20 -145 -21q-152 0 -152 127z" />
<glyph unicode="/" horiz-adv-x="804" d="M0 -176q0 92 170 486l357 840q187 445 218 628q16 -6 50 -30t57 -44q55 -57 55 -136t-153 -460l-323 -826q-169 -445 -198 -655q-23 0 -71.5 16.5t-79.5 35t-56.5 57.5t-25.5 88z" />
<glyph unicode="0" d="M74 611.5q0 318.5 136 549t359 293.5q53 0 58 -86q117 51 211 51q172 0 265 -151.5t93 -388.5q0 -346 -154 -621q-76 -137 -205.5 -221t-307 -84t-316.5 170t-139 488.5zM342 627.5q0 -226.5 63.5 -364.5t186.5 -138q152 0 241 196.5t89 452.5t-59.5 373t-149.5 117 q-150 0 -260.5 -205t-110.5 -431.5z" />
<glyph unicode="1" d="M129 -43q0 33 19.5 84t48 85t88 61.5t126 27.5t95.5 -2q10 113 49 425t55 460q-223 -129 -275 -129t-88 86t-36 147q109 25 311.5 90.5t370.5 145.5q0 -106 -53.5 -537.5t-65.5 -693.5q193 4 320 59q-8 -166 -54 -236q-48 -69 -166 -69q-41 0 -181 21.5t-286.5 21.5 t-277.5 -47z" />
<glyph unicode="2" d="M-35 -43q0 66 53 137q57 80 170 107l160 134q68 58 164 157.5t157.5 183.5t106.5 190.5t45 211t-59.5 167t-137 62.5t-133 -56.5t-55.5 -159t80 -194.5q-37 -6 -72 -6q-119 0 -187.5 71.5t-68.5 172.5q0 133 117 235.5t321.5 102.5t342 -97.5t137.5 -296t-181.5 -432 t-535.5 -436.5h39q217 0 406.5 21.5t267.5 54.5q-8 -156 -78 -241t-180 -85q-29 0 -202 21.5t-348 21.5t-329 -47z" />
<glyph unicode="3" d="M129 244q0 121 72.5 199.5t201.5 78.5q39 0 91 -14q-106 -76 -107 -207q0 -98 56.5 -150.5t148.5 -52.5t169 74t77 199t-76 215t-221 102q-18 -4 -56 -8l-10 80q176 31 274.5 138.5t98.5 223.5q0 78 -45 128t-119 50t-121 -46t-47 -131t82 -181q-43 -10 -84 -10 q-109 0 -172 64.5t-63 156.5q0 137 112.5 226t304 89t300 -101t108.5 -243q0 -102 -70.5 -197.5t-214.5 -160.5q137 -31 220 -134.5t83 -234.5q0 -172 -156.5 -318.5t-414.5 -146.5q-209 0 -315.5 95.5t-106.5 216.5z" />
<glyph unicode="4" d="M104 449q0 16 14 38l122 205q109 182 143 246l104 197q117 225 156 415q18 -4 60 -28.5t69 -46t48.5 -58.5t21.5 -93t-75 -186t-211 -333t-210 -334q221 6 434 23q29 178 29 272t-4 164q41 4 69 4q172 0 173 -158q0 -68 -27 -262l139 14q14 -51 15 -106q0 -166 -162 -166 h-23q-2 -39 -2 -154.5t12 -173.5q-45 -4 -79 -4q-109 0 -158 52.5t-49 132.5q0 31 24 153l-579 23q-54 58 -54 164z" />
<glyph unicode="5" d="M125 244q0 115 73.5 192.5t192.5 77.5q35 0 72 -6q-80 -92 -80 -191.5t57.5 -162t152.5 -62.5t175 83t80 221.5t-99.5 240.5t-291.5 102q-106 0 -221 -26l96 569q-53 47 -62 156q127 -18 279 -19q262 0 495 27l72 8q18 -37 19 -137q0 -168 -107 -168q-127 0 -510 76 l-55 -355q59 10 137 11q242 0 379 -119t137 -316.5t-150.5 -355.5t-402.5 -158q-184 0 -311 83.5t-127 228.5z" />
<glyph unicode="6" d="M131 553q0 346 150 621q74 135 202.5 217t293.5 82t264.5 -90.5t99.5 -190.5t-57.5 -160.5t-168.5 -60.5q-49 0 -96 20q63 45 64 150q0 66 -38 115t-108 49q-125 0 -205.5 -167t-109.5 -397q152 61 310.5 61.5t280.5 -100t122 -266.5q0 -223 -154 -364.5t-354.5 -141.5 t-348 158t-147.5 465zM410 499q0 -93 18 -190.5t53 -140.5t68 -57.5t78 -14.5q109 0 176 89t67 203t-62.5 188.5t-197.5 74.5q-96 0 -198 -37q-2 -22 -2 -115z" />
<glyph unicode="7" d="M178 1317q0 100 19 137q256 -35 447.5 -35t293.5 6q57 145 74 236q16 -6 50 -29.5t56 -46.5q55 -55 55.5 -127t-96 -271.5t-215.5 -418.5t-229.5 -479t-132.5 -426q-23 0 -72 16.5t-80 34.5t-56.5 57t-25.5 99.5t90 239.5t250 464t240 447q-424 -86 -561 -86 q-107 0 -107 182z" />
<glyph unicode="8" d="M113 283q0 260 364 370q-129 111 -189.5 205t-60.5 221q0 180 139.5 287t354.5 107t312.5 -88.5t97.5 -210.5q0 -279 -343 -394q119 -90 175.5 -141t104.5 -131t48 -168q0 -182 -148.5 -295t-381 -113t-353 103t-120.5 248zM395 269q0 -87 47 -138t130 -51t154 52 t71 147.5t-109 187.5q-14 14 -59 52l-66 56q-92 -72 -130 -145.5t-38 -160.5zM528 1133q0 -86 41 -144.5t144 -136.5q161 143 161 313q0 68 -38.5 113t-114.5 45t-134.5 -52t-58.5 -138z" />
<glyph unicode="9" d="M117 219q0 113 72.5 191.5t201.5 78.5q39 0 90 -14q-106 -76 -106 -207q0 -66 40 -117t125 -51t156 88q127 162 162 508q-131 -113 -295 -112.5t-273.5 100.5t-109.5 289.5t147.5 344.5t401.5 155q170 0 291 -144.5t121 -431.5q0 -358 -154 -647q-78 -143 -211 -230.5 t-301 -87.5t-263 87t-95 200zM426 976q0 -120 51 -174t133 -54q137 0 258 110l2 43q0 178 -46 292t-136 114q-117 0 -189.5 -105.5t-72.5 -225.5z" />
<glyph unicode=":" horiz-adv-x="585" d="M123 104q0 41 37 175q72 20 145 20q152 0 152 -127q0 -41 -37 -174q-72 -20 -146 -21q-151 0 -151 127zM190 940q0 41 37 174q72 20 146 21q152 0 151 -127q0 -41 -37 -174q-72 -20 -145 -21q-152 0 -152 127z" />
<glyph unicode=";" horiz-adv-x="587" d="M23 -209q162 143 161 332q0 68 -30 153q80 23 153 23q152 0 152 -127q0 -133 -96.5 -255t-280.5 -218zM193 940q0 41 36 174q72 20 146 21q152 0 151 -127q0 -41 -37 -174q-72 -20 -145 -21q-151 0 -151 127z" />
<glyph unicode="&#x3c;" d="M143 747.5q0 61.5 41 118.5q143 70 313.5 187.5t285 187.5t196.5 70q102 0 147 -203q-129 -45 -363.5 -185.5t-291.5 -168.5q59 -29 290.5 -167t364.5 -188q-45 -203 -147 -202q-82 0 -196.5 69.5t-284.5 187t-314 187.5q-41 45 -41 106.5z" />
<glyph unicode="=" d="M92 571q0 8 1 23.5t1 23.5q166 -23 293 -22.5t294 15t286.5 14.5t165 -56.5t45.5 -167.5q0 -8 -1 -23.5t-1 -23.5q-166 23 -293 23t-294 -14.5t-287 -14.5t-165 56t-45 167zM92 1059q0 8 1 23.5t1 23.5q166 -23 293 -23t294 14.5t286.5 14.5t165 -56.5t45.5 -166.5 q0 -8 -1 -23.5t-1 -23.5q-166 23 -293 22.5t-294 -14.5t-287 -14t-165 56t-45 167z" />
<glyph unicode="&#x3e;" d="M143 1108q45 203 148 203q82 0 196.5 -70t284.5 -187.5t313 -187.5q41 -57 41 -118.5t-41 -106.5q-143 -70 -313 -187.5t-284.5 -187t-196.5 -69.5q-102 0 -148 202q133 49 364.5 187.5t291.5 167.5q-57 29 -292 169t-364 185z" />
<glyph unicode="?" horiz-adv-x="927" d="M123 1294q0 131 132 213t303 82t291 -88t120 -260q0 -102 -52.5 -187t-126 -144.5t-147.5 -112.5q-180 -127 -180 -248q0 -74 22 -127q-250 66 -249 242q0 135 165 262l137 106q69 53 116.5 122t47.5 141.5t-46 111.5t-122.5 39t-126 -56.5t-49.5 -134t52 -139.5 q-43 -16 -110 -16t-122 53t-55 141zM197 104q0 41 36 175q72 20 146 20q152 0 151 -127q0 -41 -36 -174q-72 -20 -146 -21q-151 0 -151 127z" />
<glyph unicode="@" horiz-adv-x="2103" d="M102 445.5q0 191.5 77 373.5t217.5 329.5t360.5 237t482 89.5q287 0 510 -158q115 -80 183.5 -225.5t68.5 -327.5t-57.5 -330.5t-144.5 -240t-182 -142.5t-181 -51q-262 0 -262 383q-61 -94 -149.5 -147.5t-186 -53.5t-166 81t-68.5 227.5t47 274.5t152.5 221t245.5 93 q78 0 147 -37v54h88q92 0 138 -32t46 -116q0 -10 -22 -112q-66 -322 -66 -480q0 -199 95 -198q86 0 168.5 156.5t82.5 433.5q0 158 -44 276.5t-117 183.5q-147 129 -351 129t-368 -76.5t-264 -203.5q-209 -264 -209 -602q0 -158 44 -276t120 -183q150 -129 332 -129t319 108 q14 -51 14 -94q0 -104 -88 -145t-238.5 -41t-281.5 44t-242.5 130t-180.5 235.5t-69 341zM883 500.5q0 -140.5 75 -140.5q92 0 169 171t77 370q0 49 -6 105q-145 -66 -230 -215.5t-85 -290z" />
<glyph unicode="A" horiz-adv-x="1320" d="M-41 90q0 39 119 291l269 572q151 321 204 466l37 101q-16 29 -80 104q74 25 128 25t90 -8.5t63.5 -28t49 -40t40 -60t31 -71.5t27.5 -89.5t25 -99.5l24 -116q15 -75 31.5 -144.5t57.5 -265.5t64.5 -293t67.5 -218t93 -190q-119 -57 -192.5 -57.5t-108 37.5t-59.5 115 t-96 412q-47 -41 -154 -45l-350 -12q-125 -305 -184 -543q-197 70 -197 158zM406 627h419q-96 442 -143 620l-126 -279q-97 -214 -150 -341z" />
<glyph unicode="B" horiz-adv-x="1390" d="M154 109q2 16 45 305q90 602 90 1091q0 162 -29 230q219 -57 275 -181q158 88 333.5 88t287.5 -99t112 -241.5t-102.5 -264.5t-280.5 -181q143 -31 263 -138.5t120 -264.5q0 -242 -179.5 -372t-452.5 -130t-482 158zM451 154q90 -37 174 -37q145 0 239 96t94 241.5 t-98 243t-274 105.5l-6 74q188 27 293.5 138t105.5 238q0 92 -57.5 154.5t-162 62.5t-200.5 -43q0 -125 -54 -628.5t-54 -644.5z" />
<glyph unicode="C" horiz-adv-x="1406" d="M92 690q0 393 203 670q100 133 257 212t362.5 79t313 -109.5t107.5 -258t-82 -242t-213 -93.5q-45 0 -104 17q43 53 75.5 151t32.5 186.5t-40.5 143.5t-129.5 55q-135 0 -243.5 -125t-161.5 -307t-53 -377q0 -262 102.5 -397t261.5 -135q100 0 209 67.5t207 192.5 q76 -16 76 -76q-78 -141 -190.5 -229t-213 -117t-206.5 -29q-242 0 -406 184.5t-164 536.5z" />
<glyph unicode="D" horiz-adv-x="1556" d="M154 109q2 16 45 305q90 602 90 1091q0 162 -29 230q219 -57 275 -181q182 88 342 88q283 0 444.5 -223t161.5 -561q0 -281 -125 -500q-139 -244 -391 -338q-137 -51 -289 -51t-280 35t-185 70zM453 154q80 -31 178 -31q178 0 308 114.5t188.5 280.5t58.5 352 q0 262 -112.5 428t-303.5 166q-119 0 -209 -37q0 -125 -54 -628.5t-54 -644.5z" />
<glyph unicode="E" horiz-adv-x="1292" d="M86 -25q23 96 98 158v8q0 111 58 504l-88 -33q-4 45 -4 68q0 137 120 174q37 270 49 487q-76 4 -96 35t-20 121q6 92 16 121q229 -31 507 -31t536 49q-29 -215 -263 -258q-137 -27 -407 -35q-2 -23 -60 -475q123 -4 170 -4q195 0 277 68q4 -41 4 -62q0 -186 -139 -186 l-197 2q-90 0 -137 -2q-31 -272 -33 -467q481 0 715 78q-18 -152 -92 -236t-185 -84q-33 0 -183 17.5t-318 17.5t-328 -35z" />
<glyph unicode="F" horiz-adv-x="1064" d="M143 680q0 141 129 176q39 281 47 485q-104 0 -131.5 29t-27.5 127q8 92 16 121q231 -31 508 -31t535 49q-29 -215 -263 -258q-127 -25 -362 -32q-2 -27 -59 -478q119 -4 161 -4q195 0 277 68q4 -41 4 -62q0 -186 -139 -186l-197 2q-84 0 -129 -2q-33 -287 -33 -465 t13 -250q-66 -4 -86 -4q-117 0 -168.5 41t-51.5 144.5t58 496.5q-66 -20 -97 -35q-4 45 -4 68z" />
<glyph unicode="G" horiz-adv-x="1406" d="M82 664q0 391 203 679q98 141 253.5 224.5t355.5 83.5t305.5 -103.5t105.5 -255t-94.5 -239.5t-223.5 -88q-84 0 -159.5 41t-116.5 118q55 -14 104 -14q111 0 175.5 63.5t64.5 143.5t-53.5 132t-151.5 52q-129 0 -234.5 -132t-159 -319.5t-53.5 -388t79 -314.5 t191.5 -114t195.5 111t83 299q0 47 -6 96v6q45 4 94 5q119 0 165 -40t46 -137q0 -625 -223 -974q-78 -121 -203 -197t-282 -76q-215 0 -322.5 109.5t-107.5 251t75.5 226.5t188.5 85q61 0 135 -35q-109 -137 -109 -289q0 -88 41 -143t129 -55q342 0 390 805 q-76 -109 -182.5 -165.5t-219.5 -56.5q-197 0 -338 160t-141 445z" />
<glyph unicode="H" horiz-adv-x="1619" d="M154 705q0 143 131 176q43 365 43 594q0 61 -9 167q205 -8 259 -73q27 -37 33.5 -71t6.5 -108.5t-28.5 -266t-32.5 -228.5q340 0 586 4q43 352 43 576q0 61 -8 167q205 -8 256 -73q29 -37 36 -71t7 -108.5t-69 -544.5t-69 -655.5t29 -252.5q-174 45 -236.5 118.5 t-62.5 188t41 415.5l12 89q-45 -39 -145 -39l-197 2q-104 0 -250 -6q-47 -352 -47 -526.5t29 -241.5q-174 45 -237.5 119.5t-63.5 207.5q0 78 43 395q2 8 2 11q-61 -16 -98 -33q-4 45 -4 68z" />
<glyph unicode="I" horiz-adv-x="704" d="M154 264q0 78 43 395q76 526 75 816q0 61 -8 167q156 -8 228 -49q31 -16 47 -50t19 -62.5t3 -104.5t-67.5 -538.5t-67.5 -648t29 -252.5q-174 45 -237.5 119.5t-63.5 207.5z" />
<glyph unicode="J" horiz-adv-x="1060" d="M-119 273q0 126 68.5 199t195.5 73q63 0 119 -33q-53 -45 -82.5 -116.5t-29.5 -145.5t37.5 -125t113.5 -51t122 81t60.5 180t21.5 169.5t13 176t10 191.5q16 344 23 449q-49 -4 -125 -4q-123 0 -123 160q0 70 12 122q156 -37 373 -36.5t453 73.5q-12 -125 -88 -193.5 t-154 -82.5l-63 -12q-39 -408 -55.5 -635.5t-50.5 -360.5t-81 -213t-110.5 -129t-127 -66.5t-141.5 -17.5q-190 0 -290.5 110.5t-100.5 236.5z" />
<glyph unicode="K" horiz-adv-x="1374" d="M154 264q0 78 43 395q76 526 75 816q0 61 -8 167q156 -8 228 -49q31 -16 47 -50t19 -62.5t3 -104.5t-51 -426l-18 -119q276 227 466.5 441.5t268.5 363.5q68 -119 67.5 -232.5t-116 -232t-349.5 -290.5q143 -453 322 -701q76 -104 192 -227q-76 -20 -151.5 -20.5 t-155.5 47t-138 115t-120 179.5q-88 166 -190 437q-57 -43 -125 -88q-37 -305 -37 -462t29 -224q-174 45 -237.5 119.5t-63.5 207.5z" />
<glyph unicode="L" horiz-adv-x="1120" d="M57 -25q31 119 125 181q-10 41 -10 113.5t43 389.5q76 526 76 816q0 61 -8 167q156 -8 227 -49q31 -16 47 -50t19.5 -62.5t3.5 -104.5t-62.5 -496.5t-73.5 -662.5q485 0 719 78q-18 -152 -92 -236t-184 -84q-33 0 -183.5 17.5t-318.5 17.5t-328 -35z" />
<glyph unicode="M" horiz-adv-x="1898" d="M143 119q0 20 69 556.5t69 747.5v11q-59 96 -125 157q76 53 182 54q135 0 209 -126t289 -692l94 -241q12 20 37 55q500 739 514 1004q0 -2 49 -5.5t105.5 -20.5t82 -53t31.5 -70t6 -115t-67.5 -543.5t-67.5 -648t29 -252.5q-174 45 -237.5 119.5t-63.5 207.5q0 78 42 383 t58 488l-233 -387l-181 -292t-45 -71q-74 -29 -115 -29q-123 0 -137 35q-205 526 -270 678q-6 -55 -33 -256q-55 -393 -55 -653q0 -63 8 -170q-143 0 -193.5 34t-50.5 95z" />
<glyph unicode="N" horiz-adv-x="1681" d="M123 1583q98 59 188 59q180 0 264 -117.5t314 -580.5l75 -154l80 -167q72 -154 154 -289q6 80 56.5 490.5t50.5 650.5q0 63 -9 165q143 0 192.5 -32.5t49.5 -91.5q0 -23 -67.5 -572t-67.5 -760q0 -76 4 -110q16 -14 53 -35q-127 -82 -235.5 -82t-188.5 121 q-37 53 -246 456l-298 560q-8 -70 -37 -267q-55 -397 -56 -667q0 -63 9 -170q-143 0 -193.5 33.5t-50.5 95.5q0 18 67.5 549.5t69.5 744.5l-18 27q-51 76 -136 127q-20 12 -24 16z" />
<glyph unicode="O" horiz-adv-x="1642" d="M102 792.5q0 327.5 163 583.5t435 324q16 -4 32 -16.5t18 -26.5q-264 -193 -320 -524q86 242 259 378t372 136t339 -171t140 -495q0 -317 -119 -571q-61 -135 -153 -236.5t-230.5 -163t-302.5 -61.5t-287.5 73.5t-197.5 196.5q-148 246 -148 573.5zM420 676 q0 -256 85 -420t257 -164q143 0 252.5 126t163 312.5t53.5 391.5q0 287 -79 415.5t-215 128.5t-258 -119.5t-190.5 -302t-68.5 -368.5z" />
<glyph unicode="P" horiz-adv-x="1271" d="M164 143.5q0 96.5 68.5 582.5t68.5 694t-29 272q209 -16 275 -164q158 86 347 86t299 -118t110 -290q0 -213 -156 -385q-76 -82 -196 -133t-265 -51q-61 0 -117 8l-6 86h17q231 0 368 172q94 123 94 258q0 199 -161 262q-57 21 -120 22q-88 0 -188 -42v-4q0 -78 -58 -509 t-58 -720q0 -129 12 -201q-66 -4 -86 -4q-117 0 -168 41t-51 137.5z" />
<glyph unicode="Q" horiz-adv-x="1611" d="M109 -244q88 150 272 150h2q193 23 345.5 98.5t245.5 177t154 228.5q109 227 109 485q0 342 -143 494q-76 80 -197 79.5t-233.5 -117t-175 -292.5t-62.5 -361q0 -365 158 -364q68 0 109.5 58.5t41.5 152.5t-25.5 153.5t-50.5 81.5l-26 23q63 25 148 24.5t167 -63 t82 -193.5q0 -199 -130 -314.5t-306 -115.5t-316.5 148.5t-140.5 419.5q0 262 127 495q68 123 166 219.5t246.5 155.5t329.5 59q225 0 379.5 -172t154.5 -493q0 -285 -115 -531q-66 -135 -164 -246.5t-257.5 -204.5t-362.5 -143q791 -248 975 -247q-49 -117 -124 -178.5 t-157 -61.5t-397 142.5t-432 177.5q-235 71 -397 75z" />
<glyph unicode="R" horiz-adv-x="1382" d="M154 143.5q0 96.5 68.5 582.5t68.5 694t-29 272q207 -16 275 -162q147 82 334.5 82t307 -107.5t119.5 -249t-96 -281.5t-287 -212l27 -80q74 -229 213 -453.5t227 -306.5q-76 -20 -150.5 -20t-150 48t-126 105.5t-112 182t-87.5 194.5l-59 154q-32 84 -33.5 90t-6 15 t-6.5 18h-88l-6 94q260 10 387 186q70 98 70 201q0 39 -8 76q-35 133 -166 166q-37 10 -102.5 10t-174.5 -43q0 -78 -58.5 -509t-58.5 -720q0 -129 13 -201q-66 -4 -86 -4q-117 0 -168 41t-51 137.5z" />
<glyph unicode="S" horiz-adv-x="1288" d="M57 303q0 137 82 214t211 77q37 0 70 -8q-63 -94 -63.5 -204t67.5 -188.5t179.5 -78.5t187 58t75.5 149.5t-51 161t-127 119.5l-166 115q-90 65 -165.5 130t-127 166.5t-51.5 222.5q0 195 141.5 310.5t381 115.5t363.5 -107.5t124 -229.5t-78 -205t-211 -83q-45 0 -88 9 q100 106 100 224t-65.5 179t-158.5 61t-154.5 -56t-61.5 -158.5t52 -183.5t129 -137l168 -122l168 -124q77 -58 129 -144t52 -183q0 -190 -155.5 -322t-408.5 -132t-400.5 108.5t-147.5 245.5z" />
<glyph unicode="T" horiz-adv-x="1112" d="M41 1477q4 80 16 122q221 -37 530.5 -36.5t647.5 73.5q-35 -260 -264 -284q-72 -10 -221 -21q-4 -59 -68 -519t-64 -634t29 -241q-174 45 -237.5 119.5t-63.5 185t52.5 480.5t62.5 595q-166 -8 -326 -8q-94 0 -94 168z" />
<glyph unicode="U" horiz-adv-x="1546" d="M143 451q0 145 46.5 524t46.5 492.5t-23 174.5q170 -43 234.5 -113.5t64.5 -198.5t-41 -407.5t-41 -450.5t49 -242.5t137 -71.5q104 0 203 92q201 190 262 731v4q33 285 33 418t-8 239q156 -8 227 -49q31 -16 47.5 -50t19.5 -62.5t3 -104.5t-67.5 -538.5t-67.5 -648 t28 -252.5q-174 45 -237.5 119.5t-63.5 207.5q0 41 2 64q-186 -369 -510 -369q-172 0 -258 118t-86 374z" />
<glyph unicode="V" horiz-adv-x="1353" d="M33 1569q113 53 178 53t94 -14.5t56.5 -63.5t48.5 -131q31 -123 75.5 -364.5t51.5 -266.5q72 -365 94 -499q133 285 294.5 756.5t161.5 613.5q231 -39 232 -152q0 -84 -116 -355l-278 -625q-163 -353 -225 -521q-16 -6 -81.5 -17.5t-120 -11.5t-62.5 31 q-37 127 -110.5 496.5t-148 671t-144.5 399.5z" />
<glyph unicode="W" horiz-adv-x="2013" d="M70 1569q113 53 185.5 53t105 -26.5t60.5 -115.5t50.5 -248t39.5 -299t17 -142.5t2 -19.5t32 -223l38 -265q158 338 326 835q-66 340 -133 451q113 53 185.5 53t105 -26.5t60 -115.5t50.5 -248t40 -299t17 -142.5t2 -19.5t32 -223l38 -265q143 373 290.5 805t155.5 565 q221 -45 222 -144q0 -133 -422 -1058q-164 -362 -197 -451q-14 -6 -78.5 -17.5t-121 -11.5t-56.5 31q-27 109 -131 776q-283 -629 -336 -778q-14 -6 -79.5 -17.5t-121 -11.5t-55.5 31q-31 129 -86 497.5t-114.5 670t-122.5 399.5z" />
<glyph unicode="X" horiz-adv-x="1374" d="M33 168q0 117 121 266q123 152 362 381l-45 115l-57 144q-25 62 -36 87l-33.5 78t-37.5 81l-36 73q-22 45 -38 73q-51 84 -79 123q117 55 190.5 55.5t117.5 -37.5t96 -149.5t74.5 -169t58.5 -159t40 -111.5q207 203 323.5 356.5t123.5 282.5q82 -35 122.5 -90.5 t40.5 -105.5t-25.5 -106.5t-86 -124t-112.5 -118.5l-152 -143l-160 -150q229 -594 495 -876q-53 -10 -131 -11q-168 0 -301 176.5t-268 497.5q-281 -326 -397 -669q-170 110 -170 231z" />
<glyph unicode="Y" horiz-adv-x="1157" d="M16 1591q84 53 177 54q49 0 82.5 -9.5t66.5 -42t56.5 -84t52.5 -149.5q49 -156 124 -533l15 -79q188 293 306 553t138 405q154 -86 154 -227q0 -152 -518 -899q-33 -276 -33 -426t29 -217q-174 45 -237.5 119.5t-63.5 188t30 324.5q-219 782 -379 1022z" />
<glyph unicode="Z" horiz-adv-x="1271" d="M-43 -20q41 158 195 213q590 696 870 1206q-535 -115 -709 -115q-98 0 -98 189q4 94 16 133q252 -35 512.5 -35t368.5 12q35 82 45 133q135 -135 135 -270q0 -133 -207 -389l-202 -246q-295 -342 -457 -594h31q498 0 735 78q-18 -152 -92 -236t-185 -84q-57 0 -237 22.5 t-370.5 23t-350.5 -40.5z" />
<glyph unicode="[" horiz-adv-x="776" d="M236 -152q0 41 10 144q61 612 79.5 974.5t26.5 493.5q8 143 322 144l-6 -35l6 35h143q74 0 82 -152q-119 10 -248 12q-70 -473 -93 -793.5t-23 -795.5v-20q117 2 227 12q-8 -152 -82 -152h-143q-301 0 -301 133z" />
<glyph unicode="\" horiz-adv-x="770" d="M-78 1559.5q0 70.5 41 124t82 73.5l39 21q31 -182 218 -628l357 -840q170 -394 170 -479t-58 -134t-116 -59l-59 -11q-29 209 -198 655l-322 826q-154 381 -154 451.5z" />
<glyph unicode="]" horiz-adv-x="776" d="M-123 -133q121 -10 248 -12q66 467 91.5 790.5t25.5 798.5v20q-115 -2 -228 -12q8 152 82 152h144q301 0 301 -134q0 -41 -11 -143q-61 -612 -79.5 -974.5t-26.5 -493.5q-8 -143 -322 -144h-143q-74 0 -82 152zM102 -285l11 62zM113 -223q0 8 4 20z" />
<glyph unicode="^" d="M145 838.5q0 66.5 120 244t351 471.5q76 35 164 35t97 -37q63 -297 123.5 -472t164.5 -359q-59 -51 -196 -51q-102 0 -164 151.5t-125 558.5q-233 -369 -375 -708q-90 27 -125 63.5t-35 103z" />
<glyph unicode="_" horiz-adv-x="948" d="M0 -39q0 8 1 23.5t1 23.5q143 -23 253 -22.5t258.5 14.5t252.5 14t143 -56t39 -167q0 -8 -1 -23.5t-1 -23.5q-143 23 -252.5 23t-258 -14.5t-253 -14.5t-143.5 56t-39 167z" />
<glyph unicode="`" horiz-adv-x="761" d="M180 1556q6 141 129 220q115 -47 236 -181.5t176 -259.5q-4 -23 -28.5 -42t-57.5 -25q-78 88 -202 170.5t-253 117.5z" />
<glyph unicode="a" horiz-adv-x="1300" d="M78 364.5q0 186.5 66.5 361.5t199.5 297t297 122q94 0 193 -45q-207 -74 -330 -290t-123 -423q0 -96 36 -156.5t101 -60.5q96 0 183 112.5t139.5 289t52.5 335t-12 256.5q61 4 86 4q104 0 157.5 -38.5t53.5 -139.5q0 -39 -49.5 -316.5t-49.5 -444.5t64 -296 q-154 27 -225.5 114t-71.5 251q0 29 8 111q-55 -195 -196.5 -314t-277.5 -119t-219 101.5t-83 288z" />
<glyph unicode="b" horiz-adv-x="1312" d="M176 387q0 145 68.5 585.5t68.5 643.5t-18 344q145 -39 199.5 -140.5t54.5 -224t-39 -418.5t-53 -472q61 219 174.5 348t245 129t226.5 -125t95 -320q0 -301 -160.5 -519t-367.5 -218q-72 0 -144 33q88 25 160 100.5t117 173.5q92 205 92 410q0 100 -38 176t-101 76 q-102 0 -208 -209t-112 -520v-39q4 -72 35 -238q-295 68 -295 424z" />
<glyph unicode="c" horiz-adv-x="1116" d="M102 453q0 301 166 515t449 214q158 0 237.5 -77t79.5 -182.5t-64.5 -183t-164.5 -77.5q-49 0 -98 20q31 35 57.5 109.5t26.5 138.5q0 125 -109 125q-127 0 -207 -186.5t-80 -405.5q0 -342 201 -342q78 0 158 53t139 148q74 -16 74 -76q-86 -150 -211 -213.5t-250 -63.5 q-168 0 -286 124t-118 360z" />
<glyph unicode="d" horiz-adv-x="1261" d="M74 385q0 317 174 545.5t411 228.5q68 0 213 -33q-127 -33 -226 -113.5t-154 -185.5q-115 -207 -115 -413q0 -244 147 -244q78 0 152 84t120 225.5t79.5 302t50.5 340.5q29 348 28.5 544t-16.5 294q147 -33 206.5 -139.5t59.5 -268t-68.5 -602t-68.5 -643.5t18 -344 q-145 39 -199.5 140.5t-54.5 254.5q-63 -176 -190 -278.5t-262 -102.5t-220 103.5t-85 304.5z" />
<glyph unicode="e" horiz-adv-x="1146" d="M102 469q0 176 68 335t215 268.5t326.5 109.5t263.5 -82t84 -215q0 -193 -134 -287t-329 -94q-98 0 -193 22q-2 -20 -2 -63q0 -170 63.5 -256t152 -86t168 53t139.5 148q74 -16 73 -76q-180 -276 -465 -277q-172 0 -301 132t-129 368zM412 612h30q178 0 263.5 92.5 t85.5 221.5q0 53 -28 91t-81 38q-104 0 -175.5 -129.5t-94.5 -313.5z" />
<glyph unicode="f" horiz-adv-x="835" d="M72 944q0 111 67.5 150t194.5 41q41 201 109.5 346t150.5 219q156 143 326 143q115 0 193.5 -68.5t78.5 -168t-67.5 -173t-178.5 -73.5q-43 0 -84 14q33 25 64.5 86.5t31.5 115.5t-23.5 85t-62.5 31q-84 0 -171 -140.5t-130 -423.5q182 0 267 68q4 -41 4 -61 q0 -98 -35 -136t-122 -38t-134 2q-80 -582 -80 -834q0 -121 5 -175t28 -185q-147 47 -217 152.5t-70 248.5q0 215 62 635q14 106 18 141q-109 -18 -221 -69q-4 44 -4 67z" />
<glyph unicode="g" horiz-adv-x="1267" d="M37 -402.5q0 101.5 63.5 166t178.5 64.5q47 0 96 -21q-78 -51 -78 -157q0 -72 43 -124t105.5 -52t109.5 25.5t96 91t86 163.5q84 227 92 621q-59 -176 -180 -282.5t-246 -106.5q-158 0 -240.5 119.5t-82.5 306.5q0 217 104 403q117 215 324 299q115 47 252 47q39 0 59 -4 q53 -10 58 -76q-223 -47 -355.5 -241.5t-132.5 -405.5q0 -246 150 -246q90 0 161 99q127 178 179 557q39 299 145 385q51 43 127 67q-29 -217 -29 -327q0 -819 -175 -1231t-570 -412q-160 0 -250 85t-90 186.5z" />
<glyph unicode="h" horiz-adv-x="1271" d="M133 164q0 88 35 336q111 762 111 1157q0 178 -25 239q154 -41 210 -123.5t56 -234.5q0 -102 -40 -430t-54 -475q68 231 211 390t267 159t176.5 -75t52.5 -203t-40 -359.5t-40 -337t26.5 -153.5t89.5 -83q-27 -2 -75 -2q-172 0 -245 53.5t-73 186.5q0 76 41 296t41 329 q0 135 -82 135q-49 0 -108.5 -55.5t-113.5 -150.5t-91 -244.5t-37 -298t12 -220.5q-66 -4 -86 -4q-117 0 -168 40t-51 128z" />
<glyph unicode="i" horiz-adv-x="657" d="M178 336q0 86 33 311t33 350t-13 193q45 4 84 4q119 0 165 -40t46 -136q0 -31 -50 -323t-51 -481v-15q0 -177 24 -230q-160 41 -215.5 124t-55.5 243zM246 1513q0 53 30 146q57 8 101 8q211 0 211 -147q0 -53 -31 -146q-57 -8 -100 -8q-211 0 -211 147z" />
<glyph unicode="j" horiz-adv-x="677" d="M-451 -447.5q0 99.5 68 173t178 73.5q43 0 84 -14q-33 -25 -64.5 -86t-31.5 -115.5t23.5 -85t62.5 -30.5q98 0 172 129t111 342q72 414 71 905q0 213 -8 346q45 4 88 4q113 0 159 -37t46 -146.5t-6 -241.5t-24.5 -307t-48.5 -328.5t-83 -307.5t-121.5 -263.5t-173 -178 t-224.5 -68.5t-199 68.5t-79 168zM209 1516q0 53 31 145q57 8 100 8q211 0 211 -147q0 -53 -31 -146q-57 -8 -100 -8q-211 1 -211 148z" />
<glyph unicode="k" horiz-adv-x="1175" d="M123 164q0 88 37 336q109 762 108 1157q0 178 -24 239q154 -41 210 -123.5t56 -234.5q0 -102 -40 -430t-54 -475q74 420 301 526q57 27 112 27q109 0 185 -80t76 -205t-71 -214t-198 -138l25 -76q68 -211 196.5 -418t208.5 -282q-74 -18 -131 -19q-207 0 -362 301 q-61 119 -180 445q-27 -2 -78 -2q-12 10 -13 65q94 2 168 33t115 80q78 100 78 211q0 55 -23.5 91t-66.5 36q-76 0 -155 -108.5t-133 -302t-54 -362.5t12 -241q-66 -4 -86 -4q-117 0 -168 40t-51 128z" />
<glyph unicode="l" horiz-adv-x="612" d="M137 248q0 80 68.5 628.5t68.5 753.5t-24 266q154 -41 210 -123.5t56 -234.5q0 -90 -59.5 -585.5t-59.5 -798.5q0 -66 9 -185q-186 8 -232 82q-25 41 -31 79t-6 118z" />
<glyph unicode="m" horiz-adv-x="1832" d="M143 170q0 23 42 305.5t42 447t-34 302.5q152 -47 211 -135.5t59 -217.5q0 -66 -14 -165q70 205 193.5 340t239 135t168 -86t52.5 -248q78 150 178 242t184 92q125 0 177.5 -75t52.5 -203t-40 -359.5t-40 -337t26.5 -153.5t90.5 -83q-27 -2 -76 -2q-172 0 -245 53.5 t-73 186.5q0 76 41 296t41 329q0 135 -82 135q-61 0 -131.5 -89t-124 -268.5t-53.5 -394.5q0 -102 12 -217q-66 -4 -86 -4q-115 0 -166 40t-51 117.5t44 320.5t44 369t-82 126q-45 0 -98 -54.5t-100 -147.5t-79 -238.5t-32 -279.5t12 -249q-66 -4 -86 -4q-115 0 -166 40 t-51 134z" />
<glyph unicode="n" horiz-adv-x="1282" d="M143 172q0 41 43 315.5t43 437t-34 300.5q150 -47 209 -134t59 -199t-25 -259q68 229 213.5 389t266 160t173 -75t52.5 -203t-40 -359.5t-40 -337t26.5 -153.5t90.5 -83q-27 -2 -76 -2q-172 0 -245 53.5t-73 186.5q0 76 41 296t41 329q0 135 -82 135q-47 0 -106 -55.5 t-114.5 -150.5t-92.5 -244.5t-37 -298t13 -220.5q-66 -4 -87 -4q-117 0 -168 41t-51 135z" />
<glyph unicode="o" horiz-adv-x="1263" d="M102 505q0 259 127 456.5t336 248.5q23 0 42.5 -13t19.5 -28q-207 -143 -248 -399q43 115 105.5 199t129.5 127q129 80 252 80t209 -121t86 -324q0 -227 -92 -418q-102 -215 -291 -297q-106 -47 -233 -47q-178 0 -310.5 138.5t-132.5 397.5zM397 489q0 -373 193 -372 q137 0 223 179t86 402q0 328 -160 328q-133 0 -237.5 -179.5t-104.5 -357.5z" />
<glyph unicode="p" horiz-adv-x="1329" d="M78 -436q0 49 62.5 519t62.5 724t-31 428q164 -41 226.5 -151.5t62.5 -323.5q86 176 216 274.5t257 98.5t210 -101.5t83 -294.5q0 -307 -168 -522t-404 -215q-84 0 -170 33q201 47 320 260t119 424q0 98 -36 159.5t-102 61.5q-125 0 -221 -151.5t-147 -414.5t-51 -549 t41 -497q-168 6 -249 54.5t-81 183.5z" />
<glyph unicode="q" horiz-adv-x="1304" d="M74 383q0 295 161.5 532.5t389.5 237.5q94 0 192 -45q-133 -45 -237.5 -167t-153.5 -261t-49 -254q0 -236 135 -236q150 0 262.5 220.5t112.5 519.5q0 135 -13 233q61 4 87 4q98 0 149 -38.5t51 -139.5q0 -47 -55 -390t-76 -599q152 63 199 147q39 -72 39 -124 q0 -78 -84 -111q-49 -18 -164 -55q-4 -131 -4 -255t22 -276q-158 6 -233.5 52.5t-75.5 177.5q0 45 25 196q-78 -45 -138 -100q-18 41 -18 74q0 104 184 180q61 328 86 536q-193 -442 -499 -442q-129 0 -212 98.5t-83 284.5z" />
<glyph unicode="r" horiz-adv-x="948" d="M143 172q0 41 43 315.5t43 437t-34 300.5q150 -47 209 -134t59 -203t-19 -222q74 266 177.5 392t192.5 126t134 -66.5t45 -172t-62.5 -193.5t-170.5 -88q-29 0 -68 16q63 80 64 192q0 66 -54 66q-39 0 -84 -54.5t-85.5 -149.5t-68.5 -243.5t-28 -316.5q0 -20 10 -174 q-66 -4 -84 -4q-117 0 -168 41t-51 135z" />
<glyph unicode="s" horiz-adv-x="1028" d="M78 209q0 98 60.5 158.5t150.5 60.5q47 0 88 -16q-66 -70 -66 -148t43 -125t117 -47t124 38t50 98.5t-35 107.5t-87 83l-113 81q-61 45 -113.5 91t-87.5 116.5t-35 154.5q0 145 120 238.5t299 93.5t262 -69.5t83 -163t-58.5 -159t-150.5 -65.5q-45 0 -102 19 q45 39 69.5 89t24.5 99t-41 83t-98.5 34t-102.5 -38t-45 -107.5t48 -131t118 -107.5l140 -94q71 -48 124.5 -119t59.5 -157q0 -147 -127 -247.5t-315.5 -100.5t-296 76t-107.5 174z" />
<glyph unicode="t" horiz-adv-x="790" d="M72 944q0 109 65.5 149t188.5 42q14 154 14 221t-1 112t-1 68q135 -14 196.5 -80.5t61.5 -189.5q0 -49 -10 -138q172 4 252 68q4 -41 4 -61q0 -98 -35 -136t-117 -38t-125 2q-10 -74 -43 -256q-70 -387 -69.5 -573.5t28.5 -250.5q-158 41 -217 126t-59 241 q0 137 43 375.5t55 322.5q-106 -18 -227 -71q-4 44 -4 67z" />
<glyph unicode="u" horiz-adv-x="1241" d="M145 340q0 113 34 314.5t34 306t-29 210.5q170 0 247 -44t77 -175q0 -70 -43 -276.5t-43 -310.5q0 -152 82 -152q41 0 94 56.5t102.5 149.5t83 233.5t33.5 284.5t-12 245q61 4 86 4q106 0 161.5 -39t55.5 -143q0 -33 -39 -288t-39 -437.5t39 -321.5q-154 49 -213 139 t-59 223q0 51 22 232q-63 -233 -193 -392t-245 -159q-236 0 -236 340z" />
<glyph unicode="v" horiz-adv-x="1056" d="M59 1147q113 53 180.5 53t102.5 -30.5t58.5 -122t33.5 -150.5q29 -197 29 -219.5t16.5 -183t24.5 -211.5q365 707 364 944q168 -86 168 -187q0 -82 -85 -242l-213 -389q-128 -228 -193 -409q-66 -29 -137.5 -29t-79.5 31q-33 131 -76 392t-87.5 457t-105.5 296z" />
<glyph unicode="w" horiz-adv-x="1574" d="M74 1147q113 53 175 53t92 -21.5t49.5 -69.5t31.5 -103.5t20.5 -142.5t14.5 -167q23 -301 37 -413q180 430 254 673q-33 119 -74 191q113 53 175 53t92 -21.5t49.5 -69.5t31.5 -103.5t20.5 -142.5t14.5 -167q23 -301 37 -413q303 713 309 944q162 -86 162 -175 t-80 -272.5t-199 -422t-166 -357.5q-51 -29 -125.5 -29t-83.5 31q-37 168 -65 373l-37 260q-215 -444 -289 -635q-49 -29 -125 -29t-84 31q-31 131 -65.5 392t-73.5 457t-98 296z" />
<glyph unicode="x" horiz-adv-x="1136" d="M68 139q0 72 89 177.5t261 265.5q-131 354 -179.5 439t-78.5 126q102 53 186 53q68 0 111 -57q51 -63 77.5 -136t39.5 -115l40 -124q293 287 324 451q121 -102 121 -179q0 -53 -37 -108t-78 -93t-134 -115t-142 -122q72 -199 192.5 -387t194.5 -258q-74 -18 -131 -18 q-143 0 -247 123.5t-194 347.5q-180 -221 -262 -496q-153 127 -153 225z" />
<glyph unicode="y" horiz-adv-x="1056" d="M59 1147q113 53 180.5 53t102.5 -30.5t58.5 -122t33.5 -150.5q29 -197 29 -219.5t16.5 -183t24.5 -211.5q365 707 364 944q168 -86 168 -187q0 -72 -61.5 -193.5t-149.5 -269t-176 -314.5t-149.5 -377t-61.5 -410q0 -92 15 -176q-166 31 -225.5 91t-59.5 142 q0 113 164 444q-31 127 -76 398.5t-91.5 472.5t-105.5 299z" />
<glyph unicode="z" horiz-adv-x="1013" d="M-41 -27q35 199 152 242q373 399 598 725l-410 -39q-82 0 -113.5 34t-31.5 103.5t16 130.5q203 -39 381 -39t283 9q41 78 57 139q123 -113 123 -196t-95.5 -200.5t-274.5 -310t-290 -338.5q176 -8 312.5 -8t275.5 25q10 -66 10 -132.5t-36.5 -104.5t-129.5 -38 q-39 0 -228 21.5t-327.5 21.5t-271.5 -45z" />
<glyph unicode="{" horiz-adv-x="761" d="M92 639l4 74q111 18 152 143q35 109 35 266v97q0 203 91 294t314 91q74 0 104.5 -37t30.5 -115q-49 6 -86 6q-98 0 -128.5 -47t-30.5 -162q0 -219 -53.5 -377.5t-168.5 -195.5q61 -12 110.5 -108.5t49.5 -189.5t-13.5 -207t-13.5 -174t30 -99t92.5 -39t105.5 8 q0 -88 -31 -120t-119 -32q-203 0 -283.5 66.5t-80.5 198.5q0 47 14 168.5t14 195.5q0 289 -139 295z" />
<glyph unicode="|" horiz-adv-x="933" d="M315 -250q0 117 15.5 466t15.5 568q0 754 -29 992q158 0 229.5 -32t71.5 -99q0 -115 -15 -377t-15 -484q0 -944 28 -1165q-158 0 -229.5 31.5t-71.5 99.5z" />
<glyph unicode="}" horiz-adv-x="761" d="M-61 -133q49 -6 86 -6q98 0 128.5 47t30.5 162q0 219 53.5 377.5t168.5 195.5q-61 12 -110.5 108.5t-49.5 189.5t13 207t13 174t-29.5 99t-92 39t-105.5 -8q0 88 30.5 120t119.5 32q203 0 288.5 -68t85.5 -197q0 -47 -19.5 -168.5t-19.5 -195.5q0 -289 140 -295l-4 -74 q-111 -18 -152 -143q-35 -109 -35 -266v-97q0 -203 -91 -294t-314 -91q-74 0 -104.5 37t-30.5 115z" />
<glyph unicode="~" d="M90 551q0 219 74 289q76 72 244 71q90 0 254.5 -31.5t226.5 -31.5q197 0 291 88q0 -219 -74 -289q-76 -72 -246 -72q-88 0 -253 32t-226 32q-197 0 -291 -88z" />
<glyph unicode="&#xa1;" horiz-adv-x="585" d="M53 -328q0 63 37 201q109 420 109 649q0 104 -17 144q141 -37 194.5 -108t53.5 -193.5t-51 -378.5t-51 -365.5t6 -142.5q-109 0 -195 48t-86 146zM190 940q0 41 37 174q72 20 146 21q152 0 151 -127q0 -41 -37 -174q-72 -20 -145 -21q-152 0 -152 127z" />
<glyph unicode="&#xa2;" d="M193 631q0 272 138 478t380 243q57 248 65 352q57 0 104.5 -45t47.5 -112.5t-27 -196.5q111 -23 167 -92.5t56 -166t-64.5 -174t-164.5 -77.5q-49 0 -98 20q31 35 57.5 109.5t26.5 138.5q0 125 -109 125q-127 0 -207 -186.5t-80 -405.5q0 -342 201 -342q78 0 158 53 t139 148q74 -16 74 -76q-121 -209 -336 -262q-41 -219 -41 -363q-43 0 -98 17q-109 31 -109 141q0 70 29 201q-135 31 -222 150.5t-87 322.5z" />
<glyph unicode="&#xa3;" d="M41 -43q0 18 6 52t49 96.5t115 89.5q25 74 59 333q-49 -4 -63 -4q-135 0 -150 172l74 -2q82 0 162 13q0 2 2 6q66 401 191.5 580.5t322.5 179.5q150 0 222.5 -68t72.5 -164t-63.5 -163.5t-172.5 -67.5q-43 0 -84 14q43 29 73 79t30 98t-24.5 80t-75 32t-91.5 -48 t-69 -141q-45 -152 -72 -374q135 23 216 22.5t127 -39.5t69 -143q-33 18 -138.5 18t-298.5 -35q-47 -260 -137 -358l316 -8q227 0 358 59q-8 -166 -54 -235.5t-165 -69.5q-41 0 -212 21.5t-317.5 21.5t-277.5 -47z" />
<glyph unicode="&#xa5;" d="M123 1419q86 53 178 54q53 0 81 -28t43 -50.5t31.5 -62.5t29 -75.5t29.5 -97.5l31 -110l34 -130q20 -81 38 -145l21 -74q199 293 276.5 468t104.5 337q147 -84 147 -221q0 -74 -48 -162t-154 -237q61 -8 98 -48t55 -130q-35 18 -106.5 18t-169.5 -8l-76 -107q51 8 126 8 t121 -38.5t68 -143.5q-33 18 -130 18.5t-226 -20.5q-31 -225 -31 -312t6 -153q-164 6 -213 60.5t-49 149.5t13 206q-94 -14 -129 -14q-135 0 -150 172l74 -2q100 0 227 20v2q-18 74 -29 105q-57 -10 -110 -11q-135 0 -150 172l74 -2q45 0 135 9q-110 333 -270 583z" />
<glyph unicode="&#xa6;" horiz-adv-x="933" d="M315 -247.5q0 69.5 15.5 356t15.5 405.5q145 0 193.5 -62.5t48.5 -177.5q0 -418 28 -655q-158 0 -229.5 32t-71.5 101.5zM317 1776q158 0 229.5 -32t71.5 -101.5t-15 -356.5t-15 -405q-145 0 -193.5 62.5t-48.5 176.5q0 418 -29 656z" />
<glyph unicode="&#xa7;" d="M68 -375q0 121 66.5 187.5t178.5 66.5q31 0 60 -6q-53 -88 -53.5 -182t59 -163t159 -69t165 51.5t65.5 129t-43 139t-107 109.5l-139 110q-76 61 -139.5 120.5t-106.5 146.5t-43 184q0 152 92.5 249t274.5 119q-139 98 -219 208t-80 273.5t120 265t329.5 101.5t312 -94 t102.5 -193.5t-63.5 -168t-171.5 -68.5q-47 0 -82 16q43 29 72.5 79t29.5 99q0 96 -59.5 145.5t-136.5 49.5q-190 0 -191 -199q0 -94 60.5 -178t145.5 -149l171 -131q86 -65 146.5 -147.5t60.5 -172.5q0 -152 -115 -263.5t-309 -131.5l69 -50q52 -38 73 -56l65 -53 q43 -36 62.5 -61.5t41.5 -64.5q45 -70 45 -160q0 -168 -138 -284.5t-359.5 -116.5t-346 96t-124.5 217zM434 495q0 -83 61.5 -141.5t148.5 -58.5t146.5 57.5t59.5 141.5t-59.5 142t-146.5 58t-148.5 -58t-61.5 -141z" />
<glyph unicode="&#xa8;" horiz-adv-x="921" d="M133 1513q0 53 31 146q57 8 100 8q211 0 211 -147q0 -53 -31 -146q-57 -8 -100 -8q-211 0 -211 147zM563 1513q0 53 31 146q57 8 100 8q211 0 211 -147q0 -53 -31 -146q-57 -8 -100 -8q-211 0 -211 147z" />
<glyph unicode="&#xa9;" horiz-adv-x="1366" d="M66 1137q0 256 184 441t508 185q209 0 368 -125q80 -66 127 -181.5t47 -270.5q0 -256 -184 -441.5t-508 -185.5q-209 0 -366 125q-82 66 -129 181.5t-47 271.5zM199 1137q0 -129 35.5 -226.5t97.5 -150.5q121 -104 280 -105q260 0 407.5 157t147.5 374q0 129 -35.5 226 t-97.5 151q-121 104 -280 104q-260 0 -407.5 -156.5t-147.5 -373.5zM365 1121q0 175 100 303t280 128q104 0 157.5 -52t53.5 -123.5t-41 -118t-108 -46.5q-20 0 -70 15q23 25 39.5 73t16.5 86q0 78 -60 78q-84 0 -136 -109.5t-52 -233.5t41 -181t104 -57q96 0 172 110 q66 0 66 -41q-98 -178 -289 -178q-117 0 -195.5 86t-78.5 261z" />
<glyph unicode="&#xaa;" horiz-adv-x="800" d="M39 1124q0 172 99.5 319.5t252.5 147.5q66 0 119 -28v43h70q74 0 110.5 -26t36.5 -82t-29.5 -212t-29.5 -248t49 -190q-207 33 -225 190q-49 -76 -119 -117.5t-146.5 -41.5t-132 62t-55.5 183zM260 1131.5q0 -111.5 59 -111.5q74 0 135.5 136t61.5 294q0 27 -4 84 q-117 -53 -184.5 -172t-67.5 -230.5z" />
<glyph unicode="&#xab;" horiz-adv-x="1306" d="M123 629l6 41q72 33 162 207q35 72 74 139q86 160 175 160t212 -113q-61 -20 -122 -88t-135.5 -178.5t-103.5 -147.5q23 -39 74 -148.5t97 -177t102 -87.5q-147 -113 -236 -113q-57 0 -100 69.5t-64.5 156.5t-58.5 172t-82 108zM616 629l7 41q88 41 196 280 q41 86 99.5 156t115.5 70q88 0 211 -113q-61 -20 -121.5 -88t-135.5 -178.5t-103 -147.5q23 -39 74 -148.5t97 -177t101 -87.5q-147 -113 -235 -113q-57 0 -100.5 69.5t-65 156.5t-58.5 172t-82 108z" />
<glyph unicode="&#xac;" d="M92 815q0 8 1 23.5t1 23.5q166 -23 293 -22.5t294 14.5t286.5 14t165 -56t45.5 -167l-17 -387q-55 -10 -96 -10q-141 0 -141 139q0 61 47 238q-29 2 -101.5 2t-263 -17.5t-307.5 -17.5t-162 56t-45 167z" />
<glyph unicode="&#xad;" horiz-adv-x="983" d="M123 532q0 154 66.5 205t197.5 51l203 -8q182 0 262 84q8 -43 8 -121.5t-39 -141t-125 -62.5q-236 0 -351.5 -20.5t-219.5 -86.5q-2 28 -2 100z" />
<glyph unicode="&#xae;" horiz-adv-x="1366" d="M66 1137q0 256 184 441t508 185q209 0 368 -125q80 -66 127 -181.5t47 -270.5q0 -256 -184 -441.5t-508 -185.5q-209 0 -366 125q-82 66 -129 181.5t-47 271.5zM199 1137q0 -129 35.5 -226.5t97.5 -150.5q121 -104 280 -105q260 0 407.5 157t147.5 374q0 129 -35.5 226 t-97.5 151q-121 104 -280 104q-260 0 -407.5 -156.5t-147.5 -373.5zM379 858q0 41 41 277.5t45 361.5q121 43 242 43q236 0 235 -166q0 -66 -43 -131t-131 -100q61 -233 180 -352q-59 -12 -97 -12.5t-75 21t-62.5 65.5t-40 78t-33.5 94l-26 79l-45 -4q-23 -164 -22 -328 q-25 -4 -55 -4q-113 0 -113 78zM578 1178q92 6 148 57t56 102q0 109 -96 109q-35 0 -76 -14q-14 -135 -32 -254z" />
<glyph unicode="&#xaf;" horiz-adv-x="868" d="M102 1573q0 8 1 22.5t1 22.5q102 -23 179 -23t178.5 14.5t174.5 14.5t101.5 -54t28.5 -159q0 -8 -1 -22.5t-1 -22.5q-100 23 -178 23t-179.5 -14.5t-174 -14.5t-101.5 54.5t-29 158.5z" />
<glyph unicode="&#xb0;" horiz-adv-x="827" d="M61 1221.5q0 154.5 110 269.5t302 115q123 0 208 -73t85 -228.5t-109.5 -269t-302.5 -113.5q-123 0 -208 72.5t-85 227zM276 1246q0 -97 34 -144t97.5 -47t104.5 64.5t41 159.5t-35 144.5t-84 49.5q-76 0 -117 -65t-41 -162z" />
<glyph unicode="&#xb1;" d="M45 211q0 8 1 23.5t1 23.5q166 -23 293 -22.5t294 14.5t286.5 14t164.5 -56t45 -167q0 -8 -1 -23.5t-1 -23.5q-166 23 -292.5 22.5t-293.5 -14.5t-287 -14t-165 56t-45 167zM92 1006q0 8 1 23t1 24q166 -23 278.5 -23t139.5 2q0 111 9 230.5t68.5 165t170.5 45.5 q8 0 23.5 -1.5t23.5 -1.5q-45 -227 -53 -419q123 8 198 8q135 0 180.5 -56.5t45.5 -166.5q0 -8 -1 -23.5t-1 -24.5q-166 23 -342 23l-80 -2q0 -113 -9.5 -232.5t-69 -164.5t-169.5 -45q-8 0 -23.5 1t-23.5 1q45 229 51 422q-119 -8 -193 -9q-135 0 -180 56.5t-45 167.5z" />
<glyph unicode="&#xb2;" horiz-adv-x="843" d="M-10 541q0 45 18 96q39 94 142 115q340 279 339 473q0 53 -28.5 83.5t-64.5 30.5t-61.5 -26.5t-25.5 -85t51 -121.5q-27 -8 -61 -8q-74 0 -124 43t-50 126t74.5 148.5t208 65.5t221.5 -62.5t88 -178.5t-90 -243t-267 -243h115q129 0 242 51q-6 -131 -40 -186.5 t-120 -55.5l-342 25q-119 0 -225 -47z" />
<glyph unicode="&#xb3;" horiz-adv-x="843" d="M92 748.5q0 76.5 44 126t112.5 49.5t113.5 -23q-80 -43 -79 -119q0 -45 25.5 -68.5t70.5 -23.5t83 36t38 95.5t-36 103.5t-108 56q-18 -4 -55 -8l-12 80q219 37 219 194q0 47 -25.5 75t-57.5 28t-55.5 -23.5t-23.5 -77t45 -110.5q-25 -8 -74 -8.5t-94 39.5t-45 114 t68.5 134.5t188.5 60.5t200 -56.5t80 -168t-135 -197.5q68 -29 107.5 -89.5t39.5 -129.5q0 -106 -99.5 -198.5t-249 -92.5t-218 62.5t-68.5 139z" />
<glyph unicode="&#xb4;" horiz-adv-x="761" d="M180 1335q55 125 176 259.5t236 181.5q123 -78 129 -220q-129 -35 -253 -117.5t-202 -170.5q-33 6 -57.5 25t-28.5 42z" />
<glyph unicode="&#xb5;" horiz-adv-x="1241" d="M45 -334q0 117 84 564.5t84 715.5q0 119 -29 225q170 0 247 -44t77 -175q0 -70 -43 -276.5t-43 -310.5q0 -152 82 -152q41 0 94 56.5t102.5 149.5t83 233.5t33.5 284.5t-12 245q61 4 86 4q106 0 161.5 -39t55.5 -143q0 -33 -39 -288t-39 -437.5t39 -321.5 q-154 49 -213 139t-59 223q0 51 22 232q-70 -256 -190.5 -402.5t-298.5 -146.5q-53 -287 -53.5 -439.5t16.5 -191.5q-141 37 -194.5 107.5t-53.5 187.5z" />
<glyph unicode="&#xb6;" d="M147 1126.5q0 225.5 138.5 381t392.5 155.5q211 0 323.5 -107.5t112.5 -322.5q0 -90 -75.5 -754.5t-75.5 -967.5q0 -66 8 -185q-160 8 -214.5 61.5t-54.5 221.5q0 90 19 248l37 290q16 133 28 244q-311 125 -475 317.5t-164 418zM350 -399.5q0 151.5 42 466.5l52 390 q86 -82 224 -150l-27 -198q-16 -121 -23 -183q-23 -188 -22.5 -350t57.5 -229q-156 6 -229.5 54t-73.5 199.5zM444 1174.5q0 -150.5 104.5 -299t262.5 -228.5q61 621 61 750q-59 102 -185 102t-184.5 -87t-58.5 -237.5z" />
<glyph unicode="&#xb7;" horiz-adv-x="620" d="M164 616q0 41 37 175q72 20 145 20q152 0 152 -127q0 -41 -37 -174q-72 -20 -146 -21q-151 0 -151 127z" />
<glyph unicode="&#xb8;" horiz-adv-x="598" d="M102 -487q98 18 154.5 70t56.5 118q0 98 -120 141q2 39 32 76q139 -8 205 -70.5t66 -169t-77 -205t-206 -135.5q-111 42 -111 175z" />
<glyph unicode="&#xb9;" horiz-adv-x="843" d="M139 1319q246 66 459 164q-57 -520 -57 -696.5t4 -237.5q-41 -6 -101.5 -6t-96.5 36.5t-36 95t9.5 152t23.5 206t18 159.5q-86 -47 -116 -47q-49 0 -78 64.5t-29 109.5z" />
<glyph unicode="&#xba;" horiz-adv-x="778" d="M53 1201q0 159 78 277.5t209 151.5q27 0 46.5 -14t19.5 -35q55 29 125.5 29t128 -75t57.5 -200q0 -180 -97.5 -320.5t-285.5 -140.5q-113 0 -197 84t-84 243zM268 1182q0 -193 92 -193q72 0 115 100.5t43 227.5q0 178 -69.5 178t-125 -101t-55.5 -212z" />
<glyph unicode="&#xbb;" horiz-adv-x="1306" d="M61 236q61 20 122 87.5t135.5 178t103.5 147.5q-23 39 -74 148.5t-97 177t-101 88.5q147 113 235 113q57 0 100 -70t64.5 -157t58.5 -172t82 -107l-6 -41q-88 -41 -197 -281q-41 -86 -99 -155.5t-116 -69.5q-88 0 -211 113zM555 236q61 20 121.5 87.5t135.5 178 t103 147.5q-23 39 -73.5 148.5t-97 177t-101.5 88.5q147 113 236 113q57 0 100 -70t64.5 -157t58.5 -172t82 -107l-6 -41q-72 -33 -162 -207q-35 -72 -74 -139q-86 -160 -175 -160t-212 113z" />
<glyph unicode="&#xbc;" horiz-adv-x="1720" d="M90 1212q246 66 459 164q-57 -520 -57 -696t4 -238q-41 -6 -101.5 -6t-96.5 37t-36 95.5t9.5 151.5t23.5 205.5t18 159.5q-86 -47 -116 -47q-49 0 -78 64.5t-29 109.5zM473 29q0 92 113 384l242 636q130 344 161 524q16 -8 39 -23.5t60.5 -70t37.5 -126t-96 -347.5 l-208 -621q-112 -344 -140 -553q-20 0 -64.5 16.5t-72 35t-50 57.5t-22.5 88zM936 233q0 43 59 136q207 322 256 553q66 -23 119 -68t53 -89t-35.5 -108.5t-111.5 -174t-121 -189.5q66 2 172 10q12 76 12 191q45 8 101 8q102 0 102 -84q0 -25 -12 -99l69 9q14 -57 15 -88 q0 -111 -107 -119q0 -127 13 -187q-41 -6 -101.5 -6t-96.5 37t-36 80t8 78q-276 4 -321 20q-37 47 -37 90z" />
<glyph unicode="&#xbd;" horiz-adv-x="1720" d="M90 1212q246 66 459 164q-57 -520 -57 -696t4 -238q-41 -6 -101.5 -6t-96.5 37t-36 95.5t9.5 151.5t23.5 205.5t18 159.5q-86 -47 -116 -47q-49 0 -78 64.5t-29 109.5zM473 29q0 92 113 384l242 636q130 344 161 524q16 -8 39 -23.5t60.5 -70t37.5 -126t-96 -347.5 l-208 -621q-112 -344 -140 -553q-20 0 -64.5 16.5t-72 35t-50 57.5t-22.5 88zM920 -74q0 45 18 97q39 94 141 114q340 279 340 473q0 53 -28.5 84t-64.5 31t-61.5 -26.5t-25.5 -85t51 -121.5q-27 -8 -61 -9q-74 0 -124 43t-50 126t74.5 148.5t207.5 65.5t221.5 -62.5 t88.5 -178t-90.5 -242.5t-266.5 -244h115q129 0 242 51q-6 -131 -40 -186t-120 -55l-342 24q-119 0 -225 -47z" />
<glyph unicode="&#xbe;" horiz-adv-x="1720" d="M43 642q0 77 44 126t112.5 49t113.5 -22q-80 -43 -80 -119q0 -45 26 -68.5t71 -23.5t83 35.5t38 95t-36 103.5t-108 56q-18 -4 -55 -8l-12 80q219 37 219 195q0 47 -25.5 74.5t-57.5 27.5t-55.5 -23.5t-23.5 -76.5t45 -111q-25 -8 -74 -8t-94 40t-45 113.5t68.5 134 t188.5 60.5t200 -56t80 -168t-136 -198q68 -29 108 -89t40 -130q0 -106 -99.5 -198.5t-249 -92.5t-218 62.5t-68.5 139.5zM549 29q0 92 113 384l242 636q130 344 161 524q16 -8 38.5 -23.5t60.5 -70t38 -126t-96 -347.5l-208 -621q-112 -344 -140 -553q-20 0 -64.5 16.5 t-72 35t-50 57.5t-22.5 88zM967 233q0 43 59 136q207 322 256 553q66 -23 119 -68t53 -89t-36 -108.5t-111.5 -174t-120.5 -189.5q66 2 172 10q12 76 12 191q45 8 100 8q102 0 103 -84q0 -25 -12 -99l69 9q14 -57 15 -88q0 -111 -107 -119q0 -127 12 -187q-41 -6 -101 -6 t-96 37t-36 80t8 78q-276 4 -321 20q-37 47 -37 90z" />
<glyph unicode="&#xbf;" horiz-adv-x="763" d="M-123 -129q0 102 52.5 187t126 144.5t149.5 112.5q178 127 178 248q0 74 -23 127q250 -66 250 -241q0 -135 -164 -263l-138 -106q-69 -53 -117 -122t-48 -141.5t46.5 -111.5t123 -39t125.5 56.5t49 134t-51 139.5q43 16 109.5 16t122 -53t55.5 -141q0 -131 -132 -213 t-303 -82t-291 88t-120 260zM315 940q0 41 37 174q72 20 146 21q152 0 151 -127q0 -41 -37 -174q-72 -20 -145 -21q-152 0 -152 127z" />
<glyph unicode="&#xc0;" horiz-adv-x="1320" d="M-41 90q0 39 119 291l269 572q151 321 204 466l37 101q-16 29 -80 104q74 25 128 25t90 -8.5t63.5 -28t49 -40t40 -60t31 -71.5t27.5 -89.5t25 -99.5l24 -116q15 -75 31.5 -144.5t57.5 -265.5t64.5 -293t67.5 -218t93 -190q-119 -57 -192.5 -57.5t-108 37.5t-59.5 115 t-96 412q-47 -41 -154 -45l-350 -12q-125 -305 -184 -543q-197 70 -197 158zM406 627h419q-96 442 -143 620l-126 -279q-97 -214 -150 -341zM485 2025q6 141 129 220q115 -47 236 -181.5t176 -259.5q-4 -23 -28.5 -42t-57.5 -25q-78 88 -202 170.5t-253 117.5z" />
<glyph unicode="&#xc1;" horiz-adv-x="1320" d="M-41 90q0 39 119 291l269 572q151 321 204 466l37 101q-16 29 -80 104q74 25 128 25t90 -8.5t63.5 -28t49 -40t40 -60t31 -71.5t27.5 -89.5t25 -99.5l24 -116q15 -75 31.5 -144.5t57.5 -265.5t64.5 -293t67.5 -218t93 -190q-119 -57 -192.5 -57.5t-108 37.5t-59.5 115 t-96 412q-47 -41 -154 -45l-350 -12q-125 -305 -184 -543q-197 70 -197 158zM406 627h419q-96 442 -143 620l-126 -279q-97 -214 -150 -341zM473 1804q55 125 176 259.5t236 181.5q123 -78 129 -220q-129 -35 -253 -117.5t-202 -170.5q-33 6 -57.5 25t-28.5 42z" />
<glyph unicode="&#xc2;" horiz-adv-x="1320" d="M-41 90q0 39 119 291l269 572q151 321 204 466l37 101q-16 29 -80 104q74 25 128 25t90 -8.5t63.5 -28t49 -40t40 -60t31 -71.5t27.5 -89.5t25 -99.5l24 -116q15 -75 31.5 -144.5t57.5 -265.5t64.5 -293t67.5 -218t93 -190q-119 -57 -192.5 -57.5t-108 37.5t-59.5 115 t-96 412q-47 -41 -154 -45l-350 -12q-125 -305 -184 -543q-197 70 -197 158zM391 1921q168 104 252 188l47 48q12 12 45 52t41 48q74 0 113 -41t53 -98.5t57 -151.5t113 -170q-76 -23 -157 -22.5t-115.5 44.5t-69.5 181q-106 -164 -274 -260q-103 69 -105 182zM406 627h419 q-96 442 -143 620l-126 -279q-97 -214 -150 -341z" />
<glyph unicode="&#xc3;" horiz-adv-x="1320" d="M-41 90q0 39 119 291l269 572q151 321 204 466l37 101q-16 29 -80 104q74 25 128 25t90 -8.5t63.5 -28t49 -40t40 -60t31 -71.5t27.5 -89.5t25 -99.5l24 -116q15 -75 31.5 -144.5t57.5 -265.5t64.5 -293t67.5 -218t93 -190q-119 -57 -192.5 -57.5t-108 37.5t-59.5 115 t-96 412q-47 -41 -154 -45l-350 -12q-125 -305 -184 -543q-197 70 -197 158zM403 1849q16 141 75 203t126.5 62t164.5 -29t136 -29q98 0 154 88q47 -8 55 -49q-16 -141 -74.5 -202.5t-126 -61.5t-165 28.5t-136.5 28.5q-98 0 -153 -88q-48 8 -56 49zM406 627h419 q-96 442 -143 620l-126 -279q-97 -214 -150 -341z" />
<glyph unicode="&#xc4;" horiz-adv-x="1320" d="M-41 90q0 39 119 291l269 572q151 321 204 466l37 101q-16 29 -80 104q74 25 128 25t90 -8.5t63.5 -28t49 -40t40 -60t31 -71.5t27.5 -89.5t25 -99.5l24 -116q15 -75 31.5 -144.5t57.5 -265.5t64.5 -293t67.5 -218t93 -190q-119 -57 -192.5 -57.5t-108 37.5t-59.5 115 t-96 412q-47 -41 -154 -45l-350 -12q-125 -305 -184 -543q-197 70 -197 158zM375 1982q0 53 31 146q57 8 100 8q211 0 211 -147q0 -53 -31 -146q-57 -8 -100 -8q-211 0 -211 147zM406 627h419q-96 442 -143 620l-126 -279q-97 -214 -150 -341zM805 1982q0 53 31 146 q57 8 100 8q211 0 211 -147q0 -53 -31 -146q-57 -8 -100 -8q-211 0 -211 147z" />
<glyph unicode="&#xc5;" horiz-adv-x="1320" d="M-41 90q0 39 119 291l269 572q151 321 204 466l37 101q-16 29 -80 104q74 25 128 25t90 -8.5t63.5 -28t49 -40t40 -60t31 -71.5t27.5 -89.5t25 -99.5l24 -116q15 -75 31.5 -144.5t57.5 -265.5t64.5 -293t67.5 -218t93 -190q-119 -57 -192.5 -57.5t-108 37.5t-59.5 115 t-96 412q-47 -41 -154 -45l-350 -12q-125 -305 -184 -543q-197 70 -197 158zM406 627h419q-96 442 -143 620l-126 -279q-97 -214 -150 -341zM506 1931q0 96 57 269q123 35 225 34q231 0 232 -198q0 -96 -57 -269q-123 -35 -226 -34q-231 -1 -231 198zM676 1966q0 -68 80 -68 q39 0 73 11q20 82 21 92q0 68 -80 67q-39 0 -74 -10q-20 -82 -20 -92z" />
<glyph unicode="&#xc6;" horiz-adv-x="1927" d="M-51 90q0 41 131 287l307 564q176 318 240 454l106 223q231 -31 568 -31t595 49q-25 -170 -155 -227q-109 -45 -261.5 -45t-250.5 8q-2 -55 -64 -508h172q195 0 277 68q4 -41 4 -62q0 -186 -139 -186l-197 2q-82 0 -137 -2q-31 -272 -33 -467q481 0 715 78 q-18 -152 -92 -236t-185 -84q-33 0 -198.5 17.5t-320 17.5t-310.5 -35q23 96 98 158v8q0 117 62 533q-250 -18 -349 -62q-4 45 -4 68q0 113 71 151.5t204 38.5h104q43 319 49 533q-72 10 -112 20q-51 -125 -199 -403q-391 -743 -500 -1088q-196 70 -196 158z" />
<glyph unicode="&#xc7;" horiz-adv-x="1406" d="M92 690q0 393 203 670q100 133 257 212t362.5 79t313 -109.5t107.5 -258t-82 -242t-213 -93.5q-45 0 -104 17q43 53 75.5 151t32.5 186.5t-40.5 143.5t-129.5 55q-135 0 -243.5 -125t-161.5 -307t-53 -377q0 -262 102.5 -397t261.5 -135q100 0 209 67.5t207 192.5 q76 -16 76 -76q-78 -141 -190.5 -229t-213 -117t-206.5 -29q-242 0 -406 184.5t-164 536.5zM389 -487q98 18 154.5 70t56.5 118q0 98 -121 141q2 39 33 76q139 -8 204.5 -70.5t65.5 -169t-76.5 -205t-205.5 -135.5q-111 42 -111 175z" />
<glyph unicode="&#xc8;" horiz-adv-x="1292" d="M86 -25q23 96 98 158v8q0 111 58 504l-88 -33q-4 45 -4 68q0 137 120 174q37 270 49 487q-76 4 -96 35t-20 121q6 92 16 121q229 -31 507 -31t536 49q-29 -215 -263 -258q-137 -27 -407 -35q-2 -23 -60 -475q123 -4 170 -4q195 0 277 68q4 -41 4 -62q0 -186 -139 -186 l-197 2q-90 0 -137 -2q-31 -272 -33 -467q481 0 715 78q-18 -152 -92 -236t-185 -84q-33 0 -183 17.5t-318 17.5t-328 -35zM496 2025q6 141 129 220q115 -47 235.5 -181.5t175.5 -259.5q-4 -23 -28.5 -42t-57.5 -25q-78 88 -201.5 170.5t-252.5 117.5z" />
<glyph unicode="&#xc9;" horiz-adv-x="1292" d="M86 -25q23 96 98 158v8q0 111 58 504l-88 -33q-4 45 -4 68q0 137 120 174q37 270 49 487q-76 4 -96 35t-20 121q6 92 16 121q229 -31 507 -31t536 49q-29 -215 -263 -258q-137 -27 -407 -35q-2 -23 -60 -475q123 -4 170 -4q195 0 277 68q4 -41 4 -62q0 -186 -139 -186 l-197 2q-90 0 -137 -2q-31 -272 -33 -467q481 0 715 78q-18 -152 -92 -236t-185 -84q-33 0 -183 17.5t-318 17.5t-328 -35zM586 1804q55 125 176 259.5t235 181.5q123 -78 129 -220q-129 -35 -252.5 -117.5t-201.5 -170.5q-33 6 -57.5 25t-28.5 42z" />
<glyph unicode="&#xca;" horiz-adv-x="1292" d="M86 -25q23 96 98 158v8q0 111 58 504l-88 -33q-4 45 -4 68q0 137 120 174q37 270 49 487q-76 4 -96 35t-20 121q6 92 16 121q229 -31 507 -31t536 49q-29 -215 -263 -258q-137 -27 -407 -35q-2 -23 -60 -475q123 -4 170 -4q195 0 277 68q4 -41 4 -62q0 -186 -139 -186 l-197 2q-90 0 -137 -2q-31 -272 -33 -467q481 0 715 78q-18 -152 -92 -236t-185 -84q-33 0 -183 17.5t-318 17.5t-328 -35zM406 1921q168 104 251 188l48 48q12 12 44.5 52t41.5 48q74 0 112.5 -41t53 -98.5t57.5 -151.5t112 -170q-76 -23 -156.5 -22.5t-115.5 44.5t-70 181 q-106 -164 -274 -260q-102 69 -104 182z" />
<glyph unicode="&#xcb;" horiz-adv-x="1292" d="M86 -25q23 96 98 158v8q0 111 58 504l-88 -33q-4 45 -4 68q0 137 120 174q37 270 49 487q-76 4 -96 35t-20 121q6 92 16 121q229 -31 507 -31t536 49q-29 -215 -263 -258q-137 -27 -407 -35q-2 -23 -60 -475q123 -4 170 -4q195 0 277 68q4 -41 4 -62q0 -186 -139 -186 l-197 2q-90 0 -137 -2q-31 -272 -33 -467q481 0 715 78q-18 -152 -92 -236t-185 -84q-33 0 -183 17.5t-318 17.5t-328 -35zM399 1982q0 53 31 146q57 8 100 8q211 0 211 -147q0 -53 -30 -146q-57 -8 -101 -8q-211 0 -211 147zM829 1982q0 53 31 146q57 8 101 8 q211 0 210 -147q0 -53 -30 -146q-57 -8 -101 -8q-211 0 -211 147z" />
<glyph unicode="&#xcc;" horiz-adv-x="704" d="M154 264q0 78 43 395q76 526 75 816q0 61 -8 167q156 -8 228 -49q31 -16 47 -50t19 -62.5t3 -104.5t-67.5 -538.5t-67.5 -648t29 -252.5q-174 45 -237.5 119.5t-63.5 207.5zM156 2025q6 141 129 220q115 -47 235.5 -181.5t175.5 -259.5q-4 -23 -28.5 -42t-57.5 -25 q-78 88 -201.5 170.5t-252.5 117.5z" />
<glyph unicode="&#xcd;" horiz-adv-x="704" d="M154 264q0 78 43 395q76 526 75 816q0 61 -8 167q156 -8 228 -49q31 -16 47 -50t19 -62.5t3 -104.5t-67.5 -538.5t-67.5 -648t29 -252.5q-174 45 -237.5 119.5t-63.5 207.5zM182 1804q55 125 176 259.5t236 181.5q123 -78 129 -220q-129 -35 -253 -117.5t-202 -170.5 q-33 6 -57.5 25t-28.5 42z" />
<glyph unicode="&#xce;" horiz-adv-x="704" d="M66 1921q168 104 251 188l48 48q12 12 44.5 52t41.5 48q74 0 112.5 -41t53 -98.5t57.5 -151.5t112 -170q-76 -23 -156.5 -22.5t-115.5 44.5t-70 181q-106 -164 -274 -260q-102 69 -104 182zM154 264q0 78 43 395q76 526 75 816q0 61 -8 167q156 -8 228 -49q31 -16 47 -50 t19 -62.5t3 -104.5t-67.5 -538.5t-67.5 -648t29 -252.5q-174 45 -237.5 119.5t-63.5 207.5z" />
<glyph unicode="&#xcf;" horiz-adv-x="704" d="M72 1982q0 53 30 146q57 8 101 8q211 0 211 -147q0 -53 -31 -146q-57 -8 -100 -8q-211 0 -211 147zM154 264q0 78 43 395q76 526 75 816q0 61 -8 167q156 -8 228 -49q31 -16 47 -50t19 -62.5t3 -104.5t-67.5 -538.5t-67.5 -648t29 -252.5q-174 45 -237.5 119.5 t-63.5 207.5zM502 1982q0 53 30 146q57 8 101 8q211 0 211 -147q0 -53 -31 -146q-57 -8 -100 -8q-211 0 -211 147z" />
<glyph unicode="&#xd0;" horiz-adv-x="1556" d="M35 897q0 8 1 23.5t1 23.5q143 -23 252.5 -22.5t258 14.5t253 14t143.5 -56t39 -167q0 -8 -1 -23.5t-1 -23.5q-143 23 -253 22.5t-258 -14.5t-252.5 -14t-143.5 56t-39 167zM154 109q2 16 45 305q90 602 90 1091q0 162 -29 230q219 -57 275 -181q182 88 342 88 q283 0 444.5 -223t161.5 -561q0 -281 -125 -500q-139 -244 -391 -338q-137 -51 -289 -51t-280 35t-185 70zM453 154q80 -31 178 -31q178 0 308 114.5t188.5 280.5t58.5 352q0 262 -112.5 428t-303.5 166q-119 0 -209 -37q0 -125 -54 -628.5t-54 -644.5z" />
<glyph unicode="&#xd1;" horiz-adv-x="1681" d="M123 1583q98 59 188 59q180 0 264 -117.5t314 -580.5l75 -154l80 -167q72 -154 154 -289q6 80 56.5 490.5t50.5 650.5q0 63 -9 165q143 0 192.5 -32.5t49.5 -91.5q0 -23 -67.5 -572t-67.5 -760q0 -76 4 -110q16 -14 53 -35q-127 -82 -235.5 -82t-188.5 121 q-37 53 -246 456l-298 560q-8 -70 -37 -267q-55 -397 -56 -667q0 -63 9 -170q-143 0 -193.5 33.5t-50.5 95.5q0 18 67.5 549.5t69.5 744.5l-18 27q-51 76 -136 127q-20 12 -24 16zM614 1849q16 141 75 203t126.5 62t164.5 -29t136 -29q98 0 154 88q47 -8 55 -49 q-16 -141 -74.5 -202.5t-126 -61.5t-165 28.5t-136.5 28.5q-98 0 -153 -88q-48 8 -56 49z" />
<glyph unicode="&#xd2;" horiz-adv-x="1642" d="M102 792.5q0 327.5 163 583.5t435 324q16 -4 32 -16.5t18 -26.5q-264 -193 -320 -524q86 242 259 378t372 136t339 -171t140 -495q0 -317 -119 -571q-61 -135 -153 -236.5t-230.5 -163t-302.5 -61.5t-287.5 73.5t-197.5 196.5q-148 246 -148 573.5zM420 676 q0 -256 85 -420t257 -164q143 0 252.5 126t163 312.5t53.5 391.5q0 287 -79 415.5t-215 128.5t-258 -119.5t-190.5 -302t-68.5 -368.5zM670 2025q6 141 129 220q115 -47 235.5 -181.5t175.5 -259.5q-4 -23 -28.5 -42t-57.5 -25q-78 88 -201.5 170.5t-252.5 117.5z" />
<glyph unicode="&#xd3;" horiz-adv-x="1642" d="M102 792.5q0 327.5 163 583.5t435 324q16 -4 32 -16.5t18 -26.5q-264 -193 -320 -524q86 242 259 378t372 136t339 -171t140 -495q0 -317 -119 -571q-61 -135 -153 -236.5t-230.5 -163t-302.5 -61.5t-287.5 73.5t-197.5 196.5q-148 246 -148 573.5zM420 676 q0 -256 85 -420t257 -164q143 0 252.5 126t163 312.5t53.5 391.5q0 287 -79 415.5t-215 128.5t-258 -119.5t-190.5 -302t-68.5 -368.5zM780 1804q55 125 176 259.5t236 181.5q123 -78 129 -220q-129 -35 -253 -117.5t-202 -170.5q-33 6 -57.5 25t-28.5 42z" />
<glyph unicode="&#xd4;" horiz-adv-x="1642" d="M102 792.5q0 327.5 163 583.5t435 324q16 -4 32 -16.5t18 -26.5q-264 -193 -320 -524q86 242 259 378t372 136t339 -171t140 -495q0 -317 -119 -571q-61 -135 -153 -236.5t-230.5 -163t-302.5 -61.5t-287.5 73.5t-197.5 196.5q-148 246 -148 573.5zM420 676 q0 -256 85 -420t257 -164q143 0 252.5 126t163 312.5t53.5 391.5q0 287 -79 415.5t-215 128.5t-258 -119.5t-190.5 -302t-68.5 -368.5zM705 1921q168 104 251 188l48 48q12 12 44.5 52t41.5 48q74 0 112.5 -41t53 -98.5t57.5 -151.5t112 -170q-76 -23 -156.5 -22.5 t-115.5 44.5t-70 181q-106 -164 -274 -260q-102 69 -104 182z" />
<glyph unicode="&#xd5;" horiz-adv-x="1642" d="M102 792.5q0 327.5 163 583.5t435 324q16 -4 32 -16.5t18 -26.5q-264 -193 -320 -524q86 242 259 378t372 136t339 -171t140 -495q0 -317 -119 -571q-61 -135 -153 -236.5t-230.5 -163t-302.5 -61.5t-287.5 73.5t-197.5 196.5q-148 246 -148 573.5zM420 676 q0 -256 85 -420t257 -164q143 0 252.5 126t163 312.5t53.5 391.5q0 287 -79 415.5t-215 128.5t-258 -119.5t-190.5 -302t-68.5 -368.5zM707 1849q16 141 74.5 203t126 62t164.5 -29t136 -29q98 0 154 88q47 -8 55 -49q-16 -141 -74.5 -202.5t-126 -61.5t-165 28.5 t-136.5 28.5q-98 0 -153 -88q-47 8 -55 49z" />
<glyph unicode="&#xd6;" horiz-adv-x="1642" d="M102 792.5q0 327.5 163 583.5t435 324q16 -4 32 -16.5t18 -26.5q-264 -193 -320 -524q86 242 259 378t372 136t339 -171t140 -495q0 -317 -119 -571q-61 -135 -153 -236.5t-230.5 -163t-302.5 -61.5t-287.5 73.5t-197.5 196.5q-148 246 -148 573.5zM420 676 q0 -256 85 -420t257 -164q143 0 252.5 126t163 312.5t53.5 391.5q0 287 -79 415.5t-215 128.5t-258 -119.5t-190.5 -302t-68.5 -368.5zM670 1982q0 53 30 146q57 8 101 8q211 0 211 -147q0 -53 -31 -146q-57 -8 -100 -8q-211 0 -211 147zM1100 1982q0 53 30 146q57 8 101 8 q211 0 211 -147q0 -53 -31 -146q-57 -8 -100 -8q-211 0 -211 147z" />
<glyph unicode="&#xd7;" d="M131 332q109 102 326 375l-23 18q-104 84 -151 125t-90 98.5t-43 104.5t19 82.5t69 93.5q111 -117 374 -328l21 25q86 109 129 157q111 127 201 127q45 0 80.5 -19.5t93.5 -68.5q-111 -104 -215 -234l-115 -143l24 -18q109 -86 158 -129q127 -111 127 -201 q0 -45 -19.5 -80.5t-68.5 -93.5q-113 117 -377 328l-16 -23q-84 -104 -125 -151t-98.5 -90t-104.5 -43t-83 19.5t-93 68.5z" />
<glyph unicode="&#xd8;" horiz-adv-x="1642" d="M102 792.5q0 327.5 163 583.5t435 324q16 -4 32 -16.5t18 -26.5q-264 -193 -320 -524q86 242 259 378t372 136t339 -171t140 -495q0 -317 -119 -571q-61 -135 -153 -236.5t-230.5 -163t-302.5 -61.5t-287.5 73.5t-197.5 196.5q-148 246 -148 573.5zM356 -49q0 92 170 486 l358 840q187 445 218 628q16 -6 50 -30t56 -44q55 -57 55.5 -136t-153.5 -460l-323 -826q-169 -445 -197 -655q-23 0 -72 16.5t-79.5 35t-56.5 57.5t-26 88zM420 676q0 -256 85 -420t257 -164q143 0 252.5 126t163 312.5t53.5 391.5q0 287 -79 415.5t-215 128.5t-258 -119.5 t-190.5 -302t-68.5 -368.5z" />
<glyph unicode="&#xd9;" horiz-adv-x="1546" d="M143 451q0 145 46.5 524t46.5 492.5t-23 174.5q170 -43 234.5 -113.5t64.5 -198.5t-41 -407.5t-41 -450.5t49 -242.5t137 -71.5q104 0 203 92q201 190 262 731v4q33 285 33 418t-8 239q156 -8 227 -49q31 -16 47.5 -50t19.5 -62.5t3 -104.5t-67.5 -538.5t-67.5 -648 t28 -252.5q-174 45 -237.5 119.5t-63.5 207.5q0 41 2 64q-186 -369 -510 -369q-172 0 -258 118t-86 374zM502 2025q6 141 129 220q115 -47 235.5 -181.5t175.5 -259.5q-4 -23 -28.5 -42t-57.5 -25q-78 88 -201.5 170.5t-252.5 117.5z" />
<glyph unicode="&#xda;" horiz-adv-x="1546" d="M143 451q0 145 46.5 524t46.5 492.5t-23 174.5q170 -43 234.5 -113.5t64.5 -198.5t-41 -407.5t-41 -450.5t49 -242.5t137 -71.5q104 0 203 92q201 190 262 731v4q33 285 33 418t-8 239q156 -8 227 -49q31 -16 47.5 -50t19.5 -62.5t3 -104.5t-67.5 -538.5t-67.5 -648 t28 -252.5q-174 45 -237.5 119.5t-63.5 207.5q0 41 2 64q-186 -369 -510 -369q-172 0 -258 118t-86 374zM608 1804q55 125 176 259.5t236 181.5q123 -78 129 -220q-129 -35 -253 -117.5t-202 -170.5q-33 6 -57.5 25t-28.5 42z" />
<glyph unicode="&#xdb;" horiz-adv-x="1546" d="M143 451q0 145 46.5 524t46.5 492.5t-23 174.5q170 -43 234.5 -113.5t64.5 -198.5t-41 -407.5t-41 -450.5t49 -242.5t137 -71.5q104 0 203 92q201 190 262 731v4q33 285 33 418t-8 239q156 -8 227 -49q31 -16 47.5 -50t19.5 -62.5t3 -104.5t-67.5 -538.5t-67.5 -648 t28 -252.5q-174 45 -237.5 119.5t-63.5 207.5q0 41 2 64q-186 -369 -510 -369q-172 0 -258 118t-86 374zM492 1921q168 104 251 188l48 48q12 12 44.5 52t41.5 48q74 0 112.5 -41t53 -98.5t57.5 -151.5t112 -170q-76 -23 -156.5 -22.5t-115.5 44.5t-70 181 q-106 -164 -274 -260q-102 69 -104 182z" />
<glyph unicode="&#xdc;" horiz-adv-x="1546" d="M143 451q0 145 46.5 524t46.5 492.5t-23 174.5q170 -43 234.5 -113.5t64.5 -198.5t-41 -407.5t-41 -450.5t49 -242.5t137 -71.5q104 0 203 92q201 190 262 731v4q33 285 33 418t-8 239q156 -8 227 -49q31 -16 47.5 -50t19.5 -62.5t3 -104.5t-67.5 -538.5t-67.5 -648 t28 -252.5q-174 45 -237.5 119.5t-63.5 207.5q0 41 2 64q-186 -369 -510 -369q-172 0 -258 118t-86 374zM487 1982q0 53 31 146q57 8 100 8q211 0 211 -147q0 -53 -30 -146q-57 -8 -101 -8q-211 0 -211 147zM918 1982q0 53 30 146q57 8 101 8q211 0 211 -147q0 -53 -31 -146 q-57 -8 -101 -8q-210 0 -210 147z" />
<glyph unicode="&#xdd;" horiz-adv-x="1157" d="M16 1591q84 53 177 54q49 0 82.5 -9.5t66.5 -42t56.5 -84t52.5 -149.5q49 -156 124 -533l15 -79q188 293 306 553t138 405q154 -86 154 -227q0 -152 -518 -899q-33 -276 -33 -426t29 -217q-174 45 -237.5 119.5t-63.5 188t30 324.5q-219 782 -379 1022zM508 1804 q55 125 176 259.5t236 181.5q123 -78 129 -220q-129 -35 -253 -117.5t-202 -170.5q-33 6 -57.5 25t-28.5 42z" />
<glyph unicode="&#xde;" horiz-adv-x="1271" d="M164 143.5q0 96.5 68.5 582.5t68.5 694t-29 272q143 -10 222 -87t79 -206q0 -53 -10 -150q147 68 299 68q203 0 312.5 -118t109.5 -290q0 -213 -158 -385q-74 -82 -193.5 -133t-264.5 -51q-61 0 -117 8l-6 86q217 0 348 133t131 303q0 119 -72.5 197t-210.5 80 q-92 0 -196 -45q-2 -16 -15.5 -109.5t-17.5 -129.5t-15.5 -123t-16.5 -142t-11 -135q-12 -156 -12 -289t12 -205q-66 -4 -86 -4q-117 0 -168 41t-51 137.5z" />
<glyph unicode="&#xdf;" horiz-adv-x="1460" d="M72 944q0 111 68.5 150t195.5 41q43 176 112.5 304t151.5 195q154 127 336 127t280.5 -97t98.5 -236.5t-85 -271.5t-231 -214l2 -10q197 -12 307.5 -143.5t110.5 -307.5q0 -217 -149.5 -383t-401.5 -166q-158 0 -237.5 77t-79.5 182.5t64.5 183.5t164.5 78q49 0 99 -21 q-31 -35 -57.5 -109.5t-26.5 -138.5q0 -125 104 -125q90 0 151.5 121t61.5 275.5t-79 265t-234 110.5l-37 93q139 86 220 212t81 240.5t-45 174t-127 59.5q-117 0 -206 -137.5t-126 -434.5q-6 -55 -25.5 -207.5t-29.5 -246.5q-33 -266 -33 -421t5 -209t28 -185 q-147 47 -217 152.5t-70 248.5q0 285 82 776q-113 -20 -223 -69q-4 44 -4 67z" />
<glyph unicode="&#xe0;" horiz-adv-x="1300" d="M78 364.5q0 186.5 66.5 361.5t199.5 297t297 122q94 0 193 -45q-207 -74 -330 -290t-123 -423q0 -96 36 -156.5t101 -60.5q96 0 183 112.5t139.5 289t52.5 335t-12 256.5q61 4 86 4q104 0 157.5 -38.5t53.5 -139.5q0 -39 -49.5 -316.5t-49.5 -444.5t64 -296 q-154 27 -225.5 114t-71.5 251q0 29 8 111q-55 -195 -196.5 -314t-277.5 -119t-219 101.5t-83 288zM489 1556q6 141 129 220q115 -47 236 -181.5t176 -259.5q-4 -23 -28.5 -42t-57.5 -25q-78 88 -202 170.5t-253 117.5z" />
<glyph unicode="&#xe1;" horiz-adv-x="1300" d="M78 364.5q0 186.5 66.5 361.5t199.5 297t297 122q94 0 193 -45q-207 -74 -330 -290t-123 -423q0 -96 36 -156.5t101 -60.5q96 0 183 112.5t139.5 289t52.5 335t-12 256.5q61 4 86 4q104 0 157.5 -38.5t53.5 -139.5q0 -39 -49.5 -316.5t-49.5 -444.5t64 -296 q-154 27 -225.5 114t-71.5 251q0 29 8 111q-55 -195 -196.5 -314t-277.5 -119t-219 101.5t-83 288zM573 1335q55 125 176 259.5t236 181.5q123 -78 129 -220q-129 -35 -253 -117.5t-202 -170.5q-33 6 -57.5 25t-28.5 42z" />
<glyph unicode="&#xe2;" horiz-adv-x="1300" d="M78 364.5q0 186.5 66.5 361.5t199.5 297t297 122q94 0 193 -45q-207 -74 -330 -290t-123 -423q0 -96 36 -156.5t101 -60.5q96 0 183 112.5t139.5 289t52.5 335t-12 256.5q61 4 86 4q104 0 157.5 -38.5t53.5 -139.5q0 -39 -49.5 -316.5t-49.5 -444.5t64 -296 q-154 27 -225.5 114t-71.5 251q0 29 8 111q-55 -195 -196.5 -314t-277.5 -119t-219 101.5t-83 288zM471 1452q168 104 252 188l47 48q12 12 45 52t41 48q74 0 113 -41t53 -98.5t57 -151.5t113 -170q-76 -23 -157 -22.5t-115.5 44.5t-69.5 181q-106 -164 -275 -260 q-102 69 -104 182z" />
<glyph unicode="&#xe3;" horiz-adv-x="1300" d="M78 364.5q0 186.5 66.5 361.5t199.5 297t297 122q94 0 193 -45q-207 -74 -330 -290t-123 -423q0 -96 36 -156.5t101 -60.5q96 0 183 112.5t139.5 289t52.5 335t-12 256.5q61 4 86 4q104 0 157.5 -38.5t53.5 -139.5q0 -39 -49.5 -316.5t-49.5 -444.5t64 -296 q-154 27 -225.5 114t-71.5 251q0 29 8 111q-55 -195 -196.5 -314t-277.5 -119t-219 101.5t-83 288zM489 1380q16 141 75 203t126.5 62t164.5 -29t136 -29q98 0 154 88q47 -8 55 -49q-16 -141 -74.5 -202.5t-126 -61.5t-165 28.5t-136.5 28.5q-98 0 -153 -88q-48 8 -56 49z " />
<glyph unicode="&#xe4;" horiz-adv-x="1323" d="M78 364.5q0 186.5 66.5 361.5t199.5 297t297 122q94 0 193 -45q-207 -74 -330 -290t-123 -423q0 -96 36 -156.5t101 -60.5q96 0 183 112.5t139.5 289t52.5 335t-12 256.5q61 4 86 4q104 0 157.5 -38.5t53.5 -139.5q0 -39 -49.5 -316.5t-49.5 -444.5t64 -296 q-154 27 -225.5 114t-71.5 251q0 29 8 111q-55 -195 -196.5 -314t-277.5 -119t-219 101.5t-83 288zM483 1513q0 53 31 146q57 8 100 8q211 0 211 -147q0 -53 -30 -146q-57 -8 -101 -8q-211 0 -211 147zM913 1513q0 53 31 146q57 8 100 8q211 0 211 -147q0 -53 -30 -146 q-57 -8 -101 -8q-211 0 -211 147z" />
<glyph unicode="&#xe5;" horiz-adv-x="1300" d="M78 364.5q0 186.5 66.5 361.5t199.5 297t297 122q94 0 193 -45q-207 -74 -330 -290t-123 -423q0 -96 36 -156.5t101 -60.5q96 0 183 112.5t139.5 289t52.5 335t-12 256.5q61 4 86 4q104 0 157.5 -38.5t53.5 -139.5q0 -39 -49.5 -316.5t-49.5 -444.5t64 -296 q-154 27 -225.5 114t-71.5 251q0 29 8 111q-55 -195 -196.5 -314t-277.5 -119t-219 101.5t-83 288zM575 1462q0 96 58 269q123 35 225 34q231 0 232 -198q0 -96 -58 -269q-123 -35 -225 -34q-232 -1 -232 198zM745 1497q0 -68 80 -67q39 0 74 10q20 82 21 92q0 68 -80 67 q-39 0 -74 -10q-21 -82 -21 -92z" />
<glyph unicode="&#xe6;" horiz-adv-x="1855" d="M78 364.5q0 186.5 66.5 361.5t199.5 297t297 122q94 0 193 -45q-207 -74 -330 -290t-123 -423q0 -96 36 -156.5t101 -60.5q96 0 183 112.5t139.5 289t52.5 335t-12 256.5q61 4 103 4t50 -30.5t8 -147.5q125 193 398 193q160 0 243.5 -82t83.5 -215q0 -193 -134 -287 t-328 -94q-98 0 -193 22q-2 -20 -2 -63q0 -170 63.5 -256t151.5 -86t168 53t139 148q74 -16 74 -76q-180 -276 -465 -277q-164 0 -272.5 91.5t-139.5 273.5q-68 -164 -198.5 -261.5t-258.5 -97.5t-211 101.5t-83 288zM1120 612h31q178 0 263 92.5t85 221.5q0 53 -27.5 91 t-80.5 38q-104 0 -176 -129.5t-95 -313.5z" />
<glyph unicode="&#xe7;" horiz-adv-x="1116" d="M102 453q0 301 166 515t449 214q158 0 237.5 -77t79.5 -182.5t-64.5 -183t-164.5 -77.5q-49 0 -98 20q31 35 57.5 109.5t26.5 138.5q0 125 -109 125q-127 0 -207 -186.5t-80 -405.5q0 -342 201 -342q78 0 158 53t139 148q74 -16 74 -76q-86 -150 -211 -213.5t-250 -63.5 q-168 0 -286 124t-118 360zM240 -487q98 18 154.5 70t56.5 118q0 98 -121 141q2 39 32 76q139 -8 205 -70.5t66 -169t-77 -205t-206 -135.5q-110 42 -110 175z" />
<glyph unicode="&#xe8;" horiz-adv-x="1146" d="M102 469q0 176 68 335t215 268.5t326.5 109.5t263.5 -82t84 -215q0 -193 -134 -287t-329 -94q-98 0 -193 22q-2 -20 -2 -63q0 -170 63.5 -256t152 -86t168 53t139.5 148q74 -16 73 -76q-180 -276 -465 -277q-172 0 -301 132t-129 368zM410 1556q6 141 129 220 q115 -47 235.5 -181.5t175.5 -259.5q-4 -23 -28.5 -42t-57.5 -25q-78 88 -201.5 170.5t-252.5 117.5zM412 612h30q178 0 263.5 92.5t85.5 221.5q0 53 -28 91t-81 38q-104 0 -175.5 -129.5t-94.5 -313.5z" />
<glyph unicode="&#xe9;" horiz-adv-x="1146" d="M102 469q0 176 68 335t215 268.5t326.5 109.5t263.5 -82t84 -215q0 -193 -134 -287t-329 -94q-98 0 -193 22q-2 -20 -2 -63q0 -170 63.5 -256t152 -86t168 53t139.5 148q74 -16 73 -76q-180 -276 -465 -277q-172 0 -301 132t-129 368zM412 612h30q178 0 263.5 92.5 t85.5 221.5q0 53 -28 91t-81 38q-104 0 -175.5 -129.5t-94.5 -313.5zM489 1335q55 125 176 259.5t236 181.5q123 -78 129 -220q-129 -35 -253 -117.5t-202 -170.5q-33 6 -57.5 25t-28.5 42z" />
<glyph unicode="&#xea;" horiz-adv-x="1146" d="M102 469q0 176 68 335t215 268.5t326.5 109.5t263.5 -82t84 -215q0 -193 -134 -287t-329 -94q-98 0 -193 22q-2 -20 -2 -63q0 -170 63.5 -256t152 -86t168 53t139.5 148q74 -16 73 -76q-180 -276 -465 -277q-172 0 -301 132t-129 368zM352 1452q168 104 252 188l47 48 q12 12 45 52t41 48q74 0 113 -41t53.5 -98.5t57.5 -151.5t112 -170q-76 -23 -156.5 -22.5t-115.5 44.5t-70 181q-106 -164 -274 -260q-103 69 -105 182zM412 612h30q178 0 263.5 92.5t85.5 221.5q0 53 -28 91t-81 38q-104 0 -175.5 -129.5t-94.5 -313.5z" />
<glyph unicode="&#xeb;" horiz-adv-x="1146" d="M102 469q0 176 68 335t215 268.5t326.5 109.5t263.5 -82t84 -215q0 -193 -134 -287t-329 -94q-98 0 -193 22q-2 -20 -2 -63q0 -170 63.5 -256t152 -86t168 53t139.5 148q74 -16 73 -76q-180 -276 -465 -277q-172 0 -301 132t-129 368zM293 1513q0 53 31 146q57 8 100 8 q211 0 211 -147q0 -53 -31 -146q-57 -8 -100 -8q-211 0 -211 147zM412 612h30q178 0 263.5 92.5t85.5 221.5q0 53 -28 91t-81 38q-104 0 -175.5 -129.5t-94.5 -313.5zM723 1513q0 53 31 146q57 8 100 8q211 0 211 -147q0 -53 -31 -146q-57 -8 -100 -8q-211 0 -211 147z" />
<glyph unicode="&#xec;" horiz-adv-x="657" d="M133 1556q6 141 129 220q115 -47 235.5 -181.5t176.5 -259.5q-4 -23 -28.5 -42t-57.5 -25q-78 88 -202 170.5t-253 117.5zM178 336q0 86 33 311t33 350t-13 193q45 4 84 4q119 0 165 -40t46 -136q0 -31 -50 -323t-51 -481v-15q0 -177 24 -230q-160 41 -215.5 124 t-55.5 243z" />
<glyph unicode="&#xed;" horiz-adv-x="657" d="M152 1335q55 125 176 259.5t235 181.5q123 -78 129 -220q-129 -35 -253 -117.5t-201 -170.5q-33 6 -57.5 25t-28.5 42zM178 336q0 86 33 311t33 350t-13 193q45 4 84 4q119 0 165 -40t46 -136q0 -31 -50 -323t-51 -481v-15q0 -177 24 -230q-160 41 -215.5 124t-55.5 243z " />
<glyph unicode="&#xee;" horiz-adv-x="657" d="M49 1452q168 104 252 188l47 48q12 12 45 52t41 48q74 0 113 -41t53 -98.5t57 -151.5t113 -170q-76 -23 -157 -22.5t-115.5 44.5t-69.5 181q-106 -164 -274 -260q-103 69 -105 182zM178 336q0 86 33 311t33 350t-13 193q45 4 84 4q119 0 165 -40t46 -136q0 -31 -50 -323 t-51 -481v-15q0 -177 24 -230q-160 41 -215.5 124t-55.5 243z" />
<glyph unicode="&#xef;" horiz-adv-x="657" d="M2 1513q0 53 31 146q57 8 100 8q211 0 211 -147q0 -53 -31 -146q-57 -8 -100 -8q-211 0 -211 147zM178 336q0 86 33 311t33 350t-13 193q45 4 84 4q119 0 165 -40t46 -136q0 -31 -50 -323t-51 -481v-15q0 -177 24 -230q-160 41 -215.5 124t-55.5 243zM432 1513 q0 53 31 146q57 8 100 8q211 0 211 -147q0 -53 -31 -146q-57 -8 -100 -8q-211 0 -211 147z" />
<glyph unicode="&#xf0;" horiz-adv-x="1263" d="M102 517q0 271 160 431t383 160q156 0 293 -82q-4 137 -20 244q-90 -43 -147.5 -43t-89.5 34.5t-56 102.5q139 49 249 98q-72 227 -194 228q-84 0 -132 -61.5t-48 -176.5q-74 0 -125 46t-51 108q0 94 103 164.5t232 70.5q276 0 416 -274q111 57 173.5 57t92 -34 t58.5 -101q-113 -39 -258 -103q43 -168 43 -369.5t-39 -382.5t-115 -331.5t-202 -242t-293.5 -91.5t-300 138.5t-132.5 409.5zM397 467q0 -156 47.5 -253t136.5 -97t154.5 65.5t106.5 177.5q82 221 94 537q-100 74 -199 74q-143 0 -241.5 -140.5t-98.5 -363.5z" />
<glyph unicode="&#xf1;" horiz-adv-x="1282" d="M143 172q0 41 43 315.5t43 437t-34 300.5q150 -47 209 -134t59 -199t-25 -259q68 229 213.5 389t266 160t173 -75t52.5 -203t-40 -359.5t-40 -337t26.5 -153.5t90.5 -83q-27 -2 -76 -2q-172 0 -245 53.5t-73 186.5q0 76 41 296t41 329q0 135 -82 135q-47 0 -106 -55.5 t-114.5 -150.5t-92.5 -244.5t-37 -298t13 -220.5q-66 -4 -87 -4q-117 0 -168 41t-51 135zM412 1380q16 141 74.5 203t126 62t164.5 -29t136 -29q98 0 154 88q47 -8 55 -49q-16 -141 -74.5 -202.5t-126 -61.5t-165 28.5t-135.5 28.5q-98 0 -154 -88q-47 8 -55 49z" />
<glyph unicode="&#xf2;" horiz-adv-x="1263" d="M102 505q0 259 127 456.5t336 248.5q23 0 42.5 -13t19.5 -28q-207 -143 -248 -399q43 115 105.5 199t129.5 127q129 80 252 80t209 -121t86 -324q0 -227 -92 -418q-102 -215 -291 -297q-106 -47 -233 -47q-178 0 -310.5 138.5t-132.5 397.5zM397 489q0 -373 193 -372 q137 0 223 179t86 402q0 328 -160 328q-133 0 -237.5 -179.5t-104.5 -357.5zM430 1556q6 141 129 220q115 -47 235.5 -181.5t176.5 -259.5q-4 -23 -28.5 -42t-57.5 -25q-78 88 -202 170.5t-253 117.5z" />
<glyph unicode="&#xf3;" horiz-adv-x="1263" d="M102 505q0 259 127 456.5t336 248.5q23 0 42.5 -13t19.5 -28q-207 -143 -248 -399q43 115 105.5 199t129.5 127q129 80 252 80t209 -121t86 -324q0 -227 -92 -418q-102 -215 -291 -297q-106 -47 -233 -47q-178 0 -310.5 138.5t-132.5 397.5zM397 489q0 -373 193 -372 q137 0 223 179t86 402q0 328 -160 328q-133 0 -237.5 -179.5t-104.5 -357.5zM528 1335q55 125 176 259.5t236 181.5q123 -78 129 -220q-129 -35 -253 -117.5t-202 -170.5q-33 6 -57.5 25t-28.5 42z" />
<glyph unicode="&#xf4;" horiz-adv-x="1263" d="M102 505q0 259 127 456.5t336 248.5q23 0 42.5 -13t19.5 -28q-207 -143 -248 -399q43 115 105.5 199t129.5 127q129 80 252 80t209 -121t86 -324q0 -227 -92 -418q-102 -215 -291 -297q-106 -47 -233 -47q-178 0 -310.5 138.5t-132.5 397.5zM379 1452q168 104 252 188 l47 48q12 12 45 52t41 48q74 0 112.5 -41t53 -98.5t57.5 -151.5t113 -170q-76 -23 -157 -22.5t-115.5 44.5t-69.5 181q-106 -164 -275 -260q-102 69 -104 182zM397 489q0 -373 193 -372q137 0 223 179t86 402q0 328 -160 328q-133 0 -237.5 -179.5t-104.5 -357.5z" />
<glyph unicode="&#xf5;" horiz-adv-x="1263" d="M102 505q0 259 127 456.5t336 248.5q23 0 42.5 -13t19.5 -28q-207 -143 -248 -399q43 115 105.5 199t129.5 127q129 80 252 80t209 -121t86 -324q0 -227 -92 -418q-102 -215 -291 -297q-106 -47 -233 -47q-178 0 -310.5 138.5t-132.5 397.5zM397 489q0 -373 193 -372 q137 0 223 179t86 402q0 328 -160 328q-133 0 -237.5 -179.5t-104.5 -357.5zM426 1380q16 141 74.5 203t126 62t165 -29t136.5 -29q98 0 153 88q47 -8 56 -49q-16 -141 -74.5 -202.5t-126.5 -61.5t-165 28.5t-136 28.5q-98 0 -154 -88q-47 8 -55 49z" />
<glyph unicode="&#xf6;" horiz-adv-x="1263" d="M102 505q0 259 127 456.5t336 248.5q23 0 42.5 -13t19.5 -28q-207 -143 -248 -399q43 115 105.5 199t129.5 127q129 80 252 80t209 -121t86 -324q0 -227 -92 -418q-102 -215 -291 -297q-106 -47 -233 -47q-178 0 -310.5 138.5t-132.5 397.5zM352 1513q0 53 31 146 q57 8 100 8q211 0 211 -147q0 -53 -30 -146q-57 -8 -101 -8q-211 0 -211 147zM397 489q0 -373 193 -372q137 0 223 179t86 402q0 328 -160 328q-133 0 -237.5 -179.5t-104.5 -357.5zM782 1513q0 53 31 146q57 8 100 8q211 0 211 -147q0 -53 -30 -146q-57 -8 -101 -8 q-211 0 -211 147z" />
<glyph unicode="&#xf7;" d="M92 815q0 8 1 23.5t1 23.5q166 -23 293 -22.5t294 14.5t286.5 14t165 -56t45.5 -167q0 -8 -1 -23.5t-1 -23.5q-166 23 -293 23t-294 -14.5t-287 -14.5t-165 56t-45 167zM483 301q0 35 33 156q57 18 131 18q137 0 137 -115q0 -35 -32 -155q-59 -18 -131 -19 q-138 0 -138 115zM483 1098q0 35 33 155q57 18 131 19q137 0 137 -115q0 -35 -32 -156q-59 -18 -131 -18q-138 0 -138 115z" />
<glyph unicode="&#xf8;" horiz-adv-x="1263" d="M102 505q0 259 127 456.5t336 248.5q23 0 42.5 -13t19.5 -28q-207 -143 -248 -399q43 115 105.5 199t129.5 127q129 80 252 80t209 -121t86 -324q0 -227 -92 -418q-102 -215 -291 -297q-106 -47 -233 -47q-178 0 -310.5 138.5t-132.5 397.5zM274 -102q0 74 136 390 l285 671q151 355 175 501q14 -4 41 -22.5t43 -36.5q45 -51 45 -111.5t-121 -364.5l-257 -661q-135 -356 -160 -524q-20 0 -58 12t-63 28.5t-45.5 47.5t-20.5 70zM397 489q0 -373 193 -372q137 0 223 179t86 402q0 328 -160 328q-133 0 -237.5 -179.5t-104.5 -357.5z" />
<glyph unicode="&#xf9;" horiz-adv-x="1241" d="M145 340q0 113 34 314.5t34 306t-29 210.5q170 0 247 -44t77 -175q0 -70 -43 -276.5t-43 -310.5q0 -152 82 -152q41 0 94 56.5t102.5 149.5t83 233.5t33.5 284.5t-12 245q61 4 86 4q106 0 161.5 -39t55.5 -143q0 -33 -39 -288t-39 -437.5t39 -321.5q-154 49 -213 139 t-59 223q0 51 22 232q-63 -233 -193 -392t-245 -159q-236 0 -236 340zM330 1556q6 141 129 220q115 -47 235.5 -181.5t175.5 -259.5q-4 -23 -28.5 -42t-57.5 -25q-78 88 -201.5 170.5t-252.5 117.5z" />
<glyph unicode="&#xfa;" horiz-adv-x="1241" d="M145 340q0 113 34 314.5t34 306t-29 210.5q170 0 247 -44t77 -175q0 -70 -43 -276.5t-43 -310.5q0 -152 82 -152q41 0 94 56.5t102.5 149.5t83 233.5t33.5 284.5t-12 245q61 4 86 4q106 0 161.5 -39t55.5 -143q0 -33 -39 -288t-39 -437.5t39 -321.5q-154 49 -213 139 t-59 223q0 51 22 232q-63 -233 -193 -392t-245 -159q-236 0 -236 340zM463 1335q55 125 176 259.5t235 181.5q123 -78 130 -220q-129 -35 -253 -117.5t-202 -170.5q-33 6 -57.5 25t-28.5 42z" />
<glyph unicode="&#xfb;" horiz-adv-x="1241" d="M145 340q0 113 34 314.5t34 306t-29 210.5q170 0 247 -44t77 -175q0 -70 -43 -276.5t-43 -310.5q0 -152 82 -152q41 0 94 56.5t102.5 149.5t83 233.5t33.5 284.5t-12 245q61 4 86 4q106 0 161.5 -39t55.5 -143q0 -33 -39 -288t-39 -437.5t39 -321.5q-154 49 -213 139 t-59 223q0 51 22 232q-63 -233 -193 -392t-245 -159q-236 0 -236 340zM338 1452q168 104 252 188l47 48q12 12 45 52t41 48q74 0 112.5 -41t53 -98.5t57.5 -151.5t113 -170q-76 -23 -157 -22.5t-115.5 44.5t-69.5 181q-106 -164 -275 -260q-102 69 -104 182z" />
<glyph unicode="&#xfc;" horiz-adv-x="1241" d="M145 340q0 113 34 314.5t34 306t-29 210.5q170 0 247 -44t77 -175q0 -70 -43 -276.5t-43 -310.5q0 -152 82 -152q41 0 94 56.5t102.5 149.5t83 233.5t33.5 284.5t-12 245q61 4 86 4q106 0 161.5 -39t55.5 -143q0 -33 -39 -288t-39 -437.5t39 -321.5q-154 49 -213 139 t-59 223q0 51 22 232q-63 -233 -193 -392t-245 -159q-236 0 -236 340zM293 1513q0 53 31 146q57 8 100 8q211 0 211 -147q0 -53 -31 -146q-57 -8 -100 -8q-211 0 -211 147zM723 1513q0 53 31 146q57 8 100 8q211 0 211 -147q0 -53 -31 -146q-57 -8 -100 -8q-211 0 -211 147z " />
<glyph unicode="&#xfd;" horiz-adv-x="1056" d="M59 1147q113 53 180.5 53t102.5 -30.5t58.5 -122t33.5 -150.5q29 -197 29 -219.5t16.5 -183t24.5 -211.5q365 707 364 944q168 -86 168 -187q0 -72 -61.5 -193.5t-149.5 -269t-176 -314.5t-149.5 -377t-61.5 -410q0 -92 15 -176q-166 31 -225.5 91t-59.5 142 q0 113 164 444q-31 127 -76 398.5t-91.5 472.5t-105.5 299zM412 1335q55 125 176 259.5t235 181.5q123 -78 129 -220q-129 -35 -253 -117.5t-201 -170.5q-33 6 -57.5 25t-28.5 42z" />
<glyph unicode="&#xfe;" horiz-adv-x="1329" d="M78 -436q0 57 49 436q147 1133 147 1657q0 178 -24 239q154 -41 210 -123.5t56 -234.5q0 -102 -36 -387t-52 -449q104 225 237.5 328t264.5 103t214 -101.5t83 -294.5q0 -307 -168 -522t-404 -215q-84 0 -170 33q201 47 320 260t119 424q0 98 -36 159.5t-102 61.5 q-125 0 -221 -151.5t-147 -414.5t-51 -549t41 -497q-168 6 -249 54.5t-81 183.5z" />
<glyph unicode="&#xff;" horiz-adv-x="1056" d="M59 1147q113 53 180.5 53t102.5 -30.5t58.5 -122t33.5 -150.5q29 -197 29 -219.5t16.5 -183t24.5 -211.5q365 707 364 944q168 -86 168 -187q0 -72 -61.5 -193.5t-149.5 -269t-176 -314.5t-149.5 -377t-61.5 -410q0 -92 15 -176q-166 31 -225.5 91t-59.5 142 q0 113 164 444q-31 127 -76 398.5t-91.5 472.5t-105.5 299zM238 1513q0 53 30 146q57 8 101 8q211 0 211 -147q0 -53 -31 -146q-57 -8 -100 -8q-211 0 -211 147zM668 1513q0 53 30 146q57 8 101 8q211 0 211 -147q0 -53 -31 -146q-57 -8 -100 -8q-211 0 -211 147z" />
<glyph unicode="&#x152;" horiz-adv-x="2144" d="M102 792.5q0 327.5 163 583.5t435 324q16 -4 32 -16.5t18 -26.5q-264 -193 -320 -524q86 242 259 378t362 136q53 0 270 -25t403.5 -25t389.5 39q-12 -164 -150.5 -238.5t-341.5 -74.5q-78 0 -178 14q0 -2 -60 -471q61 -2 170 -2q195 0 277 68q4 -41 4 -62 q0 -186 -139 -186l-197 2q-90 0 -137 -2q-31 -272 -33 -467q481 0 715 78q-16 -184 -96 -251t-217 -67l-336 23q-156 0 -345.5 -25.5t-334 -25.5t-268 73.5t-197.5 196.5q-148 246 -148 573.5zM420 676q0 -256 85 -420t257 -164q80 0 159.5 27.5t116.5 66.5q6 68 67.5 543 t72.5 686q-100 51 -238.5 51t-260.5 -119.5t-190.5 -302t-68.5 -368.5z" />
<glyph unicode="&#x153;" horiz-adv-x="1892" d="M102 505q0 259 127 456.5t336 248.5q23 0 42.5 -13t19.5 -28q-207 -143 -248 -399q43 115 105.5 199t129.5 127q129 80 250 80q143 0 230 -154q154 160 383 160q160 0 243.5 -82t83.5 -215q0 -193 -134 -287t-329 -94q-106 0 -192 24q-2 -23 -2 -65q0 -170 63.5 -256 t151.5 -86t168 53t139 148q74 -16 74 -76q-180 -276 -465 -277q-201 0 -307 189q-164 -188 -426 -189q-178 0 -310.5 138.5t-132.5 397.5zM397 489q0 -373 193 -372q137 0 223 179t86 402q0 328 -160 328q-133 0 -237.5 -179.5t-104.5 -357.5zM1157 612h31q178 0 263 92.5 t85 221.5q0 53 -27.5 91t-81.5 38q-104 0 -175.5 -129.5t-94.5 -313.5z" />
<glyph unicode="&#x178;" horiz-adv-x="1157" d="M16 1591q84 53 177 54q49 0 82.5 -9.5t66.5 -42t56.5 -84t52.5 -149.5q49 -156 124 -533l15 -79q188 293 306 553t138 405q154 -86 154 -227q0 -152 -518 -899q-33 -276 -33 -426t29 -217q-174 45 -237.5 119.5t-63.5 188t30 324.5q-219 782 -379 1022zM301 1982 q0 53 31 146q57 8 100 8q211 0 211 -147q0 -53 -31 -146q-57 -8 -100 -8q-211 0 -211 147zM731 1982q0 53 31 146q57 8 100 8q211 0 211 -147q0 -53 -31 -146q-57 -8 -100 -8q-211 0 -211 147z" />
<glyph unicode="&#x2c6;" horiz-adv-x="921" d="M184 1452q168 104 252 188l47 48q12 12 45 52t41 48q74 0 113 -41t53.5 -98.5t57.5 -151.5t112 -170q-76 -23 -156.5 -22.5t-115.5 44.5t-70 181q-106 -164 -274 -260q-103 69 -105 182z" />
<glyph unicode="&#x2dc;" horiz-adv-x="921" d="M231 1380q16 141 75 203t126.5 62t164.5 -29t136 -29q98 0 154 88q47 -8 55 -49q-16 -141 -74.5 -202.5t-126 -61.5t-165 28.5t-136.5 28.5q-98 0 -153 -88q-48 8 -56 49z" />
<glyph unicode="&#x2013;" horiz-adv-x="1030" d="M41 735q0 8 1 23.5t1 23.5q143 -23 253 -22.5t258 14.5t252.5 14t143.5 -56t39 -167q0 -8 -1 -23.5t-1 -23.5q-143 23 -252.5 23t-258 -14.5t-253 -14.5t-143.5 56t-39 167z" />
<glyph unicode="&#x2014;" horiz-adv-x="1361" d="M41 735q0 8 1 23.5t1 23.5q195 -23 343.5 -22.5t348 14.5t341 14t193.5 -56t52 -167q0 -8 -1 -23.5t-1 -23.5q-195 23 -343.5 23t-348 -14.5t-341 -14.5t-193.5 56t-52 167z" />
<glyph unicode="&#x2018;" horiz-adv-x="313" d="M0 1274q0 133 96.5 255t280.5 218l59 -92q-162 -143 -162 -332q0 -68 31 -154q-80 -23 -153 -22q-152 0 -152 127z" />
<glyph unicode="&#x2019;" horiz-adv-x="507" d="M72 1239q162 143 161 332q0 68 -30 153q80 23 153 23q152 0 152 -127q0 -133 -96.5 -255t-280.5 -218z" />
<glyph unicode="&#x201a;" horiz-adv-x="428" d="M-39 -209q162 143 162 332q0 68 -31 153q80 23 154 23q152 0 151 -127q0 -133 -96 -255t-281 -218z" />
<glyph unicode="&#x201c;" horiz-adv-x="727" d="M0 1274q0 133 96.5 255t280.5 218l59 -92q-162 -143 -162 -332q0 -68 31 -154q-80 -23 -153 -22q-152 0 -152 127zM414 1323q0 133 96 255t281 218l59 -92q-162 -143 -162 -332q0 -68 31 -153q-80 -23 -154 -23q-151 0 -151 127z" />
<glyph unicode="&#x201d;" horiz-adv-x="921" d="M72 1190q162 143 161 332q0 68 -30 153q80 23 153 23q152 0 152 -127q0 -133 -96.5 -255t-280.5 -218zM485 1239q162 143 162 332q0 68 -31 153q80 23 154 23q152 0 152 -127q0 -133 -96.5 -255t-280.5 -218z" />
<glyph unicode="&#x201e;" horiz-adv-x="841" d="M-39 -209q162 143 162 332q0 68 -31 153q80 23 154 23q152 0 151 -127q0 -133 -96 -255t-281 -218zM375 -209q162 143 162 332q0 68 -31 153q80 23 153 23q152 0 152 -127q0 -133 -96.5 -255t-280.5 -218z" />
<glyph unicode="&#x2022;" horiz-adv-x="647" d="M143 610q0 51 45 209q88 25 174 25q182 0 183 -152q0 -51 -45 -209q-88 -25 -174 -24q-183 -1 -183 151z" />
<glyph unicode="&#x2026;" horiz-adv-x="1277" d="M61 104q0 41 37 175q72 20 146 20q152 0 151 -127q0 -41 -37 -174q-72 -20 -145 -21q-152 0 -152 127zM487 104q0 41 37 175q72 20 146 20q152 0 151 -127q0 -41 -37 -174q-72 -20 -145 -21q-152 0 -152 127zM913 104q0 41 37 175q72 20 146 20q152 0 151 -127 q0 -41 -37 -174q-72 -20 -145 -21q-152 0 -152 127z" />
<glyph unicode="&#x2039;" horiz-adv-x="813" d="M123 629l6 41q72 33 162 207q35 72 74 139q86 160 175 160t212 -113q-61 -20 -122 -88t-135.5 -178.5t-103.5 -147.5q23 -39 74 -148.5t97 -177t102 -87.5q-147 -113 -236 -113q-57 0 -100 69.5t-64.5 156.5t-58.5 172t-82 108z" />
<glyph unicode="&#x203a;" horiz-adv-x="813" d="M61 236q61 20 122 87.5t135.5 178t103.5 147.5q-23 39 -74 148.5t-97 177t-101 88.5q147 113 235 113q57 0 100 -70t64.5 -157t58.5 -172t82 -107l-6 -41q-72 -33 -160 -207l-73 -139q-88 -160 -177.5 -160t-212.5 113z" />
<glyph unicode="&#x20ac;" d="M-78 834l74 -3q72 0 168 11q61 281 250.5 456t478.5 175q150 0 222.5 -68t72.5 -164t-63.5 -163.5t-172.5 -67.5q-43 0 -84 14q43 29 73 79t30 98t-25.5 80t-75.5 32q-143 0 -251.5 -120t-161.5 -306q150 23 230.5 22.5t126.5 -39.5t69 -143q-35 18 -139.5 18t-321.5 -34 q-6 -55 -6 -109v-24q205 35 295 34.5t136 -39t68 -143.5q-35 18 -143 18.5t-338 -38.5q33 -145 113 -219t178 -74q197 0 371 237q70 -18 69 -67q-182 -342 -524 -342q-170 0 -300 107.5t-179 316.5q-45 -4 -58 -4q-135 0 -149 172l74 -2q33 0 110 4q-2 20 -2 62t2 65 q-53 -4 -67 -4q-136 0 -150 172z" />
<glyph unicode="&#x2122;" horiz-adv-x="1867" d="M12 1774q0 47 17 90q160 -27 330.5 -27t400.5 47q-27 -184 -180 -199l-107 -10q-80 -432 -80 -674q0 -92 31 -155q-133 35 -183.5 84t-50.5 121.5t7.5 158.5t14.5 138l25 168q17 117 21 147q-115 -4 -168 -4q-78 0 -78 115zM786 992.5q0 58.5 40 352t40 394.5 q-41 70 -78 102q63 43 144.5 43t131.5 -87t210 -505q121 174 205 341t94 251q131 -10 166 -45t35 -103.5t-40 -332.5t-40 -377t28 -180q-133 33 -182 82t-49 129t23.5 221t27.5 203l-221 -357q-43 -20 -102.5 -20t-83.5 29q-55 158 -125 317q-43 -293 -43 -395.5t4 -167.5 q-111 0 -148 23.5t-37 82z" />
<glyph unicode="&#xe000;" horiz-adv-x="1220" d="M0 1220h1220v-1220h-1220v1220z" />
<glyph unicode="&#xfb01;" horiz-adv-x="1378" d="M72 944q0 111 67.5 150t194.5 41q141 705 618 704q160 0 250 -85t90 -186.5t-63.5 -166t-177.5 -64.5q-47 0 -97 21q76 51 76 162q0 72 -40 123t-113 51q-94 0 -178.5 -133.5t-127.5 -432.5q182 0 267 68q4 -41 4 -61q0 -98 -35 -136t-122 -38t-134 2q-80 -582 -80 -834 q0 -121 5 -175t28 -185q-147 47 -217 152.5t-70 248.5q0 215 62 635q14 106 18 141q-109 -18 -221 -69q-4 44 -4 67zM911 336q0 86 33 311t33 350t-12 193q45 4 84 4q119 0 165 -40t46 -136q0 -31 -50.5 -323t-51.5 -481v-15q0 -177 24 -230q-160 41 -215.5 124t-55.5 243z " />
<glyph unicode="&#xfb02;" horiz-adv-x="1368" d="M72 944q0 111 67.5 150t194.5 41q84 410 256 563q158 139 334 139q352 0 352 -354q0 -88 -59.5 -566.5t-59.5 -683t25 -266.5q-154 41 -210.5 124t-56.5 219t57.5 593t57.5 610q0 76 -38 127.5t-115 51.5q-115 0 -184.5 -123t-119.5 -441q180 0 265 68q4 -41 4 -61 q0 -98 -35 -136t-122 -38t-134 2q-80 -582 -80 -834q0 -121 5 -175t28 -185q-147 47 -217 152.5t-70 248.5q0 215 62 635q14 106 18 141q-109 -18 -221 -69q-4 44 -4 67z" />
<glyph unicode="&#xfb03;" horiz-adv-x="2328" d="M72 944q0 111 67.5 150t194.5 41q41 201 109.5 346t150.5 219q156 143 326 143q115 0 193.5 -68.5t78.5 -168t-67.5 -173t-178.5 -73.5q-43 0 -84 14q33 25 64.5 86.5t31.5 115.5t-23.5 85t-62.5 31q-84 0 -171 -140.5t-130 -423.5q182 0 267 68q4 -41 4 -61 q0 -98 -35 -136t-122 -38t-134 2q-80 -582 -80 -834q0 -121 5 -175t28 -185q-147 47 -217 152.5t-70 248.5q0 215 62 635q14 106 18 141q-109 -18 -221 -69q-4 44 -4 67zM907 944q0 111 67.5 150t194.5 41q41 201 110 346t151 219q156 143 325 143q115 0 194 -68.5t79 -168 t-68 -173t-178 -73.5q-43 0 -84 14q33 25 64.5 86.5t31.5 115.5t-23.5 85t-62.5 31q-84 0 -171 -140.5t-130 -423.5q182 0 266 68q4 -41 4 -61q0 -98 -34.5 -136t-121.5 -38t-135 2q-80 -582 -79 -834q0 -121 5 -175t27 -185q-147 47 -216.5 152.5t-69.5 248.5q0 215 61 635 q14 106 19 141q-109 -18 -222 -69q-4 44 -4 67zM1849 336q0 86 33 311t33 350t-12 193q45 4 84 4q119 0 165 -40t46 -136q0 -31 -50.5 -323t-51.5 -481v-15q0 -177 24 -230q-160 41 -215.5 124t-55.5 243zM1917 1513q0 53 31 146q57 8 100 8q211 0 211 -147q0 -53 -31 -146 q-57 -8 -100 -8q-211 0 -211 147z" />
<glyph unicode="&#xfb04;" horiz-adv-x="2283" d="M72 944q0 111 67.5 150t194.5 41q41 201 109.5 346t150.5 219q156 143 326 143q115 0 193.5 -68.5t78.5 -168t-67.5 -173t-178.5 -73.5q-43 0 -84 14q33 25 64.5 86.5t31.5 115.5t-23.5 85t-62.5 31q-84 0 -171 -140.5t-130 -423.5q182 0 267 68q4 -41 4 -61 q0 -98 -35 -136t-122 -38t-134 2q-80 -582 -80 -834q0 -121 5 -175t28 -185q-147 47 -217 152.5t-70 248.5q0 215 62 635q14 106 18 141q-109 -18 -221 -69q-4 44 -4 67zM907 944q0 111 67.5 150t194.5 41q41 201 110 346t151 219q156 143 325 143q115 0 194 -68.5t79 -168 t-68 -173t-178 -73.5q-43 0 -84 14q33 25 64.5 86.5t31.5 115.5t-23.5 85t-62.5 31q-84 0 -171 -140.5t-130 -423.5q182 0 266 68q4 -41 4 -61q0 -98 -34.5 -136t-121.5 -38t-135 2q-80 -582 -79 -834q0 -121 5 -175t27 -185q-147 47 -216.5 152.5t-69.5 248.5q0 215 61 635 q14 106 19 141q-109 -18 -222 -69q-4 44 -4 67zM1808 248q0 80 69 628.5t69 753.5t-25 266q154 -41 210 -123.5t56 -234.5q0 -90 -59.5 -585.5t-59.5 -798.5q0 -66 9 -185q-186 8 -232 82q-25 41 -31 79t-6 118z" />
</font>
</defs>
</svg>
