<?xml version="1.0" encoding="UTF-8" standalone="no"?>
<svg
   xmlns:dc="http://purl.org/dc/elements/1.1/"
   xmlns:cc="http://creativecommons.org/ns#"
   xmlns:rdf="http://www.w3.org/1999/02/22-rdf-syntax-ns#"
   xmlns:svg="http://www.w3.org/2000/svg"
   xmlns="http://www.w3.org/2000/svg"
   xmlns:sodipodi="http://sodipodi.sourceforge.net/DTD/sodipodi-0.dtd"
   xmlns:inkscape="http://www.inkscape.org/namespaces/inkscape"
   version="1.1"
   width="27.426098"
   height="32"
   viewBox="0 0 27.426098 32"
   id="svg4"
   sodipodi:docname="dbmigrate.svg"
   inkscape:export-filename="C:\Users\slloy\Downloads\dbmate.png"
   inkscape:export-xdpi="540"
   inkscape:export-ydpi="540"
   inkscape:version="1.0.1 (3bc2e813f5, 2020-09-07)">
  <metadata
     id="metadata10">
    <rdf:RDF>
      <cc:Work
         rdf:about="">
        <dc:format>image/svg+xml</dc:format>
        <dc:type
           rdf:resource="http://purl.org/dc/dcmitype/StillImage" />
        <dc:title></dc:title>
      </cc:Work>
    </rdf:RDF>
  </metadata>
  <defs
     id="defs8" />
  <sodipodi:namedview
     pagecolor="#ffffff"
     bordercolor="#666666"
     borderopacity="1"
     objecttolerance="10"
     gridtolerance="10"
     guidetolerance="10"
     inkscape:pageopacity="0"
     inkscape:pageshadow="2"
     inkscape:window-width="1920"
     inkscape:window-height="1009"
     id="namedview6"
     showgrid="false"
     inkscape:zoom="2.8710938"
     inkscape:cx="87.865521"
     inkscape:cy="12.395136"
     inkscape:window-x="-8"
     inkscape:window-y="-8"
     inkscape:window-maximized="1"
     inkscape:current-layer="svg4"
     inkscape:document-rotation="0"
     fit-margin-top="0"
     fit-margin-left="0"
     fit-margin-right="0"
     fit-margin-bottom="0" />
  <path
     fill="#000000"
     d="m 13.728,13.728 q 4.224,0 7.904,-0.768 3.68,-0.768 5.792,-2.272 v 3.04 q 0,1.216 -1.824,2.272 -1.824,1.056 -5.024,1.664 -3.2,0.608 -6.848,0.64 -3.648,0.032 -6.88,-0.64 Q 3.616,16.992 1.856,16 0.096,15.008 0,13.728 v -3.04 q 2.112,1.504 5.792,2.272 3.68,0.768 7.936,0.768 z m 0,13.696 q 4.224,0 7.904,-0.768 3.68,-0.768 5.792,-2.272 v 3.04 q 0,1.248 -1.824,2.304 -1.824,1.056 -5.024,1.664 Q 17.376,32 13.728,32 10.08,32 6.848,31.392 3.616,30.784 1.856,29.728 0.096,28.672 0,27.424 v -3.04 q 2.112,1.504 5.792,2.272 3.68,0.768 7.936,0.768 z m 0,-6.848 q 4.224,0 7.904,-0.768 3.68,-0.768 5.792,-2.272 v 3.04 q 0,1.216 -1.824,2.272 -1.824,1.056 -5.024,1.664 -3.2,0.608 -6.848,0.64 -3.648,0.032 -6.88,-0.64 Q 3.616,23.84 1.856,22.848 0.096,21.856 0,20.576 v -3.04 q 2.112,1.504 5.792,2.272 3.68,0.768 7.936,0.768 z M 13.728,0 q 3.712,0 6.848,0.608 3.136,0.608 5.024,1.664 1.888,1.056 1.824,2.304 v 2.272 q 0,1.248 -1.824,2.304 -1.824,1.056 -5.024,1.664 -3.2,0.608 -6.848,0.608 -3.648,0 -6.88,-0.608 Q 3.616,10.208 1.856,9.152 0.096,8.096 0,6.848 V 4.576 Q 0,3.328 1.856,2.272 3.712,1.216 6.848,0.608 9.984,0 13.728,0 Z"
     id="path2"
     style="fill:#d35f5f" />
  <path
     fill="#000000"
     d="m 13.728,0 7.36,11.648004 H 6.368 Z m 0,32.000004 -7.36,-11.712 h 14.72 z"
     id="path2-6"
     style="fill:#aa0000" />
</svg>
