<svg xmlns="http://www.w3.org/2000/svg" width="27.426098" height="32" viewBox="0 0 27.426098 32">
  <path fill="#5f8fd3" d="m 13.728,13.728 q 4.224,0 7.904,-0.768 3.68,-0.768 5.792,-2.272 v 3.04 q 0,1.216 -1.824,2.272 -1.824,1.056 -5.024,1.664 -3.2,0.608 -6.848,0.64 -3.648,0.032 -6.88,-0.64 Q 3.616,16.992 1.856,16 0.096,15.008 0,13.728 v -3.04 q 2.112,1.504 5.792,2.272 3.68,0.768 7.936,0.768 z m 0,13.696 q 4.224,0 7.904,-0.768 3.68,-0.768 5.792,-2.272 v 3.04 q 0,1.248 -1.824,2.304 -1.824,1.056 -5.024,1.664 Q 17.376,32 13.728,32 10.08,32 6.848,31.392 3.616,30.784 1.856,29.728 0.096,28.672 0,27.424 v -3.04 q 2.112,1.504 5.792,2.272 3.68,0.768 7.936,0.768 z m 0,-6.848 q 4.224,0 7.904,-0.768 3.68,-0.768 5.792,-2.272 v 3.04 q 0,1.216 -1.824,2.272 -1.824,1.056 -5.024,1.664 -3.2,0.608 -6.848,0.64 -3.648,0.032 -6.88,-0.64 Q 3.616,23.84 1.856,22.848 0.096,21.856 0,20.576 v -3.04 q 2.112,1.504 5.792,2.272 3.68,0.768 7.936,0.768 z M 13.728,0 q 3.712,0 6.848,0.608 3.136,0.608 5.024,1.664 1.888,1.056 1.824,2.304 v 2.272 q 0,1.248 -1.824,2.304 -1.824,1.056 -5.024,1.664 -3.2,0.608 -6.848,0.608 -3.648,0 -6.88,-0.608 Q 3.616,10.208 1.856,9.152 0.096,8.096 0,6.848 V 4.576 Q 0,3.328 1.856,2.272 3.712,1.216 6.848,0.608 9.984,0 13.728,0 Z"/>
  <path fill="#d35f5f" d="m 13.728,0 7.36,11.648004 H 6.368 Z m 0,32.000004 -7.36,-11.712 h 14.72 z"/>
</svg>
