<?xml version="1.0" encoding="UTF-8" standalone="no"?>
<svg
   xmlns:dc="http://purl.org/dc/elements/1.1/"
   xmlns:cc="http://creativecommons.org/ns#"
   xmlns:rdf="http://www.w3.org/1999/02/22-rdf-syntax-ns#"
   xmlns:svg="http://www.w3.org/2000/svg"
   xmlns="http://www.w3.org/2000/svg"
   xmlns:sodipodi="http://sodipodi.sourceforge.net/DTD/sodipodi-0.dtd"
   xmlns:inkscape="http://www.inkscape.org/namespaces/inkscape"
   version="1.1"
   id="svg3877"
   x="0px"
   y="0px"
   width="782.09332"
   height="216.67799"
   viewBox="0 0 782.09331 216.67799"
   enable-background="new 0 0 782.093 314.859"
   xml:space="preserve"
   sodipodi:docname="fedex.svg"
   inkscape:version="1.0.1 (3bc2e813f5, 2020-09-07)"><metadata
   id="metadata34"><rdf:RDF><cc:Work
       rdf:about=""><dc:format>image/svg+xml</dc:format><dc:type
         rdf:resource="http://purl.org/dc/dcmitype/StillImage" /><dc:title></dc:title></cc:Work></rdf:RDF></metadata><defs
   id="defs32">
	
	
	
	
	
	
	
	
	
	
</defs><sodipodi:namedview
   pagecolor="#ffffff"
   bordercolor="#666666"
   borderopacity="1"
   objecttolerance="10"
   gridtolerance="10"
   guidetolerance="10"
   inkscape:pageopacity="0"
   inkscape:pageshadow="2"
   inkscape:window-width="1648"
   inkscape:window-height="896"
   id="namedview30"
   showgrid="false"
   fit-margin-top="0"
   fit-margin-left="0"
   fit-margin-right="0"
   fit-margin-bottom="0"
   inkscape:zoom="1.3885816"
   inkscape:cx="391.04581"
   inkscape:cy="157.431"
   inkscape:window-x="199"
   inkscape:window-y="36"
   inkscape:window-maximized="0"
   inkscape:current-layer="svg3877" />
<g
   id="g382"
   transform="translate(389.5523,287.0385)">
		<g
   id="g3">
			<path
   id="path384_8_"
   fill="#ff6600"
   d="m 342.267,-98.491 c 0,-14.842 11.779,-24.857 25.137,-24.857 13.369,0 25.137,10.016 25.137,24.857 0,14.844 -11.768,24.869 -25.137,24.869 -13.358,0.001 -25.137,-10.025 -25.137,-24.869 m 25.265,-2.807 c 4.281,0 5.488,-2.285 5.488,-4.282 0,-2.402 -1.207,-4.271 -5.488,-4.271 h -5.457 v 8.554 h 5.457 z m -5.457,3.866 v 13.646 h -4.42 v -30.08 h 10.955 c 6.406,0 9.365,2.808 9.365,8.285 0,3.354 -2.285,6.033 -5.211,6.418 v 0.128 c 2.52,0.405 3.459,2.69 4.004,6.834 0.406,2.659 0.928,7.347 1.879,8.415 h -5.221 c -1.207,-2.809 -1.068,-6.813 -2.008,-10.156 -0.791,-2.541 -2.137,-3.49 -5.072,-3.49 z m 25.649,-1.059 c 0,-12.033 -8.543,-20.854 -20.32,-20.854 -11.768,0 -20.32,8.82 -20.32,20.854 0,12.035 8.553,20.844 20.32,20.844 11.777,0 20.32,-8.808 20.32,-20.844" />
		</g>
	</g><g
   id="g386"
   transform="translate(381.3963,285.115)">
		<g
   id="g7">
			<path
   id="path388_8_"
   fill="#ff6600"
   d="m 263.333,-76.028 -28.979,-32.503 -28.714,32.503 h -60.404 l 59.049,-66.363 -59.049,-66.364 h 62.295 l 29.258,32.237 28.168,-32.237 h 60.139 l -58.771,66.097 59.572,66.63 z" />
		</g>
	</g><g
   id="g390"
   transform="translate(359.4672,285.115)">
		<g
   id="g11">
			<path
   id="path392_8_"
   fill="#ff6600"
   d="m 51.104,-76.028 v -209.075 h 116.049 v 46.599 h -66.887 v 29.749 h 66.887 v 44.848 h -66.887 v 41.153 h 66.887 v 46.727 H 51.104 Z" />
		</g>
	</g><g
   id="g394"
   transform="translate(352.1,288.096)">
		<path
   id="path396"
   fill="#412c91"
   d="m -20.196,-110.839 c -18.046,0 -29.268,-16.818 -29.268,-34.373 0,-18.761 9.77,-36.807 29.268,-36.807 20.225,0 28.286,18.046 28.286,36.807 0,17.801 -8.542,34.373 -28.286,34.373 m -173.955,-55.441 c 3.086,-13.262 13.39,-21.954 26.247,-21.954 14.159,0 23.929,8.425 26.502,21.954 z M 9.51,-288.095 v 85.573 H 8.976 c -10.839,-12.461 -24.378,-16.796 -40.086,-16.796 -32.194,0 -56.433,21.89 -64.943,50.817 -9.706,-31.874 -34.735,-51.415 -71.852,-51.415 -30.144,0 -53.935,13.529 -66.364,35.579 v -27.4 h -62.295 v -29.749 h 67.987 v -46.609 H -352.1 V -79.01 h 55.536 v -87.89 h 55.355 c -1.655,6.46 -2.542,13.379 -2.542,20.662 0,43.62 33.326,74.222 75.846,74.222 35.76,0 59.327,-16.785 71.777,-47.389 h -47.581 c -6.45,9.193 -11.33,11.928 -24.196,11.928 -14.928,0 -27.795,-13.017 -27.795,-28.468 h 96.914 c 4.207,34.649 31.19,64.527 68.211,64.527 15.975,0 30.614,-7.858 39.552,-21.132 H 9.51 v 13.539 H 58.469 V -288.096 H 9.51 Z" />
	</g><g
   id="g402"
   transform="translate(367.6394,279.7738)">
		
	</g>
</svg>
