<?xml version="1.0" encoding="UTF-8" standalone="no"?>
<svg
   height="409.4342"
   viewBox="1.116 1.453 48.447999 27.428665"
   width="668.69836"
   version="1.1"
   id="svg3"
   xmlns="http://www.w3.org/2000/svg"
   xmlns:svg="http://www.w3.org/2000/svg">
  <defs
     id="defs3" />
  <path
     d="m 49.564,0.33533277 -42.153,0.002 -0.025,0.14 c 0,0 24.781,5.09000003 25.272,5.17600003 5.694,1.005 5.517,2.104 5.517,2.104 3.99,-0.02 4.48,0.141 5.178,0.723 2.098,1.7520002 -1.312,6.9160002 -1.312,6.9160002 -0.488,0.36 -37.352,14.596 -37.352,14.596 H 43.257 L 49.563,0.33633277 Z M 27.659,7.1913328 c -1.117,-0.008 -1.904,0.008 -1.994,0.002 H 5.958 L 1.116,29.999333 c 0,0 14.831,-7.278 16.645,-8.21 3.717,-1.91 8.856,-4.432 13.605,-6.05 0.905,-0.306 4.782,-1.501 7.04,-1.904 0.875,-0.156 1.247,-0.305 1.236,-0.468 -0.034,-0.468 -0.914,-0.499 -2.404,-0.426 -4.547,0.214 -13.258,3.683 -15.766,5.006 L 18.641,9.1733328 h 18.087 c 0.61,-1.706 -5.717,-1.954 -9.07,-1.98 z m 9.59,2.114 c -0.131,0 -0.244,0.088 -0.396,0.295 -0.139,0.178 -0.252,0.299 -0.612,0.4800002 -0.558,0.275 -2.019,0.429 -2.703,0.486 -0.656,0.055 -0.834,0.122 -0.845,0.375 -0.007,0.227 0.097,0.356 1.039,0.356 2.166,0 6.065,-0.817 7.24,-0.443 0.62,0.198 0.122,1.303 -0.387,2.756 -0.197,0.56 0.19,0.521 0.414,0.275 0.225,-0.248 1.236,-2.099 1.346,-3.041 0.156,-1.3390002 -0.992,-1.5400002 -2.576,-1.5400002 h -2.52 z"
     fill="#15569c"
     id="path2" />
</svg>
